<svg width="86" height="80" viewBox="0 0 86 80" fill="none" xmlns="http://www.w3.org/2000/svg">
<path d="M18.4894 0.0100098C18.4894 0.0100098 68.2294 0.0799829 74.2594 1.91998C82.3294 4.38998 83.9293 8.39 83.8893 17.81C83.8093 33.29 83.8892 48.5 85.3292 63.91C86.2792 74.11 84.0893 78.33 74.1693 78.85C56.3993 79.79 38.3294 79.84 20.5594 78.66C10.8794 78.02 -0.940578 76.64 0.0594216 63.18C0.889422 51.95 0.849197 41.38 0.329197 30.11C-0.010803 22.7 -0.520598 12.72 2.7894 5.92999C5.9494 -0.550007 12.2794 0.13 18.4894 0V0.0100098Z" fill="white"/>
<path d="M47.3784 55.3003C47.0284 55.3003 46.6684 55.1803 46.3784 54.9403L33.3584 44.2503C32.3584 43.4303 31.7585 42.0303 31.7285 40.4103C31.6885 38.7703 32.2586 37.2603 33.2486 36.3803L46.3284 24.6603C46.9784 24.0803 47.9786 24.1303 48.5586 24.7803C49.1386 25.4303 49.0885 26.4303 48.4385 27.0103L35.3584 38.7303C35.1184 38.9403 34.8784 39.5403 34.8884 40.3403C34.9084 41.0603 35.1384 41.6203 35.3684 41.8103L48.3884 52.5003C49.0584 53.0503 49.1584 54.0503 48.6084 54.7203C48.2984 55.1003 47.8384 55.3003 47.3884 55.3003H47.3784Z" fill="#0E2938"/>
</svg>
