<svg width="86" height="80" viewBox="0 0 86 80" fill="none" xmlns="http://www.w3.org/2000/svg">
<path d="M18.4894 0.0100098C18.4894 0.0100098 68.2294 0.0799829 74.2594 1.91998C82.3294 4.38998 83.9293 8.39 83.8893 17.81C83.8093 33.29 83.8892 48.5 85.3292 63.91C86.2792 74.11 84.0893 78.33 74.1693 78.85C56.3993 79.79 38.3294 79.84 20.5594 78.66C10.8794 78.02 -0.940578 76.64 0.0594216 63.18C0.889422 51.95 0.849197 41.38 0.329197 30.11C-0.010803 22.7 -0.520598 12.72 2.7894 5.92999C5.9494 -0.550007 12.2794 0.13 18.4894 0V0.0100098Z" fill="#EB593D"/>
<path d="M35.7299 55.3002C35.2999 55.3002 34.8599 55.1203 34.5499 54.7703C33.9699 54.1203 34.0198 53.1202 34.6698 52.5402L47.7499 40.8202C47.9899 40.6102 48.2299 40.0203 48.2199 39.2103C48.1999 38.4903 47.9699 37.9302 47.7399 37.7402L34.7199 27.0502C34.0499 26.5002 33.9499 25.5002 34.4999 24.8302C35.0499 24.1602 36.0499 24.0602 36.7199 24.6102L49.7399 35.3002C50.7399 36.1202 51.3398 37.5202 51.3698 39.1402C51.3998 40.7802 50.8397 42.2902 49.8497 43.1702L36.7699 54.8902C36.4699 55.1602 36.0899 55.2902 35.7199 55.2902L35.7299 55.3002Z" fill="white"/>
</svg>
