<svg width="436" height="103" viewBox="0 0 436 103" fill="none" xmlns="http://www.w3.org/2000/svg">
<path d="M431.444 17C431.244 16.6 430.944 16.2001 430.644 15.7001C430.444 15.4001 430.144 15.1001 429.944 14.7001C429.444 14.0001 428.844 13.4 428.244 12.8C427.644 12.2 426.944 11.6001 426.244 11.1001C425.644 10.6001 424.944 10.2 424.344 9.80005C422.844 8.90005 421.244 8.00005 419.544 7.30005C418.644 6.90005 417.644 6.5001 416.744 6.1001C416.044 5.8001 415.244 5.50005 414.444 5.30005C413.544 5.00005 412.744 4.7 411.844 4.5C410.944 4.2 410.044 4.00007 409.144 3.70007C407.344 3.20007 405.544 2.8 403.644 2.5C402.744 2.3 401.844 2.2 400.944 2C400.144 1.9 399.344 1.7001 398.544 1.6001C396.744 1.3001 394.944 1.10002 393.144 0.900024C389.444 0.500024 385.844 0.300073 382.144 0.200073C378.244 0.100073 374.344 0 370.544 0C363.144 0 355.744 0.200049 348.244 0.300049C344.644 0.400049 340.944 0.5 337.344 0.5C333.544 0.6 329.744 0.700024 325.944 0.900024C318.644 1.20002 311.344 1.40007 304.144 1.70007C296.644 2.00007 289.244 2.4001 281.744 2.6001C277.944 2.7001 274.144 2.80005 270.244 2.80005C266.644 2.80005 262.944 2.80005 259.344 2.80005C252.044 2.70005 244.644 2.6001 237.344 2.6001C233.644 2.6001 149.144 2.60007 145.444 2.70007C141.944 2.70007 138.444 2.8 134.944 3C131.144 3.1 127.444 3.30002 123.644 3.40002C119.944 3.50002 116.244 3.70002 112.544 3.90002C109.044 4.10002 105.444 4.3 101.944 4.5C98.3445 4.8 94.7444 5.00005 91.1444 5.30005C87.4444 5.60005 83.6445 5.8001 79.9445 6.1001C76.3445 6.4001 72.8445 6.60005 69.2445 6.80005C67.0445 6.90005 64.7444 7.0001 62.5444 7.1001C60.3444 7.2001 58.0444 7.20007 55.8444 7.20007C53.6444 7.20007 51.3444 7.30002 49.1444 7.40002C47.0444 7.50002 44.9445 7.5001 42.9445 7.6001C41.3445 7.6001 39.7444 7.70005 38.1444 7.80005C36.4444 7.90005 34.7444 7.9 33.0444 8C31.1444 8.1 29.1445 8.20002 27.2445 8.40002C25.6445 8.50002 24.0445 8.8001 22.4445 9.1001C20.9445 9.4001 19.3444 9.7001 17.8444 10.1001C16.0444 10.6001 14.3445 11.1 12.7445 11.8C11.2445 12.5 9.84444 13.3 8.54444 14.3C7.84444 14.9 7.14444 15.5001 6.54444 16.1001C6.04444 16.7001 5.54444 17.3 5.04444 17.9C4.64444 18.5 4.24443 19.1 3.84443 19.8C3.54443 20.4 3.14443 21.1001 2.84443 21.7001C2.24443 23.1001 1.74447 24.5 1.44447 26C1.04447 27.5 0.84442 29.1001 0.64442 30.7001C0.44442 32.2001 0.344457 33.7001 0.244457 35.2001C0.144457 36.7001 0.0444444 38.2001 0.0444444 39.7001C0.0444444 41.1001 -0.0555556 42.5 0.0444444 44C0.144444 47 0.244444 49.9 0.544444 52.9C0.744444 56 1.04446 59.1001 1.24446 62.1001C1.44446 65.0001 1.74444 67.8001 2.04444 70.7001C2.34444 73.4001 2.54443 76.1 2.84443 78.8C3.04443 80.3 3.24442 81.9 3.64442 83.4C4.04442 84.9 4.64447 86.4 5.44447 87.8C6.24447 89.2 7.14446 90.6 8.24446 91.8C8.84446 92.4 9.44442 93.0001 10.1444 93.6001C10.6444 94.0001 11.2444 94.5 11.8444 94.8C13.1444 95.7 14.5444 96.4001 16.0444 97.1001C16.9444 97.5001 17.7444 97.8001 18.6444 98.2001C19.4444 98.5001 20.2444 98.7 21.1444 99C22.7444 99.5 24.4444 99.8001 26.1444 100.1C27.7444 100.4 29.3444 100.7 30.8444 100.9C34.4444 101.4 38.0444 101.7 41.6444 101.8C48.8444 102.2 56.1444 102.3 63.3444 102.3C67.1444 102.3 70.9445 102.4 74.7445 102.4C78.3445 102.4 81.9444 102.5 85.6444 102.5C92.9444 102.5 100.244 102.5 107.544 102.4C113.944 102.4 120.444 102.3 126.844 102C130.344 101.9 133.844 101.7 137.444 101.7C141.144 101.6 144.744 101.6 148.444 101.5C151.344 101.4 235.044 101.3 237.944 101.2C244.244 101.2 250.644 101.2 256.944 101.2C271.644 101.2 286.344 101.1 301.044 101.2C308.444 101.2 315.944 101.3 323.344 101.3C330.744 101.3 338.144 101.3 345.444 101.3C349.044 101.3 352.644 101.3 356.244 101.3C359.944 101.3 363.644 101.3 367.344 101.4C370.844 101.4 374.444 101.5 377.944 101.5C381.644 101.5 385.344 101.6 389.044 101.5C392.644 101.5 396.244 101.4 399.744 101.4C403.244 101.3 406.744 101.3 410.244 101.1C411.144 101.1 412.144 101 413.044 100.9C413.944 100.8 414.844 100.7 415.744 100.5C417.344 100.2 418.844 100 420.344 99.6001C421.344 99.3001 422.344 99.1001 423.244 98.7001C424.044 98.3001 424.844 97.9 425.644 97.4C427.044 96.5 428.244 95.4 429.244 94.3C429.844 93.6 430.244 92.9001 430.644 92.2001C430.944 91.6001 431.344 91 431.544 90.3C432.144 88.8 432.644 87.4 433.144 85.9C434.044 83.1 434.544 80.2 434.844 77.3C435.244 74.5 435.444 71.6 435.544 68.8C435.544 67.3 435.644 65.9 435.644 64.4C435.644 63 435.744 61.6001 435.744 60.2001C435.744 58.7001 435.744 57.1001 435.744 55.6001V54.1001C435.744 53.2001 435.744 52.3 435.744 51.4V50.6001C435.744 47.9001 435.744 45.2 435.644 42.5C435.644 41.8 435.544 41.1 435.544 40.4C435.544 40.1 435.544 39.9001 435.444 39.6001C435.444 39.4001 435.444 39.3001 435.444 39.1001C435.444 38.8001 435.444 38.5001 435.344 38.1001C435.144 36.7001 434.944 35.3 434.744 33.9C434.344 31.1 433.944 28.4001 433.644 25.6001C433.244 22.9001 432.944 19.8 431.444 17Z" fill="#B51F35"/>
<path d="M391.775 50.7852C391.775 53.6699 390.969 55.9189 389.355 57.5322C387.756 59.1455 385.514 59.9521 382.629 59.9521C380.865 59.9521 379.218 59.6924 377.687 59.1729C376.169 58.6533 374.904 57.8877 373.893 56.876C373.113 57.7783 372.211 58.4346 371.186 58.8447C370.16 59.2412 368.916 59.4395 367.453 59.4395V53.4717L368.848 52.2207C369.928 52.2207 370.762 51.9883 371.35 51.5234C371.951 51.0449 372.546 50.1562 373.134 48.8574L374.262 46.7041C375.328 44.5166 376.552 42.9102 377.933 41.8848C379.313 40.8457 381.002 40.3262 382.998 40.3262C385.541 40.3262 387.64 41.2969 389.294 43.2383C390.948 45.166 391.775 47.6816 391.775 50.7852ZM383.203 47.4219C381.672 47.4219 380.421 47.7021 379.45 48.2627C378.479 48.8096 377.687 49.7188 377.071 50.9902C377.892 51.5371 378.869 51.9609 380.004 52.2617C381.152 52.5625 382.28 52.7129 383.388 52.7129C384.714 52.7129 385.678 52.5283 386.279 52.1592C386.895 51.79 387.202 51.1953 387.202 50.375C387.202 49.5 386.833 48.7891 386.095 48.2422C385.37 47.6953 384.406 47.4219 383.203 47.4219Z" fill="white"/>
<path d="M364.028 30.2363C364.616 30.8242 364.91 31.5693 364.91 32.4717C364.91 33.374 364.616 34.1191 364.028 34.707C363.44 35.2949 362.702 35.5889 361.813 35.5889C360.911 35.5889 360.152 35.2949 359.537 34.707C358.922 34.1191 358.614 33.374 358.614 32.4717C358.614 31.5693 358.922 30.8242 359.537 30.2363C360.152 29.6348 360.911 29.334 361.813 29.334C362.702 29.334 363.44 29.6348 364.028 30.2363ZM356.748 30.2363C357.35 30.8242 357.65 31.5693 357.65 32.4717C357.65 33.374 357.35 34.1191 356.748 34.707C356.16 35.2949 355.422 35.5889 354.533 35.5889C353.631 35.5889 352.879 35.2949 352.277 34.707C351.689 34.1191 351.396 33.374 351.396 32.4717C351.396 31.5693 351.689 30.8242 352.277 30.2363C352.879 29.6348 353.631 29.334 354.533 29.334C355.422 29.334 356.16 29.6348 356.748 30.2363ZM348.565 59.4395H345.879V53.4717L347.273 52.2207H349.796C348.976 50.8262 348.565 49.3428 348.565 47.7705C348.565 45.0771 349.502 42.7734 351.375 40.8594C353.262 38.9316 355.531 37.9678 358.184 37.9678C359.92 37.9678 361.499 38.4189 362.921 39.3213C364.356 40.21 365.471 41.3994 366.264 42.8896C367.07 44.3799 367.474 45.9932 367.474 47.7295C367.474 49.2607 366.968 50.7578 365.956 52.2207H368.868V58.0449L367.474 59.4395H366.264C363.064 59.4395 360.139 58.9609 357.486 58.0039C354.615 58.9609 351.642 59.4395 348.565 59.4395ZM353.446 48.0576C353.446 48.8779 353.884 49.5957 354.759 50.2109C355.647 50.8125 356.919 51.2842 358.573 51.626C361.267 50.9561 362.613 49.8486 362.613 48.3037C362.613 47.4287 362.162 46.6904 361.26 46.0889C360.357 45.4873 359.223 45.1934 357.855 45.207C356.529 45.207 355.463 45.4805 354.656 46.0273C353.85 46.5742 353.446 47.251 353.446 48.0576Z" fill="white"/>
<path d="M346.41 38.6855C346.41 39.4238 346.157 40.0459 345.651 40.5518C345.146 41.0439 344.517 41.29 343.765 41.29C343.013 41.29 342.384 41.0439 341.878 40.5518C341.372 40.0459 341.119 39.4238 341.119 38.6855C341.119 37.9062 341.365 37.2637 341.857 36.7578C342.363 36.252 342.999 35.999 343.765 35.999C344.53 35.999 345.159 36.252 345.651 36.7578C346.157 37.2637 346.41 37.9062 346.41 38.6855ZM340.114 38.6855C340.114 39.4238 339.861 40.0459 339.355 40.5518C338.863 41.0439 338.234 41.29 337.469 41.29C336.717 41.29 336.088 41.0439 335.582 40.5518C335.076 40.0459 334.823 39.4238 334.823 38.6855C334.823 37.9062 335.069 37.2637 335.562 36.7578C336.067 36.252 336.703 35.999 337.469 35.999C338.248 35.999 338.884 36.252 339.376 36.7578C339.868 37.2637 340.114 37.9062 340.114 38.6855ZM347.251 58.0449L345.877 59.4395C343.826 59.4395 342.186 58.9951 340.955 58.1064C339.725 57.2041 338.952 55.8984 338.638 54.1895C338.405 55.8984 337.763 57.2041 336.71 58.1064C335.657 58.9951 334.242 59.4395 332.465 59.4395V53.4717L333.859 52.2207C335.199 52.2207 336.136 51.9268 336.669 51.3389C337.202 50.7373 337.469 49.7393 337.469 48.3447V43.6895H343.724V48.3447C343.724 49.835 343.977 50.8535 344.482 51.4004C344.988 51.9473 345.911 52.2207 347.251 52.2207V58.0449Z" fill="white"/>
<path d="M311.875 59.4395H299.652V53.5947L301.047 52.2207H303.18C303.426 51.7148 303.822 50.9834 304.369 50.0264V27.8164H311.075V42.0078C313.851 39.875 316.879 38.8086 320.16 38.8086C323.141 38.8086 325.554 39.7793 327.399 41.7207C329.259 43.6484 330.188 46.0273 330.188 48.8574C330.188 49.7461 330.079 50.6143 329.86 51.4619C330.667 51.9678 331.993 52.2207 333.839 52.2207V57.9629L332.465 59.4395C329.689 59.4395 327.687 58.3867 326.456 56.2812C323.421 58.3867 318.561 59.4395 311.875 59.4395ZM319.996 46.0889C315.594 46.0889 311.588 48.1328 307.979 52.2207H313.311C316.373 52.2207 318.766 52.1182 320.488 51.9131C322.225 51.708 323.462 51.3867 324.2 50.9492C324.952 50.498 325.328 49.8828 325.328 49.1035C325.328 48.2832 324.836 47.5791 323.852 46.9912C322.881 46.3896 321.596 46.0889 319.996 46.0889Z" fill="white"/>
<path d="M292.434 30.2363C293.035 30.8242 293.336 31.5693 293.336 32.4717C293.336 33.374 293.035 34.1191 292.434 34.707C291.832 35.2949 291.08 35.5889 290.178 35.5889C289.289 35.5889 288.544 35.2949 287.942 34.707C287.341 34.1191 287.04 33.374 287.04 32.4717C287.04 31.5693 287.341 30.8242 287.942 30.2363C288.544 29.6348 289.289 29.334 290.178 29.334C291.08 29.334 291.832 29.6348 292.434 30.2363ZM280.765 59.4395H278.078V53.4717L279.473 52.2207H281.995C281.175 50.8262 280.765 49.3428 280.765 47.7705C280.765 45.0771 281.701 42.7734 283.574 40.8594C285.461 38.9316 287.73 37.9678 290.383 37.9678C292.119 37.9678 293.698 38.4189 295.12 39.3213C296.556 40.21 297.67 41.3994 298.463 42.8896C299.27 44.3799 299.673 45.9932 299.673 47.7295C299.673 49.2607 299.167 50.7578 298.155 52.2207H301.067V58.0449L299.673 59.4395H298.463C295.264 59.4395 292.338 58.9609 289.686 58.0039C286.814 58.9609 283.841 59.4395 280.765 59.4395ZM285.646 48.0576C285.646 48.8779 286.083 49.5957 286.958 50.2109C287.847 50.8125 289.118 51.2842 290.772 51.626C293.466 50.9561 294.812 49.8486 294.812 48.3037C294.812 47.4287 294.361 46.6904 293.459 46.0889C292.557 45.4873 291.422 45.1934 290.055 45.207C288.729 45.207 287.662 45.4805 286.855 46.0273C286.049 46.5742 285.646 47.251 285.646 48.0576Z" fill="white"/>
<path d="M278.037 59.4395H277.463C274.551 59.4395 272.459 58.6875 271.188 57.1836C269.93 55.6797 269.301 53.3076 269.301 50.0674V27.8164H276.027V48.5293C276.027 49.9375 276.267 50.9082 276.745 51.4414C277.237 51.9609 278.146 52.2207 279.473 52.2207V58.0449L278.037 59.4395Z" fill="white"/>
<path d="M254.887 39.7314C254.887 40.6201 254.586 41.3652 253.984 41.9668C253.396 42.5547 252.665 42.8486 251.79 42.8486C250.888 42.8486 250.129 42.5479 249.514 41.9463C248.898 41.3447 248.591 40.6064 248.591 39.7314C248.591 38.8291 248.898 38.0771 249.514 37.4756C250.129 36.8604 250.888 36.5527 251.79 36.5527C252.665 36.5527 253.396 36.8604 253.984 37.4756C254.586 38.0771 254.887 38.8291 254.887 39.7314ZM247.627 39.7314C247.627 40.6201 247.326 41.3652 246.725 41.9668C246.137 42.5547 245.398 42.8486 244.51 42.8486C243.607 42.8486 242.849 42.5547 242.233 41.9668C241.632 41.3652 241.331 40.6201 241.331 39.7314C241.331 38.8291 241.632 38.0771 242.233 37.4756C242.849 36.8604 243.607 36.5527 244.51 36.5527C245.398 36.5527 246.137 36.8604 246.725 37.4756C247.326 38.0771 247.627 38.8291 247.627 39.7314ZM265.899 48.7344C265.899 52.6035 264.464 55.4404 261.593 57.2451C258.735 59.0498 254.265 59.9521 248.181 59.9521C241.96 59.9521 237.462 59.0088 234.687 57.1221C231.911 55.2217 230.523 52.1729 230.523 47.9756C230.523 45.8838 230.763 43.9629 231.241 42.2129H237.414C237.031 43.9082 236.84 45.3506 236.84 46.54C236.84 48.6729 237.701 50.1904 239.424 51.0928C241.16 51.9814 244.079 52.4258 248.181 52.4258C252.501 52.4258 255.488 52.1045 257.143 51.4619C258.811 50.8057 259.645 49.6162 259.645 47.8936C259.645 46.1982 259.405 43.8193 258.927 40.7568H265.264C265.688 43.792 265.899 46.4512 265.899 48.7344Z" fill="white"/>
<path d="M218.728 59.4395H212.062V27.8164H218.728V59.4395Z" fill="white"/>
<path d="M209.89 56.6709L206.424 63.0078L204.599 62.0029C202.671 60.9775 200.825 60.2939 199.062 59.9521C197.312 59.6104 194.775 59.4395 191.453 59.4395V53.4717L192.848 52.2207C195.021 52.2207 196.758 52.4463 198.057 52.8975C197.387 52.1865 196.915 51.4209 196.642 50.6006C196.382 49.7803 196.252 48.7754 196.252 47.5859V27.8164H202.938V47.5859C202.938 49.7051 203.225 51.2773 203.799 52.3027C204.387 53.3145 205.556 54.292 207.306 55.2354L209.89 56.6709Z" fill="white"/>
<path d="M192.847 58.0449L191.514 59.3574C191.008 62.625 189.798 65.1611 187.884 66.9658C185.97 68.7842 183.27 69.6934 179.783 69.6934C177.637 69.6934 175.47 69.4404 173.282 68.9346V62.249C175.511 62.7549 177.623 63.0078 179.619 63.0078C181.889 63.0078 183.598 62.7412 184.746 62.208C185.895 61.6748 186.667 60.752 187.063 59.4395H182.142C179.038 59.4395 176.659 58.6943 175.005 57.2041C173.351 55.7139 172.523 53.6562 172.523 51.0312C172.523 49.1582 172.94 47.4014 173.774 45.7607C174.622 44.1201 175.784 42.8076 177.261 41.8232C178.751 40.8252 180.378 40.3262 182.142 40.3262C184.644 40.3262 186.742 41.3652 188.438 43.4434C190.133 45.5078 191.186 48.4336 191.596 52.2207H192.847V58.0449ZM181.26 52.2207H186.94C186.476 50.5664 185.696 49.3018 184.603 48.4268C183.509 47.5381 182.183 47.0938 180.624 47.0938C179.612 47.0938 178.778 47.3809 178.122 47.9551C177.466 48.5156 177.138 49.1924 177.138 49.9854C177.138 50.751 177.466 51.3184 178.122 51.6875C178.778 52.043 179.824 52.2207 181.26 52.2207Z" fill="white"/>
<path d="M170.33 49.6982C170.33 53.0205 169.571 55.5635 168.054 57.3271C166.55 59.0771 164.479 59.9521 161.84 59.9521C160.172 59.9521 158.709 59.5488 157.451 58.7422C156.193 57.9219 155.387 56.8076 155.031 55.3994C154.799 56.8623 154.238 57.9902 153.35 58.7832C152.461 59.5625 151.292 59.9521 149.843 59.9521C148.229 59.9521 146.89 59.5146 145.823 58.6396C144.771 57.7646 144.094 56.5342 143.793 54.9482C143.533 56.3975 142.87 57.5117 141.804 58.291C140.737 59.0566 139.295 59.4395 137.477 59.4395V53.4717L138.871 52.2207C140.156 52.2207 141.093 51.9404 141.681 51.3799C142.269 50.8193 142.562 49.9102 142.562 48.6523V46.6221H148.817V48.6523C148.817 49.9785 149.009 50.9492 149.392 51.5645C149.774 52.166 150.383 52.4668 151.217 52.4668C152.734 52.4668 153.493 51.1953 153.493 48.6523L153.452 46.6221H159.707L159.748 48.6523C159.748 49.9238 159.953 50.8809 160.363 51.5234C160.773 52.1523 161.307 52.4668 161.963 52.4668C163.371 52.4668 164.075 51.4756 164.075 49.4932C164.075 48.0029 163.809 46.0547 163.275 43.6484H169.694C170.118 45.8906 170.33 47.9072 170.33 49.6982Z" fill="white"/>
<path d="M114.262 73.0977H107.535V59.9111C107.535 56.8213 108.171 54.4424 109.442 52.7744C110.714 51.0928 112.683 50.0537 115.349 49.6572C115.581 46.8682 116.538 44.6191 118.22 42.9102C119.915 41.1875 122.055 40.3262 124.639 40.3262C126.977 40.3262 128.863 40.8457 130.299 41.8848C131.748 42.9238 133.054 44.7012 134.216 47.2168L134.585 48.0166C135.351 49.6846 136.007 50.8057 136.554 51.3799C137.114 51.9404 137.887 52.2207 138.871 52.2207V58.0449L137.497 59.4395C135.966 59.4395 134.694 59.0977 133.683 58.4141C132.671 57.7168 131.741 56.5205 130.894 54.8252C130.401 56.6025 129.574 57.9014 128.412 58.7217C127.25 59.542 125.712 59.9521 123.798 59.9521C120.79 59.9521 118.521 58.8994 116.989 56.7939C115.95 56.8896 115.232 57.1904 114.836 57.6963C114.453 58.1885 114.262 59.0088 114.262 60.1572V73.0977ZM119.942 50.416C119.942 51.1543 120.257 51.7217 120.886 52.1182C121.528 52.5146 122.417 52.7129 123.552 52.7129C126.546 52.7129 128.46 52.2549 129.294 51.3389C128.104 48.7275 126.286 47.4219 123.839 47.4219C122.636 47.4219 121.686 47.709 120.988 48.2832C120.291 48.8574 119.942 49.5684 119.942 50.416Z" fill="white"/>
<path d="M86.2881 59.4395V38.8496L80.6484 42.2949V35.876L87.334 31.3027H94.0195V59.4395H86.2881Z" fill="white"/>
<path d="M51.8422 68.1999C51.4422 68.1999 51.1422 68.0999 50.8422 67.7999L37.8422 57.0999C36.8422 56.2999 36.2422 54.8999 36.2422 53.2999C36.2422 51.6999 36.7422 50.1998 37.7422 49.2998L50.8422 37.5999C51.5422 36.9999 52.4422 37.0999 53.0422 37.6999C53.6422 38.2999 53.5422 39.2998 52.9422 39.8998L39.8422 51.5999C39.6422 51.7999 39.3422 52.3999 39.3422 53.1999C39.3422 53.8999 39.6422 54.4999 39.8422 54.6999L52.8422 65.3998C53.5422 65.9998 53.6422 66.8999 53.0422 67.5999C52.7422 67.9999 52.3422 68.1999 51.8422 68.1999Z" fill="white"/>
</svg>
