<svg width="101" height="122" viewBox="0 0 101 122" fill="none" xmlns="http://www.w3.org/2000/svg">
<path d="M70.5999 121.1L70.3999 121C69.4999 120.5 68.7998 119.7 68.1998 118.3C66.4998 114.3 64.6999 110.2 62.8999 106.3L61.9998 104.3C60.3998 100.7 58.7998 97.0999 57.1998 93.3999C56.8998 92.6999 56.3998 92 55.0998 92H54.9998C53.4998 92 51.9999 92.1001 50.3999 92.1001C48.8999 92.1001 47.2999 92.1 45.8999 92H45.7998C44.5998 92 44.0998 92.5999 43.6998 93.3999C42.1998 96.7999 40.6998 100.3 39.1998 103.7L38.6998 104.9C36.7998 109.3 34.7998 113.8 32.7998 118.2C32.1998 119.6 31.4998 120.4 30.5998 120.9L30.3999 121H28.8999L28.6998 120.9C27.6998 120.4 26.9999 119.6 26.3999 118.3C24.9999 114.9 23.4998 111.5 22.0998 108.3L20.1998 103.9L11.8999 106.7C9.69985 107.5 7.39985 108.2 5.09985 109C4.39985 109.2 3.89985 109.3 3.39985 109.3C2.59985 109.3 1.89985 109 1.29985 108.3C0.499847 107.4 0.19985 106.4 1.09985 104.4C2.79985 100.5 4.49985 96.6002 6.29985 92.7002L6.79985 91.6001C9.09985 86.4001 11.4998 80.9998 13.7998 75.7998C14.2998 74.7998 14.1998 74.1002 13.4998 73.2002C5.59984 62.5002 2.79985 48.8001 5.89985 35.6001C8.99985 22.4001 17.5998 11.3998 29.4998 5.2998C36.0998 1.8998 43.1998 0.200195 50.4998 0.200195C60.6998 0.200195 70.6998 3.6999 78.6998 9.8999C87.0998 16.4999 92.7998 25.5001 95.0998 36.1001C98.0998 49.5001 95.4999 61.9998 87.3999 73.2998C86.7999 74.0998 86.7998 74.8002 87.1998 75.7002C91.2998 84.9002 95.5999 94.6999 99.7999 104.4C100.2 105.3 100.4 106.4 100.2 107.2C99.9998 108.4 98.8999 109.2 97.4999 109.2C97.0999 109.2 96.6998 109.1 96.1998 109C92.9998 107.9 89.7998 106.8 86.6998 105.8L82.1998 104.3C81.9998 104.2 81.7998 104.2 81.5998 104.1L80.6998 103.8L77.4998 111.2C76.4998 113.4 75.4999 115.8 74.5999 118.1C73.9999 119.5 73.2999 120.3 72.3999 120.7L72.1998 120.8L70.5999 121.1ZM22.1998 97.2998C23.1998 97.2998 24.0998 97.6999 25.0998 99.8999L29.6998 110.6L38.4998 90.7002L37.8999 90.5C30.8999 88.4 24.7999 85 19.3999 80L18.7998 79.3999L9.09985 101.4L20.0998 97.6001C20.8998 97.4001 21.5998 97.2998 22.1998 97.2998ZM71.2999 110.5L71.9998 109C72.0998 108.8 72.1998 108.7 72.1998 108.5L73.5999 105.4C74.4999 103.4 75.2998 101.4 76.1998 99.3999C76.7998 97.9999 77.6999 97.2998 78.8999 97.2998C79.2999 97.2998 79.7999 97.4 80.2999 97.5C80.9998 97.7 81.7999 97.9998 82.4999 98.2998C82.9999 98.4998 83.4999 98.5998 83.9999 98.7998L91.9999 101.5L82.2999 79.5L81.6998 80.1001C76.2998 85.0001 70.2998 88.5001 63.1998 90.6001L62.5998 90.7998L71.2999 110.5ZM50.3999 6.2998H49.3999C28.0999 6.8998 10.6998 24.7998 10.6998 46.2998C10.6998 56.8998 14.7998 66.9 22.2998 74.5C29.7998 82.1 39.7999 86.2998 50.3999 86.2998H50.4998C72.3998 86.2998 90.2999 68.5001 90.2999 46.6001C90.2999 35.9001 86.1999 25.8001 78.5999 18.1001C71.2999 10.8001 61.6998 6.5999 51.4998 6.3999H50.5998L50.3999 6.2998Z" fill="#EB593D"/>
<path d="M63.0999 66.7998C62.5999 66.7998 62.0999 66.6999 61.5999 66.3999L61.3999 66.2998C58.1999 64.5998 54.8998 62.9002 51.6998 61.2002C51.1998 61.0002 50.7999 60.7998 50.3999 60.7998C49.9999 60.7998 49.5998 60.9002 49.1998 61.2002C47.5998 62.1002 45.8999 62.9998 44.2999 63.7998L44.1998 63.8999C42.7998 64.6999 41.2999 65.4002 39.8999 66.2002C39.0999 66.6002 38.3999 66.7998 37.7999 66.7998C37.1999 66.7998 36.6998 66.6002 36.1998 66.2002C35.0998 65.4002 34.7999 64.3002 35.0999 62.7002C35.3999 60.9002 35.6999 59.0999 35.9999 57.3999C36.2999 55.6999 36.5999 53.9002 36.8999 52.2002C37.0999 51.0002 36.5999 50.3999 36.0999 49.8999C34.9999 48.8999 33.8999 47.7998 32.8999 46.7998L32.2999 46.2002C30.9999 45.0002 29.7999 43.7 28.4999 42.5C27.2999 41.3 26.8999 40.2 27.3999 39C27.7999 37.8 28.6999 37.1999 30.3999 36.8999C32.1999 36.6999 33.9998 36.4002 35.6998 36.2002L36.1998 36.1001C37.6998 35.9001 39.2999 35.5999 40.7999 35.3999C41.7999 35.2999 42.4999 34.7998 42.8999 33.7998C44.3999 30.5998 45.9999 27.3998 47.4999 24.2998L47.6998 24C48.2998 22.8 49.2999 22.2001 50.5999 22.1001C51.7999 22.2001 52.5998 22.8 53.1998 24C53.6998 25.1 54.9999 27.6001 54.9999 27.6001C55.9999 29.7001 57.0999 31.7999 58.0999 33.8999C58.4999 34.6999 58.9999 35.0998 59.8999 35.2998C61.5999 35.4998 63.3999 35.8 65.0999 36C66.9999 36.3 68.7998 36.4998 70.6998 36.7998C72.2998 36.9998 73.1998 37.6999 73.6998 38.8999C74.0998 40.0999 73.7999 41.1999 72.5999 42.3999C71.3999 43.5999 70.1999 44.6999 68.9999 45.8999C67.5998 47.1999 66.1999 48.6 64.7999 50C63.9999 50.8 63.9999 51.5998 64.0999 52.2998C64.4999 54.5998 64.8999 56.9001 65.2999 59.1001L65.3999 59.8999C65.5999 60.9999 65.7999 62.1002 65.9999 63.2002C66.1999 64.5002 65.8999 65.4998 64.7999 66.2998C64.2999 66.5998 63.6999 66.7998 63.0999 66.7998ZM37.6998 42.7002C38.0998 43.1002 38.3999 43.4998 38.7999 43.7998L39.0999 44.1001C40.0999 45.2001 41.0999 46.2002 42.0999 47.2002C43.1999 48.3002 43.5999 49.4 43.2999 51C42.9999 52.3 42.7999 53.7001 42.5999 55.1001C42.5999 55.1001 42.2999 57.0999 42.0999 58.3999L43.1998 57.7998C43.7998 57.4998 44.2999 57.2 44.7999 57L44.9999 56.8999C46.2999 56.1999 47.4998 55.5999 48.6998 54.8999C49.3998 54.4999 50.0999 54.2998 50.7999 54.2998C51.4999 54.2998 52.1999 54.4999 52.8999 54.8999C54.0999 55.5999 55.2999 56.1998 56.4999 56.7998C56.5999 56.7998 57.7999 57.5002 58.2999 57.7002L59.3999 58.2998C59.1999 56.9998 58.8999 55.5001 58.8999 55.1001C58.5999 53.6001 58.3998 52.1998 58.1998 50.7998C57.8998 49.2998 58.2999 48.2001 59.2999 47.1001C60.2999 46.1001 61.2999 45 62.2999 44C62.7999 43.5 63.1999 43.0001 63.5999 42.6001L64.3999 41.7998L61.4999 41.3999C60.0998 41.1999 58.6999 40.9998 57.2999 40.7998C55.6999 40.5998 54.6999 39.9 54.0999 38.5C53.4999 37.2 52.8999 35.9998 52.2999 34.7998L50.7999 31.7002L50.2999 32.7998C49.9999 33.2998 49.7999 33.7998 49.5999 34.2998L49.4999 34.5C48.7999 35.8 48.1998 37.0002 47.6998 38.2002C46.9998 39.9002 45.8999 40.5998 43.9999 40.7998C42.6999 40.8998 41.3999 41.0998 40.0999 41.2998C39.4999 41.3998 38.9999 41.5001 38.3999 41.6001L37.2999 41.7998L37.6998 42.7002Z" fill="#EB593D"/>
</svg>
