<?xml version="1.0" encoding="UTF-8"?>
<svg id="Layer_1" data-name="Layer 1" xmlns="http://www.w3.org/2000/svg" viewBox="0 0 1800 900">
  <defs>
    <style>
      .cls-1 {
        opacity: .25;
      }

      .cls-1, .cls-2 {
        fill: #91b8b3;
      }

      .cls-3 {
        fill: #f79421;
      }

      .cls-4 {
        font-family: GraphikArabic-Super, 'Graphik Arabic';
        font-size: 48px;
      }

      .cls-5 {
        fill: #eb593d;
      }

      .cls-6 {
        font-family: GraphikArabic-Medium, 'Graphik Arabic';
        font-size: 36px;
        font-weight: 500;
      }

      .cls-7 {
        fill: #0e2938;
      }

      .cls-8 {
        fill: #b51f35;
      }

      .cls-9 {
        fill: #ff961a;
      }

      .cls-10 {
        fill: #fff;
      }

      .cls-11 {
        fill: #deeae9;
      }
    </style>
  </defs>
  <rect class="cls-11" width="1800" height="900"/>
  <path class="cls-1" d="M203.24,624.07s-7.22-385.56,23.13-431.72c30.34-46.16,23.89-80.66,317.68-69.73,293.78,10.93,564.11,5.74,705.18-1.64,141.07-7.38,281.12-37.13,283.88,89.41,0,0,17.55,234.02,8.37,384.55-9.18,150.53-65.22,194.31-262.07,185.23-106.44-4.91-212.65-12.28-319.42-14.04-104.93-1.73-208.69,8.66-313.39,8.82-76.31.12-147.56-13.13-222.28-20.93-43.7-4.56-93.6.27-135.66-8.22-72-14.53-82.44-77.54-85.42-121.73Z"/>
  <text class="cls-7" transform="translate(716.08 460.99)"><tspan class="cls-4"><tspan x="0" y="0">قريباً الموسم الثاني</tspan></tspan><tspan class="cls-6"><tspan x="-1.93" y="75">لأكبر مسابقة بودكاست أدبي</tspan></tspan><tspan class="cls-6"><tspan x="79.67" y="123">في الوطن العربي</tspan></tspan></text>
  <g>
    <path class="cls-7" d="M778.2,712.49c8.71,0,16.49-4.66,13.38-16.61-3.11-11.95,1.94-20.46.7-32.01-1.24-11.55-1.58-18.11-1.58-18.11-.62-3.24,3.67-7.36-10.95-8.78-14.62-1.42-27.27.92-32.3.92-11.99,0-25.56,7.89-24.93,20.25.62,12.36,0,46.85,0,49.89s3.73,3.65,6.84,4.25,15.56.81,15.56.81l33.29-.61Z"/>
    <path class="cls-5" d="M955.98,637.63c-8.94,0-16.93,4.6-13.73,16.41,3.19,11.81.96,20.22,2.24,31.63,1.28,11.41,3.19,18.42,3.19,18.42.64,3.2-2.55,6.21,12.46,7.61,15.01,1.4,40.56-.6,45.67-1s7.98-1,7.35-13.21c-.64-12.21,0-52.45,0-55.45s-3.83-3.6-7.03-4.2-15.97-.8-15.97-.8l-34.17.6Z"/>
    <path class="cls-2" d="M927.46,712.49c8.71,0,16.49-4.66,13.38-16.61-3.11-11.95-.93-20.46-2.18-32.01-1.24-11.55-3.11-18.64-3.11-18.64-.62-3.24,2.49-6.28-12.13-7.7-14.62-1.42-39.51.61-44.49,1.01s-7.78,1.01-7.16,13.37c.62,12.36,0,53.08,0,56.12s3.73,3.65,6.84,4.25,15.56.81,15.56.81l33.29-.61Z"/>
    <path class="cls-9" d="M810.8,637.63c-8.54,0-16.17,4.6-13.12,16.41,3.05,11.81-2.22,20.16-1,31.57,1.22,11.41,3.05,18.42,3.05,18.42.61,3.2.7,6.26,15.03,7.66,14.34,1.4,38.74-.6,43.62-1s7.63-1,7.02-13.21,0-52.45,0-55.45-3.66-3.6-6.71-4.2c-3.05-.6-15.25-.8-15.25-.8l-32.64.6Z"/>
    <path class="cls-8" d="M1031.97,712.49c-8.71,0-16.49-4.66-13.38-16.61,3.11-11.95-1.94-20.46-.7-32.01,1.24-11.55,1.58-18.11,1.58-18.11.62-3.24-3.67-7.36,10.95-8.78,14.62-1.42,27.27.92,32.3.92,11.99,0,25.56,7.89,24.93,20.25s0,46.85,0,49.89-3.73,3.65-6.84,4.25c-3.11.61-15.56.81-15.56.81l-33.29-.61Z"/>
  </g>
  <g>
    <g>
      <path class="cls-5" d="M737.67,262.84c1.9-.1,3.76-.27,5.52-.48,2.76-.32,5.51-.74,8.25-1.19,2.42-.39,4.82-.89,7.24-1.29,1.2-.2,2.42-.41,3.64-.43,1.57-.02,3.09.36,4.56.9,1.8.67,3.53,1.49,5.15,2.52,2.75,1.75,5.47,3.54,8.24,5.25,1.46.9,2.98,1.73,4.72,1.99,1.59.24,2.85-.11,3.4-1.81.28-.87,0-1.69-.54-2.43-.99-1.39-1.78-2.89-2.25-4.55-.65-2.28.47-3.02,2.26-3.42,2.59-.57,4.97-1.58,7.05-3.24,2.28-1.81,3.85-4.14,4.99-6.81.9-2.11,1.41-4.31,1.8-6.54.19-1.1.25-2.22.35-3.33.46-5.61.14-11.22.21-16.83.02-1.68-.12-3.37-.21-5.05-.06-1.26-.14-2.53-.22-3.79-.07-1.28-.15-2.57-.22-3.85-.08-1.68-.17-3.37-.21-5.05-.06-2.38-.06-4.77-.12-7.16-.04-1.65-.08-3.3-.23-4.94-.21-2.43-.64-4.83-1.53-7.12-.66-1.68-1.57-3.21-2.73-4.6-1.79-2.14-4.06-3.59-6.55-4.73-2.05-.94-4.22-1.57-6.43-1.98-1.51-.28-3.03-.54-4.55-.75-.91-.13-1.83-.17-2.75-.24-1.93-.15-3.85-.3-5.78-.43-.72-.05-1.45-.08-2.17-.11-1.74-.08-3.48-.14-5.22-.22-1.5-.07-3-.14-4.5-.22-.13,0-.25-.07-.38-.11h-8.44c-.11.04-.22.11-.33.11-2.45.09-4.85.51-7.21,1.15-3.02.81-5.77,2.21-8.39,3.89,0,0-5.59,2.94-15.3,13.79-2.22,2.48-3.75,5.34-4.54,8.56-.37,1.49-.57,3.04-.67,4.57-.13,1.98-.18,3.97-.11,5.95.07,1.89.34,3.77.52,5.65.12,1.24.24,2.48.33,3.72.13,1.77.17,3.54.35,5.3.18,1.76.05,3.51-.13,5.25-.14,1.38-.26,2.76-.45,4.13-.19,1.4-.45,2.79-.68,4.19-.28,1.66-.66,3.31-.82,4.98-.18,1.89-.32,3.81-.21,5.71.18,2.93,1.05,5.7,2.8,8.12,1.22,1.69,2.76,3.02,4.6,4.02,5.15,2.82,11.77,3.29,17.91,2.97Z"/>
      <g>
        <g>
          <path class="cls-8" d="M919.06,338.27c0,6.08-4.89,11.01-10.91,11.01s-10.91-4.93-10.91-11.01,4.89-11.01,10.91-11.01,10.91,4.93,10.91,11.01"/>
          <path class="cls-2" d="M908.14,359.83c-11.78,0-21.36-9.67-21.36-21.56s9.58-21.56,21.36-21.56,21.36,9.67,21.36,21.56-9.58,21.56-21.36,21.56M908.14,319.92c-10.03,0-18.18,8.23-18.18,18.35s8.16,18.35,18.18,18.35,18.18-8.23,18.18-18.35-8.16-18.35-18.18-18.35"/>
        </g>
        <rect class="cls-3" x="1042.75" y="219.85" width="22.47" height="3.21"/>
        <path class="cls-3" d="M1081.9,260.45v6.98c0,2.85-1.1,4.88-2.49,6.18-3.16,2.43-7.09,3.9-11.37,3.9-9.1,0-16.69-6.53-18.42-15.2-1.73,8.67-9.32,15.2-18.42,15.2s-16.69-6.53-18.42-15.2c-1.63,8.16-8.45,14.42-16.83,15.13v36.56c8.38-.71,15.2-6.97,16.83-15.13,1.73,8.67,9.32,15.2,18.42,15.2s16.69-6.53,18.42-15.2c1.73,8.67,9.32,15.2,18.42,15.2,4.55,0,8.72-1.63,11.98-4.35,4.22-3.52,6.45-8.93,6.45-14.45v-25.34c0-7.98-4.56-9.47-4.56-9.47"/>
        <path class="cls-2" d="M930.89,211.09c0,3.73-3,6.76-6.7,6.76-2.06,0-3.91-.95-5.14-2.44-1.23,1.49-3.08,2.44-5.14,2.44-3.69,0-6.7-3.03-6.7-6.76v-1.61h3.18v1.61c0,1.96,1.58,3.55,3.52,3.55s3.52-1.59,3.52-3.55v-1.61h3.25v1.61c0,1.96,1.58,3.55,3.52,3.55s3.52-1.59,3.52-3.55v-1.61h3.18v1.61Z"/>
        <path class="cls-2" d="M900.66,244.26c-19.09,0-31.24,16.61-31.24,35.11,0,.1,0,3.95.01,10.32,4.3-22.3,18.92-15.85,37.56-3.86-11.01-.7-21.82,2.47-29.15,10.16-7.98,8.37-8.41,18.12-8.41,18.12,0-.01,1.42-8.15,8.93-12.55,8.96-5.25,24.6-5.37,49.95,9.27,31.34,18.09,48.82,2.64,48.82,2.64h0v-35.97c-34.93.5-45.9-33.22-76.48-33.22Z"/>
        <path class="cls-5" d="M843.98,204.59c-4.35,3.8-6.85,9.32-6.85,15.13v66.38c0,22.23-17.86,40.26-39.89,40.26-28.93,0-43.23-21.46-43.23-21.46-7.32-9.74-6.39-25.34-6.39-25.34-3.76,9.28-4.66,20.42-4.66,28.9,0,30.1,24.18,54.5,54,54.5s54-24.4,54-54.5v-110.1l-6.98,6.23Z"/>
      </g>
    </g>
    <path class="cls-10" d="M765.1,201.94c-.01.1-.03.2-.04.3-.4,2.96-1.35,5.83-3.77,7.72-2.72,2.13-5.98,3.17-9.09,4.56-3.1,1.38-6.36,2.45-9.69,3.13-2.81.58-4.18,1.92-4.76,4.77-.39,1.92-.6,3.9-.72,5.86-.12,1.93-.21,3.89.02,5.8.3,2.57.73,5.17,1.46,7.65.87,3,3.37,4.4,6.26,4.69,4.4.44,8.84.64,13.27.71,3.43.05,6.88-.17,10.31-.45,2.04-.16,4.08-.36,6.12-.63,2.19-.28,3.9-2.03,4.14-4.23.47-4.26,1.08-10.94.53-12.72-.83-2.68-4.4-.67-4.4-.67-1.53.59-3.19.92-4.82,1.09-2.32.23-4.66.27-7,.4-.15,0-.3.02-.45.02-2.76.15-5.53.11-8.29.07-1.76-.02-3.53-.04-5.27-.28-.61-.08-1.23-.18-1.24-.86-.01-.74,1.1-1.06,1.64-1.22.96-.29,1.93-.52,2.88-.83.13-.04.27-.09.4-.13,2.56-.82,5.11-1.7,7.67-2.54s4.95-1.64,7.23-2.91c3.17-1.76,5.96-5.09,7.19-8.74,1.07-3.18.69-6.88,1.03-10.19.37-3.61-.04-7.32-1.27-10.74-1.34-3.7-4.7-5.8-8.42-6.58-3.69-.78-7.47-.89-11.23-.72-3.34.15-6.71.35-9.97,1.14-2.58.63-5.66,1.53-7.03,4.02-.63,1.15-1.12,2.53-1.19,3.82v6.83c0,2.25,1.82,4.07,4.07,4.07h12.67c.9,0,1.67-.65,1.83-1.54.42-2.48.98-6.08,3.9-6.78.87-.21,1.77-.16,2.66-.11.63.03,1.3.08,1.85.39,1.89,1.09,1.76,3.91,1.52,5.83Z"/>
  </g>
</svg>