<svg width="1086" height="1809" viewBox="0 0 1086 1809" fill="none" xmlns="http://www.w3.org/2000/svg">
<rect width="1085.03" height="1808.39" fill="#DEEAE9"/>
<path opacity="0.25" d="M125.468 1139.51C125.468 1139.51 120.969 478.715 139.88 399.603C158.786 320.491 154.766 261.362 337.831 280.095C520.89 298.827 689.336 289.932 777.239 277.284C865.142 264.635 952.409 213.648 954.129 430.521C954.129 430.521 965.064 831.601 959.344 1089.59C953.624 1347.58 918.705 1422.61 796.045 1407.05C729.72 1398.64 663.539 1386 597.009 1382.99C531.626 1380.02 466.972 1397.83 401.732 1398.1C354.182 1398.31 309.785 1375.6 263.226 1362.23C235.996 1354.42 204.902 1362.7 178.694 1348.14C133.83 1323.24 127.324 1215.25 125.468 1139.51Z" fill="#91B8B3"/>
<path d="M343.896 892.952C343.896 896.382 341.306 898.972 337.876 898.972C334.376 898.972 331.716 896.382 331.716 892.952C331.716 889.452 334.376 886.792 337.876 886.792C341.306 886.792 343.896 889.452 343.896 892.952ZM341.726 938.382C341.726 947.342 329.546 953.992 313.446 953.992C295.806 953.992 287.126 946.572 287.126 931.382C287.126 927.952 287.476 924.102 288.246 920.322H301.196C300.706 923.332 300.426 925.642 300.426 927.952C300.426 934.602 305.396 937.892 315.546 937.892C324.786 937.892 330.736 936.982 330.736 935.302C330.736 934.112 328.846 933.342 323.946 933.342H316.036V917.942H329.056C331.646 917.942 333.116 917.032 333.116 914.092C333.116 911.222 332.696 907.372 331.856 902.472H345.156C345.996 907.862 346.416 912.762 346.416 916.892C346.416 924.382 342.986 929.352 336.966 930.822C340.396 932.852 341.726 935.092 341.726 938.382ZM326.326 963.372C326.326 966.802 323.736 969.392 320.306 969.392C316.806 969.392 314.146 966.802 314.146 963.372C314.146 959.872 316.806 957.212 320.306 957.212C323.736 957.212 326.326 959.872 326.326 963.372ZM312.746 963.372C312.746 966.802 310.156 969.392 306.726 969.392C303.226 969.392 300.566 966.802 300.566 963.372C300.566 959.872 303.226 957.212 306.726 957.212C310.156 957.212 312.746 959.872 312.746 963.372ZM367.396 935.722H365.996C355.076 935.722 351.296 930.542 351.296 919.482V883.712H365.716V915.492C365.716 919.342 366.626 920.322 370.196 920.322V932.922L367.396 935.722ZM386.686 889.242C386.686 891.972 384.656 894.072 381.856 894.072C379.056 894.072 376.956 891.972 376.956 889.242C376.956 886.442 379.056 884.342 381.856 884.342C384.656 884.342 386.686 886.442 386.686 889.242ZM381.156 899.042C381.156 901.772 379.126 903.872 376.326 903.872C373.526 903.872 371.426 901.772 371.426 899.042C371.426 896.242 373.526 894.142 376.326 894.142C379.126 894.142 381.156 896.242 381.156 899.042ZM392.286 899.042C392.286 901.772 390.256 903.872 387.456 903.872C384.656 903.872 382.556 901.772 382.556 899.042C382.556 896.242 384.656 894.142 387.456 894.142C390.256 894.142 392.286 896.242 392.286 899.042ZM393.266 932.922L390.466 935.722C383.256 935.722 378.636 932.152 377.586 925.922C376.886 932.152 373.176 935.722 367.366 935.722V922.842L370.166 920.322C374.086 920.322 375.206 918.782 375.206 915.492V907.372H388.506V915.492C388.506 919.062 389.766 920.322 393.266 920.322V932.922ZM395.511 935.722H390.471V922.842L393.271 920.322C396.841 920.322 397.751 919.342 397.751 915.492V883.712H412.171V915.492C412.171 929.352 406.921 935.722 395.511 935.722ZM432.161 935.722H417.741V883.712H432.161V935.722ZM464.238 958.962H449.818V937.192C449.818 924.732 454.648 918.152 465.008 916.822C466.128 907.722 472.288 901.772 481.458 901.772C490.138 901.772 494.898 905.202 498.398 912.692L498.888 913.742C501.268 918.852 502.178 920.322 505.398 920.322V932.922L502.598 935.722C496.858 935.722 493.918 933.622 491.188 927.672C489.578 934.252 485.938 936.702 479.358 936.702C474.878 936.702 471.028 935.092 468.438 931.942C465.078 932.152 464.238 933.482 464.238 937.612V958.962ZM473.898 919.342C473.898 920.672 475.718 921.302 478.658 921.302C483.068 921.302 485.938 921.022 487.548 920.462C485.518 917.872 482.858 916.822 479.498 916.822C475.718 916.822 473.898 918.082 473.898 919.342ZM559.981 917.942C559.981 930.122 553.821 936.702 544.161 936.702C538.491 936.702 533.241 933.832 532.121 928.792C531.491 933.832 528.271 936.702 523.301 936.702C517.771 936.702 513.991 933.482 513.151 927.812C512.311 932.852 508.601 935.722 502.581 935.722V922.842L505.381 920.322C509.301 920.322 510.631 919.062 510.631 915.492V912.272H523.931V915.492C523.931 919.062 524.631 920.672 526.381 920.672C528.131 920.672 528.831 919.062 528.831 915.492V912.272H542.131V915.492C542.131 919.062 543.111 920.672 544.581 920.672C545.981 920.672 546.681 919.622 546.681 917.382C546.681 914.792 546.191 911.292 545.281 907.372H558.931C559.631 911.152 559.981 914.582 559.981 917.942ZM597.915 932.922L596.515 934.322C595.045 945.032 589.025 953.292 575.445 953.292C572.435 953.292 568.515 953.012 563.615 951.892V938.032C568.515 939.082 572.155 939.292 574.885 939.292C581.955 939.292 585.665 938.452 587.275 935.722H577.825C567.955 935.722 562.075 929.982 562.075 920.882C562.075 910.872 569.845 901.772 579.505 901.772C587.695 901.772 594.135 908.352 596.165 920.322H597.915V932.922ZM575.585 920.322H585.525C583.285 917.522 579.925 915.982 575.865 915.982C573.345 915.982 571.175 916.892 571.175 918.362C571.175 919.552 572.575 920.322 575.585 920.322ZM629.019 928.582L621.599 942.022L618.869 940.482C611.729 936.702 606.969 935.722 595.139 935.722V922.842L597.939 920.322C601.159 920.322 603.609 920.532 605.779 921.092C603.329 918.502 602.489 915.772 602.489 911.852V883.712H616.909V911.852C616.909 919.902 618.519 922.772 624.959 926.342L629.019 928.582ZM646.605 935.722H632.185V883.712H646.605V935.722ZM679.492 864.502L661.992 870.522V863.522L679.492 857.502V864.502ZM679.492 875.702L661.992 881.722V874.722L679.492 868.702V875.702ZM679.662 935.722H678.262C667.342 935.722 663.562 930.542 663.562 919.482V883.712H677.982V915.492C677.982 919.342 678.892 920.322 682.462 920.322V932.922L679.662 935.722ZM705.532 932.922L702.732 935.722C695.522 935.722 690.902 932.152 689.852 925.922C689.152 932.152 685.442 935.722 679.632 935.722V922.842L682.432 920.322C686.352 920.322 687.472 918.782 687.472 915.492V907.372H700.772V915.492C700.772 919.062 702.032 920.322 705.532 920.322V932.922ZM699.232 945.102C699.232 948.532 696.642 951.122 693.212 951.122C689.712 951.122 687.052 948.532 687.052 945.102C687.052 941.602 689.712 938.942 693.212 938.942C696.642 938.942 699.232 941.602 699.232 945.102ZM707.007 935.722H702.737V922.842L705.537 920.322C709.107 920.322 710.157 918.712 710.157 914.092C710.157 911.222 709.807 907.372 709.247 902.472H722.547C723.107 907.862 723.457 912.762 723.457 916.892C723.457 928.722 717.577 935.722 707.007 935.722ZM726.117 946.292C726.117 949.022 724.087 951.122 721.287 951.122C718.487 951.122 716.387 949.022 716.387 946.292C716.387 943.492 718.487 941.392 721.287 941.392C724.087 941.392 726.117 943.492 726.117 946.292ZM714.987 946.292C714.987 949.022 712.957 951.122 710.157 951.122C707.357 951.122 705.257 949.022 705.257 946.292C705.257 943.492 707.357 941.392 710.157 941.392C712.957 941.392 714.987 943.492 714.987 946.292ZM757.466 935.722C754.106 935.722 751.726 934.672 750.256 932.502C749.906 946.712 744.866 953.292 734.366 953.292C732.126 953.292 729.816 953.222 728.066 953.012V937.542C730.026 937.752 731.496 937.892 732.826 937.892C737.586 937.892 741.086 935.582 741.086 927.042C741.086 921.302 739.966 914.722 738.356 907.372H752.426L753.266 912.692C754.246 918.782 755.786 920.322 760.266 920.322V932.922L757.466 935.722ZM790.393 878.882C790.393 882.312 787.803 884.902 784.373 884.902C780.873 884.902 778.213 882.312 778.213 878.882C778.213 875.382 780.873 872.722 784.373 872.722C787.803 872.722 790.393 875.382 790.393 878.882ZM776.813 878.882C776.813 882.312 774.223 884.902 770.793 884.902C767.293 884.902 764.633 882.312 764.633 878.882C764.633 875.382 767.293 872.722 770.793 872.722C774.223 872.722 776.813 875.382 776.813 878.882ZM777.723 935.722H757.493V922.842L760.293 920.322H778.703C784.933 920.322 787.243 919.482 787.873 916.402C785.213 917.592 780.943 918.222 775.343 918.222C766.523 918.222 761.623 913.462 761.623 906.182C761.623 896.872 769.393 888.542 778.283 888.542C788.013 888.542 796.413 899.112 796.413 914.722C796.413 928.092 790.533 935.722 777.723 935.722ZM770.723 905.062C770.723 906.392 772.403 907.022 775.973 907.022C779.403 907.022 782.483 906.952 785.003 906.812C782.623 904.292 779.123 902.892 775.833 902.892C772.123 902.892 770.723 904.082 770.723 905.062Z" fill="#0E2938"/>
<path d="M271.066 1053.09C271.066 1054.58 270.559 1055.98 269.543 1057.31C268.527 1058.64 267.121 1059.8 265.324 1060.8C263.527 1061.79 261.311 1062.58 258.674 1063.17C256.037 1063.75 253.186 1064.05 250.119 1064.05C236.232 1064.05 229.289 1058.79 229.289 1048.29C229.289 1045.73 229.611 1042.87 230.256 1039.7H236.262C235.656 1042.79 235.354 1045.17 235.354 1046.85C235.354 1053.57 240.432 1056.93 250.588 1056.93C255.256 1056.93 258.898 1056.46 261.516 1055.52C264.152 1054.6 265.471 1053.32 265.471 1051.66C265.471 1050.68 264.992 1049.83 264.035 1049.11C263.098 1048.36 261.613 1047.99 259.582 1047.99H252.99V1041.02H260.783C263.186 1041.02 264.836 1040.61 265.734 1039.79C266.633 1038.97 267.082 1037.6 267.082 1035.69C267.082 1032.93 266.73 1029.39 266.027 1025.05H272.268C272.854 1029.19 273.146 1032.93 273.146 1036.27C273.146 1042.13 271.105 1045.7 267.023 1046.97C269.719 1048.41 271.066 1050.45 271.066 1053.09ZM270.686 1069.41C270.686 1070.42 270.334 1071.27 269.631 1071.96C268.947 1072.66 268.098 1073.01 267.082 1073.01C266.027 1073.01 265.158 1072.67 264.475 1071.99C263.791 1071.3 263.449 1070.44 263.449 1069.41C263.449 1068.35 263.791 1067.48 264.475 1066.77C265.158 1066.09 266.027 1065.75 267.082 1065.75C268.117 1065.75 268.977 1066.09 269.66 1066.77C270.344 1067.48 270.686 1068.35 270.686 1069.41ZM258.205 1071.99C258.205 1073.02 257.854 1073.88 257.15 1074.57C256.467 1075.25 255.598 1075.59 254.543 1075.59C253.527 1075.59 252.678 1075.25 251.994 1074.57C251.311 1073.88 250.969 1073.02 250.969 1071.99C250.969 1070.93 251.301 1070.05 251.965 1069.35C252.648 1068.67 253.508 1068.33 254.543 1068.33C255.598 1068.33 256.467 1068.67 257.15 1069.35C257.854 1070.05 258.205 1070.93 258.205 1071.99ZM249.27 1071.99C249.27 1073.02 248.928 1073.88 248.244 1074.57C247.58 1075.25 246.721 1075.59 245.666 1075.59C244.631 1075.59 243.771 1075.24 243.088 1074.54C242.404 1073.85 242.062 1073 242.062 1071.99C242.062 1070.93 242.404 1070.05 243.088 1069.35C243.771 1068.67 244.631 1068.33 245.666 1068.33C246.721 1068.33 247.58 1068.67 248.244 1069.35C248.928 1070.05 249.27 1070.93 249.27 1071.99ZM304.787 1039.41C304.768 1043.18 303.498 1045.95 300.979 1047.73C298.479 1049.51 294.602 1050.4 289.348 1050.4C287.082 1050.4 285.188 1050.17 283.664 1049.72C282.141 1049.27 280.939 1048.56 280.061 1047.58C279.182 1046.61 278.557 1045.45 278.186 1044.13C277.814 1042.8 277.619 1041.17 277.6 1039.23H283.371C283.41 1040.27 283.586 1041.06 283.898 1041.61C284.211 1042.15 284.807 1042.58 285.686 1042.9C286.584 1043.21 287.873 1043.36 289.553 1043.36C292.795 1043.36 295.168 1043.06 296.672 1042.46C298.195 1041.83 298.977 1040.87 299.016 1039.58C299.035 1038.06 298.146 1036.21 296.35 1034.02C294.553 1031.81 291.32 1028.65 286.652 1024.53L290.93 1018.99C296.145 1023.62 299.768 1027.44 301.799 1030.44C303.83 1033.45 304.826 1036.44 304.787 1039.41ZM319.729 1008.79L306.896 1010.67V1006.39L309.533 1006.04C308.4 1005.08 307.834 1003.84 307.834 1002.32C307.873 1000.72 308.43 999.39 309.504 998.335C310.598 997.28 311.965 996.753 313.605 996.753C315.09 996.753 316.291 997.212 317.209 998.13C318.127 999.028 318.645 1000.29 318.762 1001.91L315.832 1002.26C315.305 1001.38 314.504 1000.94 313.43 1000.94C312.727 1000.94 312.17 1001.11 311.76 1001.44C311.35 1001.75 311.145 1002.2 311.145 1002.79C311.145 1003.63 311.564 1004.29 312.404 1004.78C313.244 1005.27 314.26 1005.42 315.451 1005.25L319.729 1004.6V1008.79ZM316.652 1049.72H310.354V1013.31H316.652V1049.72ZM369.621 1023.09C369.621 1024.15 369.279 1025.01 368.596 1025.7C367.912 1026.36 367.053 1026.69 366.018 1026.69C364.963 1026.69 364.084 1026.36 363.381 1025.7C362.697 1025.01 362.355 1024.15 362.355 1023.09C362.355 1022.06 362.697 1021.2 363.381 1020.51C364.084 1019.83 364.963 1019.49 366.018 1019.49C367.053 1019.49 367.912 1019.83 368.596 1020.51C369.279 1021.2 369.621 1022.06 369.621 1023.09ZM360.715 1023.09C360.715 1024.15 360.373 1025.01 359.689 1025.7C359.025 1026.36 358.176 1026.69 357.141 1026.69C356.086 1026.69 355.207 1026.36 354.504 1025.7C353.82 1025.01 353.479 1024.15 353.479 1023.09C353.479 1022.06 353.82 1021.2 354.504 1020.51C355.207 1019.83 356.086 1019.49 357.141 1019.49C358.156 1019.49 359.006 1019.83 359.689 1020.51C360.373 1021.2 360.715 1022.06 360.715 1023.09ZM389.66 1049.72C384.191 1049.72 381.027 1047.56 380.168 1043.25C378.566 1047.95 371.984 1050.31 360.422 1050.31C352.531 1050.31 346.818 1049.12 343.283 1046.73C339.748 1044.35 337.98 1040.5 337.98 1035.19C337.98 1032.28 338.322 1029.6 339.006 1027.16H345.012C344.406 1030 344.104 1032.23 344.104 1033.87C344.104 1037.17 345.412 1039.56 348.029 1041.02C350.646 1042.47 354.943 1043.19 360.92 1043.19C363.889 1043.19 366.35 1043.12 368.303 1042.98C370.275 1042.85 371.975 1042.62 373.4 1042.31C374.826 1041.98 375.92 1041.52 376.682 1040.93C377.443 1040.33 377.99 1039.61 378.322 1038.79C378.674 1037.97 378.85 1036.94 378.85 1035.69V1029.27H384.914V1035.69C384.914 1038.56 385.334 1040.45 386.174 1041.37C387.033 1042.29 388.693 1042.75 391.154 1042.75V1048.23L389.66 1049.72ZM433.84 1037.36C433.84 1041.64 432.922 1044.87 431.086 1047.06C429.25 1049.22 426.691 1050.31 423.41 1050.31C421.223 1050.31 419.309 1049.75 417.668 1048.64C416.027 1047.52 414.943 1045.98 414.416 1044.01C413.752 1048.21 411.35 1050.31 407.209 1050.31C404.904 1050.31 403.01 1049.74 401.525 1048.61C400.041 1047.48 399.074 1045.86 398.625 1043.77C397.824 1047.74 394.826 1049.72 389.631 1049.72V1044.21L391.125 1042.75C395.246 1042.75 397.307 1040.69 397.307 1036.57L397.248 1033.46H403.371V1036.57C403.371 1038.85 403.771 1040.54 404.572 1041.64C405.373 1042.71 406.633 1043.25 408.352 1043.25C409.738 1043.25 410.832 1042.69 411.633 1041.58C412.434 1040.46 412.834 1038.79 412.834 1036.57V1033.46H418.898L418.957 1036.57C418.957 1038.75 419.377 1040.42 420.217 1041.55C421.057 1042.68 422.141 1043.25 423.469 1043.25C424.875 1043.25 425.939 1042.78 426.662 1041.84C427.404 1040.9 427.775 1039.37 427.775 1037.24C427.775 1035.07 427.414 1032.42 426.691 1029.27H433.02C433.566 1032.01 433.84 1034.7 433.84 1037.36ZM451.418 1049.72H450.861C447.209 1049.72 444.553 1048.71 442.893 1046.67C441.252 1044.62 440.432 1041.4 440.432 1037.01V1003.81H446.789V1036.1C446.789 1038.6 447.229 1040.34 448.107 1041.31C449.006 1042.27 450.607 1042.75 452.912 1042.75V1048.23L451.418 1049.72ZM464.836 1049.72H451.389V1044.21L452.883 1042.75H466.389C467.971 1042.75 469.143 1042.46 469.904 1041.87C470.686 1041.26 471.076 1040.5 471.076 1039.58C471.076 1038.57 470.686 1037.6 469.904 1036.68C469.143 1035.75 467.688 1034.39 465.539 1032.61L454.201 1024.17V1018.23L480.305 1003.46L480.246 1010.67L460.969 1021.33L468.059 1027.1C471.145 1029.41 473.342 1031.52 474.65 1033.43C475.979 1035.33 476.643 1037.4 476.643 1039.64C476.643 1042.73 475.617 1045.18 473.566 1047C471.535 1048.81 468.625 1049.72 464.836 1049.72ZM507.756 1039.41C507.736 1043.18 506.467 1045.95 503.947 1047.73C501.447 1049.51 497.57 1050.4 492.316 1050.4C490.051 1050.4 488.156 1050.17 486.633 1049.72C485.109 1049.27 483.908 1048.56 483.029 1047.58C482.15 1046.61 481.525 1045.45 481.154 1044.13C480.783 1042.8 480.588 1041.17 480.568 1039.23H486.34C486.379 1040.27 486.555 1041.06 486.867 1041.61C487.18 1042.15 487.775 1042.58 488.654 1042.9C489.553 1043.21 490.842 1043.36 492.521 1043.36C495.764 1043.36 498.137 1043.06 499.641 1042.46C501.164 1041.83 501.945 1040.87 501.984 1039.58C502.004 1038.06 501.115 1036.21 499.318 1034.02C497.521 1031.81 494.289 1028.65 489.621 1024.53L493.898 1018.99C499.113 1023.62 502.736 1027.44 504.768 1030.44C506.799 1033.45 507.795 1036.44 507.756 1039.41ZM536.496 1049.72H535.471C534.299 1059.16 529.201 1063.87 520.178 1063.87C517.326 1063.87 514.523 1063.56 511.77 1062.93V1056.08C514.504 1056.84 517.307 1057.22 520.178 1057.22C523.322 1057.22 525.695 1056.65 527.297 1055.49C528.918 1054.36 529.963 1052.44 530.432 1049.72H525.041C520.354 1049.72 516.838 1048.75 514.494 1046.79C512.15 1044.82 510.979 1042.06 510.979 1038.5C510.979 1036.04 511.506 1033.74 512.561 1031.59C513.635 1029.44 515.119 1027.72 517.014 1026.43C518.928 1025.12 521.037 1024.47 523.342 1024.47C526.877 1024.47 529.758 1026.06 531.984 1029.24C534.23 1032.41 535.471 1036.91 535.705 1042.75H537.99V1048.23L536.496 1049.72ZM524.602 1042.75H530.725C530.471 1038.98 529.611 1036.11 528.146 1034.14C526.701 1032.16 524.768 1031.18 522.346 1031.18C520.49 1031.18 518.996 1031.84 517.863 1033.17C516.73 1034.5 516.164 1036.05 516.164 1037.83C516.164 1039.58 516.809 1040.84 518.098 1041.61C519.406 1042.37 521.574 1042.75 524.602 1042.75ZM538.312 1049.72H536.525V1044.21L538.02 1042.75C540.441 1042.75 542.111 1042.21 543.029 1041.14C543.967 1040.04 544.436 1038.23 544.436 1035.69C544.436 1032.92 544.113 1029.37 543.469 1025.05H549.709C550.275 1029.49 550.559 1033.23 550.559 1036.27C550.559 1045.24 546.477 1049.72 538.312 1049.72ZM548.771 1057.63C548.771 1058.65 548.42 1059.5 547.717 1060.18C547.033 1060.88 546.184 1061.24 545.168 1061.24C544.113 1061.24 543.234 1060.89 542.531 1060.21C541.848 1059.53 541.506 1058.67 541.506 1057.63C541.506 1056.58 541.848 1055.7 542.531 1055C543.234 1054.31 544.113 1053.97 545.168 1053.97C546.203 1053.97 547.062 1054.31 547.746 1055C548.43 1055.7 548.771 1056.58 548.771 1057.63ZM592.893 1009.35C592.893 1010.37 592.541 1011.23 591.838 1011.93C591.154 1012.61 590.305 1012.95 589.289 1012.95C588.234 1012.95 587.355 1012.61 586.652 1011.93C585.969 1011.25 585.627 1010.39 585.627 1009.35C585.627 1008.3 585.969 1007.43 586.652 1006.74C587.355 1006.04 588.234 1005.69 589.289 1005.69C590.324 1005.69 591.184 1006.04 591.867 1006.74C592.551 1007.43 592.893 1008.3 592.893 1009.35ZM584.016 1009.35C584.016 1010.39 583.664 1011.25 582.961 1011.93C582.277 1012.61 581.408 1012.95 580.354 1012.95C579.318 1012.95 578.459 1012.61 577.775 1011.93C577.092 1011.23 576.75 1010.37 576.75 1009.35C576.75 1008.3 577.092 1007.43 577.775 1006.74C578.459 1006.04 579.318 1005.69 580.354 1005.69C581.408 1005.69 582.277 1006.04 582.961 1006.74C583.664 1007.43 584.016 1008.3 584.016 1009.35ZM600.275 1048.23L598.781 1049.72C595.969 1049.72 593.84 1049.17 592.395 1048.08C590.969 1046.99 590.031 1045.21 589.582 1042.75C588.195 1046.48 585.236 1048.34 580.705 1048.34C577.482 1048.34 574.963 1047.45 573.146 1045.65C571.35 1043.83 570.451 1041.33 570.451 1038.15C570.451 1032.99 573.547 1029.01 579.738 1026.2L588.938 1021.89V1016.73H595.295V1036.89C595.295 1039.02 595.676 1040.53 596.438 1041.43C597.199 1042.31 598.479 1042.75 600.275 1042.75V1048.23ZM575.725 1037.36C575.725 1038.63 576.193 1039.61 577.131 1040.32C578.068 1041.02 579.445 1041.37 581.262 1041.37C583.84 1041.37 585.764 1040.88 587.033 1039.91C588.303 1038.93 588.938 1037.38 588.938 1035.25V1027.4L581.613 1030.83C579.562 1031.8 578.068 1032.81 577.131 1033.84C576.193 1034.86 575.725 1036.03 575.725 1037.36ZM623.039 1013.6C623.039 1014.63 622.697 1015.49 622.014 1016.18C621.33 1016.86 620.471 1017.2 619.436 1017.2C618.381 1017.2 617.502 1016.86 616.799 1016.18C616.115 1015.49 615.773 1014.63 615.773 1013.6C615.773 1012.54 616.115 1011.67 616.799 1010.99C617.502 1010.29 618.381 1009.94 619.436 1009.94C620.471 1009.94 621.33 1010.29 622.014 1010.99C622.697 1011.67 623.039 1012.54 623.039 1013.6ZM614.162 1013.6C614.162 1014.63 613.811 1015.49 613.107 1016.18C612.424 1016.86 611.574 1017.2 610.559 1017.2C609.504 1017.2 608.625 1016.86 607.922 1016.18C607.238 1015.49 606.896 1014.63 606.896 1013.6C606.896 1012.54 607.238 1011.67 607.922 1010.99C608.625 1010.29 609.504 1009.94 610.559 1009.94C611.594 1009.94 612.453 1010.29 613.137 1010.99C613.82 1011.67 614.162 1012.54 614.162 1013.6ZM602.59 1049.72H598.752V1044.21L600.246 1042.75H606.311C603.83 1040.21 602.59 1037.36 602.59 1034.19C602.59 1030.5 603.83 1027.38 606.311 1024.82C608.811 1022.26 611.75 1020.98 615.129 1020.98C617.375 1020.98 619.426 1021.57 621.281 1022.74C623.156 1023.91 624.611 1025.48 625.646 1027.46C626.682 1029.41 627.199 1031.53 627.199 1033.81C627.199 1037.11 625.891 1040.07 623.273 1042.69C623.84 1042.73 624.729 1042.75 625.939 1042.75H629.719V1048.23L628.195 1049.72H626.467C622.17 1049.72 618.234 1049.08 614.66 1047.79C611.086 1049.08 607.062 1049.72 602.59 1049.72ZM607.863 1034.14C607.863 1035.83 608.537 1037.31 609.885 1038.56C611.232 1039.81 613.137 1040.79 615.598 1041.49C619.797 1040.2 621.896 1037.89 621.896 1034.55C621.896 1032.75 621.232 1031.21 619.904 1029.92C618.576 1028.61 616.867 1027.95 614.777 1027.95C612.746 1027.95 611.086 1028.58 609.797 1029.83C608.508 1031.06 607.863 1032.5 607.863 1034.14ZM630.012 1049.72H628.225V1044.21L629.719 1042.75C632.141 1042.75 633.811 1042.21 634.729 1041.14C635.666 1040.04 636.135 1038.23 636.135 1035.69C636.135 1032.92 635.812 1029.37 635.168 1025.05H641.408C641.975 1029.49 642.258 1033.23 642.258 1036.27C642.258 1045.24 638.176 1049.72 630.012 1049.72ZM640.471 1057.63C640.471 1058.65 640.119 1059.5 639.416 1060.18C638.732 1060.88 637.883 1061.24 636.867 1061.24C635.812 1061.24 634.934 1060.89 634.23 1060.21C633.547 1059.53 633.205 1058.67 633.205 1057.63C633.205 1056.58 633.547 1055.7 634.23 1055C634.934 1054.31 635.812 1053.97 636.867 1053.97C637.902 1053.97 638.762 1054.31 639.445 1055C640.129 1055.7 640.471 1056.58 640.471 1057.63ZM661.242 1049.72H660.686C657.033 1049.72 654.377 1048.71 652.717 1046.67C651.076 1044.62 650.256 1041.4 650.256 1037.01V1003.81H656.613V1036.1C656.613 1038.6 657.053 1040.34 657.932 1041.31C658.83 1042.27 660.432 1042.75 662.736 1042.75V1048.23L661.242 1049.72ZM710.285 1049.72C707.824 1049.72 705.803 1049.18 704.221 1048.11C702.639 1047.04 701.604 1045.51 701.115 1043.54C700.783 1045.79 699.982 1047.48 698.713 1048.61C697.443 1049.74 695.803 1050.31 693.791 1050.31C691.838 1050.31 690.158 1049.77 688.752 1048.7C687.365 1047.62 686.447 1046.11 685.998 1044.16C685.275 1048.26 682.873 1050.31 678.791 1050.31C676.486 1050.31 674.592 1049.74 673.107 1048.61C671.623 1047.48 670.656 1045.86 670.207 1043.77C669.406 1047.74 666.408 1049.72 661.213 1049.72V1044.21L662.707 1042.75C666.828 1042.75 668.889 1040.69 668.889 1036.57L668.83 1033.46H674.953V1036.57C674.953 1038.85 675.354 1040.54 676.154 1041.64C676.955 1042.71 678.215 1043.25 679.934 1043.25C681.301 1043.25 682.385 1042.69 683.186 1041.58C684.006 1040.44 684.416 1038.77 684.416 1036.57V1033.46H690.48L690.539 1036.57C690.539 1038.77 690.949 1040.44 691.77 1041.58C692.609 1042.69 693.703 1043.25 695.051 1043.25C696.477 1043.25 697.58 1042.67 698.361 1041.52C699.143 1040.35 699.533 1038.7 699.533 1036.57V1031.35H705.598V1036.57C705.598 1038.7 706.086 1040.26 707.062 1041.25C708.059 1042.25 709.631 1042.75 711.779 1042.75V1048.23L710.285 1049.72ZM743.859 1038.21C743.859 1042.02 742.795 1044.99 740.666 1047.11C738.557 1049.24 735.598 1050.31 731.789 1050.31C726.789 1050.31 722.824 1048.75 719.895 1045.65C718.742 1047.11 717.434 1048.16 715.969 1048.78C714.504 1049.41 712.619 1049.72 710.314 1049.72V1044.21L711.809 1042.75C713.723 1042.75 715.148 1042.33 716.086 1041.49C717.043 1040.63 718.078 1038.93 719.191 1036.39L720.217 1034.31C721.701 1030.89 723.381 1028.4 725.256 1026.84C727.15 1025.26 729.465 1024.47 732.199 1024.47C735.539 1024.47 738.312 1025.77 740.52 1028.36C742.746 1030.96 743.859 1034.24 743.859 1038.21ZM723.029 1039.94V1040C724.162 1041.07 725.529 1041.9 727.131 1042.49C728.752 1043.07 730.422 1043.36 732.141 1043.36C734.406 1043.36 736.066 1042.93 737.121 1042.08C738.176 1041.2 738.703 1039.83 738.703 1037.97C738.703 1036.08 738.088 1034.51 736.857 1033.26C735.627 1031.99 734.074 1031.35 732.199 1031.35C730.246 1031.35 728.645 1031.84 727.395 1032.82C726.145 1033.77 725.012 1035.42 723.996 1037.77L723.029 1039.94ZM775.969 1044.68C775.969 1051.28 774.807 1056.13 772.482 1059.21C770.158 1062.32 766.506 1063.87 761.525 1063.87C759.748 1063.87 757.961 1063.74 756.164 1063.46V1056.43C758.195 1056.76 759.895 1056.93 761.262 1056.93C764.289 1056.93 766.496 1055.96 767.883 1054.03C769.27 1052.09 769.963 1049.04 769.963 1044.86C769.963 1042.98 769.807 1040.77 769.494 1038.21L768.41 1029.27L789.768 1027.16L790.91 1037.01C791.164 1039.31 791.77 1040.84 792.727 1041.61C793.684 1042.37 795.441 1042.75 798 1042.75V1048.23L796.506 1049.72C792.6 1049.72 789.797 1048.8 788.098 1046.97C786.398 1045.11 785.295 1041.77 784.787 1036.95L784.553 1034.66L775.324 1035.63L775.559 1037.53C775.832 1040.62 775.969 1043 775.969 1044.68ZM790.793 1057.63C790.793 1058.65 790.451 1059.5 789.768 1060.18C789.084 1060.88 788.225 1061.24 787.189 1061.24C786.135 1061.24 785.256 1060.89 784.553 1060.21C783.869 1059.53 783.527 1058.67 783.527 1057.63C783.527 1056.58 783.869 1055.7 784.553 1055C785.256 1054.31 786.135 1053.97 787.189 1053.97C788.225 1053.97 789.084 1054.31 789.768 1055C790.451 1055.7 790.793 1056.58 790.793 1057.63ZM809.953 1049.72H796.506V1044.21L798 1042.75H811.506C813.088 1042.75 814.26 1042.46 815.021 1041.87C815.803 1041.26 816.193 1040.5 816.193 1039.58C816.193 1038.57 815.803 1037.6 815.021 1036.68C814.26 1035.75 812.805 1034.39 810.656 1032.61L799.318 1024.17V1018.23L825.422 1003.46L825.363 1010.67L806.086 1021.33L813.176 1027.1C816.262 1029.41 818.459 1031.52 819.768 1033.43C821.096 1035.33 821.76 1037.4 821.76 1039.64C821.76 1042.73 820.734 1045.18 818.684 1047C816.652 1048.81 813.742 1049.72 809.953 1049.72ZM839.719 1006.57L826.887 1008.38V1004.14L829.523 1003.75C828.41 1002.82 827.854 1001.58 827.854 1000.03C827.893 998.472 828.449 997.153 829.523 996.079C830.598 995.005 831.955 994.468 833.596 994.468C835.08 994.468 836.281 994.927 837.199 995.845C838.137 996.743 838.664 998.003 838.781 999.624L835.822 999.976C835.334 999.136 834.533 998.716 833.42 998.716C832.717 998.716 832.16 998.882 831.75 999.214C831.34 999.526 831.135 999.966 831.135 1000.53C831.135 1001.37 831.555 1002.04 832.395 1002.52C833.254 1003.01 834.279 1003.17 835.471 1002.99L839.719 1002.32V1006.57ZM844.699 1049.72H826.77V1042.75L839.074 1032.44C840.578 1031.13 841.398 1030.41 841.535 1030.27L823.4 1016.73L827.297 1011.14L845.959 1025.29C846.877 1023.88 847.502 1022.35 847.834 1020.69C848.186 1019.03 848.361 1016.89 848.361 1014.27V1003.81H854.66V1014.27C854.66 1017.75 854.367 1020.55 853.781 1022.68C853.215 1024.81 852.111 1026.84 850.471 1028.77C852.639 1030.61 854.191 1032.39 855.129 1034.11C856.066 1035.83 856.535 1037.73 856.535 1039.82C856.535 1046.42 852.59 1049.72 844.699 1049.72ZM843.205 1035.51L834.094 1042.75H844.934C846.984 1042.75 848.488 1042.53 849.445 1042.1C850.402 1041.66 850.881 1040.95 850.881 1040C850.881 1039.16 850.48 1038.23 849.68 1037.21C848.898 1036.2 847.58 1034.95 845.725 1033.46C845.451 1033.7 844.611 1034.38 843.205 1035.51ZM407.121 1125.09C407.121 1126.58 406.613 1127.98 405.598 1129.31C404.582 1130.64 403.176 1131.8 401.379 1132.8C399.582 1133.79 397.365 1134.58 394.729 1135.17C392.092 1135.75 389.24 1136.05 386.174 1136.05C372.287 1136.05 365.344 1130.79 365.344 1120.29C365.344 1117.73 365.666 1114.87 366.311 1111.7H372.316C371.711 1114.79 371.408 1117.17 371.408 1118.85C371.408 1125.57 376.486 1128.93 386.643 1128.93C391.311 1128.93 394.953 1128.46 397.57 1127.52C400.207 1126.6 401.525 1125.32 401.525 1123.66C401.525 1122.68 401.047 1121.83 400.09 1121.11C399.152 1120.36 397.668 1119.99 395.637 1119.99H389.045V1113.02H396.838C399.24 1113.02 400.891 1112.61 401.789 1111.79C402.688 1110.97 403.137 1109.6 403.137 1107.69C403.137 1104.93 402.785 1101.39 402.082 1097.05H408.322C408.908 1101.19 409.201 1104.93 409.201 1108.27C409.201 1114.13 407.16 1117.7 403.078 1118.97C405.773 1120.41 407.121 1122.45 407.121 1125.09ZM406.74 1141.41C406.74 1142.42 406.389 1143.27 405.686 1143.96C405.002 1144.66 404.152 1145.01 403.137 1145.01C402.082 1145.01 401.213 1144.67 400.529 1143.99C399.846 1143.3 399.504 1142.44 399.504 1141.41C399.504 1140.35 399.846 1139.48 400.529 1138.77C401.213 1138.09 402.082 1137.75 403.137 1137.75C404.172 1137.75 405.031 1138.09 405.715 1138.77C406.398 1139.48 406.74 1140.35 406.74 1141.41ZM394.26 1143.99C394.26 1145.02 393.908 1145.88 393.205 1146.57C392.521 1147.25 391.652 1147.59 390.598 1147.59C389.582 1147.59 388.732 1147.25 388.049 1146.57C387.365 1145.88 387.023 1145.02 387.023 1143.99C387.023 1142.93 387.355 1142.05 388.02 1141.35C388.703 1140.67 389.562 1140.33 390.598 1140.33C391.652 1140.33 392.521 1140.67 393.205 1141.35C393.908 1142.05 394.26 1142.93 394.26 1143.99ZM385.324 1143.99C385.324 1145.02 384.982 1145.88 384.299 1146.57C383.635 1147.25 382.775 1147.59 381.721 1147.59C380.686 1147.59 379.826 1147.24 379.143 1146.54C378.459 1145.85 378.117 1145 378.117 1143.99C378.117 1142.93 378.459 1142.05 379.143 1141.35C379.826 1140.67 380.686 1140.33 381.721 1140.33C382.775 1140.33 383.635 1140.67 384.299 1141.35C384.982 1142.05 385.324 1142.93 385.324 1143.99ZM432.258 1121.72C429.367 1121.72 427.287 1120.75 426.018 1118.79C425.725 1124.34 424.475 1128.57 422.268 1131.48C420.08 1134.41 417.053 1135.87 413.186 1135.87C411.271 1135.87 409.484 1135.74 407.824 1135.46V1128.49C410.051 1128.78 411.633 1128.93 412.57 1128.93C415.344 1128.93 417.512 1127.84 419.074 1125.68C420.656 1123.51 421.447 1120.35 421.447 1116.21C421.447 1111.49 420.91 1106.51 419.836 1101.27H426.018L427.102 1108.39C427.395 1110.66 428.078 1112.29 429.152 1113.28C430.227 1114.26 431.76 1114.75 433.752 1114.75V1120.23L432.258 1121.72ZM437.854 1121.72H432.287V1116.21L433.781 1114.75H441.223C442.062 1114.75 443.244 1114.71 444.768 1114.63C443.029 1112.97 441.125 1110.64 439.055 1107.63L437.092 1104.88V1098.2C442.307 1096.81 447.219 1096.12 451.828 1096.12C456.594 1096.12 460.061 1096.8 462.229 1098.17C464.396 1099.53 465.51 1101.79 465.568 1104.93C465.627 1108.43 463.85 1111.66 460.236 1114.63C461.838 1114.71 463.098 1114.75 464.016 1114.75H468.996V1120.23L467.502 1121.72H466.066C460.09 1121.72 455.285 1120.96 451.652 1119.44C447.395 1120.96 442.795 1121.72 437.854 1121.72ZM442.658 1103.97C444.338 1106.53 445.939 1108.54 447.463 1110C449.006 1111.45 450.744 1112.53 452.678 1113.25C455.197 1112.49 457.131 1111.5 458.479 1110.27C459.826 1109.04 460.471 1107.74 460.412 1106.37C460.393 1105.08 459.699 1104.16 458.332 1103.62C456.965 1103.05 454.797 1102.77 451.828 1102.77C448.684 1102.77 445.549 1103.07 442.424 1103.67L442.658 1103.97ZM469.963 1121.72H467.502V1116.21L468.996 1114.75C471.457 1114.75 473.088 1114.22 473.889 1113.17C474.709 1112.11 475.119 1109.98 475.119 1106.78V1075.81H481.477V1107.69C481.477 1112.49 480.539 1116.04 478.664 1118.32C476.789 1120.59 473.889 1121.72 469.963 1121.72ZM496.125 1121.72H489.826V1075.81H496.125V1121.72ZM537.58 1095.03C538.283 1095.72 538.635 1096.58 538.635 1097.61C538.635 1098.65 538.283 1099.5 537.58 1100.19C536.896 1100.87 536.047 1101.21 535.031 1101.21C533.977 1101.21 533.098 1100.87 532.395 1100.19C531.711 1099.5 531.369 1098.65 531.369 1097.61C531.369 1096.58 531.711 1095.72 532.395 1095.03C533.098 1094.35 533.977 1094.01 535.031 1094.01C536.047 1094.01 536.896 1094.35 537.58 1095.03ZM557.473 1121.72C554.484 1121.72 552.287 1120.9 550.881 1119.26C550.588 1123.89 549.094 1127.38 546.398 1129.72C543.723 1132.06 539.875 1133.24 534.855 1133.24C528.84 1133.24 524.426 1131.78 521.613 1128.87C518.801 1125.96 517.414 1121.74 517.453 1116.21C517.512 1113.54 517.834 1110.68 518.42 1107.63H524.426C523.879 1110.31 523.576 1112.64 523.518 1114.63C523.479 1118.5 524.357 1121.38 526.154 1123.27C527.971 1125.17 530.988 1126.12 535.207 1126.12C539.289 1126.12 542.297 1125.34 544.23 1123.8C546.184 1122.26 547.16 1119.87 547.16 1116.62C547.16 1115.04 546.916 1112.76 546.428 1109.77L545.725 1105.46H551.848L552.492 1109.42C552.824 1111.45 553.439 1112.84 554.338 1113.61C555.256 1114.37 556.799 1114.75 558.967 1114.75V1120.23L557.473 1121.72ZM573.703 1121.72H557.502V1116.27L558.996 1114.75H563.01C563.576 1113.5 564.221 1112.22 564.943 1110.91V1075.81H571.242V1102.42C575.773 1097.88 580.734 1095.62 586.125 1095.62C588.137 1095.62 589.953 1095.97 591.574 1096.67C593.215 1097.36 594.543 1098.28 595.559 1099.46C596.594 1100.61 597.385 1101.93 597.932 1103.41C598.498 1104.88 598.781 1106.42 598.781 1108.04C598.781 1112.65 596.73 1116.09 592.629 1118.35C588.527 1120.6 582.219 1121.72 573.703 1121.72ZM585.803 1102.65C582.385 1102.65 579.152 1103.72 576.105 1105.87C573.059 1108 570.373 1110.96 568.049 1114.75H575.197C581.682 1114.75 586.35 1114.23 589.201 1113.2C592.072 1112.16 593.508 1110.48 593.508 1108.16C593.508 1106.75 592.824 1105.48 591.457 1104.35C590.109 1103.22 588.225 1102.65 585.803 1102.65ZM628.137 1121.72H627.111C625.939 1131.16 620.842 1135.87 611.818 1135.87C608.967 1135.87 606.164 1135.56 603.41 1134.93V1128.08C606.145 1128.84 608.947 1129.22 611.818 1129.22C614.963 1129.22 617.336 1128.65 618.938 1127.49C620.559 1126.36 621.604 1124.44 622.072 1121.72H616.682C611.994 1121.72 608.479 1120.75 606.135 1118.79C603.791 1116.82 602.619 1114.06 602.619 1110.5C602.619 1108.04 603.146 1105.74 604.201 1103.59C605.275 1101.44 606.76 1099.72 608.654 1098.43C610.568 1097.12 612.678 1096.47 614.982 1096.47C618.518 1096.47 621.398 1098.06 623.625 1101.24C625.871 1104.41 627.111 1108.91 627.346 1114.75H629.631V1120.23L628.137 1121.72ZM616.242 1114.75H622.365C622.111 1110.98 621.252 1108.11 619.787 1106.14C618.342 1104.16 616.408 1103.18 613.986 1103.18C612.131 1103.18 610.637 1103.84 609.504 1105.17C608.371 1106.5 607.805 1108.05 607.805 1109.83C607.805 1111.58 608.449 1112.84 609.738 1113.61C611.047 1114.37 613.215 1114.75 616.242 1114.75ZM630.627 1121.72H628.166V1116.21L629.66 1114.75C632.121 1114.75 633.752 1114.22 634.553 1113.17C635.373 1112.11 635.783 1109.98 635.783 1106.78V1075.81H642.141V1107.69C642.141 1112.49 641.203 1116.04 639.328 1118.32C637.453 1120.59 634.553 1121.72 630.627 1121.72ZM656.789 1121.72H650.49V1075.81H656.789V1121.72ZM711.662 1079.12C711.662 1080.16 711.311 1081.02 710.607 1081.7C709.924 1082.39 709.055 1082.73 708 1082.73C706.984 1082.73 706.125 1082.39 705.422 1081.7C704.738 1081 704.396 1080.14 704.396 1079.12C704.396 1078.07 704.738 1077.2 705.422 1076.52C706.105 1075.81 706.965 1075.46 708 1075.46C709.055 1075.46 709.924 1075.81 710.607 1076.52C711.311 1077.2 711.662 1078.07 711.662 1079.12ZM718.195 1125.56C718.195 1127.45 717.404 1129.19 715.822 1130.77C714.24 1132.38 711.965 1133.66 708.996 1134.61C706.027 1135.57 702.678 1136.05 698.947 1136.05C691.896 1136.05 686.662 1134.71 683.244 1132.03C679.826 1129.36 678.117 1125.34 678.117 1119.99C678.117 1117.32 678.459 1114.55 679.143 1111.7H685.09C684.523 1114.81 684.24 1117.13 684.24 1118.67C684.24 1122.09 685.48 1124.65 687.961 1126.35C690.441 1128.07 694.26 1128.93 699.416 1128.93C703.557 1128.93 706.799 1128.5 709.143 1127.64C711.506 1126.78 712.688 1125.59 712.688 1124.07C712.688 1123.09 712.18 1122.32 711.164 1121.75C710.168 1121.2 708.732 1120.93 706.857 1120.93H700.207V1114.22H708C710.793 1114.22 712.766 1113.83 713.918 1113.05C715.07 1112.25 715.764 1110.74 715.998 1108.51C714.201 1109.15 711.672 1109.48 708.41 1109.48C704.66 1109.48 701.691 1108.58 699.504 1106.78C697.336 1104.98 696.252 1102.5 696.252 1099.34C696.252 1095.94 697.434 1092.95 699.797 1090.37C702.16 1087.8 704.934 1086.51 708.117 1086.51C712.004 1086.51 715.139 1088.23 717.521 1091.66C719.904 1095.08 721.096 1099.68 721.096 1105.46C721.096 1109.66 720.549 1112.87 719.455 1115.1C718.381 1117.31 716.584 1118.81 714.064 1119.61C716.818 1120.78 718.195 1122.77 718.195 1125.56ZM701.467 1099.22C701.467 1100.8 702.102 1101.97 703.371 1102.71C704.66 1103.43 706.408 1103.79 708.615 1103.79C711.213 1103.79 713.645 1103.51 715.91 1102.94C715.52 1099.95 714.572 1097.62 713.068 1095.94C711.564 1094.24 709.738 1093.39 707.59 1093.39C705.773 1093.39 704.299 1093.95 703.166 1095.06C702.033 1096.17 701.467 1097.56 701.467 1099.22ZM704.865 1141.2C705.549 1141.91 705.891 1142.78 705.891 1143.81C705.891 1144.85 705.549 1145.71 704.865 1146.39C704.182 1147.07 703.312 1147.42 702.258 1147.42C701.242 1147.42 700.383 1147.06 699.68 1146.36C698.996 1145.68 698.654 1144.83 698.654 1143.81C698.654 1142.78 698.996 1141.91 699.68 1141.2C700.383 1140.5 701.242 1140.15 702.258 1140.15C703.312 1140.15 704.182 1140.5 704.865 1141.2ZM695.93 1141.2C696.613 1141.91 696.955 1142.78 696.955 1143.81C696.955 1144.85 696.613 1145.71 695.93 1146.39C695.266 1147.07 694.406 1147.42 693.352 1147.42C692.336 1147.42 691.486 1147.07 690.803 1146.39C690.119 1145.71 689.777 1144.85 689.777 1143.81C689.777 1142.78 690.119 1141.91 690.803 1141.2C691.486 1140.5 692.336 1140.15 693.352 1140.15C694.387 1140.15 695.246 1140.5 695.93 1141.2Z" fill="#0E2938"/>
<path d="M363.28 635.311C365.392 635.2 367.46 635.011 369.416 634.777C372.484 634.422 375.541 633.955 378.587 633.455C381.277 633.021 383.945 632.465 386.635 632.021C387.969 631.798 389.325 631.565 390.681 631.543C392.426 631.52 394.116 631.943 395.75 632.543C397.751 633.288 399.674 634.199 401.475 635.344C404.532 637.289 407.555 639.279 410.634 641.18C412.257 642.18 413.947 643.103 415.881 643.392C417.648 643.659 419.049 643.27 419.66 641.38C419.972 640.413 419.66 639.502 419.06 638.679C417.96 637.134 417.081 635.466 416.559 633.621C415.836 631.087 417.081 630.264 419.071 629.82C421.95 629.186 424.596 628.063 426.908 626.218C429.442 624.206 431.188 621.616 432.455 618.648C433.455 616.303 434.022 613.857 434.456 611.378C434.667 610.156 434.733 608.911 434.845 607.677C435.356 601.441 435 595.205 435.078 588.969C435.1 587.101 434.945 585.223 434.845 583.355C434.778 581.954 434.689 580.543 434.6 579.142C434.522 577.719 434.433 576.285 434.356 574.863C434.267 572.995 434.167 571.116 434.122 569.249C434.055 566.603 434.055 563.947 433.989 561.29C433.944 559.456 433.9 557.622 433.733 555.799C433.5 553.098 433.022 550.43 432.032 547.884C431.299 546.017 430.287 544.316 428.998 542.771C427.008 540.392 424.485 538.78 421.717 537.513C419.438 536.468 417.026 535.768 414.569 535.312C412.891 535.001 411.201 534.712 409.511 534.478C408.5 534.334 407.477 534.289 406.455 534.212C404.309 534.045 402.175 533.878 400.03 533.734C399.229 533.678 398.418 533.645 397.617 533.611C395.683 533.522 393.749 533.456 391.815 533.367C390.148 533.289 388.48 533.211 386.813 533.122C386.668 533.122 386.535 533.044 386.39 533H377.009C376.886 533.044 376.764 533.122 376.642 533.122C373.918 533.222 371.25 533.689 368.627 534.401C365.27 535.301 362.213 536.857 359.301 538.725C359.301 538.725 353.087 541.993 342.294 554.054C339.826 556.81 338.125 559.989 337.247 563.569C336.836 565.225 336.613 566.948 336.502 568.649C336.358 570.85 336.302 573.062 336.38 575.263C336.458 577.364 336.758 579.453 336.958 581.543C337.091 582.922 337.225 584.3 337.325 585.678C337.469 587.646 337.514 589.613 337.714 591.57C337.914 593.526 337.769 595.471 337.569 597.406C337.414 598.94 337.28 600.474 337.069 601.996C336.858 603.553 336.569 605.098 336.313 606.654C336.002 608.499 335.58 610.333 335.402 612.19C335.202 614.291 335.046 616.425 335.168 618.537C335.368 621.794 336.335 624.873 338.281 627.563C339.637 629.442 341.349 630.92 343.394 632.032C349.119 635.166 356.477 635.689 363.303 635.333L363.28 635.311Z" fill="#EB593D"/>
<path d="M564.911 719.158C564.911 725.917 559.476 731.397 552.784 731.397C546.092 731.397 540.656 725.917 540.656 719.158C540.656 712.4 546.092 706.92 552.784 706.92C559.476 706.92 564.911 712.4 564.911 719.158Z" fill="#B51F35"/>
<path d="M552.771 743.124C539.676 743.124 529.027 732.375 529.027 719.158C529.027 705.941 539.676 695.192 552.771 695.192C565.865 695.192 576.514 705.941 576.514 719.158C576.514 732.375 565.865 743.124 552.771 743.124ZM552.771 698.761C541.622 698.761 532.562 707.909 532.562 719.158C532.562 730.408 541.633 739.556 552.771 739.556C563.909 739.556 572.98 730.408 572.98 719.158C572.98 707.909 563.909 698.761 552.771 698.761Z" fill="#91B8B3"/>
<path d="M727.38 587.524H702.402V591.092H727.38V587.524Z" fill="#F79421"/>
<path d="M745.92 632.654V640.413C745.92 643.581 744.697 645.838 743.152 647.283C739.64 649.984 735.271 651.618 730.514 651.618C720.398 651.618 711.961 644.359 710.038 634.722C708.115 644.359 699.678 651.618 689.562 651.618C679.447 651.618 671.01 644.359 669.087 634.722C667.275 643.792 659.694 650.751 650.379 651.54V692.18C659.694 691.391 667.275 684.432 669.087 675.362C671.01 684.999 679.447 692.258 689.562 692.258C699.678 692.258 708.115 684.999 710.038 675.362C711.961 684.999 720.398 692.258 730.514 692.258C735.571 692.258 740.207 690.446 743.83 687.422C748.521 683.51 751 677.496 751 671.36V643.192C751 634.322 745.931 632.665 745.931 632.665" fill="#F79421"/>
<path d="M578.061 577.786C578.061 581.932 574.726 585.3 570.613 585.3C568.323 585.3 566.267 584.244 564.899 582.588C563.532 584.244 561.476 585.3 559.186 585.3C555.084 585.3 551.738 581.932 551.738 577.786V575.996H555.273V577.786C555.273 579.965 557.029 581.732 559.186 581.732C561.342 581.732 563.099 579.965 563.099 577.786V575.996H566.711V577.786C566.711 579.965 568.468 581.732 570.624 581.732C572.781 581.732 574.537 579.965 574.537 577.786V575.996H578.072V577.786H578.061Z" fill="#91B8B3"/>
<path d="M544.457 614.657C523.236 614.657 509.73 633.121 509.73 653.685C509.73 653.797 509.73 658.076 509.742 665.157C514.521 640.369 530.773 647.538 551.493 660.866C539.254 660.088 527.238 663.612 519.09 672.16C510.22 681.464 509.742 692.302 509.742 692.302C509.742 692.291 511.32 683.243 519.668 678.352C529.628 672.516 547.013 672.382 575.192 688.656C610.029 708.765 629.46 691.591 629.46 691.591V651.607C590.632 652.163 578.438 614.68 544.446 614.68L544.457 614.657Z" fill="#91B8B3"/>
<path d="M481.453 570.561C476.618 574.785 473.839 580.921 473.839 587.379V661.167C473.839 685.877 453.986 705.919 429.497 705.919C397.339 705.919 381.443 682.064 381.443 682.064C373.306 671.238 374.34 653.897 374.34 653.897C370.161 664.212 369.16 676.595 369.16 686.022C369.16 719.481 396.038 746.603 429.186 746.603C462.334 746.603 489.212 719.481 489.212 686.022V563.635L481.453 570.561Z" fill="#EB593D"/>
<path d="M393.77 567.615C393.759 567.726 393.737 567.837 393.726 567.948C393.281 571.239 392.225 574.429 389.535 576.53C386.512 578.897 382.888 580.054 379.431 581.599C375.985 583.133 372.361 584.322 368.659 585.078C365.536 585.723 364.013 587.212 363.368 590.38C362.935 592.514 362.701 594.715 362.568 596.894C362.434 599.04 362.334 601.218 362.59 603.341C362.924 606.198 363.402 609.088 364.213 611.845C365.18 615.18 367.959 616.736 371.172 617.058C376.063 617.548 380.998 617.77 385.922 617.848C389.735 617.903 393.57 617.659 397.383 617.347C399.651 617.17 401.918 616.947 404.186 616.647C406.62 616.336 408.521 614.391 408.788 611.945C409.31 607.21 409.988 599.784 409.377 597.806C408.454 594.827 404.486 597.061 404.486 597.061C402.785 597.717 400.94 598.084 399.128 598.273C396.549 598.528 393.948 598.573 391.347 598.717C391.18 598.717 391.013 598.739 390.847 598.739C387.779 598.906 384.7 598.862 381.632 598.817C379.675 598.795 377.708 598.773 375.774 598.506C375.095 598.417 374.406 598.306 374.395 597.55C374.384 596.727 375.618 596.372 376.218 596.194C377.285 595.871 378.364 595.616 379.42 595.271C379.564 595.227 379.72 595.171 379.864 595.127C382.71 594.215 385.544 593.237 388.39 592.303C391.236 591.37 393.892 590.48 396.427 589.069C399.951 587.112 403.052 583.411 404.419 579.353C405.609 575.818 405.186 571.705 405.564 568.026C405.976 564.013 405.52 559.889 404.152 556.088C402.663 551.975 398.928 549.64 394.793 548.773C390.691 547.906 386.489 547.784 382.31 547.973C378.597 548.14 374.851 548.362 371.227 549.24C368.359 549.941 364.936 550.941 363.413 553.709C362.712 554.987 362.168 556.521 362.09 557.955V565.547C362.09 568.048 364.113 570.071 366.614 570.071H380.698C381.698 570.071 382.554 569.349 382.732 568.36C383.199 565.603 383.821 561.601 387.067 560.823C388.034 560.59 389.035 560.645 390.024 560.701C390.724 560.734 391.469 560.79 392.081 561.134C394.182 562.346 394.037 565.481 393.77 567.615Z" fill="white"/>
</svg>
