<svg width="105" height="101" viewBox="0 0 105 101" fill="none" xmlns="http://www.w3.org/2000/svg">
<path d="M52.71 88.73C52.71 79.71 57.15 75.19 66.17 75.19H93.24V3H66.17C57.15 3 52.63 7.51001 52.63 16.54C52.63 7.52001 48.12 3 39.09 3H12.02V75.19H39.09C48.11 75.19 52.7001 79.7 52.7001 88.73H52.71Z" stroke="#EB593D" stroke-width="4.51" stroke-linecap="round" stroke-linejoin="round"/>
<path d="M93.24 12.03H102.26V84.22H75.1901C66.1701 84.22 59.4 88.73 59.4 97.76H45.86C45.86 88.74 39.0901 84.22 30.0701 84.22H3V12.03H12.02" stroke="#EB593D" stroke-width="4.51" stroke-linecap="round" stroke-linejoin="round"/>
<path d="M52.64 16.54V86.47" stroke="#EB593D" stroke-width="4.51" stroke-linecap="round" stroke-linejoin="round"/>
<path d="M72.8 49.9999C72.05 51.6999 70.01 52.9799 67.96 52.9799C65.1 52.9799 63.67 50.88 63.67 48.3C63.67 46.71 64.11 45.22 64.79 44.17L65.35 44.4399C64.92 45.3999 64.64 46.31 64.64 47.2C64.64 49.62 66.31 50.92 68.24 50.92C70.03 50.92 71.8 49.4899 72.39 48.1599C72.24 46.4599 71.73 44.8799 70.8 43.4699C71.08 42.9499 71.45 42.44 71.89 41.89H72.01C72.63 42.91 73.06 44.0599 73.23 45.5299H73.24C74.08 44.2499 74.98 42.9299 76.26 41.7799C77.2 40.9399 78.49 40.17 79.8 40.17C81.2 40.17 82.1201 40.9199 82.5601 41.7899C82.8701 42.3899 82.91 43 82.91 43.55C82.91 44.01 82.79 44.46 82.63 44.92C82.23 46.09 81.3001 47.0199 79.5601 47.5899C78.6601 47.8999 77.41 48.05 75.89 48.05C75.33 48.05 74.44 47.9299 73.37 47.7299C73.22 48.6699 73.04 49.3999 72.79 49.9999H72.8ZM76.75 46.1599C78.15 46.1599 79.6 45.7899 80.59 45.3199C81.3 44.9799 81.8 44.6599 81.8 44.2599C81.61 42.9899 80.58 42.02 79.26 42.02C77.52 42.02 75.53 43.63 73.99 45.86C74.52 46.04 75.44 46.17 76.75 46.17V46.1599ZM76.2001 35.2C76.8001 35.64 77.4 36.1699 77.97 36.7799C77.65 37.3099 77.25 37.7999 76.75 38.2299C76.17 37.6799 75.6 37.2099 75.01 36.7099C75.41 36.1799 75.81 35.66 76.21 35.2H76.2001Z" fill="#EB593D"/>
</svg>
