<svg width="265" height="270" viewBox="0 0 265 270" fill="none" xmlns="http://www.w3.org/2000/svg">
<path d="M132.27 3.93994V50.5799" stroke="white" stroke-width="7" stroke-linecap="round" stroke-linejoin="round"/>
<path d="M41.5698 41.51L74.5498 74.49" stroke="white" stroke-width="7" stroke-linecap="round" stroke-linejoin="round"/>
<path d="M4 132.2H50.64" stroke="white" stroke-width="7" stroke-linecap="round" stroke-linejoin="round"/>
<path d="M41.5698 222.9L74.5498 189.92" stroke="white" stroke-width="7" stroke-linecap="round" stroke-linejoin="round"/>
<path d="M222.96 222.9L189.98 189.92" stroke="white" stroke-width="7" stroke-linecap="round" stroke-linejoin="round"/>
<path d="M260.53 132.2H213.89" stroke="white" stroke-width="7" stroke-linecap="round" stroke-linejoin="round"/>
<path d="M222.96 41.51L189.98 74.49" stroke="white" stroke-width="7" stroke-linecap="round" stroke-linejoin="round"/>
<path d="M155.59 260.46H145.76L139.93 266.29H132.27H124.61L118.78 260.46H108.94" stroke="white" stroke-width="7" stroke-linecap="round" stroke-linejoin="round"/>
<path d="M97.2798 225.48H167.25" stroke="white" stroke-width="7" stroke-linecap="round" stroke-linejoin="round"/>
<path d="M103.11 242.97H161.42" stroke="white" stroke-width="7" stroke-linecap="round" stroke-linejoin="round"/>
<path d="M161.42 213.82V202.16C161.42 191.63 165.08 181.92 172.39 174.46C183.41 163.22 190.57 149.32 190.57 132.2C190.57 99.9999 164.47 73.8999 132.27 73.8999C100.07 73.8999 73.9702 99.9999 73.9702 132.2C73.9702 149.33 81.1303 163.23 92.1503 174.46C99.4603 181.92 103.12 191.63 103.12 202.16V213.82" stroke="white" stroke-width="7" stroke-linecap="round" stroke-linejoin="round"/>
<path d="M132.27 213.82V167.18" stroke="white" stroke-width="7" stroke-linecap="round" stroke-linejoin="round"/>
<path d="M120.61 155.52L132.27 167.18L143.93 155.52" stroke="white" stroke-width="7" stroke-linecap="round" stroke-linejoin="round"/>
<path d="M92.11 35.25L101.03 56.79" stroke="white" stroke-width="7" stroke-linecap="round" stroke-linejoin="round"/>
<path d="M35.3101 92.04L56.86 100.97" stroke="white" stroke-width="7" stroke-linecap="round" stroke-linejoin="round"/>
<path d="M35.3101 172.36L56.86 163.44" stroke="white" stroke-width="7" stroke-linecap="round" stroke-linejoin="round"/>
<path d="M229.22 172.36L207.67 163.44" stroke="white" stroke-width="7" stroke-linecap="round" stroke-linejoin="round"/>
<path d="M229.22 92.04L207.67 100.97" stroke="white" stroke-width="7" stroke-linecap="round" stroke-linejoin="round"/>
<path d="M172.42 35.25L163.5 56.79" stroke="white" stroke-width="7" stroke-linecap="round" stroke-linejoin="round"/>
</svg>
