<svg width="272" height="204" viewBox="0 0 272 204" fill="none" xmlns="http://www.w3.org/2000/svg">
<path d="M58.6801 61.91H32.7201C16.8601 61.91 4 74.77 4 90.63V113.61C4 129.47 16.8601 142.33 32.7201 142.33H58.6801C74.0001 176.19 113.76 199.77 153.34 199.77V4.46997C113.76 4.46997 74.0001 28.06 58.6801 61.91Z" stroke="white" stroke-width="7" stroke-linecap="round" stroke-linejoin="round"/>
<path d="M228.02 21.7C253.78 37.99 268.23 69.3899 268.23 102.12C268.23 134.85 253.78 166.26 228.02 182.54" stroke="white" stroke-width="7" stroke-linecap="round" stroke-linejoin="round"/>
<path d="M210.79 38.9299C232.62 50.4999 245.25 75.6799 245.25 102.11C245.25 128.54 232.62 153.73 210.79 165.29" stroke="white" stroke-width="7" stroke-linecap="round" stroke-linejoin="round"/>
<path d="M193.56 56.1599C211.67 62.3299 222.28 81.9199 222.28 102.11C222.28 122.3 211.69 141.91 193.56 148.06" stroke="white" stroke-width="7" stroke-linecap="round" stroke-linejoin="round"/>
</svg>
