<svg width="269" height="269" viewBox="0 0 269 269" fill="none" xmlns="http://www.w3.org/2000/svg">
<path d="M94.92 208.2V185.47H106.29V162.74H49.46V185.47H60.83V208.2C26.11 212.75 6.66 229.75 4 265.03H152.61C149.95 229.74 129.64 212.74 94.93 208.2H94.92Z" stroke="white" stroke-width="7" stroke-linejoin="round"/>
<path d="M258.46 7.02002L120.77 144.71" stroke="white" stroke-width="7" stroke-linecap="round" stroke-linejoin="round"/>
<path d="M138.88 126.32C125.47 112.91 139.43 72.0301 172.74 38.7501C189.86 21.6101 208.59 9.22009 219.96 3.59009V45.6301" stroke="white" stroke-width="7" stroke-linecap="round" stroke-linejoin="round"/>
<path d="M182.41 83.1602H237.01" stroke="white" stroke-width="7" stroke-linecap="round" stroke-linejoin="round"/>
<path d="M159.68 105.89H219.96C188.12 134.83 150.43 138.04 138.88 126.5" stroke="white" stroke-width="7" stroke-linecap="round" stroke-linejoin="round"/>
<path d="M258.59 6.79004C268.96 17.16 266.57 37.69 253.54 60.42H205.04" stroke="white" stroke-width="7" stroke-linecap="round" stroke-linejoin="round"/>
</svg>
