<svg width="242" height="231" viewBox="0 0 242 231" fill="none" xmlns="http://www.w3.org/2000/svg">
<path d="M121.31 206.18C121.31 184.88 131.79 174.23 153.09 174.23H216.99V3.83008H153.09C131.79 3.83008 121.14 14.4801 121.14 35.7801C121.14 14.4801 110.49 3.83008 89.19 3.83008H25.29V174.23H89.19C110.49 174.23 121.31 184.88 121.31 206.18Z" stroke="white" stroke-width="7" stroke-linecap="round" stroke-linejoin="round"/>
<path d="M216.99 25.1401H238.29V195.54H174.39C153.09 195.54 137.12 206.19 137.12 227.49H105.17C105.17 206.19 89.2 195.54 67.9 195.54H4V25.1401H25.3" stroke="white" stroke-width="7" stroke-linecap="round" stroke-linejoin="round"/>
<path d="M121.15 35.79V200.86" stroke="white" stroke-width="7" stroke-linecap="round" stroke-linejoin="round"/>
<path d="M165.5 95.2601C166.67 93.8301 167.95 92.3501 169.32 90.8201C170.69 89.2901 172.15 87.8301 173.7 86.4401C175.24 85.0601 176.86 83.8 178.54 82.67C180.22 81.54 181.95 80.6501 183.73 80.0001C185.51 79.3501 187.33 79.0001 189.2 78.9601C191.06 78.9201 192.93 79.2901 194.81 80.0801C195.85 80.5101 196.79 81.12 197.61 81.92C198.43 82.72 199.12 83.61 199.69 84.6C200.25 85.59 200.69 86.6501 200.98 87.7801C201.28 88.9101 201.43 90.02 201.43 91.1C201.43 92.7 201.13 94.2101 200.52 95.6201C199.91 97.0401 199.08 98.2701 198.03 99.3301C196.97 100.38 195.74 101.22 194.34 101.82C192.93 102.43 191.43 102.73 189.83 102.73H165.31C165.03 104.48 164.44 106.06 163.54 107.48C162.63 108.9 161.53 110.1 160.23 111.09C158.93 112.08 157.49 112.85 155.91 113.39C154.33 113.93 152.72 114.21 151.08 114.21C149.29 114.21 147.53 113.88 145.81 113.24C144.08 112.59 142.54 111.67 141.19 110.48C139.84 109.29 138.75 107.86 137.93 106.2C137.11 104.54 136.7 102.68 136.7 100.64V89.8401H144.18V100.52C144.18 101.59 144.38 102.51 144.77 103.3C145.16 104.09 145.69 104.74 146.34 105.27C146.99 105.79 147.72 106.19 148.55 106.47C149.37 106.75 150.22 106.89 151.09 106.89C151.96 106.89 152.82 106.76 153.65 106.51C154.48 106.25 155.22 105.86 155.86 105.33C156.5 104.8 157.02 104.13 157.41 103.33C157.8 102.53 158 101.6 158 100.53V89.85L165.51 86.8801V95.29L165.5 95.2601ZM174.93 67.9301L180.3 73.3L174.93 78.6401L169.59 73.3L174.93 67.9301ZM189.67 95.2601C190.44 95.2601 191.1 95.14 191.65 94.91C192.2 94.68 192.66 94.36 193.02 93.97C193.38 93.58 193.64 93.1301 193.8 92.6301C193.96 92.1301 194.03 91.62 194.01 91.11C193.99 90.6 193.88 90.1 193.69 89.61C193.5 89.12 193.23 88.68 192.88 88.3C192.53 87.92 192.09 87.6001 191.57 87.3401C191.05 87.0801 190.45 86.92 189.76 86.86C188.87 86.8 187.96 86.8701 187.04 87.0801C186.12 87.2901 185.22 87.61 184.32 88.04C183.42 88.47 182.55 88.97 181.68 89.54C180.82 90.12 180 90.7301 179.22 91.3801C178.44 92.0301 177.71 92.69 177.03 93.36C176.35 94.03 175.74 94.6701 175.21 95.2601H189.66H189.67Z" fill="white"/>
</svg>
