<svg width="78" height="110" viewBox="0 0 78 110" fill="none" xmlns="http://www.w3.org/2000/svg">
<path d="M66.16 57.14C66.16 72.09 54.03 84.21 39.09 84.21C24.15 84.21 12.02 72.09 12.02 57.14V30.07C12.02 15.12 24.14 3 39.09 3C54.04 3 66.16 15.12 66.16 30.07V57.14Z" stroke="#FF961A" stroke-width="4.51" stroke-linejoin="round"/>
<path d="M3 48.1101V57.1301C3 77.3101 18.91 93.2201 39.09 93.2201C59.27 93.2201 75.1799 77.3101 75.1799 57.1301V48.1101" stroke="#FF961A" stroke-width="4.51" stroke-linecap="round" stroke-linejoin="round"/>
<path d="M39.09 93.23V106.77" stroke="#FF961A" stroke-width="4.51" stroke-linecap="round" stroke-linejoin="round"/>
<path d="M39.09 3V16.53" stroke="#FF961A" stroke-width="4.51" stroke-linecap="round" stroke-linejoin="round"/>
<path d="M48.12 4.54004L48.11 16.53" stroke="#FF961A" stroke-width="4.51" stroke-linecap="round" stroke-linejoin="round"/>
<path d="M30.0699 4.54004V16.53" stroke="#FF961A" stroke-width="4.51" stroke-linecap="round" stroke-linejoin="round"/>
<path d="M3 57.1401H75.1799" stroke="#FF961A" stroke-width="4.51" stroke-linejoin="round"/>
<path d="M12.02 30.0701H30.0699" stroke="#FF961A" stroke-width="4.51" stroke-linecap="round" stroke-linejoin="round"/>
<path d="M12.02 39.0901H30.0699" stroke="#FF961A" stroke-width="4.51" stroke-linecap="round" stroke-linejoin="round"/>
<path d="M66.16 30.0701H48.11" stroke="#FF961A" stroke-width="4.51" stroke-linecap="round" stroke-linejoin="round"/>
<path d="M66.16 39.0901H48.11" stroke="#FF961A" stroke-width="4.51" stroke-linecap="round" stroke-linejoin="round"/>
<path d="M12.02 48.1101H30.0699" stroke="#FF961A" stroke-width="4.51" stroke-linecap="round" stroke-linejoin="round"/>
<path d="M66.16 48.1101H48.11" stroke="#FF961A" stroke-width="4.51" stroke-linecap="round" stroke-linejoin="round"/>
</svg>
