<svg width="111" height="82" viewBox="0 0 111 82" fill="none" xmlns="http://www.w3.org/2000/svg">
<path d="M84.4356 63.4502C85.1556 66.8402 85.8956 70.0902 86.4956 73.3602C86.7456 74.7102 86.7356 76.1203 86.7056 77.5003C86.6656 79.4903 85.0956 81.0002 83.1756 81.0502C81.2256 81.1002 79.6756 79.7202 79.3956 77.7402C78.9756 74.7002 78.8756 71.5702 78.0156 68.6602C75.6556 60.6802 70.8056 54.7002 62.8856 51.6302C53.9356 48.1602 43.7456 51.3802 37.5256 59.5102C33.8356 64.3302 31.9256 69.8003 31.6356 75.8403C31.6056 76.4503 31.6056 77.0703 31.5356 77.6803C31.3056 79.7403 29.7056 81.1302 27.7056 81.0502C25.7456 80.9702 24.2256 79.4002 24.2056 77.3302C24.1756 73.1002 24.8856 68.9903 26.2856 65.0003C26.4356 64.5703 26.5856 64.1302 26.7756 63.6102C24.1456 62.1102 21.3956 61.6902 18.4656 62.4402C11.9256 64.1302 7.39558 69.9902 7.41558 76.7602C7.41558 77.3002 7.44562 77.8503 7.33562 78.3703C6.94562 80.1903 5.25559 81.4202 3.43559 81.2702C1.62559 81.1202 0.17558 79.6302 0.04558 77.7702C-0.65442 67.3602 6.78563 57.5203 17.0356 55.1803C21.6456 54.1303 25.9656 54.8402 30.1856 57.0202C36.2856 48.1502 44.6256 42.9802 55.4956 42.9902C66.3356 42.9902 74.6356 48.1603 80.7356 57.0303C83.8256 55.4403 87.0456 54.5402 90.5156 54.7102C100.436 55.1902 109.406 63.4902 110.646 73.3502C110.816 74.6802 110.876 76.0303 110.876 77.3703C110.876 79.6803 109.236 81.3402 107.096 81.2902C105.006 81.2402 103.486 79.5602 103.506 77.2902C103.566 71.1402 100.906 66.5502 95.5156 63.6302C92.0056 61.7302 88.3456 61.4702 84.6756 63.3002C84.5056 63.3802 84.3556 63.5002 84.4356 63.4502Z" fill="#91B8B3"/>
<path d="M36.7356 18.2701C36.7556 8.14014 44.9157 -0.0398539 54.9757 0.000146076C65.1357 0.0401461 73.2657 8.24012 73.2257 18.4101C73.1857 28.4401 64.9357 36.5401 54.7857 36.5001C44.8557 36.4601 36.7056 28.2401 36.7356 18.2801V18.2701ZM44.1256 18.2901C44.1256 24.2801 48.9756 29.1101 55.0056 29.1101C60.9856 29.1101 65.8657 24.2201 65.8457 18.2301C65.8257 12.3001 60.9656 7.41014 55.0656 7.40014C48.9956 7.38014 44.1356 12.2201 44.1356 18.3001L44.1256 18.2901Z" fill="#91B8B3"/>
<path d="M34.4856 33.1802C34.5056 40.9802 28.2356 47.2302 20.4056 47.2402C12.7656 47.2402 6.46563 40.9302 6.45563 33.2702C6.45563 25.4302 12.6756 19.1702 20.4856 19.1702C28.2256 19.1702 34.4656 25.4102 34.4856 33.1802ZM27.0956 33.1402C27.0756 29.4802 24.1256 26.5502 20.4756 26.5602C16.7656 26.5602 13.8356 29.5202 13.8556 33.2602C13.8656 36.9002 16.8356 39.8602 20.4756 39.8502C24.1756 39.8502 27.1256 36.8602 27.0956 33.1402Z" fill="#91B8B3"/>
<path d="M89.5156 47.2302C81.9256 47.3402 75.5456 41.0802 75.4056 33.3902C75.2756 25.7502 81.5156 19.2601 89.1056 19.1601C96.9756 19.0501 103.396 25.2002 103.486 32.9302C103.576 40.8102 97.4156 47.1202 89.5056 47.2302H89.5156ZM96.1056 33.1702C96.1056 29.5302 93.1356 26.5602 89.4956 26.5502C85.7956 26.5502 82.7956 29.5202 82.8056 33.2102C82.8056 36.8302 85.7756 39.8002 89.4256 39.8402C93.0956 39.8702 96.1156 36.8602 96.1056 33.1702Z" fill="#91B8B3"/>
</svg>
