<svg width="110" height="98" viewBox="0 0 110 98" fill="none" xmlns="http://www.w3.org/2000/svg">
<path d="M0 41.9902C0.06 41.8602 0.139983 41.7402 0.169983 41.6102C0.689983 38.9802 1.04999 38.6302 3.67999 38.3202C8.53999 37.7502 12.59 39.3102 15.87 42.9302C16.04 43.1102 16.2 43.3002 16.45 43.5802C17.13 41.7702 17.77 40.0602 18.44 38.2702C18.16 38.1002 17.88 37.9102 17.58 37.7402C10.04 33.3102 8.5 23.1202 14.37 16.6902C15.25 15.7302 16.18 15.4702 17.43 15.8602C26.17 18.5902 29.9 29.1902 24.53 36.6602C21.93 40.2902 20.54 44.2902 19.77 48.5502C16.59 66.1502 26.91 83.3002 43.94 88.7802C45.93 89.4202 48.02 89.7702 50.08 90.1802C51.57 90.4802 52.46 91.4402 52.24 92.7002C52.02 93.9702 50.89 94.6502 49.39 94.4302C45.59 93.8802 41.94 92.8502 38.34 91.2302C38.12 91.5502 37.9 91.8702 37.69 92.1802C32.2 99.9602 20.67 99.9102 15.24 92.1002C14.04 90.3802 14.05 89.8102 15.27 88.0602C17.55 84.7802 20.54 83.0602 25.58 82.1602C24.15 80.3202 22.73 78.5102 21.29 76.6702C18.87 78.2402 16.22 79.0902 13.32 79.0702C7.42001 79.0302 2.05999 74.9502 0.399994 69.2802C0.0799939 68.1802 0.309984 67.3302 1.13998 66.5902C5.07998 63.0802 9.58998 62.0402 14.67 63.4902C15.04 63.6002 15.4 63.7302 15.85 63.8802C15.53 61.6902 15.22 59.5902 14.92 57.4902C13.62 57.3702 12.29 57.3602 11.02 57.1002C5.29999 55.9302 1.24998 51.7102 0.199982 45.9102C0.169982 45.7402 0.0699793 45.5902 0.00997925 45.4302C0.00997925 44.2902 0.00997925 43.1402 0.00997925 42.0002L0 41.9902ZM14.72 52.9402C16.04 47.8002 10.15 41.5102 4.92999 42.5102C4.67999 42.5602 4.29999 43.0402 4.32999 43.2602C4.54999 44.7202 4.64 46.2702 5.19 47.6102C6.74 51.3402 11.18 53.7302 14.71 52.9402H14.72ZM17.02 20.3402C13.27 24.9702 15.34 32.5902 20.79 34.4702C24.58 30.1102 22.6 22.6002 17.02 20.3402ZM19.1 72.8402C16.93 67.2702 9.3 65.2702 4.97 69.0702C6.97 74.5502 14.47 76.5802 19.1 72.8402ZM33.82 90.1002C30.47 85.2902 22.77 85.2802 19.16 90.0702C22.59 94.8702 30.28 94.8902 33.82 90.1002Z" fill="#EB593D"/>
<path d="M91.25 38.2603C91.91 40.0203 92.55 41.7403 93.13 43.2803C94.71 42.1003 96.18 40.7403 97.89 39.7703C100.82 38.1103 104.02 37.7903 107.32 38.5503C108.41 38.8003 109.04 39.4003 109.31 40.5103C111.42 49.0703 104.72 57.5203 95.89 57.4003C95.54 57.4003 95.18 57.4003 94.78 57.4003C94.47 59.5503 94.16 61.6803 93.83 63.9203C97.15 62.6203 100.39 62.5003 103.66 63.6303C105.54 64.2803 107.2 65.3003 108.64 66.6803C109.38 67.3903 109.59 68.1803 109.31 69.2003C106.92 77.7003 97.05 81.6503 89.3 77.2003C89 77.0303 88.69 76.8503 88.4 76.6903C86.97 78.5203 85.57 80.3103 84.16 82.1203C85.3 82.3903 86.45 82.5803 87.54 82.9403C90.64 83.9503 93.03 85.9003 94.8 88.6303C95.47 89.6603 95.44 90.5703 94.8 91.6103C89.64 99.8803 77.63 100.18 71.99 92.1703C71.79 91.8803 71.59 91.6003 71.49 91.4603C68.63 92.3103 65.88 93.1503 63.11 93.9203C62.15 94.1903 61.15 94.3103 60.17 94.4603C58.75 94.6703 57.65 93.9303 57.46 92.6803C57.27 91.4503 58.13 90.4303 59.55 90.2203C69.95 88.6803 78.36 83.7403 84.2 75.0003C91.81 63.6203 92.54 51.5503 86.82 39.1103C86.59 38.6003 86.23 38.1403 85.87 37.7003C79.73 30.1903 82.95 18.9503 92.09 15.9203C93.45 15.4703 94.46 15.7303 95.42 16.8003C101.09 23.1603 99.64 33.1203 92.36 37.6103C92 37.8303 91.64 38.0503 91.26 38.2703L91.25 38.2603ZM94.95 52.9603C99.49 53.8203 104.41 50.2603 105.2 45.4703C105.76 42.1003 105.57 42.1703 102.4 42.6703C97.66 43.4103 94.04 48.4503 94.95 52.9603ZM90.63 72.8303C94.8 76.6903 103.01 74.4703 104.7 69.0303C100.11 65.3303 92.46 67.3903 90.63 72.8303ZM88.88 34.5103C94.43 32.3803 96.46 24.7403 92.68 20.3903C87.23 22.2203 85.18 29.7203 88.88 34.5103ZM90.55 90.1103C86.88 85.2803 79.1 85.3103 75.88 90.1203C79.43 94.8803 86.71 94.9003 90.55 90.1103Z" fill="#EB593D"/>
<path d="M41.63 46.2603C43.27 46.2603 44.91 46.2203 46.55 46.2803C47.25 46.3003 47.55 46.0603 47.75 45.4103C48.73 42.2803 49.72 39.1603 50.77 36.0603C51.58 33.6703 53.79 32.5203 56.11 33.2203C57.59 33.6703 58.5 34.7003 58.97 36.1603C59.95 39.2103 60.97 42.2503 61.92 45.3103C62.15 46.0403 62.46 46.3003 63.25 46.2903C66.43 46.2403 69.6 46.2603 72.78 46.2703C75 46.2703 76.52 47.3203 77.14 49.2003C77.76 51.0903 77.14 52.8603 75.38 54.1603C72.76 56.0803 70.13 57.9803 67.48 59.8603C66.95 60.2403 66.85 60.5603 67.06 61.1703C68.11 64.2703 69.14 67.3903 70.12 70.5103C70.96 73.2003 69.51 75.6603 66.82 76.1903C65.55 76.4403 64.43 76.0303 63.41 75.2903C60.82 73.4003 58.21 71.5303 55.64 69.6003C55.04 69.1503 54.67 69.1603 54.07 69.6003C51.56 71.4903 49.01 73.3203 46.47 75.1603C44.59 76.5303 42.78 76.6203 41.13 75.4503C39.46 74.2703 38.94 72.4503 39.67 70.2103C40.64 67.2303 41.61 64.2503 42.62 61.2803C42.85 60.6003 42.78 60.2303 42.16 59.7903C39.5 57.9303 36.87 56.0203 34.26 54.0903C32.51 52.8003 31.93 50.9903 32.6 49.1003C33.18 47.4503 34.64 46.3703 36.39 46.2803C36.5 46.2803 36.6 46.2703 36.71 46.2703C38.35 46.2703 39.99 46.2703 41.63 46.2703V46.2603ZM43.63 71.9203C46.87 69.5603 49.9 67.3503 52.92 65.1503C54.61 63.9203 55.11 63.9203 56.82 65.1703C58.35 66.2803 59.87 67.4103 61.4 68.5203C62.88 69.6003 64.37 70.6803 66.05 71.9003C65.87 71.3203 65.78 70.9903 65.67 70.6503C64.57 67.3003 63.47 63.9503 62.38 60.5903C61.91 59.1403 62.14 58.4503 63.38 57.5503C66.12 55.5603 68.88 53.5803 71.62 51.5903C72 51.3103 72.38 51.0203 73.01 50.5403H71.64C68.21 50.5403 64.79 50.5403 61.36 50.5403C59.57 50.5403 59.02 50.1403 58.47 48.4703C57.41 45.2203 56.36 41.9603 55.3 38.7103C55.19 38.3703 55.06 38.0303 54.83 37.4103C53.55 41.3603 52.38 44.9903 51.21 48.6103C50.73 50.0903 50.1 50.5503 48.54 50.5503C45.04 50.5503 41.54 50.5503 38.04 50.5503H36.74C37.28 50.9703 37.57 51.2103 37.87 51.4303C40.67 53.4603 43.48 55.4803 46.28 57.5203C47.57 58.4603 47.8 59.1503 47.31 60.6503C46.49 63.1603 45.66 65.6603 44.84 68.1703C44.46 69.3403 44.09 70.5203 43.63 71.9403V71.9203Z" fill="#EB593D"/>
<path d="M40.02 25.1202C39.11 25.1202 38.44 24.7002 38.06 23.8802C36.2 19.9202 34.34 15.9602 32.52 11.9802C31.97 10.7802 32.43 9.58022 33.51 9.08022C34.59 8.58022 35.82 9.01023 36.37 10.1802C38.23 14.1002 40.07 18.0402 41.87 21.9902C42.59 23.5602 41.63 25.1002 40.01 25.1202H40.02Z" fill="#EB593D"/>
<path d="M77.4 11.1703C77.36 11.3303 77.32 11.6903 77.17 12.0103C75.35 15.9503 73.52 19.8903 71.68 23.8203C71.22 24.8003 70.43 25.2603 69.33 25.0903C68.38 24.9403 67.78 24.3403 67.63 23.4203C67.56 22.9903 67.61 22.4703 67.79 22.0803C69.61 18.1003 71.46 14.1303 73.33 10.1803C73.82 9.13033 74.77 8.73032 75.8 8.98032C76.75 9.21032 77.38 10.0103 77.4 11.1903V11.1703Z" fill="#EB593D"/>
<path d="M52.71 17.1302C52.71 15.4502 52.7 13.7802 52.71 12.1002C52.72 10.6502 53.59 9.66022 54.84 9.65022C56.1 9.64022 56.99 10.6102 56.99 12.0602C57 15.4102 57 18.7702 56.99 22.1202C56.99 23.5902 56.11 24.5102 54.81 24.4902C53.56 24.4702 52.73 23.5602 52.71 22.1502C52.69 20.4702 52.71 18.8002 52.71 17.1202V17.1302Z" fill="#EB593D"/>
<path d="M54.81 0.000294913C55.99 -0.0197051 56.99 0.980299 56.98 2.1603C56.97 3.3003 56.01 4.26028 54.88 4.27028C53.7 4.29028 52.7 3.30028 52.72 2.11028C52.73 0.97028 53.68 0.0202949 54.82 0.000294913H54.81Z" fill="#EB593D"/>
</svg>
