<svg width="33" height="32" viewBox="0 0 33 32" fill="none" xmlns="http://www.w3.org/2000/svg">
<path d="M17.6002 31.7002H2.40018C1.90018 31.7002 1.5002 31.5002 1.2002 31.2002C0.900195 30.9002 0.700195 30.4 0.700195 30V1.7002C0.700195 1.2002 0.900195 0.8 1.2002 0.5C1.5002 0.2 2.00018 0 2.40018 0H30.7002C31.2002 0 31.6002 0.2 31.9002 0.5C32.2002 0.8 32.4002 1.3002 32.4002 1.7002V30C32.4002 30.5 32.2002 30.9002 31.9002 31.2002C31.6002 31.5002 31.1002 31.7002 30.7002 31.7002H22.6002V19.3994H26.7002L27.3002 14.5996H22.5002V11.5C22.5002 10.1 22.9002 9.2002 24.9002 9.2002H27.4002V4.89941C26.2002 4.79941 24.9002 4.7002 23.7002 4.7002C22.9002 4.7002 22.1002 4.79961 21.3002 5.09961C20.5002 5.39961 19.8002 5.79941 19.2002 6.39941C18.6002 6.99941 18.2002 7.79961 17.9002 8.59961C17.6002 9.39961 17.5002 10.2996 17.5002 11.0996V14.5996H13.4002V19.3994H17.5002V31.7002H17.6002Z" fill="#777A7E"/>
</svg>
