<svg width="360" height="23" viewBox="0 0 360 23" fill="none" xmlns="http://www.w3.org/2000/svg">
<path d="M309 2.79961C309.1 4.39961 309 5.4998 309 6.9998C309 8.19981 309.1 9.3 309.1 10.7C309.1 11.9 309.1 13.1992 309.2 14.3992C309.2 15.5992 309.2 16.7998 309.2 17.9998C309.2 18.8998 309.2 19.8 309.2 20.7C309.2 20.9 309.2 21.1996 309.2 21.2996C309.2 21.2996 307.4 21.1996 307.1 21.2996C306.5 21.3996 306 21.3 305.8 21.2C305.6 21.2 305.6 18 305.6 17.7C305.6 16.5 305.5 14.9 305.5 13.7C305.5 12.5 305.3 10.5992 305.3 9.39922C305.3 8.19922 305.2 6.89941 305.2 5.59941C305.2 4.29941 305.1 4.19981 305.1 2.9998C305.1 2.6998 305.3 2.7 305.6 2.7C306.2 2.7 308.7 2.59961 309 2.79961Z" fill="white"/>
<path d="M313.5 19.3994C313.6 18.9994 313.6 18.6998 313.6 18.2998C313.3 18.2998 313.1 18.1996 312.9 18.0996C312.5 17.7996 312.2 17.3994 312.2 16.8994V16.7002C312.2 16.6002 312.2 16.6 312.2 16.5V16.0996C312.2 15.7996 312.2 15.4998 312.2 15.2998C312.2 15.0998 312.2 14.9002 312.2 14.7002C312.4 14.8002 312.6 14.8994 312.8 14.8994C312.5 14.6994 312.3 14.5002 312.2 14.2002C312.2 14.0002 312.2 13.9002 312.2 13.7002C312.2 13.2002 312.1 12.5996 312.1 12.0996C312.1 11.7996 312 11.5998 312 11.2998C312 10.9998 311.9 10.8 311.9 10.5C311.8 10.1 311.8 9.6998 311.7 9.2998C312 9.4998 312.3 9.6 312.7 9.5C312.1 9.4 311.8 9 311.6 8.5C311.4 8.1 311.3 7.6998 311.2 7.2998C311.1 6.9998 310.9 6.39961 310.8 6.09961C311 6.29961 311.2 6.39941 311.4 6.39941C311.2 6.29941 311.1 6.2 310.9 6C310.6 5.4 310.5 4.69961 310.4 4.09961C310.3 3.69961 310.5 3.3 310.8 3C310.4 3 310.2 2.89941 310.2 2.89941C310.2 3.29941 310.2 3.69961 310.2 4.09961C310.2 4.59961 310.1 5.59961 310.2 6.09961C310.4 8.39961 310.4 9.2998 310.3 11.7998C310.3 13.1998 310.5 14.7996 310.5 16.0996C310.5 17.8996 310.5 19.1994 310.4 21.3994C310.4 21.3994 311.6 21.2994 312.3 21.3994C312.5 21.3994 312.8 21.4 313.3 21.5C313.3 20.7 313.5 19.8994 313.5 19.3994Z" fill="white"/>
<path d="M334.5 14.7996V13.7H337.8V14.7996H334.5ZM335.9 4.7H336.1V8.9998C336 8.9998 335.9 9.09961 335.9 9.29961C335.9 9.49961 336 9.59941 336.2 9.59941C336.4 9.59941 336.5 9.49961 336.5 9.29961C336.5 9.19961 336.4 9.0998 336.3 8.9998V4.7H336.5C336.5 6.4 338.4 8.89922 338.4 8.89922C337.5 11.7992 337.6 13.4998 337.6 13.4998H335C335 13.4998 335.1 11.8992 334.2 8.89922C334 8.89922 335.9 6.3 335.9 4.7ZM340 21.2996C340 20.8996 340 20.4994 340 20.0994C340 19.5994 340 18.5994 340 18.0994C339.8 15.7994 339.9 14.8992 339.9 12.3992C339.9 10.9992 339.8 9.39941 339.8 8.09941C339.8 6.29941 339.8 4.99961 339.9 2.79961C339.9 2.79961 339.7 2.89961 339.1 2.79961C338.1 2.59961 332.4 2.7 332.4 2.7C332.4 2.9 332.4 5.3 332.4 6.2C332.4 7.7 332.3 8.39922 332.4 9.39922C332.4 10.2992 332.6 11.1998 332.6 12.4998C332.6 14.5998 332.4 15.7996 332.4 17.2996C332.4 18.7996 332.4 18.2996 332.4 19.7996C332.4 19.9996 332.4 20.8 332.6 21.2C332.6 21.2 333.9 21.4992 335.3 21.3992V14.9998H337.1V21.0994C338.2 20.9994 340 21.2996 340 21.2996Z" fill="white"/>
<path d="M325.3 14.7002C325.2 14.7002 325 14.6998 324.9 14.7998C324.7 15.6998 324.3 16.5994 323.8 17.3994C323.2 18.1994 322.5 18.8002 321.6 19.2002C321.3 19.3002 321 19.3994 320.8 19.3994C320.8 20.2994 320.8 21.2998 320.9 21.2998C321.1 21.2998 323.3 21.3994 323.9 21.3994C324.1 21.3994 325.5 21.3994 325.5 21.3994C325.5 21.1994 325.5 20.8998 325.5 20.7998C325.5 19.8998 325.5 18.9996 325.5 18.0996C325.3 16.8996 325.3 15.8002 325.3 14.7002Z" fill="white"/>
<path d="M328.5 7.50042C328.3 7.80042 328.1 8.00023 327.8 8.30023L326.7 7.20062C326.9 6.90062 327.1 6.59984 327.4 6.39984C327.6 6.09984 327.8 5.90003 328.1 5.60003L329.2 6.70062C329 6.90062 328.7 7.20042 328.5 7.50042ZM331.6 18.0004C331.6 16.8004 331.6 15.5998 331.6 14.3998C331.6 13.1998 331.5 11.9006 331.5 10.7006C331.6 9.30062 331.5 8.20042 331.4 7.00042C331.4 5.60042 331.4 4.49984 331.4 2.89984C331 2.69984 327.9 2.90023 327.5 2.80023C327.2 2.70023 326.1 2.80003 326.1 3.10003C326.1 4.40003 326.2 5.40062 326.2 6.70062C326.2 7.90062 326.2 9.09984 326.2 10.3998C326.2 11.0998 326.2 11.9 326.3 12.6C326.7 12.2 327 11.7998 327.4 11.3998C327.9 10.8998 328.4 10.3998 328.9 9.89984C329.2 9.69984 329.5 9.49984 330 9.39984C330.1 9.39984 330.2 9.39984 330.3 9.39984C330.6 9.39984 330.9 9.50023 331.1 9.80023C331.3 10.0002 331.4 10.3004 331.4 10.5004C331.4 10.7004 331.4 10.9004 331.3 11.0004C331.1 11.4004 330.8 11.8006 330.6 12.2006C330.2 12.8006 329.6 13.3006 329 13.7006C328.3 14.1006 327.7 14.4004 327 14.5004C326.8 14.5004 326.6 14.6 326.4 14.6C326.4 15.7 326.4 16.7002 326.4 17.8002C326.4 18.1002 326.3 21.2998 326.4 21.3998C326.6 21.3998 328.2 21.5004 328.8 21.5004C329 21.5004 331.8 21.5004 331.8 21.5004C331.8 21.3004 331.8 20.9998 331.8 20.8998C331.7 19.7998 331.7 18.9004 331.6 18.0004Z" fill="white"/>
<path d="M329.7 11.7998C329.8 11.7998 329.8 11.6996 329.8 11.5996C329.8 11.4996 329.8 11.3998 329.7 11.2998C329.6 11.0998 329.4 10.9994 329.2 10.8994C329.1 10.8994 329 10.8994 328.9 10.8994C328.7 10.8994 328.6 10.9 328.5 11C328.1 11.2 327.8 11.5002 327.5 11.7002C327.2 12.0002 326.9 12.2996 326.6 12.5996C327.2 12.4996 327.7 12.4002 328.2 12.2002C328.7 12.2002 329.2 11.9998 329.7 11.7998Z" fill="white"/>
<path d="M319.7 14.7002C319.7 14.3002 319.6 13.7994 319.6 13.3994C319.5 13.5994 319.4 13.8 319.3 14C319.1 14.4 319 14.7996 318.9 15.0996C318.8 15.2996 318.8 15.5002 318.8 15.7002C318.8 15.9002 318.8 16.0002 318.9 16.2002C319 16.5002 319.2 16.8 319.7 17C319.7 17 319.7 17 319.8 17C319.6 16 319.7 15.4002 319.7 14.7002Z" fill="white"/>
<path d="M319.2 19.0992C318.6 18.7992 318.2 18.0992 318.1 17.0992C318.1 16.9992 318.1 16.899 318.1 16.899C318.1 15.899 318.6 14.599 319.5 12.899C319.5 12.499 319.4 12.0992 319.4 11.5992C319.4 9.59918 319.7 8.29937 319.6 6.79937C319.5 5.29937 319.6 5.79937 319.6 4.29937C319.6 4.09937 319.6 3.29898 319.4 2.89898C319.4 2.89898 316 2.39898 313.9 2.89898C313.3 2.99898 312.5 2.99957 311.8 2.99957C312.4 3.49957 312.9 4.09976 313.3 4.69976V5.29937C313.4 5.19937 313.4 4.99898 313.4 4.89898C313.7 5.29898 313.9 5.69918 314.1 6.09918C314.3 6.49918 314.6 6.99898 314.8 7.39898C315 7.89898 314.9 8.49918 314.7 9.09918C314.9 8.89918 315.1 8.69957 315.3 8.49957C315.4 8.89957 315.6 9.19918 315.7 9.59918C315.8 9.89918 315.9 10.1996 315.9 10.4996C316 10.7996 316 11.099 316.1 11.399C316.1 11.799 316.2 12.0996 316.2 12.4996C316.1 13.2996 315.8 14.0998 315.2 14.6998C315.6 14.5998 315.9 14.2996 316.2 13.9996C316.2 14.3996 316.1 14.7994 316 15.2994C315.9 15.8994 315.7 16.4992 315.3 17.0992L315 17.5992C314.8 17.8992 314.6 18.0998 314.3 18.1998C314.3 17.9998 314.3 17.7992 314.3 17.5992C314.4 16.2992 314.4 14.9998 314.3 13.6998C314.1 11.0998 313.6 8.59976 312.7 6.19976C313.6 8.59976 313.9 11.1998 314 13.6998C314 13.9998 314 14.2996 314 14.4996C314 15.4996 314 16.5992 314 17.5992C314 18.1992 313.9 18.8996 313.9 19.4996C313.8 20.0996 313.8 20.6994 313.7 21.2994C315.9 21.3994 319.9 21.2994 319.9 21.2994C319.9 21.1994 319.9 20.1998 319.9 19.1998C319.5 19.1998 319.4 19.1992 319.2 19.0992Z" fill="white"/>
<path d="M345.3 4.50002C344.1 5.00002 342.9 5.40022 341.8 5.70022L341.9 5.00002C343.2 4.60002 344.6 4.10022 345.6 3.70022L345.3 4.50002ZM345.3 5.89944C344.1 6.39944 342.9 6.79963 341.8 7.09963L341.9 6.39944C343.2 5.99944 344.6 5.49963 345.6 5.09963L345.3 5.89944ZM351.4 17.8994C351.4 16.6994 351.4 15.4998 351.4 14.2998C351.4 13.0998 351.3 11.7996 351.3 10.5996C351.4 9.19963 351.3 8.09944 351.2 6.89944C351.2 5.49944 351.2 4.39983 351.2 2.79983C350.8 2.59983 341.8 2.79983 341.4 2.79983C341 2.79983 340.9 2.90022 340.9 3.20022C340.9 4.50022 341 5.29963 341 6.59963C341 7.79963 341 8.99983 341 10.2998C341 11.4998 341.1 12.7996 341.1 14.0996C341.1 14.8996 341.1 15.7996 341.1 16.5996C341.1 16.4996 341.2 16.3998 341.2 16.2998C341.8 15.1998 342.4 14.3002 343.1 13.7002C343 13.6002 342.9 13.4998 342.7 13.2998C342.4 12.9998 342.2 12.4996 342.2 12.0996C342.2 11.8996 342.2 11.6996 342.2 11.5996C342.2 11.2996 342.2 11.0998 342.3 10.7998C342.4 10.3998 342.6 10.0998 342.8 9.79983C343 9.49983 343.3 9.39944 343.6 9.39944C343.8 9.39944 344 9.40002 344.2 9.50002C344.4 9.50002 344.6 9.59963 344.8 9.59963L344.3 11.2002C343.9 11.1002 343.4 10.9994 343 10.8994C343 11.1994 343.1 11.3996 343.2 11.5996C343.3 11.7996 343.5 11.9996 343.7 12.0996C343.9 12.2996 344 12.2998 344.3 12.2998C344.5 12.2998 344.7 12.1996 345 12.0996C345.5 11.7996 346 11.5002 346.3 11.2002L345.7 12.5996C345.6 12.7996 345.4 13.0998 345.1 13.2998C344.8 13.4998 344.5 13.8 344.2 14C344 14.2 343.7 14.3998 343.3 14.7998C342.9 15.1998 342.5 15.6 342.1 16C341.7 16.4 341.5 16.8998 341.3 17.2998C341.2 17.4998 341.2 17.6998 341.2 17.7998C341.2 17.9998 341.3 18.1998 341.4 18.2998C341.8 18.7998 342.3 19.0998 342.9 19.2998C343.5 19.4998 344.1 19.5996 344.8 19.5996C344.9 19.5996 345 19.5996 345.1 19.5996C345.6 19.5996 346.2 19.6 346.7 19.5C347.3 19.4 347.9 19.2996 348.5 19.0996C348.6 19.0996 348.6 19.0996 348.7 19.0996C348.2 19.6996 347.5 20.1996 346.7 20.5996C346.2 20.7996 345.6 20.9996 345.1 21.0996C346.9 21.0996 351.5 21.0996 351.5 21.0996C351.5 20.8996 351.5 20.6 351.5 20.5C351.4 19.7 351.4 18.7994 351.4 17.8994Z" fill="white"/>
<path d="M341.8 20.8994C341.4 20.6994 341.1 20.4996 340.9 20.0996C340.9 20.5996 340.9 21.0996 341 21.0996C341.1 21.0996 341.9 21.2002 342.7 21.2002C342.4 21.2002 342.1 21.0994 341.8 20.8994Z" fill="white"/>
<path d="M323.9 8.29961C323.7 8.69961 323.4 8.89941 323 9.09941C322.8 9.19941 322.7 9.19961 322.5 9.29961C322.3 9.29961 322.2 9.39922 322 9.39922H321.9C321.9 9.29922 322.2 9.1998 322.6 8.9998C323 8.79981 323.3 8.5998 323.4 8.4998C323.3 8.39981 323.1 8.39922 322.7 8.39922C322.6 8.39922 322.5 8.39922 322.4 8.39922C322.2 8.39922 322 8.39981 321.9 8.4998C321.9 8.4998 321.8 8.59941 321.7 8.59941C321.6 8.69941 321.6 8.7 321.6 8.7C321.6 8.6 321.6 8.49961 321.7 8.29961C321.8 8.09961 321.9 7.79941 322.1 7.59941C322.2 7.49941 322.4 7.39922 322.8 7.39922H323C323.5 7.39922 323.8 7.49941 323.9 7.59941C324 7.69941 324 7.79922 324 7.89922C324.1 7.99922 324 8.09961 323.9 8.29961ZM325.2 10.7C325.3 9.3 325.2 8.19981 325.1 6.9998C325.1 5.5998 325.1 4.49961 325.1 2.79961C324.7 2.59961 322.7 2.7 322.3 2.7C321.8 2.7 320.6 2.6998 320.6 2.9998C320.6 4.2998 320.7 5.29941 320.7 6.59941C320.7 7.79941 320.7 8.99961 320.7 10.2996C320.7 11.4996 320.8 12.7994 320.8 14.0994C320.8 15.0994 320.8 16.1 320.8 17.2C321.3 17.2 321.8 17.0992 322.2 16.8992C323 16.5992 323.6 16.1996 324.1 15.7996V15.7C324.1 15.3 324.1 14.8994 324 14.5994C323.9 14.1994 323.8 13.8998 323.7 13.4998L324.6 11.4998C324.9 12.0998 325.1 12.4996 325.2 12.7996C325.2 12.8996 325.3 12.8998 325.3 12.9998C325.2 11.9998 325.2 11.4 325.2 10.7Z" fill="white"/>
<path d="M359.5 14.7002C359.5 13.8002 359.3 12.8996 359.3 11.5996C359.3 9.59961 359.5 8.2998 359.5 6.7998C359.5 5.2998 359.5 5.7998 359.5 4.2998C359.5 4.0998 359.5 3.29941 359.3 2.89941C359.3 2.89941 357.5 2.7002 355.6 2.7002C357.9 6.7002 358.8 10.1 358.3 13L356.4 14.8994L357 14.7998C357 14.7998 357.3 14.8002 357.8 14.7002C357.1 16.3002 356.1 17.1996 355.5 17.5996C355.5 17.4996 355.5 17.4994 355.5 17.3994C355.7 16.5994 355.9 15.6998 356 14.7998C356.3 12.8998 356.4 10.1996 355.7 7.59961C355.6 7.29961 355.5 7.0002 355.3 6.7002L355.2 6.59961C355.2 6.79961 355.2 7.0002 355.2 7.2002C355.2 7.4002 355.3 7.5998 355.3 7.7998C356.2 10.8998 355.8 14.5994 355.1 17.3994C355.1 17.4994 355.1 17.4996 355.1 17.5996C354 15.7996 353.4 13.6996 353.3 11.5996L354.8 12.2998L353.4 9.7002C353.4 9.3002 353.5 8.9 353.6 8.5L353.7 8L355.8 2.59961C355.6 2.59961 355.4 2.59961 355.3 2.59961C354.2 2.59961 352.3 2.7002 352.3 2.7002C352.3 3.1002 352.3 3.49941 352.3 3.89941C352.3 4.39941 352.3 5.39941 352.3 5.89941C352.5 8.19941 352.4 9.09961 352.4 11.5996C352.4 12.9996 352.5 14.5994 352.5 15.8994C352.5 17.6994 352.5 18.9996 352.4 21.0996C352.4 21.0996 352.6 20.9996 353.2 21.0996C353.3 21.0996 353.6 21.1002 353.8 21.2002C353.9 21.0002 353.9 20.9002 354 20.7002C354.4 20.0002 354.7 19.0996 355 18.0996L355.1 18.2998L355.3 18.2002C355.3 18.2002 355.3 18.2002 355.4 18.2002H355.5C355.3 19.0002 355 19.8 354.6 20.5C354.5 20.7 354.4 21.0002 354.2 21.2002C356.1 21.3002 359.7 21.2998 359.7 21.2998C359.7 21.0998 359.7 18.6998 359.7 17.7998C359.4 16.3998 359.5 15.7002 359.5 14.7002Z" fill="white"/>
<path d="M112.2 9.2002C111.3 9.2002 110.8 8.79961 110.7 8.09961C110.4 8.19961 110.1 8.2998 109.8 8.2998C109.6 8.2998 109.4 8.3002 109.2 8.2002C109 8.1002 108.9 8.1 108.7 8C108.6 7.9 108.5 7.79961 108.4 7.59961C108.3 7.39961 108.3 7.29961 108.3 7.09961C108.3 6.59961 108.5 6.19941 108.9 5.89941C109.3 5.59941 109.9 5.3002 110.7 5.2002V4.59961L111.4 4.5V7.7002C111.4 8.0002 111.5 8.1998 111.6 8.2998C111.7 8.3998 112 8.5 112.3 8.5L112.4 8.59961V9.2998L112.2 9.2002ZM109.3 3.89941L108.7 3.2998L109.3 2.7002L109.9 3.2998L109.3 3.89941ZM109.9 7.59961C110.2 7.59961 110.5 7.6 110.7 7.5V6C110.5 6 110.2 6.09961 110 6.09961C109.8 6.19961 109.6 6.1998 109.4 6.2998C109.2 6.3998 109.1 6.49961 109 6.59961C108.9 6.69961 108.9 6.8 108.9 7C108.9 7.1 108.9 7.1998 109 7.2998C109.1 7.3998 109.1 7.4 109.2 7.5C109.3 7.5 109.4 7.59961 109.5 7.59961C109.6 7.59961 109.7 7.59961 109.9 7.59961ZM110.6 3.89941L110 3.2998L110.6 2.7002L111.2 3.2998L110.6 3.89941Z" fill="white"/>
<path d="M112 9.09961V8.5L112.2 8.39941H112.9L113.1 8.5V9.09961L112.9 9.2002H112.2L112 9.09961Z" fill="white"/>
<path d="M112.8 9.09961V8.5L112.9 8.39941H113.7L113.8 8.5V9.09961L113.7 9.2002H112.9L112.8 9.09961Z" fill="white"/>
<path d="M113.5 9.09961V8.5L113.7 8.39941H114.4L114.5 8.5V9.09961L114.4 9.2002H113.7L113.5 9.09961Z" fill="white"/>
<path d="M114.3 9.09961V8.5L114.4 8.39941H115.1L115.3 8.5V9.09961L115.1 9.2002H114.4L114.3 9.09961Z" fill="white"/>
<path d="M115 9.09961V8.5L115.1 8.39941H115.9L116 8.5V9.09961L115.9 9.2002H115.1L115 9.09961Z" fill="white"/>
<path d="M115.7 9.09961V8.5L115.9 8.39941H116.6L116.8 8.5V9.09961L116.6 9.2002H115.9L115.7 9.09961Z" fill="white"/>
<path d="M116.5 9.09961V8.5L116.6 8.39941H117.4L117.5 8.5V9.09961L117.4 9.2002H116.6L116.5 9.09961Z" fill="white"/>
<path d="M117.2 9.09961V8.5L117.4 8.39941H118.1L118.3 8.5V9.09961L118.1 9.2002H117.4L117.2 9.09961Z" fill="white"/>
<path d="M118 9.09961V8.5L118.1 8.39941H118.9L119 8.5V9.09961L118.9 9.2002H118.1L118 9.09961Z" fill="white"/>
<path d="M118.7 9.09961V8.5L118.9 8.39941H119.6L119.8 8.5V9.09961L119.6 9.2002H118.9L118.7 9.09961Z" fill="white"/>
<path d="M119.5 9.09961V8.5L119.6 8.39941H120.4L120.5 8.5V9.09961L120.4 9.2002H119.6L119.5 9.09961Z" fill="white"/>
<path d="M120.2 9.09961V8.5L120.4 8.39941H121.1L121.3 8.5V9.09961L121.1 9.2002H120.4L120.2 9.09961Z" fill="white"/>
<path d="M121 9.09961V8.5L121.1 8.39941H121.9L122 8.5V9.09961L121.9 9.2002H121.1L121 9.09961Z" fill="white"/>
<path d="M121.7 9.09961V8.5L121.8 8.39941H122.6L122.7 8.5V9.09961L122.6 9.2002H121.8L121.7 9.09961Z" fill="white"/>
<path d="M122.4 9.09961V8.5L122.6 8.39941H123.3L123.5 8.5V9.09961L123.3 9.2002H122.6L122.4 9.09961Z" fill="white"/>
<path d="M123.2 9.09961V8.5L123.3 8.39941H124.1L124.2 8.5V9.09961L124.1 9.2002H123.3L123.2 9.09961Z" fill="white"/>
<path d="M123.9 9.09961V8.5L124.1 8.39941H124.8L125 8.5V9.09961L124.8 9.2002H124.1L123.9 9.09961Z" fill="white"/>
<path d="M124.7 9.09961V8.5L124.8 8.39941H125.6L125.7 8.5V9.09961L125.6 9.2002H124.8L124.7 9.09961Z" fill="white"/>
<path d="M125.4 9.09961V8.5L125.6 8.39941H126.3L126.5 8.5V9.09961L126.3 9.2002H125.6L125.4 9.09961Z" fill="white"/>
<path d="M126.2 9.09961V8.5L126.3 8.39941H127.1L127.2 8.5V9.09961L127.1 9.2002H126.3L126.2 9.09961Z" fill="white"/>
<path d="M126.9 9.09961V8.5L127.1 8.39941H127.8L128 8.5V9.09961L127.8 9.2002H127.1L126.9 9.09961Z" fill="white"/>
<path d="M127.7 9.09961V8.5L127.8 8.39941H128.6L128.7 8.5V9.09961L128.6 9.2002H127.8L127.7 9.09961Z" fill="white"/>
<path d="M128.4 9.09961V8.5L128.6 8.39941H129.3L129.4 8.5V9.09961L129.3 9.2002H128.6L128.4 9.09961Z" fill="white"/>
<path d="M129.2 9.09961V8.5L129.3 8.39941H130L130.2 8.5V9.09961L130 9.2002H129.3L129.2 9.09961Z" fill="white"/>
<path d="M129.9 9.09961V8.5L130 8.39941H130.8L130.9 8.5V9.09961L130.8 9.2002H130L129.9 9.09961Z" fill="white"/>
<path d="M130.6 9.09961V8.5L130.8 8.39941H131.5L131.7 8.5V9.09961L131.5 9.2002H130.8L130.6 9.09961Z" fill="white"/>
<path d="M131.4 9.09961V8.5L131.5 8.39941H132.3L132.4 8.5V9.09961L132.3 9.2002H131.5L131.4 9.09961Z" fill="white"/>
<path d="M132.1 9.09961V8.5L132.3 8.39941H133L133.2 8.5V9.09961L133 9.2002H132.3L132.1 9.09961Z" fill="white"/>
<path d="M132.9 9.09961V8.5L133 8.39941H133.8L133.9 8.5V9.09961L133.8 9.2002H133L132.9 9.09961Z" fill="white"/>
<path d="M133.6 9.09961V8.5L133.8 8.39941H134.5L134.7 8.5V9.09961L134.5 9.2002H133.8L133.6 9.09961Z" fill="white"/>
<path d="M134.4 9.09961V8.5L134.5 8.39941H135.3L135.4 8.5V9.09961L135.3 9.2002H134.5L134.4 9.09961Z" fill="white"/>
<path d="M135.1 9.09961V8.5L135.3 8.39941H136L136.2 8.5V9.09961L136 9.2002H135.3L135.1 9.09961Z" fill="white"/>
<path d="M135.9 9.09961V8.5L136 8.39941H136.8L136.9 8.5V9.09961L136.8 9.2002H136L135.9 9.09961Z" fill="white"/>
<path d="M136.6 9.09961V8.5L136.8 8.39941H137.5L137.6 8.5V9.09961L137.5 9.2002H136.8L136.6 9.09961Z" fill="white"/>
<path d="M137.3 9.09961V8.5L137.5 8.39941H138.2L138.4 8.5V9.09961L138.2 9.2002H137.5L137.3 9.09961Z" fill="white"/>
<path d="M138.1 9.09961V8.5L138.2 8.39941H139L139.1 8.5V9.09961L139 9.2002H138.2L138.1 9.09961Z" fill="white"/>
<path d="M138.8 9.09961V8.5L139 8.39941H139.7L139.9 8.5V9.09961L139.7 9.2002H139L138.8 9.09961Z" fill="white"/>
<path d="M139.6 9.09961V8.5L139.7 8.39941H140.5L140.6 8.5V9.09961L140.5 9.2002H139.7L139.6 9.09961Z" fill="white"/>
<path d="M140.3 9.09961V8.5L140.5 8.39941H141.2L141.4 8.5V9.09961L141.2 9.2002H140.5L140.3 9.09961Z" fill="white"/>
<path d="M141.1 9.09961V8.5L141.2 8.39941H142L142.1 8.5V9.09961L142 9.2002H141.2L141.1 9.09961Z" fill="white"/>
<path d="M141.8 9.09961V8.5L142 8.39941H142.7L142.9 8.5V9.09961L142.7 9.2002H142L141.8 9.09961Z" fill="white"/>
<path d="M142.6 9.09961V8.5L142.7 8.39941H143.5L143.6 8.5V9.09961L143.5 9.2002H142.7L142.6 9.09961Z" fill="white"/>
<path d="M143.3 9.09961V8.5L143.5 8.39941H144.2L144.4 8.5V9.09961L144.2 9.2002H143.5L143.3 9.09961Z" fill="white"/>
<path d="M144.1 9.09961V8.5L144.2 8.39941H144.9L145.1 8.5V9.09961L144.9 9.2002H144.2L144.1 9.09961Z" fill="white"/>
<path d="M144.8 9.09961V8.5L144.9 8.39941H145.7L145.8 8.5V9.09961L145.7 9.2002H144.9L144.8 9.09961Z" fill="white"/>
<path d="M145.5 9.09961V8.5L145.7 8.39941H146.4L146.6 8.5V9.09961L146.4 9.2002H145.7L145.5 9.09961Z" fill="white"/>
<path d="M146.3 9.09961V8.5L146.4 8.39941H147.2L147.3 8.5V9.09961L147.2 9.2002H146.4L146.3 9.09961Z" fill="white"/>
<path d="M147 9.09961V8.5L147.2 8.39941H147.9L148.1 8.5V9.09961L147.9 9.2002H147.2L147 9.09961Z" fill="white"/>
<path d="M150.8 9.2998C150.5 9.2998 150.2 9.19961 149.9 9.09961C149.6 8.99961 149.4 8.8 149.2 8.5C149 8.7 148.8 8.9 148.6 9C148.4 9.1 148.1 9.2002 147.8 9.2002L147.7 9.09961V8.39941L147.8 8.2998C147.9 8.2998 148 8.2998 148.1 8.2998C148.2 8.2998 148.3 8.2002 148.4 8.2002C148.5 8.2002 148.6 8.1 148.6 8C148.7 7.9 148.7 7.8002 148.8 7.7002L149.3 6.7998C149.5 6.3998 149.7 6.2 149.9 6C150.1 5.8 150.4 5.7998 150.6 5.7998C150.8 5.7998 151 5.9 151.2 6C151.4 6.1 151.5 6.19941 151.7 6.39941C151.8 6.59941 151.9 6.8 152 7C152.1 7.2 152.1 7.4998 152.1 7.7998C152.1 8.2998 152 8.69941 151.7 8.89941C151.6 9.19941 151.3 9.2998 150.8 9.2998ZM149.6 7.89941C149.7 8.09941 149.9 8.1998 150.1 8.2998C150.3 8.3998 150.6 8.5 150.8 8.5C151 8.5 151.2 8.3998 151.4 8.2998C151.5 8.1998 151.6 7.9998 151.6 7.7998C151.6 7.6998 151.6 7.49941 151.5 7.39941C151.5 7.29941 151.4 7.1 151.3 7C151.2 6.9 151.1 6.7998 151 6.7998C150.9 6.6998 150.8 6.7002 150.7 6.7002C150.4 6.7002 150.1 6.89941 149.9 7.39941L149.6 7.89941ZM153 9.2002C152.6 9.2002 152.3 9.1 152.1 9C151.9 8.9 151.7 8.59941 151.6 8.39941L152.1 7.7998C152.1 7.9998 152.2 8.1002 152.3 8.2002C152.5 8.3002 152.7 8.39941 153 8.39941L153.1 8.5V9.2002H153Z" fill="white"/>
<path d="M155.3 11L154.7 10.3994L155.3 9.7998L155.9 10.3994L155.3 11Z" fill="white"/>
<path d="M155.4 7.7002C155.6 7.6002 155.8 7.49941 156 7.39941C156.2 7.29941 156.3 7.3002 156.5 7.2002L156 7C155.8 6.9 155.6 6.7998 155.5 6.7998C155.4 6.6998 155.2 6.7002 155.1 6.7002C155 6.7002 154.9 6.59961 154.8 6.59961C154.7 6.59961 154.6 6.59961 154.5 6.59961C154.3 6.59961 154.2 6.6002 154.1 6.7002C154 6.8002 153.9 6.9 153.7 7L153.3 6.7002C153.5 6.4002 153.7 6.19961 153.9 6.09961C154.1 5.99961 154.4 5.89941 154.7 5.89941C154.8 5.89941 154.9 5.89941 155 5.89941C155.1 5.89941 155.2 5.9 155.3 6C155.4 6 155.6 6.09961 155.7 6.09961C155.9 6.19961 156 6.1998 156.2 6.2998C156.4 6.3998 156.5 6.4 156.6 6.5C156.7 6.6 156.8 6.59961 156.9 6.59961C157 6.59961 157.1 6.7002 157.2 6.7002C157.3 6.7002 157.4 6.7002 157.4 6.7002H157.6V7.5C157.5 7.5 157.3 7.59961 157.2 7.59961C157.1 7.59961 156.9 7.6998 156.8 7.7998C156.7 7.8998 156.5 7.9 156.3 8C156.1 8.1 155.9 8.1998 155.7 8.2998C155.4 8.4998 155.1 8.6002 154.9 8.7002C154.7 8.8002 154.4 8.9 154.2 9C154 9.1 153.8 9.09961 153.6 9.09961C153.4 9.09961 153.2 9.09961 153 9.09961L152.9 9V8.2998L153 8.2002C153.2 8.2002 153.4 8.2002 153.5 8.2002C153.7 8.2002 153.8 8.09961 154 8.09961C154.2 7.99961 154.4 7.99941 154.6 7.89941C154.9 7.99941 155.1 7.8002 155.4 7.7002Z" fill="white"/>
<path d="M158 10.3994C158.3 10.2994 158.6 10.1 158.9 10C159.2 9.8 159.4 9.7 159.6 9.5C159.8 9.3 160 9.1 160.1 9C160.2 8.8 160.3 8.7 160.3 8.5C160.3 8.4 160.3 8.19941 160.2 7.89941C160.1 7.59941 160 7.39961 159.8 7.09961L160.5 6.7998C160.6 7.0998 160.8 7.4002 160.8 7.7002C160.9 8.0002 160.9 8.3 160.9 8.5C160.9 9.1 160.7 9.59961 160.2 10.0996C159.8 10.5996 159.1 10.9998 158.3 11.2998L158 10.3994Z" fill="white"/>
<path d="M162.4 5.7998L161.8 5.2002L162.4 4.59961L163 5.2002L162.4 5.7998ZM163.8 5.7998L163.2 5.2002L163.8 4.59961L164.4 5.2002L163.8 5.7998Z" fill="white"/>
<path d="M164.2 9.2002C163.7 9.2002 163.3 9.09941 163 8.89941C162.7 8.69941 162.6 8.39941 162.6 7.89941C162.6 7.79941 162.6 7.6 162.6 7.5C162.5 7.5 162.4 7.49961 162.2 7.59961C162.1 7.59961 161.9 7.59961 161.8 7.59961C161.7 7.59961 161.6 7.59961 161.5 7.59961C161.4 7.59961 161.2 7.6 161.1 7.5C161 7.5 160.8 7.49941 160.7 7.39941C160.6 7.39941 160.5 7.2998 160.4 7.2998L160.6 6.59961C160.7 6.59961 160.8 6.6002 160.9 6.7002C161 6.7002 161.1 6.7002 161.2 6.7002C161.3 6.7002 161.4 6.7002 161.6 6.7002C161.7 6.7002 161.8 6.7002 161.9 6.7002C162.2 6.7002 162.4 6.7002 162.7 6.7002C162.9 6.7002 163.2 6.59961 163.4 6.59961C163.4 6.69961 163.4 6.79941 163.4 6.89941C163.4 6.99941 163.4 7.1002 163.4 7.2002C163.4 7.3002 163.4 7.4 163.4 7.5C163.4 7.6 163.4 7.6002 163.4 7.7002C163.4 8.0002 163.5 8.0998 163.6 8.2998C163.7 8.3998 164 8.5 164.3 8.5L164.4 8.59961V9.2998L164.2 9.2002Z" fill="white"/>
<path d="M164 9.09961V8.39941L164.1 8.2998C164.2 8.2998 164.4 8.2998 164.5 8.2998C164.6 8.2998 164.7 8.3002 164.8 8.2002C164.9 8.2002 165 8.09961 165.1 8.09961C165.2 7.99961 165.2 7.99941 165.2 7.89941V3.2998L165.9 3.2002V7.7998C165.9 8.0998 165.8 8.3 165.7 8.5C165.6 8.7 165.5 8.79941 165.3 8.89941C165.1 8.99941 164.9 9.09961 164.7 9.09961C164.5 9.09961 164.3 9.2002 164.1 9.2002L164 9.09961Z" fill="white"/>
<path d="M167.2 9.2002V3.39941L167.9 3.2002L167.8 9.2002H167.2Z" fill="white"/>
<path d="M169 10.2998C170.3 10.0998 171.1 9.5998 171.3 8.7998C171.2 8.8998 171 9 170.9 9C170.7 9 170.6 9.09961 170.4 9.09961C170 9.09961 169.7 9.0002 169.4 8.7002C169.2 8.4002 169 7.99961 169 7.59961C169 7.29961 169 7.09941 169.1 6.89941C169.2 6.69941 169.3 6.4998 169.4 6.2998C169.5 6.0998 169.7 5.99941 169.9 5.89941C170.1 5.79941 170.3 5.7998 170.5 5.7998C171 5.7998 171.4 6 171.6 6.5C171.9 6.9 172 7.5998 172 8.2998C172 8.6998 171.9 8.9998 171.8 9.2998C171.7 9.5998 171.5 9.89961 171.3 10.0996C171.1 10.2996 170.8 10.5002 170.5 10.7002C170.2 10.9002 169.8 11 169.4 11L169 10.2998ZM170.4 8.39941C170.6 8.39941 170.7 8.3998 170.9 8.2998C171.1 8.2998 171.2 8.19961 171.3 8.09961C171.3 7.59961 171.2 7.2 171 7C170.8 6.7 170.6 6.59961 170.3 6.59961C170.1 6.59961 169.9 6.69941 169.7 6.89941C169.5 7.09941 169.5 7.29961 169.5 7.59961C169.5 7.89961 169.6 8.1002 169.7 8.2002C170 8.3002 170.2 8.39941 170.4 8.39941Z" fill="white"/>
<path d="M177.9 9.2002C177.5 9.2002 177.1 9.09941 176.9 8.89941C176.8 9.29941 176.5 9.79961 176.1 10.0996C175.7 10.4996 175.1 10.8 174.5 11L174.1 10.2998C174.8 9.9998 175.3 9.69941 175.7 9.39941C176.1 9.09941 176.4 8.6998 176.4 8.2998C176.3 8.0998 176.2 7.9002 176.1 7.7002C176 7.5002 175.9 7.1998 175.8 6.7998L176.5 6.5C176.6 6.7 176.7 7.0002 176.7 7.2002C176.8 7.4002 176.8 7.6002 176.9 7.7002C176.9 7.8002 177 7.9 177.1 8C177.2 8.1 177.2 8.1002 177.3 8.2002C177.4 8.2002 177.5 8.2998 177.6 8.2998C177.7 8.2998 177.8 8.2998 178 8.2998L178.1 8.39941V9.09961L177.9 9.2002Z" fill="white"/>
<path d="M177.7 9.09961V8.5L177.9 8.39941H178.6L178.8 8.5V9.09961L178.6 9.2002H177.9L177.7 9.09961Z" fill="white"/>
<path d="M178.5 9.09961V8.5L178.6 8.39941H179.4L179.5 8.5V9.09961L179.4 9.2002H178.6L178.5 9.09961Z" fill="white"/>
<path d="M179.2 9.09961V8.5L179.4 8.39941H180.1L180.2 8.5V9.09961L180.1 9.2002H179.4L179.2 9.09961Z" fill="white"/>
<path d="M179.9 9.09961V8.5L180.1 8.39941H180.8L181 8.5V9.09961L180.8 9.2002H180.1L179.9 9.09961Z" fill="white"/>
<path d="M180.7 9.09961V8.5L180.8 8.39941H181.6L181.7 8.5V9.09961L181.6 9.2002H180.8L180.7 9.09961Z" fill="white"/>
<path d="M181.4 9.09961V8.5L181.6 8.39941H182.3L182.5 8.5V9.09961L182.3 9.2002H181.6L181.4 9.09961Z" fill="white"/>
<path d="M182.2 9.09961V8.5L182.3 8.39941H183.1L183.2 8.5V9.09961L183.1 9.2002H182.3L182.2 9.09961Z" fill="white"/>
<path d="M182.9 9.09961V8.5L183.1 8.39941H183.8L184 8.5V9.09961L183.8 9.2002H183.1L182.9 9.09961Z" fill="white"/>
<path d="M183.7 9.09961V8.5L183.8 8.39941H184.6L184.7 8.5V9.09961L184.6 9.2002H183.8L183.7 9.09961Z" fill="white"/>
<path d="M184.4 9.09961V8.5L184.6 8.39941H185.3L185.5 8.5V9.09961L185.3 9.2002H184.6L184.4 9.09961Z" fill="white"/>
<path d="M185.2 9.09961V8.5L185.3 8.39941H186.1L186.2 8.5V9.09961L186.1 9.2002H185.3L185.2 9.09961Z" fill="white"/>
<path d="M185.9 9.09961V8.5L186.1 8.39941H186.8L187 8.5V9.09961L186.8 9.2002H186.1L185.9 9.09961Z" fill="white"/>
<path d="M186.7 9.09961V8.5L186.8 8.39941H187.5L187.7 8.5V9.09961L187.5 9.2002H186.8L186.7 9.09961Z" fill="white"/>
<path d="M187.4 9.09961V8.5L187.5 8.39941H188.3L188.4 8.5V9.09961L188.3 9.2002H187.5L187.4 9.09961Z" fill="white"/>
<path d="M188.1 9.09961V8.5L188.3 8.39941H189L189.2 8.5V9.09961L189 9.2002H188.3L188.1 9.09961Z" fill="white"/>
<path d="M188.9 9.09961V8.5L189 8.39941H189.8L189.9 8.5V9.09961L189.8 9.2002H189L188.9 9.09961Z" fill="white"/>
<path d="M189.6 9.09961V8.5L189.8 8.39941H190.5L190.7 8.5V9.09961L190.5 9.2002H189.8L189.6 9.09961Z" fill="white"/>
<path d="M190.4 9.09961V8.5L190.5 8.39941H191.3L191.4 8.5V9.09961L191.3 9.2002H190.5L190.4 9.09961Z" fill="white"/>
<path d="M191.1 9.09961V8.5L191.3 8.39941H192L192.2 8.5V9.09961L192 9.2002H191.3L191.1 9.09961Z" fill="white"/>
<path d="M191.9 9.09961V8.5L192 8.39941H192.8L192.9 8.5V9.09961L192.8 9.2002H192L191.9 9.09961Z" fill="white"/>
<path d="M192.6 9.09961V8.5L192.8 8.39941H193.5L193.7 8.5V9.09961L193.5 9.2002H192.8L192.6 9.09961Z" fill="white"/>
<path d="M193.4 9.09961V8.5L193.5 8.39941H194.3L194.4 8.5V9.09961L194.3 9.2002H193.5L193.4 9.09961Z" fill="white"/>
<path d="M194.1 9.09961V8.5L194.3 8.39941H195L195.1 8.5V9.09961L195 9.2002H194.3L194.1 9.09961Z" fill="white"/>
<path d="M194.9 9.09961V8.5L195 8.39941H195.7L195.9 8.5V9.09961L195.7 9.2002H195L194.9 9.09961Z" fill="white"/>
<path d="M195.6 9.09961V8.5L195.7 8.39941H196.5L196.6 8.5V9.09961L196.5 9.2002H195.7L195.6 9.09961Z" fill="white"/>
<path d="M196.3 9.09961V8.5L196.5 8.39941H197.2L197.4 8.5V9.09961L197.2 9.2002H196.5L196.3 9.09961Z" fill="white"/>
<path d="M197.1 9.09961V8.5L197.2 8.39941H198L198.1 8.5V9.09961L198 9.2002H197.2L197.1 9.09961Z" fill="white"/>
<path d="M197.8 9.09961V8.5L198 8.39941H198.7L198.9 8.5V9.09961L198.7 9.2002H198L197.8 9.09961Z" fill="white"/>
<path d="M198.6 9.09961V8.5L198.7 8.39941H199.5L199.6 8.5V9.09961L199.5 9.2002H198.7L198.6 9.09961Z" fill="white"/>
<path d="M199.3 9.09961V8.5L199.5 8.39941H200.2L200.4 8.5V9.09961L200.2 9.2002H199.5L199.3 9.09961Z" fill="white"/>
<path d="M200.1 9.09961V8.5L200.2 8.39941H201L201.1 8.5V9.09961L201 9.2002H200.2L200.1 9.09961Z" fill="white"/>
<path d="M200.8 9.09961V8.5L201 8.39941H201.7L201.9 8.5V9.09961L201.7 9.2002H201L200.8 9.09961Z" fill="white"/>
<path d="M201.6 9.09961V8.5L201.7 8.39941H202.5L202.6 8.5V9.09961L202.5 9.2002H201.7L201.6 9.09961Z" fill="white"/>
<path d="M202.3 9.09961V8.5L202.5 8.39941H203.2L203.3 8.5V9.09961L203.2 9.2002H202.5L202.3 9.09961Z" fill="white"/>
<path d="M203 9.09961V8.5L203.2 8.39941H203.9L204.1 8.5V9.09961L203.9 9.2002H203.2L203 9.09961Z" fill="white"/>
<path d="M203.8 9.09961V8.5L203.9 8.39941H204.7L204.8 8.5V9.09961L204.7 9.2002H203.9L203.8 9.09961Z" fill="white"/>
<path d="M204.5 9.09961V8.5L204.7 8.39941H205.4L205.6 8.5V9.09961L205.4 9.2002H204.7L204.5 9.09961Z" fill="white"/>
<path d="M205.3 9.09961V8.5L205.4 8.39941H206.2L206.3 8.5V9.09961L206.2 9.2002H205.4L205.3 9.09961Z" fill="white"/>
<path d="M206 9.09961V8.5L206.2 8.39941H206.9L207.1 8.5V9.09961L206.9 9.2002H206.2L206 9.09961Z" fill="white"/>
<path d="M206.8 9.09961V8.5L206.9 8.39941H207.7L207.8 8.5V9.09961L207.7 9.2002H206.9L206.8 9.09961Z" fill="white"/>
<path d="M207.5 9.09961V8.5L207.7 8.39941H208.4L208.6 8.5V9.09961L208.4 9.2002H207.7L207.5 9.09961Z" fill="white"/>
<path d="M208.3 9.09961V8.5L208.4 8.39941H209.2L209.3 8.5V9.09961L209.2 9.2002H208.4L208.3 9.09961Z" fill="white"/>
<path d="M209 9.09961V8.5L209.2 8.39941H209.9L210 8.5V9.09961L209.9 9.2002H209.2L209 9.09961Z" fill="white"/>
<path d="M209.8 9.09961V8.5L209.9 8.39941H210.6L210.8 8.5V9.09961L210.6 9.2002H209.9L209.8 9.09961Z" fill="white"/>
<path d="M210.5 9.09961V8.5L210.6 8.39941H211.4L211.5 8.5V9.09961L211.4 9.2002H210.6L210.5 9.09961Z" fill="white"/>
<path d="M211.2 9.09961V8.5L211.4 8.39941H212.1L212.3 8.5V9.09961L212.1 9.2002H211.4L211.2 9.09961Z" fill="white"/>
<path d="M212 9.09961V8.39941L212.1 8.2998C212.3 8.2998 212.4 8.3002 212.6 8.2002C212.7 8.2002 212.8 8.1 212.9 8C213 7.9 213.1 7.79961 213.1 7.59961C213.2 7.39961 213.3 7.19941 213.3 6.89941L213.9 7.09961C213.8 7.49961 213.7 7.89961 213.6 8.09961C213.5 8.39961 213.4 8.6002 213.3 8.7002C213.2 8.8002 213 9 212.8 9C212.6 9.1 212.3 9.09961 212 9.09961ZM218.7 6.5C218.7 6.7 218.7 6.89961 218.6 7.09961C218.6 7.29961 218.6 7.39961 218.6 7.59961C218.6 7.69961 218.6 7.9 218.5 8C218.5 8.1 218.5 8.1998 218.4 8.2998C218.2 8.8998 217.7 9.2998 216.9 9.2998C216.4 9.2998 216 9.0998 215.7 8.7998C215.6 8.9998 215.4 9.1002 215.2 9.2002C215 9.3002 214.8 9.2998 214.5 9.2998C214.1 9.2998 213.8 9.2 213.6 9C213.4 8.8 213.2 8.49961 213.2 8.09961L213.5 7.5C213.6 7.8 213.7 8.0002 213.9 8.2002C214.1 8.3002 214.3 8.39941 214.6 8.39941C215.1 8.39941 215.4 8.1998 215.5 7.7998C215.5 7.6998 215.5 7.6 215.5 7.5C215.5 7.4 215.5 7.3002 215.6 7.2002C215.6 7.1002 215.6 6.99941 215.6 6.89941C215.6 6.79941 215.6 6.69961 215.6 6.59961L216.2 6.7002C216.2 7.0002 216.1 7.19941 216.1 7.39941C216.1 7.59941 216.1 7.6998 216.1 7.7998C216.1 7.9998 216.2 8.1002 216.3 8.2002C216.4 8.3002 216.6 8.39941 216.9 8.39941C217.4 8.39941 217.7 8.1998 217.7 7.7998C217.7 7.6998 217.7 7.69961 217.7 7.59961C217.7 7.49961 217.7 7.3998 217.7 7.2998C217.7 7.1998 217.7 6.99941 217.7 6.89941C217.7 6.79941 217.7 6.6 217.7 6.5H218.7ZM215.5 5.5L214.9 4.89941L215.5 4.2998L216.1 4.89941L215.5 5.5ZM216.2 4.2998L215.6 3.7002L216.2 3.09961L216.8 3.7002L216.2 4.2998ZM216.8 5.5L216.2 4.89941L216.8 4.2998L217.4 4.89941L216.8 5.5ZM219.5 9.2002C219.1 9.2002 218.8 9.1 218.6 9C218.4 8.9 218.2 8.59941 218.1 8.39941L218.6 7.7998C218.6 7.9998 218.7 8.1002 218.8 8.2002C219 8.3002 219.2 8.39941 219.5 8.39941L219.6 8.5V9.2002H219.5Z" fill="white"/>
<path d="M222.6 9.2002C221.9 9.2002 221.4 8.99961 221.1 8.59961C221 8.79961 220.8 8.99961 220.5 9.09961C220.2 9.19961 219.9 9.2998 219.5 9.2998L219.4 9.2002V8.5L219.5 8.39941C219.9 8.39941 220.2 8.3998 220.4 8.2998C220.6 8.1998 220.7 8.0998 220.8 7.7998C220.8 7.6998 220.8 7.6 220.8 7.5C220.8 7.4 220.8 7.3002 220.9 7.2002C220.9 7.1002 220.9 6.99941 220.9 6.89941C220.9 6.79941 220.9 6.69961 220.9 6.59961L221.5 6.7002C221.5 7.0002 221.4 7.19941 221.4 7.39941C221.4 7.59941 221.4 7.6998 221.4 7.7998C221.4 8.1998 221.8 8.39941 222.5 8.39941L222.6 8.5V9.2002ZM221.3 5.89941L220.7 5.2998L221.3 4.7002L221.9 5.2998L221.3 5.89941Z" fill="white"/>
<path d="M222.4 9.09961V8.39941L222.5 8.2998C222.6 8.2998 222.8 8.2998 222.9 8.2998C223 8.2998 223.1 8.3002 223.2 8.2002C223.3 8.2002 223.4 8.09961 223.5 8.09961C223.6 7.99961 223.6 7.99941 223.6 7.89941V3.2998L224.3 3.2002V7.7998C224.3 8.0998 224.2 8.3 224.1 8.5C224 8.7 223.9 8.79941 223.7 8.89941C223.5 8.99941 223.3 9.09961 223.1 9.09961C222.9 9.09961 222.7 9.2002 222.5 9.2002L222.4 9.09961Z" fill="white"/>
<path d="M225.6 9.2002L225.5 3.39941L226.3 3.2002L226.2 9.2002H225.6Z" fill="white"/>
<path d="M227.3 10.2998C228.6 10.0998 229.4 9.5998 229.6 8.7998C229.5 8.8998 229.3 9 229.2 9C229 9 228.9 9.09961 228.7 9.09961C228.3 9.09961 228 9.0002 227.7 8.7002C227.5 8.4002 227.3 7.99961 227.3 7.59961C227.3 7.29961 227.3 7.09941 227.4 6.89941C227.5 6.69941 227.6 6.4998 227.7 6.2998C227.8 6.0998 228 5.99941 228.2 5.89941C228.4 5.79941 228.6 5.7998 228.8 5.7998C229.3 5.7998 229.7 6 229.9 6.5C230.2 6.9 230.3 7.5998 230.3 8.2998C230.3 8.6998 230.2 8.9998 230.1 9.2998C230 9.5998 229.8 9.89961 229.6 10.0996C229.4 10.2996 229.1 10.5002 228.8 10.7002C228.5 10.9002 228.1 11 227.7 11L227.3 10.2998ZM228.8 8.39941C229 8.39941 229.1 8.3998 229.3 8.2998C229.5 8.1998 229.6 8.19961 229.7 8.09961C229.7 7.59961 229.6 7.2 229.4 7C229.2 6.7 229 6.59961 228.7 6.59961C228.5 6.59961 228.3 6.69941 228.1 6.89941C227.9 7.09941 227.9 7.29961 227.9 7.59961C227.9 7.89961 228 8.1002 228.1 8.2002C228.4 8.3002 228.6 8.39941 228.8 8.39941Z" fill="white"/>
<path d="M238.7 5.59961C238.8 5.69961 238.9 5.89961 238.9 6.09961C239 6.29961 239 6.5002 239.1 6.7002C239.1 6.9002 239.2 7.0998 239.2 7.2998C239.2 7.4998 239.2 7.6998 239.2 7.7998C239.2 8.2998 238.9 8.69941 238.4 8.89941C237.9 9.09941 237.1 9.2998 236 9.2998C235.4 9.2998 235 9.3002 234.6 9.2002C234.2 9.1002 233.9 8.99941 233.6 8.89941C233.3 8.79941 233.1 8.59941 233 8.39941C232.9 8.19941 232.8 7.89961 232.8 7.59961C232.8 7.29961 232.8 7.0998 232.9 6.7998C233 6.4998 233.1 6.19941 233.3 5.89941L233.8 6.09961C233.7 6.29961 233.6 6.5002 233.6 6.7002C233.5 6.9002 233.5 7.1002 233.5 7.2002C233.5 7.4002 233.5 7.6002 233.6 7.7002C233.7 7.8002 233.8 7.99961 234 8.09961C234.2 8.19961 234.5 8.2998 234.8 8.2998C235.1 8.2998 235.5 8.39941 235.9 8.39941C236.2 8.39941 236.6 8.39941 236.9 8.39941C237.2 8.39941 237.5 8.2998 237.7 8.2998C237.9 8.1998 238.1 8.19961 238.2 8.09961C238.3 7.99961 238.4 7.99941 238.4 7.89941C238.4 7.79941 238.4 7.6 238.4 7.5C238.4 7.3 238.3 7.2 238.3 7C238.2 6.8 238.2 6.7 238.1 6.5C238 6.3 238 6.2 237.9 6L238.7 5.59961ZM236.1 11.2002L235.5 10.5996L236.1 10L236.7 10.5996L236.1 11.2002Z" fill="white"/>
<path d="M239.9 8.39941C240.1 8.39941 240.2 8.5 240.4 8.5C240.6 8.5 240.8 8.5 240.9 8.5C241.1 8.5 241.3 8.5 241.4 8.5C241.6 8.5 241.7 8.49941 241.9 8.39941C242 8.39941 242.1 8.2998 242.2 8.2998C242.3 8.2998 242.3 8.2002 242.3 8.2002C242.3 8.1002 242.3 7.9002 242.2 7.7002C242.1 7.5002 242 7.29961 241.9 7.09961C241.8 6.89961 241.6 6.7 241.4 6.5C241.2 6.3 241 6.09941 240.8 5.89941L241.4 5.39941C241.6 5.59941 241.8 5.79961 242 6.09961C242.2 6.29961 242.3 6.5998 242.5 6.7998C242.6 6.9998 242.7 7.3 242.8 7.5C242.9 7.7 242.9 8.0002 242.9 8.2002C242.9 8.6002 242.7 8.89961 242.4 9.09961C242.1 9.29961 241.5 9.39941 240.8 9.39941C240.7 9.39941 240.5 9.39941 240.3 9.39941C240.1 9.39941 240 9.39941 239.9 9.39941V8.39941Z" fill="white"/>
<path d="M244.6 3C244.1 3 243.6 3.0998 243.2 3.2998L243.1 3C243.2 3 243.3 2.89941 243.3 2.89941C243.4 2.89941 243.4 2.8998 243.5 2.7998C243.3 2.6998 243.2 2.4998 243.2 2.2998C243.2 2.0998 243.3 1.8998 243.4 1.7998C243.5 1.6998 243.7 1.59961 243.9 1.59961C244.1 1.59961 244.3 1.6998 244.4 1.7998L244.2 2.09961C244.1 1.99961 244 2 243.9 2C243.8 2 243.7 1.99961 243.6 2.09961C243.5 2.19961 243.5 2.1998 243.5 2.2998C243.5 2.3998 243.5 2.5 243.6 2.5C243.7 2.6 243.8 2.59961 244 2.59961C244.1 2.59961 244.2 2.59961 244.3 2.59961C244.4 2.59961 244.5 2.59961 244.6 2.59961V3ZM243.9 8.39941C244 8.29941 244.2 8.2 244.3 8C244.4 7.9 244.6 7.7 244.7 7.5C244.8 7.3 245 7.2 245.1 7C245.2 6.8 245.4 6.7 245.5 6.5C245.2 6.1 244.8 5.79941 244.5 5.39941C244.1 5.09941 243.8 4.8 243.4 4.5L243.9 3.89941C244.1 3.99941 244.2 4.1998 244.4 4.2998C244.6 4.4998 244.7 4.5998 244.9 4.7998C245.1 4.9998 245.2 5.1998 245.4 5.2998C245.6 5.3998 245.7 5.5998 245.8 5.7998C246 5.3998 246.1 5.09961 246.2 4.59961C246.3 4.19961 246.3 3.7002 246.3 3.2002L247 3.09961C247 3.69961 246.9 4.2998 246.8 4.7998C246.7 5.2998 246.5 5.8998 246.2 6.2998C246.5 6.6998 246.8 7.0998 246.9 7.2998C247 7.5998 247.1 7.8 247.1 8C247.1 8.3 246.9 8.5998 246.6 8.7998C246.3 8.9998 245.8 9.09961 245.3 9.09961C245 9.09961 244.8 9.1 244.5 9C244.2 9 244 8.8998 243.9 8.7998V8.39941ZM246.6 8.09961C246.6 8.09961 246.6 7.99941 246.5 7.89941C246.5 7.79941 246.4 7.69961 246.4 7.59961C246.3 7.49961 246.3 7.3998 246.2 7.2998C246.1 7.1998 246 7.1 245.9 7C245.7 7.3 245.5 7.5002 245.4 7.7002C245.2 7.9002 245 8.19941 244.8 8.39941C244.9 8.39941 245 8.4 245.1 8.5C245.2 8.5 245.4 8.5 245.5 8.5C245.8 8.5 246.1 8.49941 246.3 8.39941C246.5 8.29941 246.6 8.29961 246.6 8.09961Z" fill="white"/>
<path d="M248.3 9.2002L248.2 3.39941L249 3.2002L248.9 9.2002H248.3Z" fill="white"/>
<path d="M255.5 9.2002C254.6 9.2002 254.1 8.79961 254 8.09961C253.7 8.19961 253.4 8.2998 253.1 8.2998C252.9 8.2998 252.7 8.3002 252.5 8.2002C252.3 8.1002 252.2 8.1 252 8C251.9 7.9 251.8 7.79961 251.7 7.59961C251.6 7.39961 251.6 7.29961 251.6 7.09961C251.6 6.59961 251.8 6.19941 252.2 5.89941C252.6 5.59941 253.2 5.3002 254 5.2002V4.59961L254.7 4.5V7.7002C254.7 8.0002 254.8 8.1998 254.9 8.2998C255 8.3998 255.3 8.5 255.6 8.5L255.7 8.59961V9.2998L255.5 9.2002ZM252.7 3.89941L252.1 3.2998L252.7 2.7002L253.3 3.2998L252.7 3.89941ZM253.2 7.59961C253.5 7.59961 253.8 7.6 254 7.5V6C253.8 6 253.5 6.09961 253.3 6.09961C253.1 6.19961 252.9 6.1998 252.7 6.2998C252.5 6.3998 252.4 6.49961 252.3 6.59961C252.2 6.69961 252.2 6.8 252.2 7C252.2 7.1 252.2 7.1998 252.3 7.2998C252.4 7.3998 252.4 7.4 252.5 7.5C252.6 7.5 252.7 7.59961 252.8 7.59961C253 7.59961 253.1 7.59961 253.2 7.59961ZM254 3.89941L253.4 3.2998L254 2.7002L254.6 3.2998L254 3.89941Z" fill="white"/>
<path d="M255.4 9.09961V8.5L255.5 8.39941H256.3L256.4 8.5V9.09961L256.3 9.2002H255.5L255.4 9.09961Z" fill="white"/>
<path d="M256.1 9.09961V8.5L256.3 8.39941H257L257.2 8.5V9.09961L257 9.2002H256.3L256.1 9.09961Z" fill="white"/>
<path d="M256.9 9.09961V8.5L257 8.39941H257.8L257.9 8.5V9.09961L257.8 9.2002H257L256.9 9.09961Z" fill="white"/>
<path d="M257.6 9.09961V8.5L257.8 8.39941H258.5L258.7 8.5V9.09961L258.5 9.2002H257.8L257.6 9.09961Z" fill="white"/>
<path d="M258.4 9.09961V8.5L258.5 8.39941H259.3L259.4 8.5V9.09961L259.3 9.2002H258.5L258.4 9.09961Z" fill="white"/>
<path d="M259.1 9.09961V8.5L259.3 8.39941H260L260.2 8.5V9.09961L260 9.2002H259.3L259.1 9.09961Z" fill="white"/>
<path d="M259.9 9.09961V8.5L260 8.39941H260.8L260.9 8.5V9.09961L260.8 9.2002H260L259.9 9.09961Z" fill="white"/>
<path d="M260.6 9.09961V8.5L260.8 8.39941H261.5L261.7 8.5V9.09961L261.5 9.2002H260.8L260.6 9.09961Z" fill="white"/>
<path d="M261.4 9.09961V8.5L261.5 8.39941H262.2L262.4 8.5V9.09961L262.2 9.2002H261.5L261.4 9.09961Z" fill="white"/>
<path d="M262.1 9.09961V8.5L262.2 8.39941H263L263.1 8.5V9.09961L263 9.2002H262.2L262.1 9.09961Z" fill="white"/>
<path d="M262.8 9.09961V8.5L263 8.39941H263.7L263.9 8.5V9.09961L263.7 9.2002H263L262.8 9.09961Z" fill="white"/>
<path d="M263.6 9.09961V8.5L263.7 8.39941H264.5L264.6 8.5V9.09961L264.5 9.2002H263.7L263.6 9.09961Z" fill="white"/>
<path d="M264.3 9.09961V8.5L264.5 8.39941H265.2L265.4 8.5V9.09961L265.2 9.2002H264.5L264.3 9.09961Z" fill="white"/>
<path d="M265.1 9.09961V8.5L265.2 8.39941H266L266.1 8.5V9.09961L266 9.2002H265.2L265.1 9.09961Z" fill="white"/>
<path d="M265.8 9.09961V8.5L266 8.39941H266.7L266.9 8.5V9.09961L266.7 9.2002H266L265.8 9.09961Z" fill="white"/>
<path d="M266.6 9.09961V8.5L266.7 8.39941H267.5L267.6 8.5V9.09961L267.5 9.2002H266.7L266.6 9.09961Z" fill="white"/>
<path d="M267.3 9.09961V8.5L267.5 8.39941H268.2L268.4 8.5V9.09961L268.2 9.2002H267.5L267.3 9.09961Z" fill="white"/>
<path d="M268.1 9.09961V8.5L268.2 8.39941H269L269.1 8.5V9.09961L269 9.2002H268.2L268.1 9.09961Z" fill="white"/>
<path d="M268.8 9.09961V8.5L269 8.39941H269.7L269.8 8.5V9.09961L269.7 9.2002H269L268.8 9.09961Z" fill="white"/>
<path d="M269.5 9.09961V8.5L269.7 8.39941H270.4L270.6 8.5V9.09961L270.4 9.2002H269.7L269.5 9.09961Z" fill="white"/>
<path d="M270.3 9.09961V8.5L270.4 8.39941H271.2L271.3 8.5V9.09961L271.2 9.2002H270.4L270.3 9.09961Z" fill="white"/>
<path d="M271 9.09961V8.5L271.2 8.39941H271.9L272.1 8.5V9.09961L271.9 9.2002H271.2L271 9.09961Z" fill="white"/>
<path d="M271.8 9.09961V8.5L271.9 8.39941H272.7L272.8 8.5V9.09961L272.7 9.2002H271.9L271.8 9.09961Z" fill="white"/>
<path d="M272.5 9.09961V8.5L272.7 8.39941H273.4L273.6 8.5V9.09961L273.4 9.2002H272.7L272.5 9.09961Z" fill="white"/>
<path d="M273.3 9.09961V8.5L273.4 8.39941H274.2L274.3 8.5V9.09961L274.2 9.2002H273.4L273.3 9.09961Z" fill="white"/>
<path d="M274 9.09961V8.5L274.2 8.39941H274.9L275.1 8.5V9.09961L274.9 9.2002H274.2L274 9.09961Z" fill="white"/>
<path d="M274.8 9.09961V8.5L274.9 8.39941H275.7L275.8 8.5V9.09961L275.7 9.2002H274.9L274.8 9.09961Z" fill="white"/>
<path d="M275.5 9.09961V8.5L275.7 8.39941H276.4L276.6 8.5V9.09961L276.4 9.2002H275.7L275.5 9.09961Z" fill="white"/>
<path d="M276.3 9.09961V8.5L276.4 8.39941H277.1L277.3 8.5V9.09961L277.1 9.2002H276.4L276.3 9.09961Z" fill="white"/>
<path d="M277 9.09961V8.5L277.1 8.39941H277.9L278 8.5V9.09961L277.9 9.2002H277.1L277 9.09961Z" fill="white"/>
<path d="M277.7 9.09961V8.5L277.9 8.39941H278.6L278.8 8.5V9.09961L278.6 9.2002H277.9L277.7 9.09961Z" fill="white"/>
<path d="M278.5 9.09961V8.5L278.6 8.39941H279.4L279.5 8.5V9.09961L279.4 9.2002H278.6L278.5 9.09961Z" fill="white"/>
<path d="M279.2 9.09961V8.5L279.4 8.39941H280.1L280.3 8.5V9.09961L280.1 9.2002H279.4L279.2 9.09961Z" fill="white"/>
<path d="M280 9.09961V8.5L280.1 8.39941H280.9L281 8.5V9.09961L280.9 9.2002H280.1L280 9.09961Z" fill="white"/>
<path d="M280.7 9.09961V8.5L280.9 8.39941H281.6L281.8 8.5V9.09961L281.6 9.2002H280.9L280.7 9.09961Z" fill="white"/>
<path d="M281.5 9.09961V8.5L281.6 8.39941H282.4L282.5 8.5V9.09961L282.4 9.2002H281.6L281.5 9.09961Z" fill="white"/>
<path d="M282.2 9.09961V8.5L282.4 8.39941H283.1L283.3 8.5V9.09961L283.1 9.2002H282.4L282.2 9.09961Z" fill="white"/>
<path d="M283 9.09961V8.5L283.1 8.39941H283.9L284 8.5V9.09961L283.9 9.2002H283.1L283 9.09961Z" fill="white"/>
<path d="M283.7 9.09961V8.5L283.9 8.39941H284.6L284.7 8.5V9.09961L284.6 9.2002H283.9L283.7 9.09961Z" fill="white"/>
<path d="M284.4 9.09961V8.5L284.6 8.39941H285.3L285.5 8.5V9.09961L285.3 9.2002H284.6L284.4 9.09961Z" fill="white"/>
<path d="M285.2 9.09961V8.5L285.3 8.39941H286.1L286.2 8.5V9.09961L286.1 9.2002H285.3L285.2 9.09961Z" fill="white"/>
<path d="M285.9 9.09961V8.5L286.1 8.39941H286.8L287 8.5V9.09961L286.8 9.2002H286.1L285.9 9.09961Z" fill="white"/>
<path d="M286.7 9.09961V8.5L286.8 8.39941H287.6L287.7 8.5V9.09961L287.6 9.2002H286.8L286.7 9.09961Z" fill="white"/>
<path d="M287.4 9.09961V8.5L287.6 8.39941H288.3L288.5 8.5V9.09961L288.3 9.2002H287.6L287.4 9.09961Z" fill="white"/>
<path d="M290.9 5.7002C290.4 5.7002 289.9 5.8 289.5 6L289.4 5.7002C289.5 5.7002 289.6 5.59961 289.6 5.59961C289.7 5.59961 289.7 5.5 289.8 5.5C289.6 5.4 289.5 5.2 289.5 5C289.5 4.8 289.6 4.6 289.7 4.5C289.8 4.4 290 4.2998 290.2 4.2998C290.4 4.2998 290.6 4.4 290.7 4.5L290.5 4.7998C290.4 4.6998 290.3 4.7002 290.2 4.7002C290.1 4.7002 290 4.6998 289.9 4.7998C289.8 4.8998 289.8 4.9 289.8 5C289.8 5.1 289.8 5.2002 289.9 5.2002C290 5.3002 290.1 5.2998 290.3 5.2998C290.4 5.2998 290.5 5.2998 290.6 5.2998C290.7 5.2998 290.8 5.2998 290.9 5.2998V5.7002Z" fill="white"/>
<path d="M291.4 9.2002C290.7 9.2002 290.2 8.99961 289.9 8.59961C289.8 8.79961 289.6 8.99961 289.3 9.09961C289 9.19961 288.7 9.2998 288.3 9.2998L288.2 9.2002V8.5L288.3 8.39941C288.7 8.39941 289 8.3998 289.2 8.2998C289.4 8.1998 289.5 8.0998 289.6 7.7998C289.6 7.6998 289.6 7.6 289.6 7.5C289.6 7.4 289.6 7.3002 289.7 7.2002C289.7 7.1002 289.7 6.99941 289.7 6.89941C289.7 6.79941 289.7 6.69961 289.7 6.59961L290.3 6.7002C290.3 7.0002 290.2 7.19941 290.2 7.39941C290.2 7.59941 290.2 7.7998 290.2 7.7998C290.2 8.1998 290.6 8.39941 291.3 8.39941L291.4 8.5V9.2002Z" fill="white"/>
<path d="M294.5 9.2002C293.8 9.2002 293.3 8.99961 293 8.59961C292.9 8.79961 292.7 8.99961 292.4 9.09961C292.1 9.19961 291.8 9.2998 291.4 9.2998L291.3 9.2002V8.5L291.4 8.39941C291.8 8.39941 292.1 8.3998 292.3 8.2998C292.5 8.1998 292.6 8.0998 292.7 7.7998C292.7 7.6998 292.7 7.6 292.7 7.5C292.7 7.4 292.7 7.3002 292.8 7.2002C292.8 7.1002 292.8 6.99941 292.8 6.89941C292.8 6.79941 292.8 6.69961 292.8 6.59961L293.4 6.7002C293.4 7.0002 293.3 7.19941 293.3 7.39941C293.3 7.59941 293.3 7.7998 293.3 7.7998C293.3 8.1998 293.7 8.39941 294.4 8.39941L294.5 8.5V9.2002ZM292.3 11.2002L291.7 10.5996L292.3 10L292.9 10.5996L292.3 11.2002ZM293.7 11.2002L293.1 10.5996L293.7 10L294.3 10.5996L293.7 11.2002Z" fill="white"/>
<path d="M297.6 7.2998C297.6 7.6998 297.4 8.09941 297.1 8.39941C297.2 8.39941 297.2 8.39941 297.3 8.39941C297.4 8.39941 297.4 8.39941 297.5 8.39941C297.8 8.39941 298.1 8.3998 298.3 8.2998C298.5 8.1998 298.6 8.1 298.6 8C298.6 7.7 298.5 7.39961 298.4 7.09961C298.3 6.79961 298.1 6.5998 297.9 6.2998C297.7 6.0998 297.5 5.8002 297.2 5.7002C296.9 5.5002 296.6 5.4002 296.3 5.2002L296.6 4.5C297 4.6 297.4 4.79961 297.7 5.09961C298 5.39961 298.3 5.59941 298.5 5.89941C298.7 6.19941 298.9 6.4998 299 6.7998C299.1 7.0998 299.2 7.4998 299.2 7.7998C299.2 8.2998 299.1 8.59941 298.8 8.89941C298.5 9.19941 298.1 9.2998 297.6 9.2998C297.4 9.2998 297.2 9.3002 296.9 9.2002C296.7 9.1002 296.4 9.1 296.2 9C295.9 9.1 295.6 9.2002 295.3 9.2002C295 9.3002 294.7 9.2998 294.4 9.2998L294.3 9.2002V8.5L294.4 8.39941C294.6 8.39941 294.7 8.39941 294.9 8.39941C295 8.39941 295.2 8.39941 295.3 8.39941C295 8.09941 294.9 7.7998 294.9 7.2998C294.9 7.0998 294.9 6.9002 295 6.7002C295.1 6.5002 295.2 6.4002 295.3 6.2002C295.4 6.1002 295.6 5.99941 295.7 5.89941C295.9 5.79941 296 5.7998 296.2 5.7998C296.4 5.7998 296.6 5.79941 296.7 5.89941C296.9 5.99941 297 6.1002 297.1 6.2002C297.2 6.3002 297.3 6.5002 297.4 6.7002C297.6 6.9002 297.6 7.0998 297.6 7.2998ZM295.5 7.2998C295.5 7.4998 295.6 7.5998 295.7 7.7998C295.8 7.8998 296 8.1002 296.2 8.2002C296.7 8.0002 297 7.6998 297 7.2998C297 7.0998 296.9 6.8998 296.8 6.7998C296.7 6.6998 296.5 6.59961 296.3 6.59961C296.1 6.59961 295.9 6.6998 295.8 6.7998C295.6 6.8998 295.5 7.0998 295.5 7.2998Z" fill="white"/>
<path d="M108.6 14.2002H109.5V19.5996H112.7V20.3994H108.6V14.2002Z" fill="white"/>
<path d="M113.6 14.3994H114.5V15.2998H113.6V14.3994ZM113.6 16.0996H114.4V20.3994H113.6V16.0996Z" fill="white"/>
<path d="M116 16.7998H115.2V16.0996H116V14.7002H116.8V16.0996H118.1V16.7998H116.8V18.8994C116.8 19.1994 116.9 19.4996 117 19.5996C117.1 19.6996 117.3 19.7998 117.5 19.7998C117.7 19.7998 117.8 19.8002 117.9 19.7002C118 19.7002 118.1 19.6 118.2 19.5L118.6 20C118.4 20.2 118.2 20.2994 118 20.3994C117.8 20.4994 117.6 20.5 117.3 20.5C116.8 20.5 116.5 20.3996 116.3 20.0996C116.1 19.8996 116 19.4994 116 18.8994V16.7998Z" fill="white"/>
<path d="M122.9 19.7998C122.9 19.8998 122.8 19.9 122.7 20C122.6 20.1 122.5 20.1998 122.3 20.2998C122.1 20.3998 122 20.5 121.7 20.5C121.5 20.6 121.2 20.5996 121 20.5996C120.7 20.5996 120.4 20.4994 120.1 20.3994C119.8 20.2994 119.6 20.0994 119.4 19.8994C119.2 19.6994 119 19.5002 118.9 19.2002C118.8 18.9002 118.7 18.5998 118.7 18.2998C118.7 17.9998 118.8 17.6994 118.9 17.3994C119 17.0994 119.2 16.9002 119.3 16.7002C119.5 16.5002 119.7 16.3002 120 16.2002C120.3 16.1002 120.6 16 120.9 16C121.3 16 121.6 16.1002 121.9 16.2002C122.2 16.3002 122.4 16.4998 122.6 16.7998C122.8 16.9998 122.9 17.2996 123 17.5996C123.1 17.8996 123.1 18.1996 123.1 18.5996H119.7C119.7 18.7996 119.7 18.9996 119.8 19.0996C119.9 19.2996 120 19.4 120.1 19.5C120.2 19.6 120.4 19.6998 120.5 19.7998C120.7 19.8998 120.8 19.8994 121 19.8994C121.4 19.8994 121.7 19.8002 121.9 19.7002C122.1 19.6002 122.3 19.4998 122.4 19.2998L122.9 19.7998ZM122.1 17.8994C122.1 17.5994 122 17.3 121.7 17C121.5 16.8 121.2 16.5996 120.8 16.5996C120.6 16.5996 120.4 16.6002 120.3 16.7002C120.1 16.8002 120 16.9 119.9 17C119.8 17.1 119.7 17.1994 119.6 17.3994C119.5 17.4994 119.5 17.6994 119.5 17.8994H122.1Z" fill="white"/>
<path d="M123.9 20.3994V16.2998C123.9 16.1998 123.9 16.2 123.9 16H124.7V16.7002C124.7 16.6002 124.8 16.5 124.9 16.5C125 16.4 125.1 16.2998 125.2 16.2998C125.3 16.1998 125.4 16.1996 125.6 16.0996C125.8 15.9996 125.9 16 126.1 16C126.2 16 126.3 16 126.4 16C126.5 16 126.6 15.9996 126.6 16.0996L126.4 16.8994C126.3 16.8994 126.1 16.7998 126 16.7998C125.8 16.7998 125.7 16.7994 125.5 16.8994C125.3 16.9994 125.2 17.1002 125.1 17.2002C125 17.3002 124.9 17.4996 124.8 17.5996C124.7 17.7996 124.7 17.8996 124.7 18.0996V20.3994H123.9Z" fill="white"/>
<path d="M129.9 19.8994C129.7 20.0994 129.5 20.2994 129.3 20.3994C129 20.4994 128.8 20.5996 128.5 20.5996C128.3 20.5996 128.1 20.6 128 20.5C127.8 20.5 127.7 20.3998 127.5 20.2998C127.3 20.1998 127.2 20.0994 127.1 19.8994C127 19.6994 127 19.4998 127 19.2998C127 18.7998 127.2 18.5002 127.5 18.2002C127.8 17.9002 128.3 17.7998 128.9 17.7998C129 17.7998 129.1 17.7998 129.2 17.7998C129.3 17.7998 129.4 17.7998 129.5 17.7998C129.6 17.7998 129.7 17.7998 129.8 17.7998C129.9 17.7998 129.9 17.7998 130 17.7998V17.5996C130 17.2996 129.9 16.9994 129.7 16.8994C129.5 16.7994 129.2 16.7002 128.9 16.7002C128.6 16.7002 128.3 16.6998 128.1 16.7998C127.9 16.8998 127.7 16.9996 127.6 17.0996L127.2 16.5C127.3 16.4 127.4 16.3998 127.5 16.2998C127.6 16.1998 127.7 16.1996 127.9 16.0996C128 15.9996 128.2 16 128.4 16C128.6 16 128.8 15.8994 129 15.8994C129.6 15.8994 130 15.9998 130.3 16.2998C130.6 16.5998 130.8 17 130.8 17.5V20.2002C130.8 20.3002 130.8 20.2994 130.8 20.3994H130L129.9 19.8994ZM129.9 18.3994H129.8C129.7 18.3994 129.6 18.3994 129.6 18.3994C129.5 18.3994 129.4 18.3994 129.3 18.3994C129.2 18.3994 129.1 18.3994 129 18.3994C128.8 18.3994 128.6 18.4 128.4 18.5C128.2 18.6 128.1 18.6002 128.1 18.7002C128.1 18.8002 128 18.9 127.9 19C127.9 19.1 127.9 19.1998 127.9 19.2998C127.9 19.4998 128 19.6998 128.1 19.7998C128.3 19.8998 128.5 20 128.8 20C129 20 129.1 19.9994 129.3 19.8994C129.4 19.7994 129.6 19.8002 129.7 19.7002C129.8 19.6002 129.9 19.4994 130 19.3994C130.1 19.2994 130.1 19.1 130.1 19V18.3994H129.9Z" fill="white"/>
<path d="M132.2 16.7998H131.4V16.0996H132.2V14.7002H133V16.0996H134.3V16.7998H133V18.8994C133 19.1994 133.1 19.4996 133.2 19.5996C133.3 19.6996 133.5 19.7998 133.7 19.7998C133.9 19.7998 134 19.8002 134.1 19.7002C134.2 19.7002 134.3 19.6 134.4 19.5L134.8 20C134.6 20.2 134.4 20.2994 134.2 20.3994C134 20.4994 133.8 20.5 133.5 20.5C133 20.5 132.7 20.3996 132.5 20.0996C132.3 19.8996 132.2 19.4994 132.2 18.8994V16.7998Z" fill="white"/>
<path d="M135.3 16.0996H136.1V18.5996C136.1 18.9996 136.2 19.3 136.4 19.5C136.6 19.7 136.8 19.7998 137.1 19.7998C137.3 19.7998 137.5 19.8002 137.7 19.7002C137.9 19.6002 138 19.4998 138.1 19.2998C138.2 19.0998 138.3 18.9998 138.3 18.7998C138.3 18.5998 138.4 18.4002 138.4 18.2002V16.2002H139.2V20.2998C139.2 20.3998 139.2 20.4996 139.2 20.5996H138.4V20C138.3 20.1 138.3 20.2002 138.2 20.2002C138.1 20.3002 138 20.3994 137.9 20.3994C137.8 20.4994 137.6 20.4996 137.5 20.5996C137.3 20.5996 137.2 20.7002 137 20.7002C136.4 20.7002 136 20.5002 135.8 20.2002C135.6 19.9002 135.4 19.3994 135.4 18.8994V16.0996H135.3Z" fill="white"/>
<path d="M140.4 20.3994V16.2998C140.4 16.1998 140.4 16.2 140.4 16H141.2V16.7002C141.2 16.6002 141.3 16.5 141.4 16.5C141.5 16.4 141.6 16.2998 141.7 16.2998C141.8 16.1998 141.9 16.1996 142.1 16.0996C142.3 15.9996 142.4 16 142.6 16C142.7 16 142.8 16 142.9 16C143 16 143.1 15.9996 143.1 16.0996L142.9 16.8994C142.8 16.8994 142.6 16.7998 142.5 16.7998C142.3 16.7998 142.2 16.7994 142 16.8994C141.8 16.9994 141.7 17.1002 141.6 17.2002C141.5 17.3002 141.4 17.4996 141.3 17.5996C141.2 17.7996 141.2 17.8996 141.2 18.0996V20.3994H140.4Z" fill="white"/>
<path d="M147.5 19.7998C147.5 19.8998 147.4 19.9 147.3 20C147.2 20.1 147.1 20.1998 146.9 20.2998C146.7 20.3998 146.6 20.5 146.3 20.5C146.1 20.6 145.8 20.5996 145.6 20.5996C145.3 20.5996 145 20.4994 144.7 20.3994C144.4 20.2994 144.2 20.0994 144 19.8994C143.8 19.6994 143.6 19.5002 143.5 19.2002C143.4 18.9002 143.3 18.5998 143.3 18.2998C143.3 17.9998 143.4 17.6994 143.5 17.3994C143.6 17.0994 143.8 16.9002 143.9 16.7002C144.1 16.5002 144.3 16.3002 144.6 16.2002C144.9 16.1002 145.2 16 145.5 16C145.9 16 146.2 16.1002 146.5 16.2002C146.8 16.3002 147 16.4998 147.2 16.7998C147.4 16.9998 147.5 17.2996 147.6 17.5996C147.7 17.8996 147.7 18.1996 147.7 18.5996H144.3C144.3 18.7996 144.3 18.9996 144.4 19.0996C144.5 19.2996 144.6 19.4 144.7 19.5C144.8 19.6 145 19.6998 145.1 19.7998C145.3 19.8998 145.4 19.8994 145.6 19.8994C146 19.8994 146.3 19.8002 146.5 19.7002C146.7 19.6002 146.9 19.4998 147 19.2998L147.5 19.7998ZM146.7 17.8994C146.7 17.5994 146.6 17.3 146.3 17C146.1 16.8 145.8 16.5996 145.4 16.5996C145.2 16.5996 145 16.6002 144.9 16.7002C144.7 16.8002 144.6 16.9 144.5 17C144.4 17.1 144.3 17.1994 144.2 17.3994C144.1 17.4994 144.1 17.6994 144.1 17.8994H146.7Z" fill="white"/>
<path d="M149 20.3994H148.6V19.3994H149.7V20.3994L149 21.5H148.5L149 20.3994Z" fill="white"/>
<path d="M152.7 14.2002H154.7C155.1 14.2002 155.5 14.2994 155.7 14.3994C156 14.4994 156.2 14.6998 156.4 14.7998C156.6 14.9998 156.7 15.1994 156.7 15.3994C156.8 15.5994 156.8 15.7996 156.8 16.0996C156.8 16.3996 156.7 16.6994 156.6 16.8994C156.5 17.0994 156.3 17.3 156.2 17.5C156 17.7 155.8 17.7994 155.5 17.8994C155.2 17.9994 155 18 154.7 18H153.6V20.3994H152.7V14.2002ZM154.7 17.2002C155.1 17.2002 155.4 17.0994 155.6 16.8994C155.8 16.6994 155.9 16.3996 155.9 16.0996C155.9 15.6996 155.8 15.4998 155.6 15.2998C155.4 15.0998 155.1 15 154.7 15H153.6V17.2002H154.7Z" fill="white"/>
<path d="M157.6 16.0996H158.4V18.5996C158.4 18.9996 158.5 19.3 158.7 19.5C158.9 19.7 159.1 19.7998 159.4 19.7998C159.6 19.7998 159.8 19.8002 160 19.7002C160.2 19.6002 160.3 19.4998 160.4 19.2998C160.5 19.0998 160.6 18.9998 160.6 18.7998C160.6 18.5998 160.7 18.4002 160.7 18.2002V16.2002H161.5V20.2998C161.5 20.3998 161.5 20.4996 161.5 20.5996H160.7V20C160.6 20.1 160.6 20.2002 160.5 20.2002C160.4 20.2002 160.3 20.3994 160.2 20.3994C160.1 20.3994 159.9 20.4996 159.8 20.5996C159.6 20.5996 159.5 20.7002 159.3 20.7002C158.7 20.7002 158.3 20.5002 158.1 20.2002C157.8 19.9002 157.7 19.3994 157.7 18.8994V16.0996H157.6Z" fill="white"/>
<path d="M162.7 14.2002H163.5V16.5996C163.5 16.4996 163.6 16.4994 163.7 16.3994C163.8 16.2994 163.9 16.3002 164 16.2002C164.1 16.1002 164.2 16.0996 164.4 16.0996C164.5 16.0996 164.7 16 164.9 16C165.2 16 165.5 16.1002 165.8 16.2002C166 16.3002 166.3 16.5002 166.4 16.7002C166.6 16.9002 166.7 17.0994 166.8 17.3994C166.9 17.6994 166.9 17.9998 166.9 18.2998C166.9 18.5998 166.8 19.0002 166.7 19.2002C166.6 19.5002 166.4 19.6994 166.2 19.8994C166 20.0994 165.7 20.2994 165.4 20.3994C165.1 20.4994 164.8 20.5996 164.4 20.5996C164 20.5996 163.7 20.6 163.4 20.5C163.1 20.4 162.9 20.3998 162.7 20.2998V14.2002ZM163.6 19.7002C163.7 19.7002 163.8 19.7998 163.9 19.7998C164 19.7998 164.2 19.7998 164.5 19.7998C164.7 19.7998 165 19.8002 165.2 19.7002C165.4 19.6002 165.6 19.4994 165.7 19.3994C165.8 19.2994 165.9 19.0994 166 18.8994C166.1 18.6994 166.1 18.4998 166.1 18.2998C166.1 18.0998 166.1 17.9002 166 17.7002C166 17.5002 165.9 17.4002 165.8 17.2002C165.7 17.1002 165.6 16.8994 165.4 16.8994C165.2 16.7994 165.1 16.7998 164.8 16.7998C164.6 16.7998 164.4 16.7994 164.3 16.8994C164.1 16.9994 164 17.1002 163.9 17.2002C163.8 17.3002 163.7 17.3996 163.7 17.5996C163.7 17.7996 163.6 17.8996 163.6 18.0996V19.7002Z" fill="white"/>
<path d="M168.6 14.2002H167.8V20.3994H168.6V14.2002Z" fill="white"/>
<path d="M169.8 14.3994H170.7V15.2998H169.8V14.3994ZM169.8 16.0996H170.6V20.3994H169.8V16.0996Z" fill="white"/>
<path d="M172.2 19.2998C172.4 19.4998 172.5 19.6002 172.8 19.7002C173 19.8002 173.3 19.7998 173.6 19.7998C173.9 19.7998 174.1 19.8002 174.3 19.7002C174.5 19.6002 174.6 19.4998 174.6 19.2998C174.6 19.1998 174.6 19.1 174.5 19C174.5 18.9 174.4 18.8998 174.3 18.7998C174.2 18.6998 174.1 18.6996 173.9 18.5996C173.7 18.5996 173.5 18.4994 173.3 18.3994C173.1 18.3994 173 18.2998 172.8 18.2998C172.6 18.1998 172.5 18.1996 172.4 18.0996C172.3 17.9996 172.2 17.9002 172.1 17.7002C172 17.6002 172 17.4002 172 17.2002C172 17.0002 172 16.7996 172.1 16.5996C172.2 16.3996 172.3 16.3002 172.5 16.2002C172.7 16.1002 172.8 16 173 16C173.2 15.9 173.4 15.8994 173.6 15.8994C174 15.8994 174.3 15.9 174.5 16C174.8 16.1 175 16.1994 175.2 16.3994L174.7 17C174.6 16.9 174.4 16.8002 174.2 16.7002C174 16.6002 173.8 16.5996 173.5 16.5996C173.2 16.5996 173 16.6002 172.9 16.7002C172.7 16.8002 172.7 16.8996 172.7 17.0996C172.7 17.2996 172.8 17.4 173 17.5C173.2 17.6 173.5 17.6998 173.8 17.7998C174 17.7998 174.2 17.9 174.4 18C174.6 18.1 174.7 18.0998 174.9 18.2998C175 18.3998 175.1 18.5002 175.2 18.7002C175.3 18.8002 175.3 19.0002 175.3 19.2002C175.3 19.4002 175.2 19.5998 175.2 19.7998C175.1 19.9998 175 20.1002 174.8 20.2002C174.6 20.3002 174.4 20.4 174.2 20.5C174 20.6 173.8 20.5996 173.5 20.5996C172.7 20.5996 172.1 20.3994 171.7 19.8994L172.2 19.2998Z" fill="white"/>
<path d="M176.3 14.2002H177.1V16.7002C177.2 16.6002 177.2 16.5 177.3 16.5C177.4 16.4 177.5 16.2998 177.6 16.2998C177.7 16.2998 177.9 16.1996 178 16.0996C178.2 16.0996 178.3 16 178.5 16C179.1 16 179.5 16.2 179.8 16.5C180.1 16.8 180.2 17.2998 180.2 17.7998V20.3994H179.4V17.8994C179.4 17.4994 179.3 17.2 179.1 17C178.9 16.8 178.7 16.7002 178.4 16.7002C178.2 16.7002 178 16.6998 177.8 16.7998C177.6 16.8998 177.5 17.0002 177.4 17.2002C177.3 17.4002 177.2 17.5002 177.2 17.7002C177.2 17.9002 177.1 18.0998 177.1 18.2998V20.2998H176.3V14.2002Z" fill="white"/>
<path d="M181.3 14.3994H182.2V15.2998H181.3V14.3994ZM181.4 16.0996H182.2V20.3994H181.4V16.0996Z" fill="white"/>
<path d="M183.4 20.3994V16.2998C183.4 16.1998 183.4 16.1 183.4 16H184.2V16.7002C184.3 16.6002 184.3 16.5 184.4 16.5C184.5 16.4 184.6 16.2998 184.7 16.2998C184.8 16.1998 185 16.1996 185.1 16.0996C185.3 16.0996 185.4 16 185.6 16C186.2 16 186.6 16.2 186.9 16.5C187.2 16.8 187.3 17.2998 187.3 17.7998V20.3994H186.5V17.8994C186.5 17.4994 186.4 17.2 186.2 17C186 16.8 185.8 16.7002 185.5 16.7002C185.3 16.7002 185.1 16.6998 184.9 16.7998C184.7 16.8998 184.6 17.0002 184.5 17.2002C184.4 17.4002 184.3 17.5002 184.3 17.7002C184.3 17.9002 184.2 18.0998 184.2 18.2998V20.2998H183.4V20.3994Z" fill="white"/>
<path d="M189 21.2998C189.1 21.3998 189.3 21.4996 189.5 21.5996C189.7 21.6996 190 21.7002 190.3 21.7002C190.7 21.7002 191 21.5994 191.2 21.3994C191.4 21.1994 191.5 20.9 191.5 20.5V20C191.5 20 191.4 20.1002 191.3 20.2002C191.2 20.3002 191.1 20.2994 191 20.3994C190.9 20.4994 190.8 20.4996 190.6 20.5996C190.5 20.5996 190.3 20.7002 190.1 20.7002C189.8 20.7002 189.5 20.6 189.3 20.5C189.1 20.4 188.8 20.1996 188.7 20.0996C188.6 19.9996 188.4 19.6994 188.3 19.3994C188.2 19.0994 188.2 18.8 188.2 18.5C188.2 18.2 188.3 17.8996 188.4 17.5996C188.5 17.2996 188.7 17.0994 188.9 16.8994C189.1 16.6994 189.4 16.4994 189.7 16.3994C190 16.2994 190.3 16.2002 190.7 16.2002C191.1 16.2002 191.4 16.1998 191.7 16.2998C192 16.3998 192.2 16.4 192.4 16.5V20.5996C192.4 21.1996 192.2 21.6996 191.9 22.0996C191.5 22.3996 191 22.5996 190.4 22.5996C190 22.5996 189.6 22.6 189.3 22.5C189 22.4 188.8 22.3002 188.7 22.2002L189 21.2998ZM191.6 16.7998C191.5 16.7998 191.4 16.8002 191.3 16.7002C191.2 16.7002 191 16.5996 190.7 16.5996C190.5 16.5996 190.2 16.6002 190.1 16.7002C189.9 16.8002 189.7 16.9 189.6 17C189.5 17.1 189.4 17.3 189.3 17.5C189.2 17.7 189.2 17.8996 189.2 18.0996C189.2 18.2996 189.2 18.5002 189.3 18.7002C189.3 18.9002 189.4 19.0002 189.5 19.2002C189.6 19.3002 189.7 19.4 189.9 19.5C190.1 19.6 190.2 19.5996 190.5 19.5996C190.7 19.5996 190.9 19.6 191 19.5C191.2 19.4 191.3 19.3998 191.4 19.2998C191.5 19.1998 191.6 19.1 191.6 19C191.6 18.9 191.7 18.6996 191.7 18.5996V16.7998H191.6Z" fill="white"/>
<path d="M198.8 19.7002C198.6 19.9002 198.3 20.0998 198.1 20.2998C197.8 20.4998 197.5 20.5 197 20.5C196.7 20.5 196.4 20.4994 196.2 20.3994C196 20.2994 195.7 20.2 195.6 20C195.4 19.8 195.3 19.7 195.2 19.5C195.1 19.3 195.1 19.0998 195.1 18.7998C195.1 18.3998 195.2 18.1002 195.4 17.7002C195.6 17.4002 195.9 17.0998 196.4 16.7998L196.3 16.7002C196.2 16.5002 196 16.2996 196 16.0996C195.9 15.8996 195.9 15.7 195.9 15.5C195.9 15.3 195.9 15.1 196 15C196.1 14.9 196.2 14.7 196.3 14.5C196.4 14.4 196.6 14.3002 196.8 14.2002C197 14.1002 197.2 14.0996 197.5 14.0996C197.7 14.0996 197.9 14.1002 198.1 14.2002C198.3 14.3002 198.4 14.2994 198.5 14.3994C198.6 14.4994 198.7 14.6002 198.8 14.7002C198.9 14.8002 199 14.8996 199 15.0996L198.4 15.5C198.2 15.2 198.1 14.9994 197.9 14.8994C197.8 14.7994 197.6 14.7998 197.4 14.7998C197.1 14.7998 196.9 14.9 196.8 15C196.7 15.1 196.6 15.3 196.6 15.5C196.6 15.7 196.6 15.8 196.7 16C196.8 16.2 196.9 16.3 197.1 16.5L198.8 18.5L199.6 17.5L200.2 18L199.3 19.2002L200.4 20.5H199.3L198.8 19.7002ZM196.8 17.3994C196.5 17.5994 196.2 17.8 196.1 18C196 18.2 195.9 18.4002 195.9 18.7002C195.9 19.0002 196 19.1994 196.2 19.3994C196.4 19.5994 196.7 19.7002 197 19.7002C197.3 19.7002 197.5 19.6 197.7 19.5C197.9 19.4 198.1 19.2 198.2 19L196.8 17.3994Z" fill="white"/>
<path d="M204.7 15H202.5V14.2002H207.9V15H205.6V20.3994H204.7V15Z" fill="white"/>
<path d="M207.3 20.3994V16.2998C207.3 16.1998 207.3 16.2 207.3 16H208.1V16.7002C208.1 16.6002 208.2 16.5 208.3 16.5C208.4 16.4 208.5 16.2998 208.6 16.2998C208.7 16.1998 208.8 16.1996 209 16.0996C209.2 15.9996 209.3 16 209.5 16C209.6 16 209.7 16 209.8 16C209.9 16 210 15.9996 210 16.0996L209.8 16.8994C209.7 16.8994 209.5 16.7998 209.4 16.7998C209.2 16.7998 209.1 16.7994 208.9 16.8994C208.7 16.9994 208.6 17.1002 208.5 17.2002C208.4 17.3002 208.3 17.4996 208.2 17.5996C208.1 17.6996 208.1 17.8996 208.1 18.0996V20.3994H207.3Z" fill="white"/>
<path d="M213.3 19.8994C213.1 20.0994 212.9 20.2994 212.7 20.3994C212.4 20.4994 212.2 20.5996 211.9 20.5996C211.7 20.5996 211.5 20.6 211.4 20.5C211.2 20.5 211.1 20.3998 210.9 20.2998C210.8 20.1998 210.6 20.0994 210.5 19.8994C210.4 19.6994 210.4 19.4998 210.4 19.2998C210.4 18.7998 210.6 18.5002 210.9 18.2002C211.2 17.9002 211.7 17.7998 212.3 17.7998C212.4 17.7998 212.5 17.7998 212.6 17.7998C212.7 17.7998 212.8 17.7998 212.9 17.7998C213 17.7998 213.1 17.7998 213.2 17.7998C213.3 17.7998 213.3 17.7998 213.4 17.7998V17.5996C213.4 17.2996 213.3 16.9994 213.1 16.8994C212.9 16.7994 212.6 16.7002 212.3 16.7002C212 16.7002 211.7 16.6998 211.5 16.7998C211.3 16.8998 211.1 16.9996 211 17.0996L210.6 16.5C210.7 16.4 210.8 16.3998 210.9 16.2998C211 16.1998 211.1 16.1996 211.3 16.0996C211.4 15.9996 211.6 16 211.8 16C212 16 212.2 15.8994 212.4 15.8994C213 15.8994 213.4 15.9998 213.7 16.2998C214 16.5998 214.2 17 214.2 17.5V20.2002C214.2 20.3002 214.2 20.2994 214.2 20.3994H213.4L213.3 19.8994ZM213.3 18.3994H213.2C213.1 18.3994 213 18.3994 213 18.3994C212.9 18.3994 212.8 18.3994 212.7 18.3994C212.6 18.3994 212.5 18.3994 212.4 18.3994C212.2 18.3994 212 18.4 211.8 18.5C211.7 18.6 211.5 18.6002 211.5 18.7002C211.5 18.8002 211.4 18.9 211.3 19C211.3 19.1 211.3 19.1998 211.3 19.2998C211.3 19.4998 211.4 19.6998 211.5 19.7998C211.7 19.8998 211.9 20 212.2 20C212.4 20 212.5 19.9994 212.7 19.8994C212.8 19.7994 213 19.8002 213.1 19.7002C213.2 19.6002 213.3 19.4994 213.4 19.3994C213.5 19.2994 213.5 19.1 213.5 19V18.3994H213.3Z" fill="white"/>
<path d="M215.2 20.3994V16.2998C215.2 16.1998 215.2 16.1 215.2 16H216V16.7002C216.1 16.6002 216.1 16.5 216.2 16.5C216.3 16.4 216.4 16.2998 216.5 16.2998C216.6 16.2998 216.8 16.1996 216.9 16.0996C217.1 16.0996 217.2 16 217.4 16C218 16 218.4 16.2 218.7 16.5C219 16.8 219.1 17.2998 219.1 17.7998V20.3994H218.3V17.8994C218.3 17.4994 218.2 17.2 218 17C217.8 16.8 217.6 16.7002 217.3 16.7002C217.1 16.7002 216.9 16.6998 216.7 16.7998C216.5 16.8998 216.4 17.0002 216.3 17.2002C216.2 17.4002 216.1 17.5002 216.1 17.7002C216.1 17.9002 216 18.0998 216 18.2998V20.2998H215.2V20.3994Z" fill="white"/>
<path d="M220.6 19.2998C220.8 19.4998 220.9 19.6002 221.2 19.7002C221.4 19.8002 221.7 19.7998 222 19.7998C222.3 19.7998 222.5 19.8002 222.7 19.7002C222.9 19.6002 223 19.4998 223 19.2998C223 19.1998 223 19.1 222.9 19C222.9 18.9 222.8 18.8998 222.7 18.7998C222.6 18.6998 222.5 18.6996 222.3 18.5996C222.1 18.5996 221.9 18.4994 221.7 18.3994C221.5 18.3994 221.4 18.2998 221.2 18.2998C221 18.1998 220.9 18.1996 220.8 18.0996C220.7 17.9996 220.6 17.9002 220.5 17.7002C220.4 17.6002 220.4 17.4002 220.4 17.2002C220.4 17.0002 220.4 16.7996 220.5 16.5996C220.6 16.3996 220.7 16.3002 220.9 16.2002C221.1 16.1002 221.2 16 221.4 16C221.6 15.9 221.8 15.8994 222 15.8994C222.4 15.8994 222.7 15.9 222.9 16C223.2 16.1 223.4 16.1994 223.6 16.3994L223.1 17C223 16.9 222.8 16.8002 222.6 16.7002C222.4 16.6002 222.2 16.5996 221.9 16.5996C221.6 16.5996 221.4 16.6002 221.3 16.7002C221.1 16.8002 221.1 16.8996 221.1 17.0996C221.1 17.2996 221.2 17.4 221.4 17.5C221.6 17.6 221.9 17.6998 222.2 17.7998C222.4 17.7998 222.6 17.9 222.8 18C223 18.1 223.1 18.0998 223.3 18.2998C223.4 18.3998 223.5 18.5002 223.6 18.7002C223.7 18.8002 223.7 19.0002 223.7 19.2002C223.7 19.4002 223.7 19.5998 223.6 19.7998C223.5 19.9998 223.4 20.1002 223.2 20.2002C223 20.3002 222.8 20.4 222.6 20.5C222.4 20.6 222.2 20.5996 221.9 20.5996C221.1 20.5996 220.5 20.3994 220.1 19.8994L220.6 19.2998Z" fill="white"/>
<path d="M225.5 14.2002H224.7V20.3994H225.5V14.2002Z" fill="white"/>
<path d="M229.4 19.8994C229.2 20.0994 229 20.2994 228.8 20.3994C228.5 20.4994 228.3 20.5996 228 20.5996C227.8 20.5996 227.6 20.6 227.5 20.5C227.3 20.5 227.2 20.3998 227 20.2998C226.9 20.1998 226.7 20.0994 226.6 19.8994C226.5 19.6994 226.5 19.4998 226.5 19.2998C226.5 18.7998 226.7 18.5002 227 18.2002C227.3 17.9002 227.8 17.7998 228.4 17.7998C228.5 17.7998 228.6 17.7998 228.7 17.7998C228.8 17.7998 228.9 17.7998 229 17.7998C229.1 17.7998 229.2 17.7998 229.3 17.7998C229.4 17.7998 229.4 17.7998 229.5 17.7998V17.5996C229.5 17.2996 229.4 16.9994 229.2 16.8994C229 16.7994 228.7 16.7002 228.4 16.7002C228.1 16.7002 227.8 16.6998 227.6 16.7998C227.4 16.8998 227.2 16.9996 227.1 17.0996L226.7 16.5C226.8 16.4 226.9 16.3998 227 16.2998C227.1 16.1998 227.2 16.1996 227.4 16.0996C227.5 15.9996 227.7 16 227.9 16C228.1 16 228.3 15.8994 228.5 15.8994C229.1 15.8994 229.5 15.9998 229.8 16.2998C230.1 16.5998 230.3 17 230.3 17.5V20.2002C230.3 20.3002 230.3 20.2994 230.3 20.3994H229.5L229.4 19.8994ZM229.4 18.3994H229.3C229.2 18.3994 229.1 18.3994 229.1 18.3994C229 18.3994 228.9 18.3994 228.8 18.3994C228.7 18.3994 228.6 18.3994 228.5 18.3994C228.3 18.3994 228.1 18.4 227.9 18.5C227.8 18.6 227.6 18.6002 227.6 18.7002C227.5 18.8002 227.5 18.9 227.4 19C227.4 19.1 227.4 19.1998 227.4 19.2998C227.4 19.4998 227.5 19.6998 227.6 19.7998C227.8 19.8998 228 20 228.3 20C228.5 20 228.6 19.9994 228.8 19.8994C228.9 19.7994 229.1 19.8002 229.2 19.7002C229.3 19.6002 229.4 19.4994 229.5 19.3994C229.6 19.2994 229.6 19.1 229.6 19V18.3994H229.4Z" fill="white"/>
<path d="M231.7 16.7998H230.9V16.0996H231.7V14.7002H232.5V16.0996H233.8V16.7998H232.5V18.8994C232.5 19.1994 232.6 19.4996 232.7 19.5996C232.8 19.6996 233 19.7998 233.2 19.7998C233.4 19.7998 233.5 19.8002 233.6 19.7002C233.7 19.7002 233.8 19.6 233.9 19.5L234.3 20C234.1 20.2 233.9 20.2994 233.7 20.3994C233.5 20.4994 233.3 20.5 233 20.5C232.5 20.5 232.2 20.3996 232 20.0996C231.8 19.8996 231.7 19.4994 231.7 18.8994V16.7998Z" fill="white"/>
<path d="M234.9 14.3994H235.8V15.2998H234.9V14.3994ZM234.9 16.0996H235.7V20.3994H234.9V16.0996Z" fill="white"/>
<path d="M239.1 20.5C238.8 20.5 238.5 20.3998 238.2 20.2998C237.9 20.1998 237.7 19.9998 237.5 19.7998C237.3 19.5998 237.1 19.2996 237 19.0996C236.9 18.8996 236.8 18.5002 236.8 18.2002C236.8 17.9002 236.9 17.5998 237 17.2998C237.1 16.9998 237.3 16.7996 237.5 16.5996C237.7 16.3996 237.9 16.1996 238.2 16.0996C238.5 15.9996 238.8 15.8994 239.1 15.8994C239.4 15.8994 239.7 15.9996 240 16.0996C240.3 16.1996 240.5 16.3996 240.7 16.5996C240.9 16.7996 241.1 17.0998 241.2 17.2998C241.3 17.5998 241.4 17.9002 241.4 18.2002C241.4 18.5002 241.3 18.7996 241.2 19.0996C241.1 19.3996 240.9 19.5998 240.7 19.7998C240.5 19.9998 240.3 20.1998 240 20.2998C239.7 20.4998 239.4 20.5 239.1 20.5ZM239.1 19.7998C239.3 19.7998 239.5 19.8002 239.7 19.7002C239.9 19.6002 240 19.4998 240.2 19.2998C240.3 19.1998 240.4 18.9998 240.5 18.7998C240.6 18.5998 240.6 18.4002 240.6 18.2002C240.6 18.0002 240.6 17.7996 240.5 17.5996C240.4 17.3996 240.3 17.1996 240.2 17.0996C240.1 16.9996 239.9 16.8002 239.7 16.7002C239.5 16.6002 239.3 16.5996 239.1 16.5996C238.9 16.5996 238.7 16.6002 238.5 16.7002C238.3 16.8002 238.2 16.8996 238 17.0996C237.9 17.1996 237.8 17.3996 237.7 17.5996C237.6 17.7996 237.6 18.0002 237.6 18.2002C237.6 18.4002 237.6 18.5998 237.7 18.7998C237.8 18.9998 237.9 19.1998 238 19.2998C238.1 19.3998 238.3 19.6002 238.5 19.7002C238.6 19.8002 238.8 19.7998 239.1 19.7998Z" fill="white"/>
<path d="M242.3 20.3994V16.2998C242.3 16.1998 242.3 16.1 242.3 16H243.1V16.7002C243.2 16.6002 243.2 16.5 243.3 16.5C243.4 16.5 243.5 16.2998 243.6 16.2998C243.7 16.2998 243.9 16.1996 244 16.0996C244.1 15.9996 244.3 16 244.5 16C245.1 16 245.5 16.2 245.8 16.5C246.1 16.8 246.2 17.2998 246.2 17.7998V20.3994H245.4V17.8994C245.4 17.4994 245.3 17.2 245.1 17C244.9 16.8 244.7 16.7002 244.4 16.7002C244.2 16.7002 244 16.6998 243.8 16.7998C243.6 16.8998 243.5 17.0002 243.4 17.2002C243.3 17.4002 243.2 17.5002 243.2 17.7002C243.2 17.9002 243.1 18.0998 243.1 18.2998V20.2998H242.3V20.3994Z" fill="white"/>
<path d="M254.5 19.2998C254.4 19.3998 254.3 19.5002 254.2 19.7002C254.1 19.8002 253.9 19.9996 253.7 20.0996C253.5 20.1996 253.3 20.2994 253 20.3994C252.7 20.4994 252.4 20.5 252.1 20.5C251.6 20.5 251.2 20.3998 250.8 20.2998C250.4 20.0998 250.1 19.8996 249.8 19.5996C249.5 19.2996 249.3 18.9996 249.2 18.5996C249 18.1996 249 17.7998 249 17.2998C249 16.7998 249.1 16.4 249.2 16C249.4 15.6 249.6 15.3 249.8 15C250.1 14.7 250.4 14.4998 250.8 14.2998C251.2 14.0998 251.6 14 252.1 14C252.4 14 252.7 13.9996 253 14.0996C253.3 14.1996 253.5 14.2994 253.7 14.3994C253.9 14.4994 254.1 14.6998 254.2 14.7998C254.3 14.8998 254.5 15.1002 254.5 15.2002L253.9 15.7002C253.8 15.6002 253.7 15.4994 253.6 15.3994C253.5 15.2994 253.4 15.1996 253.2 15.0996C253.1 14.9996 252.9 14.8994 252.7 14.8994C252.5 14.7994 252.3 14.7998 252.1 14.7998C251.8 14.7998 251.5 14.9 251.2 15C250.9 15.1 250.7 15.3 250.5 15.5C250.3 15.7 250.2 15.9998 250.1 16.2998C250 16.5998 250 16.9002 250 17.2002C250 17.5002 250.1 17.8996 250.2 18.0996C250.3 18.3996 250.4 18.6994 250.6 18.8994C250.8 19.0994 251 19.2994 251.3 19.3994C251.6 19.4994 251.9 19.5996 252.2 19.5996C252.5 19.5996 252.7 19.6 252.9 19.5C253.1 19.4 253.3 19.3002 253.4 19.2002C253.5 19.1002 253.7 18.9994 253.7 18.8994C253.8 18.7994 253.9 18.6996 253.9 18.5996L254.5 19.2998Z" fill="white"/>
<path d="M257.3 20.5C257 20.5 256.7 20.3998 256.4 20.2998C256.1 20.1998 255.9 19.9998 255.7 19.7998C255.5 19.5998 255.3 19.2996 255.2 19.0996C255.1 18.7996 255 18.5002 255 18.2002C255 17.9002 255.1 17.5998 255.2 17.2998C255.3 16.9998 255.5 16.7996 255.7 16.5996C255.9 16.3996 256.1 16.1996 256.4 16.0996C256.7 15.9996 257 15.8994 257.3 15.8994C257.6 15.8994 257.9 15.9996 258.2 16.0996C258.5 16.1996 258.7 16.3996 258.9 16.5996C259.1 16.7996 259.3 17.0998 259.4 17.2998C259.5 17.5998 259.6 17.9002 259.6 18.2002C259.6 18.5002 259.5 18.7996 259.4 19.0996C259.3 19.3996 259.1 19.5998 258.9 19.7998C258.7 19.9998 258.5 20.1998 258.2 20.2998C257.9 20.4998 257.6 20.5 257.3 20.5ZM257.3 19.7998C257.5 19.7998 257.7 19.8002 257.9 19.7002C258.1 19.6002 258.2 19.4998 258.4 19.2998C258.5 19.1998 258.6 18.9998 258.7 18.7998C258.8 18.5998 258.8 18.4002 258.8 18.2002C258.8 18.0002 258.8 17.7996 258.7 17.5996C258.6 17.3996 258.5 17.1996 258.4 17.0996C258.3 16.9996 258.1 16.8002 257.9 16.7002C257.7 16.6002 257.5 16.5996 257.3 16.5996C257.1 16.5996 256.9 16.6002 256.7 16.7002C256.5 16.8002 256.4 16.8996 256.2 17.0996C256.1 17.1996 256 17.3996 255.9 17.5996C255.8 17.7996 255.8 18.0002 255.8 18.2002C255.8 18.4002 255.8 18.5998 255.9 18.7998C256 18.9998 256.1 19.1998 256.2 19.2998C256.3 19.3998 256.5 19.6002 256.7 19.7002C256.9 19.8002 257.1 19.7998 257.3 19.7998Z" fill="white"/>
<path d="M260.5 20.3994V16.2998C260.5 16.1998 260.5 16.1 260.5 16H261.3V16.7002C261.3 16.6002 261.4 16.5 261.5 16.5C261.6 16.5 261.7 16.2998 261.8 16.2998C261.9 16.2998 262 16.1996 262.2 16.0996C262.4 16.0996 262.5 16 262.7 16C263 16 263.3 16.1002 263.5 16.2002C263.7 16.3002 263.9 16.4998 264 16.7998C264.2 16.5998 264.4 16.3998 264.6 16.2998C264.9 16.0998 265.2 16.0996 265.5 16.0996C266.1 16.0996 266.5 16.2996 266.7 16.5996C266.9 16.8996 267.1 17.3994 267.1 17.8994V20.5H266.5V18C266.5 17.6 266.4 17.2996 266.3 17.0996C266.1 16.8996 265.9 16.7998 265.6 16.7998C265.4 16.7998 265.3 16.7994 265.1 16.8994C265 16.9994 264.8 17.1002 264.7 17.2002C264.6 17.3002 264.5 17.4996 264.4 17.5996C264.3 17.7996 264.3 17.8996 264.3 18.0996V20.5H263.5V18C263.5 17.6 263.4 17.2996 263.3 17.0996C263.1 16.8996 262.9 16.7998 262.6 16.7998C262.4 16.7998 262.2 16.7994 262 16.8994C261.8 16.9994 261.7 17.0998 261.6 17.2998C261.5 17.4998 261.4 17.5998 261.4 17.7998C261.4 17.9998 261.3 18.1994 261.3 18.3994V20.3994H260.5Z" fill="white"/>
<path d="M268.4 20.3994V16.2998C268.4 16.1998 268.4 16.1 268.4 16H269.2V16.7002C269.2 16.6002 269.3 16.5 269.4 16.5C269.5 16.4 269.6 16.2998 269.7 16.2998C269.8 16.2998 269.9 16.1996 270.1 16.0996C270.3 16.0996 270.4 16 270.6 16C270.9 16 271.2 16.1002 271.4 16.2002C271.6 16.3002 271.8 16.4998 271.9 16.7998C272.1 16.5998 272.3 16.3998 272.5 16.2998C272.8 16.0998 273.1 16.0996 273.4 16.0996C274 16.0996 274.4 16.2996 274.6 16.5996C274.9 16.8996 275 17.3994 275 17.8994V20.5H274.2V18C274.2 17.6 274.1 17.2996 274 17.0996C273.8 16.8996 273.6 16.7998 273.3 16.7998C273.1 16.7998 273 16.7994 272.8 16.8994C272.7 16.9994 272.5 17.1002 272.4 17.2002C272.3 17.3002 272.2 17.4996 272.1 17.5996C272 17.7996 272 17.8996 272 18.0996V20.5H271.2V18C271.2 17.6 271.1 17.2996 271 17.0996C270.8 16.8996 270.6 16.7998 270.3 16.7998C270.1 16.7998 269.9 16.7994 269.7 16.8994C269.5 16.9994 269.4 17.0998 269.3 17.2998C269.2 17.4998 269.1 17.5998 269.1 17.7998C269.1 17.9998 269 18.1994 269 18.3994V20.3994H268.4Z" fill="white"/>
<path d="M276.3 14.3994H277.2V15.2998H276.3V14.3994ZM276.4 16.0996H277.2V20.3994H276.4V16.0996Z" fill="white"/>
<path d="M278.7 19.2998C278.9 19.4998 279 19.6002 279.3 19.7002C279.5 19.8002 279.8 19.7998 280.1 19.7998C280.4 19.7998 280.6 19.8002 280.8 19.7002C281 19.6002 281.1 19.4998 281.1 19.2998C281.1 19.1998 281.1 19.1 281 19C281 18.9 280.9 18.8998 280.8 18.7998C280.7 18.6998 280.6 18.6996 280.4 18.5996C280.2 18.5996 280 18.4994 279.8 18.3994C279.6 18.3994 279.5 18.2998 279.3 18.2998C279.1 18.1998 279 18.1996 278.9 18.0996C278.8 17.9996 278.7 17.9002 278.6 17.7002C278.5 17.6002 278.5 17.4002 278.5 17.2002C278.5 17.0002 278.5 16.7996 278.6 16.5996C278.7 16.3996 278.8 16.3002 279 16.2002C279.2 16.1002 279.3 16 279.5 16C279.7 15.9 279.9 15.8994 280.1 15.8994C280.5 15.8994 280.8 15.9 281 16C281.3 16.1 281.5 16.1994 281.7 16.3994L281.2 17C281.1 16.9 280.9 16.8002 280.7 16.7002C280.5 16.6002 280.3 16.5996 280 16.5996C279.7 16.5996 279.5 16.6002 279.4 16.7002C279.2 16.8002 279.2 16.8996 279.2 17.0996C279.2 17.2996 279.3 17.4 279.5 17.5C279.7 17.6 280 17.6998 280.3 17.7998C280.5 17.7998 280.7 17.9 280.9 18C281.1 18.1 281.2 18.0998 281.4 18.2998C281.5 18.3998 281.6 18.5002 281.7 18.7002C281.8 18.8002 281.8 19.0002 281.8 19.2002C281.8 19.4002 281.8 19.5998 281.7 19.7998C281.6 19.9998 281.5 20.1002 281.3 20.2002C281.1 20.3002 280.9 20.4 280.7 20.5C280.5 20.6 280.3 20.5996 280 20.5996C279.2 20.5996 278.6 20.3994 278.2 19.8994L278.7 19.2998Z" fill="white"/>
<path d="M283.1 19.2998C283.3 19.4998 283.4 19.6002 283.7 19.7002C283.9 19.8002 284.2 19.7998 284.5 19.7998C284.8 19.7998 285 19.8002 285.2 19.7002C285.4 19.6002 285.5 19.4998 285.5 19.2998C285.5 19.1998 285.5 19.1 285.4 19C285.4 18.9 285.3 18.8998 285.2 18.7998C285.1 18.6998 285 18.6996 284.8 18.5996C284.6 18.5996 284.4 18.4994 284.2 18.3994C284 18.3994 283.9 18.2998 283.7 18.2998C283.5 18.1998 283.4 18.1996 283.3 18.0996C283.2 17.9996 283.1 17.9002 283 17.7002C282.9 17.6002 282.9 17.4002 282.9 17.2002C282.9 17.0002 282.9 16.7996 283 16.5996C283.1 16.3996 283.2 16.3002 283.4 16.2002C283.6 16.1002 283.7 16 283.9 16C284.1 15.9 284.3 15.8994 284.5 15.8994C284.9 15.8994 285.2 15.9 285.4 16C285.7 16.1 285.9 16.1994 286.1 16.3994L285.6 17C285.5 16.9 285.3 16.8002 285.1 16.7002C284.9 16.6002 284.7 16.5996 284.4 16.5996C284.1 16.5996 283.9 16.6002 283.8 16.7002C283.6 16.8002 283.6 16.8996 283.6 17.0996C283.6 17.2996 283.7 17.4 283.9 17.5C284.1 17.6 284.4 17.6998 284.7 17.7998C284.9 17.7998 285.1 17.9 285.3 18C285.5 18.1 285.6 18.0998 285.8 18.2998C285.9 18.3998 286 18.5002 286.1 18.7002C286.2 18.8002 286.2 19.0002 286.2 19.2002C286.2 19.4002 286.2 19.5998 286.1 19.7998C286 19.9998 285.9 20.1002 285.7 20.2002C285.5 20.3002 285.3 20.4 285.1 20.5C284.9 20.6 284.7 20.5996 284.4 20.5996C283.6 20.5996 283 20.3994 282.6 19.8994L283.1 19.2998Z" fill="white"/>
<path d="M287.2 14.3994H288.1V15.2998H287.2V14.3994ZM287.2 16.0996H288V20.3994H287.2V16.0996Z" fill="white"/>
<path d="M291.4 20.5C291.1 20.5 290.8 20.3998 290.5 20.2998C290.2 20.1998 290 19.9998 289.8 19.7998C289.6 19.5998 289.4 19.2996 289.3 19.0996C289.2 18.7996 289.1 18.5002 289.1 18.2002C289.1 17.9002 289.2 17.5998 289.3 17.2998C289.4 16.9998 289.6 16.7996 289.8 16.5996C290 16.3996 290.2 16.1996 290.5 16.0996C290.8 15.9996 291.1 15.8994 291.4 15.8994C291.7 15.8994 292 15.9996 292.3 16.0996C292.6 16.1996 292.8 16.3996 293 16.5996C293.2 16.7996 293.4 17.0998 293.5 17.2998C293.6 17.5998 293.7 17.9002 293.7 18.2002C293.7 18.5002 293.6 18.7996 293.5 19.0996C293.4 19.3996 293.2 19.5998 293 19.7998C292.8 19.9998 292.6 20.1998 292.3 20.2998C292 20.4998 291.7 20.5 291.4 20.5ZM291.4 19.7998C291.6 19.7998 291.8 19.8002 292 19.7002C292.2 19.6002 292.3 19.4998 292.5 19.2998C292.6 19.1998 292.7 18.9998 292.8 18.7998C292.9 18.5998 292.9 18.4002 292.9 18.2002C292.9 18.0002 292.9 17.7996 292.8 17.5996C292.7 17.3996 292.6 17.1996 292.5 17.0996C292.4 16.9996 292.2 16.8002 292 16.7002C291.8 16.6002 291.6 16.5996 291.4 16.5996C291.2 16.5996 291 16.6002 290.8 16.7002C290.6 16.8002 290.5 16.8996 290.3 17.0996C290.2 17.1996 290.1 17.3996 290 17.5996C289.9 17.7996 289.9 18.0002 289.9 18.2002C289.9 18.4002 289.9 18.5998 290 18.7998C290.1 18.9998 290.2 19.1998 290.3 19.2998C290.4 19.3998 290.6 19.6002 290.8 19.7002C290.9 19.8002 291.1 19.7998 291.4 19.7998Z" fill="white"/>
<path d="M294.6 20.3994V16.2998C294.6 16.1998 294.6 16.1 294.6 16H295.4V16.7002C295.5 16.6002 295.5 16.5 295.6 16.5C295.7 16.4 295.8 16.2998 295.9 16.2998C296 16.2998 296.2 16.1996 296.3 16.0996C296.5 16.0996 296.6 16 296.8 16C297.4 16 297.8 16.2 298.1 16.5C298.4 16.8 298.5 17.2998 298.5 17.7998V20.3994H297.7V17.8994C297.7 17.4994 297.6 17.2 297.4 17C297.2 16.8 297 16.7002 296.7 16.7002C296.5 16.7002 296.3 16.6998 296.1 16.7998C295.9 16.8998 295.8 17.0002 295.7 17.2002C295.6 17.4002 295.5 17.5002 295.5 17.7002C295.5 17.9002 295.4 18.0998 295.4 18.2998V20.2998H294.6V20.3994Z" fill="white"/>
<path d="M21.4 7.2002C19 7.2002 17.3 8.9998 17.3 11.2998C17.3 11.5998 17.4 12.0994 17.4 12.3994H20C19.8 12.0994 19.6 11.6998 19.6 11.2998C19.6 10.2998 20.3 9.59961 21.3 9.59961C22.3 9.59961 23 10.2998 23 11.2998C23 12.2998 22.2 13.0996 21.2 13.0996H19.6H17.3H15V7.7002H12.1C9.70001 7.7002 7.89999 9.49941 7.89999 11.8994V13.0996H4.2C3.2 13.0996 2.5 12.2998 2.5 11.2998C2.5 10.2998 3.3 9.59961 4.2 9.59961V7.2002C1.8 7.2002 0 8.9998 0 11.2998C0 13.6998 1.8 15.5 4.2 15.5H7.89999H10.3V13.0996V11.8994C10.3 10.8994 11 10.0996 12 10.0996H12.5V15.5H17.1H19.4H21C23.4 15.5 25.2 13.6998 25.2 11.2998C25.6 8.8998 23.8 7.2002 21.4 7.2002Z" fill="white"/>
<path d="M7.69998 15.8994C6.89998 15.8994 6.29999 16.4998 6.29999 17.2998C6.29999 18.0998 6.89998 18.7002 7.69998 18.7002C8.49998 18.7002 9.09999 18.0998 9.09999 17.2998C9.19999 16.5998 8.49998 15.8994 7.69998 15.8994Z" fill="white"/>
<path d="M4.39999 15.8994C3.59999 15.8994 3 16.4998 3 17.2998C3 18.0998 3.59999 18.7002 4.39999 18.7002C5.19999 18.7002 5.8 18.0998 5.8 17.2998C5.8 16.5998 5.19999 15.8994 4.39999 15.8994Z" fill="white"/>
<path d="M44.1 7.09961C44.9 7.09961 45.5 6.5002 45.5 5.7002C45.5 4.9002 44.9 4.2998 44.1 4.2998C43.3 4.2998 42.7 4.9002 42.7 5.7002C42.7 6.5002 43.3 7.09961 44.1 7.09961Z" fill="white"/>
<path d="M43.9 13.0996H43.7L42.6 10.0996H44.4C45.3 10.0996 45.8 10.6 45.8 11.5C45.8 12.3 45 13.0996 43.9 13.0996ZM51.6 12C51.6 12.7 51.2 13.0996 50.5 13.0996H47.8C48.1 12.4996 48.3 11.8996 48.3 11.0996C48.3 8.99961 46.9 7.59961 44.6 7.59961H40.2V10.0996L41.3 13H30.5C29.8 13 29.4 12.5994 29.4 11.8994V4.89941H27V11.8994C27 13.9994 28.4 15.3994 30.5 15.3994H50.5C52.6 15.3994 54 13.9994 54 11.8994V7.59961H51.6V12Z" fill="white"/>
<path d="M57.8 7.59961H55.4V15.3994H57.8V7.59961Z" fill="white"/>
<path d="M56.6001 5.2998H57.8V4.2002H56.6001C55.8001 4.2002 55.2001 4.79961 55.2001 5.59961C55.2001 6.39961 55.8001 7 56.6001 7H57.8V5.89941H56.6001C56.4001 5.89941 56.3 5.79961 56.3 5.59961C56.3 5.39961 56.4001 5.2998 56.6001 5.2998Z" fill="white"/>
<path d="M52.8 4.2002C52 4.2002 51.4 4.79961 51.4 5.59961C51.4 6.39961 52 7 52.8 7C53.6 7 54.2 6.39961 54.2 5.59961C54.2 4.79961 53.6 4.2002 52.8 4.2002Z" fill="white"/>
<path d="M74.6 13.3994C73.9 14.2994 72.9 14.8994 71.7 14.8994C69.8 14.8994 68.2 13.2994 68.2 11.3994C68.2 9.49941 69.8 7.89941 71.7 7.89941C73.6 7.89941 75.2 9.49941 75.2 11.3994V19.7002L76.5 19.8994V11.3994C76.5 8.79941 74.4 6.59961 71.7 6.59961C69.1 6.59961 66.9 8.69941 66.9 11.3994C66.9 13.9994 69 16.2002 71.7 16.2002C72.8 16.2002 73.8 15.8998 74.6 15.2998V13.3994Z" fill="white"/>
<path d="M74.6 16C73.8 16.5 72.8 16.7998 71.7 16.7998C68.7 16.7998 66.3 14.3994 66.3 11.3994C66.3 8.39941 68.7 6 71.7 6C74.7 6 77.1 8.39941 77.1 11.3994V20L78.4 20.2002V11.2998C78.4 7.5998 75.4 4.59961 71.7 4.59961C68 4.59961 65 7.5998 65 11.2998C65 14.9998 68 18 71.7 18C72.7 18 73.7 17.7994 74.6 17.3994V16Z" fill="white"/>
<path d="M74.6 18.0996C73.7 18.4996 72.7 18.7002 71.7 18.7002C67.6 18.7002 64.4 15.3994 64.4 11.3994C64.4 7.39941 67.7 4.09961 71.7 4.09961C75.7 4.09961 79 7.39941 79 11.3994V20.3994L80.3 20.5996V11.3994C80.3 6.69941 76.4 2.7998 71.7 2.7998C67 2.7998 63.1 6.69941 63.1 11.3994C63.1 16.0994 67 20 71.7 20C72.7 20 73.6 19.8 74.6 19.5V18.0996Z" fill="white"/>
<path d="M74.6001 20.2002C73.7001 20.5002 72.7001 20.5996 71.7001 20.5996C66.6001 20.5996 62.4001 16.3998 62.4001 11.2998C62.4001 6.1998 66.6001 2 71.7001 2C76.8001 2 81.0001 6.1998 81.0001 11.2998V20.5996L82.3 20.7998V11.2002C82.3 5.4002 77.6 0.700195 71.8 0.700195C66 0.700195 61.3 5.4002 61.3 11.2002C61.3 17.0002 66 21.7002 71.8 21.7002C73 21.7002 74.1001 21.5002 75.2001 21.2002C75.8001 21.0002 76.4001 20.8 76.9001 20.5L74.6001 20.2002Z" fill="white"/>
</svg>
