<svg width="102" height="65" viewBox="0 0 102 65" fill="none" xmlns="http://www.w3.org/2000/svg">
<path d="M37.9919 64.0093C37.0377 64.2674 36.554 64.4529 35.1478 64.4898C34.2724 64.5133 33.0003 64.7869 32.1249 64.792C31.1993 64.7981 30.2779 65.0122 29.3534 64.9016C26.6874 64.5809 23.5089 64.2429 20.8418 64.5041C14.3796 65.1362 11.9927 63.0463 5.53566 63.9939C4.63061 64.1271 1.81113 64.2326 0 63.5268V0.486656C2.02078 3.00432e-05 3.59363 0.623936 4.79117 0.209023C6.00302 -0.211012 10.2798 0.138334 11.5029 0.100429C20.7682 -0.180278 20.9206 1.7775 28.0721 0.904642C30.599 0.596275 31.9213 1.27243 34.2581 1.06753C35.1581 0.988649 37.1042 1.41278 37.9919 1.80208V64.0082V64.0093Z" fill="#B12044"/>
<path d="M9.49713 18.4351C9.49713 18.8797 9.36317 19.226 9.09523 19.4759C8.82729 19.7259 8.45709 19.8499 7.98666 19.8499C7.51624 19.8499 7.13376 19.7269 6.87401 19.48C6.61425 19.2331 6.48438 18.8766 6.48438 18.4105C6.48438 18.0263 6.55289 17.677 6.68993 17.3614C6.82697 17.0459 7.009 16.7939 7.23603 16.6043C7.46306 16.4148 7.71361 16.3205 7.98769 16.3205C8.26176 16.3205 8.52765 16.4138 8.75571 16.6002C8.98274 16.7867 9.16375 17.0397 9.29772 17.3614C9.43168 17.6821 9.49918 18.0396 9.49918 18.4351H9.49713ZM9.13614 15.1865L8.52049 15.8114L7.99485 15.2766L7.4692 15.8114L6.85356 15.1865L7.4692 14.5615L7.99485 15.0963L8.52049 14.5615L9.13614 15.1865ZM8.79048 18.4597C8.79048 18.1144 8.71378 17.8347 8.56038 17.6206C8.40698 17.4065 8.21574 17.2999 7.98564 17.2999C7.8486 17.2999 7.71873 17.343 7.59601 17.427C7.47329 17.512 7.37409 17.6247 7.30046 17.764C7.22683 17.9034 7.19001 18.0611 7.19001 18.2373C7.19001 18.4566 7.26262 18.6215 7.40784 18.7311C7.55306 18.8408 7.74532 18.8961 7.98666 18.8961C8.2004 18.8961 8.38755 18.8541 8.54913 18.769C8.71071 18.684 8.7915 18.5816 8.7915 18.4607L8.79048 18.4597Z" fill="white"/>
<path d="M10.1946 21.4291L9.70166 20.5982C10.0954 20.4445 10.4492 20.2714 10.7611 20.0798C11.073 19.8883 11.3195 19.6916 11.5005 19.4918C11.6815 19.292 11.7715 19.1097 11.7715 18.9447C11.7715 18.8351 11.7357 18.6814 11.6652 18.4837C11.5936 18.286 11.4985 18.0667 11.3778 17.826C11.2571 17.5852 11.1201 17.3486 10.9677 17.1191L11.7316 16.6919C11.972 17.0156 12.1612 17.3701 12.2982 17.7574C12.4352 18.1436 12.5038 18.5073 12.5038 18.8474C12.5038 19.3904 12.3013 19.8883 11.8963 20.3401C11.4913 20.7929 10.9248 21.1555 10.1966 21.4301L10.1946 21.4291Z" fill="white"/>
<path d="M13.2331 19.7844L13.0276 18.7896C13.1585 18.8111 13.3221 18.8326 13.5164 18.8511C13.7107 18.8705 13.8897 18.8798 14.0543 18.8798C14.2354 18.8798 14.4184 18.8664 14.6045 18.8388C14.7907 18.8111 14.9461 18.7783 15.0729 18.7404C15.1987 18.7025 15.2621 18.6636 15.2621 18.6257C15.2621 18.4833 15.2059 18.3081 15.0934 18.0991C14.9809 17.8911 14.8264 17.6668 14.6291 17.4291C14.4317 17.1914 14.2108 16.964 13.9643 16.7509L14.6209 16.126C15.0473 16.5102 15.3828 16.923 15.6262 17.3635C15.8696 17.8051 15.9913 18.22 15.9913 18.6093C15.9913 19.059 15.843 19.3787 15.5474 19.5672C15.2519 19.7557 14.7538 19.851 14.0533 19.851C13.9224 19.851 13.7813 19.8458 13.631 19.8346C13.4806 19.8233 13.3477 19.8069 13.2331 19.7854V19.7844Z" fill="white"/>
<path d="M18.4138 19.7011L18.2829 19.7831C17.8176 19.7831 17.4587 19.6806 17.2071 19.4747C16.9555 19.2688 16.8267 18.9748 16.8215 18.5906L16.7725 14.5357L17.61 14.3882L17.5773 18.1962C17.5773 18.4154 17.6315 18.5732 17.7419 18.6695C17.8514 18.7658 18.0324 18.8129 18.284 18.8129L18.4149 18.8949V19.7011H18.4138Z" fill="white"/>
<path d="M18.282 19.7846L18.1511 19.7027V18.8964L18.282 18.8145H18.9386L19.0695 18.8964V19.7027L18.9386 19.7846H18.282Z" fill="white"/>
<path d="M18.9397 19.7846L18.8088 19.7027V18.8964L18.9397 18.8145H19.5963L19.7272 18.8964V19.7027L19.5963 19.7846H18.9397Z" fill="white"/>
<path d="M19.596 19.7846L19.4651 19.7027V18.8964L19.596 18.8145H20.2525L20.3834 18.8964V19.7027L20.2525 19.7846H19.596Z" fill="white"/>
<path d="M20.2527 19.7846L20.1218 19.7027V18.8964L20.2527 18.8145H20.9093L21.0402 18.8964V19.7027L20.9093 19.7846H20.2527Z" fill="white"/>
<path d="M20.9092 19.7846L20.7783 19.7027V18.8964L20.9092 18.8145H21.5658L21.6967 18.8964V19.7027L21.5658 19.7846H20.9092Z" fill="white"/>
<path d="M21.5669 19.7846L21.436 19.7027V18.8964L21.5669 18.8145H22.2235L22.3544 18.8964V19.7027L22.2235 19.7846H21.5669Z" fill="white"/>
<path d="M22.2234 19.7846L22.0925 19.7027V18.8964L22.2234 18.8145H22.88L23.0109 18.8964V19.7027L22.88 19.7846H22.2234Z" fill="white"/>
<path d="M22.8799 19.7846L22.749 19.7027V18.8964L22.8799 18.8145H23.5365L23.6674 18.8964V19.7027L23.5365 19.7846H22.8799Z" fill="white"/>
<path d="M23.5374 19.7846L23.4065 19.7027V18.8964L23.5374 18.8145H24.1939L24.3248 18.8964V19.7027L24.1939 19.7846H23.5374Z" fill="white"/>
<path d="M24.1941 19.7846L24.0632 19.7027V18.8964L24.1941 18.8145H24.8507L24.9816 18.8964V19.7027L24.8507 19.7846H24.1941Z" fill="white"/>
<path d="M27.6998 19.7019L27.5689 19.7838C27.2406 19.7838 26.9737 19.7377 26.7681 19.6445C26.5626 19.5513 26.4 19.4119 26.2793 19.2255C26.1474 19.4119 25.952 19.5523 25.6923 19.6445C25.4325 19.7377 25.1513 19.7838 24.8506 19.7838L24.7197 19.7019V18.8956L24.8506 18.8137C25.2065 18.8137 25.4581 18.7686 25.6064 18.6784C25.7547 18.5883 25.8416 18.4715 25.8692 18.3291C25.8968 18.2031 25.9254 18.0371 25.9551 17.8312C25.9848 17.6253 26.0113 17.4542 26.0328 17.3169L26.7385 17.407C26.6996 17.7082 26.674 17.9336 26.6607 18.0812C26.6474 18.2287 26.6403 18.3168 26.6403 18.3444C26.6403 18.6569 26.9491 18.8137 27.5678 18.8137L27.6987 18.8956V19.7019H27.6998ZM26.8704 21.0429L26.2547 21.6678L25.6391 21.0429L26.2547 20.418L26.8704 21.0429Z" fill="white"/>
<path d="M30.1458 19.8503C29.5874 19.8503 29.1221 19.626 28.7499 19.1762C28.5965 19.3903 28.4257 19.545 28.2365 19.6413C28.0473 19.7376 27.8244 19.7847 27.5677 19.7847L27.4368 19.7028V18.8965L27.5677 18.8146C27.7814 18.8146 27.9481 18.7736 28.0688 18.6916C28.1894 18.6097 28.3122 18.456 28.438 18.2306L28.8736 17.4653C29.2182 16.8455 29.6345 16.5361 30.1213 16.5361C30.3728 16.5361 30.6039 16.6201 30.8146 16.7871C31.0253 16.9541 31.194 17.1775 31.3198 17.4571C31.4456 17.7368 31.509 18.0462 31.509 18.3863C31.509 18.8412 31.3883 19.1998 31.148 19.46C30.9067 19.7202 30.5733 19.8503 30.1468 19.8503H30.1458ZM29.3246 18.0985L29.16 18.4273C29.2694 18.5759 29.4166 18.6957 29.6028 18.789C29.7889 18.8822 29.9832 18.9283 30.1857 18.9283C30.3769 18.9283 30.5272 18.874 30.6377 18.7633C30.7481 18.6527 30.8023 18.5082 30.8023 18.3269C30.8023 18.0964 30.7297 17.8977 30.5845 17.7307C30.4393 17.5637 30.2685 17.4797 30.0711 17.4797C29.7807 17.4797 29.5322 17.6856 29.3236 18.0964L29.3246 18.0985Z" fill="white"/>
<path d="M10.9422 29.0857L10.8113 29.1677C10.395 29.1677 10.0616 29.0662 9.81007 28.8634C9.56361 29.1103 9.23534 29.2332 8.82525 29.2332C8.55731 29.2332 8.30472 29.1769 8.0695 29.0642C7.83429 28.9515 7.62567 28.7937 7.44568 28.5909L7.28921 28.9033C7.27285 28.9423 7.26467 28.9914 7.26467 29.0509L7.25649 32.2913H6.52529L6.46802 29.0181C6.46802 28.9085 6.47927 28.8163 6.50074 28.7425C6.52222 28.6687 6.56108 28.5817 6.61528 28.4833L7.55102 26.8462C7.9069 26.2264 8.32312 25.917 8.79866 25.917C9.05024 25.917 9.28136 26.001 9.49203 26.168C9.70269 26.335 9.87143 26.5583 9.99722 26.838C10.123 27.1177 10.1864 27.4271 10.1864 27.7672C10.1864 27.8164 10.1854 27.8645 10.1823 27.9116C10.1793 27.9588 10.1752 28.0038 10.1701 28.0469C10.301 28.1452 10.5147 28.1944 10.8102 28.1944L10.9411 28.2764V29.0826L10.9422 29.0857ZM8.00303 27.4824L7.83838 27.8112C7.94781 27.9598 8.09609 28.0797 8.28222 28.1729C8.46834 28.2661 8.66265 28.3122 8.86513 28.3122C9.05637 28.3122 9.2067 28.2579 9.31715 28.1473C9.42658 28.0377 9.4818 27.8922 9.4818 27.7108C9.4818 27.4803 9.40919 27.2816 9.26397 27.1146C9.11876 26.9476 8.94797 26.8636 8.7506 26.8636C8.46016 26.8636 8.21165 27.0695 8.00303 27.4803V27.4824Z" fill="white"/>
<path d="M10.8103 29.1689L10.6794 29.087V28.2807L10.8103 28.1987H11.4669L11.5978 28.2807V29.087L11.4669 29.1689H10.8103Z" fill="white"/>
<path d="M11.4681 29.1689L11.3372 29.087V28.2807L11.4681 28.1987H12.1246L12.2555 28.2807V29.087L12.1246 29.1689H11.4681Z" fill="white"/>
<path d="M12.1246 29.1689L11.9937 29.087V28.2807L12.1246 28.1987H12.7811L12.912 28.2807V29.087L12.7811 29.1689H12.1246Z" fill="white"/>
<path d="M12.781 29.1689L12.6501 29.087V28.2807L12.781 28.1987H13.4376L13.5685 28.2807V29.087L13.4376 29.1689H12.781Z" fill="white"/>
<path d="M13.4375 29.1689L13.3066 29.087V28.2807L13.4375 28.1987H14.0941L14.225 28.2807V29.087L14.0941 29.1689H13.4375Z" fill="white"/>
<path d="M14.0953 29.1689L13.9644 29.087V28.2807L14.0953 28.1987H14.7518L14.8827 28.2807V29.087L14.7518 29.1689H14.0953Z" fill="white"/>
<path d="M14.7518 29.1689L14.6208 29.087V28.2807L14.7518 28.1987H15.4083L15.5392 28.2807V29.087L15.4083 29.1689H14.7518Z" fill="white"/>
<path d="M15.4082 29.1689L15.2773 29.087V28.2807L15.4082 28.1987H16.0648L16.1957 28.2807V29.087L16.0648 29.1689H15.4082Z" fill="white"/>
<path d="M16.066 29.1689L15.9351 29.087V28.2807L16.066 28.1987H16.7225L16.8534 28.2807V29.087L16.7225 29.1689H16.066Z" fill="white"/>
<path d="M16.7227 29.1689L16.5918 29.087V28.2807L16.7227 28.1987H17.3792L17.5101 28.2807V29.087L17.3792 29.1689H16.7227Z" fill="white"/>
<path d="M17.3789 29.1689L17.248 29.087V28.2807L17.3789 28.1987H18.0355L18.1664 28.2807V29.087L18.0355 29.1689H17.3789Z" fill="white"/>
<path d="M18.0354 29.1689L17.9045 29.087V28.2807L18.0354 28.1987H18.692L18.8229 28.2807V29.087L18.692 29.1689H18.0354Z" fill="white"/>
<path d="M18.6932 29.1689L18.5623 29.087V28.2807L18.6932 28.1987H19.3497L19.4816 28.2807V29.087L19.3497 29.1689H18.6932Z" fill="white"/>
<path d="M19.3499 29.1689L19.219 29.087V28.2807L19.3499 28.1987H20.0064L20.1373 28.2807V29.087L20.0064 29.1689H19.3499Z" fill="white"/>
<path d="M20.0064 29.1689L19.8755 29.087V28.2807L20.0064 28.1987H20.6629L20.7938 28.2807V29.087L20.6629 29.1689H20.0064Z" fill="white"/>
<path d="M20.6626 29.1689L20.5317 29.087V28.2807L20.6626 28.1987H21.3192L21.4501 28.2807V29.087L21.3192 29.1689H20.6626Z" fill="white"/>
<path d="M21.3204 29.1689L21.1895 29.087V28.2807L21.3204 28.1987H21.9769L22.1078 28.2807V29.087L21.9769 29.1689H21.3204Z" fill="white"/>
<path d="M21.9768 29.1689L21.8459 29.087V28.2807L21.9768 28.1987H22.6334L22.7643 28.2807V29.087L22.6334 29.1689H21.9768Z" fill="white"/>
<path d="M22.6336 29.1689L22.5027 29.087V28.2807L22.6336 28.1987H23.2901L23.421 28.2807V29.087L23.2901 29.1689H22.6336Z" fill="white"/>
<path d="M23.2911 29.1689L23.1602 29.087V28.2807L23.2911 28.1987H23.9476L24.0785 28.2807V29.087L23.9476 29.1689H23.2911Z" fill="white"/>
<path d="M23.9476 29.1689L23.8167 29.087V28.2807L23.9476 28.1987H24.6041L24.735 28.2807V29.087L24.6041 29.1689H23.9476Z" fill="white"/>
<path d="M28.0115 27.7622L27.897 28.6422C27.6178 28.7518 27.2967 28.845 26.9326 28.9219C26.5685 28.9987 26.1881 29.0571 25.7913 29.0991C25.3945 29.1401 24.9987 29.1637 24.605 29.1688L24.4741 29.0868V28.2806L24.605 28.1986C24.8791 28.1986 25.1501 28.1904 25.418 28.174C25.1992 27.9271 25.0898 27.6259 25.0898 27.2694C25.0898 26.9785 25.1573 26.7152 25.2912 26.4795C25.4252 26.2439 25.6062 26.0564 25.8332 25.9161C26.0603 25.7767 26.3108 25.7061 26.5849 25.7061C26.815 25.7061 27.0298 25.7573 27.2292 25.8577C27.4286 25.9591 27.5943 26.1036 27.7262 26.29L27.357 26.7838C27.2527 26.7398 27.1433 26.7018 27.0287 26.6691C26.9142 26.6363 26.7904 26.6199 26.6595 26.6199C26.4131 26.6199 26.2055 26.6793 26.0357 26.7971C25.866 26.9149 25.7811 27.0696 25.7811 27.2622C25.7811 27.4323 25.869 27.586 26.0439 27.7232C26.2188 27.8605 26.4816 27.9538 26.8324 28.0029C27.0298 27.9701 27.2251 27.9333 27.4194 27.8923C27.6137 27.8513 27.8121 27.8093 28.0146 27.7652L28.0115 27.7622Z" fill="white"/>
<path d="M28.7673 29.1687L28.5618 28.1739C28.6927 28.1954 28.8563 28.2169 29.0506 28.2354C29.2449 28.2548 29.4239 28.264 29.5885 28.264C29.7695 28.264 29.9526 28.2507 30.1387 28.2231C30.3248 28.1954 30.4803 28.1626 30.6071 28.1247C30.7329 28.0868 30.7963 28.0479 30.7963 28.01C30.7963 27.8676 30.74 27.6924 30.6275 27.4834C30.5151 27.2754 30.3606 27.0511 30.1633 26.8134C29.9659 26.5757 29.745 26.3483 29.4985 26.1352L30.1551 25.5103C30.5815 25.8944 30.917 26.3073 31.1604 26.7478C31.4037 27.1894 31.5254 27.6043 31.5254 27.9936C31.5254 28.4433 31.3772 28.763 31.0826 28.9515C30.7871 29.141 30.289 29.2352 29.5885 29.2352C29.4576 29.2352 29.3165 29.2301 29.1662 29.2189C29.0158 29.2076 28.8829 29.1912 28.7683 29.1697L28.7673 29.1687Z" fill="white"/>
<path d="M10.3022 39.7117L10.5405 40.2711C10.3052 40.5067 10.0066 40.6901 9.64563 40.8223C9.28463 40.9544 8.89807 41.02 8.48798 41.02C8.07789 41.02 7.68621 40.9472 7.36305 40.8018C7.03989 40.6563 6.78934 40.4483 6.6114 40.1768C6.43345 39.9054 6.34448 39.5857 6.34448 39.219C6.34448 38.8184 6.46107 38.4537 6.69321 38.1248C6.92535 37.796 7.25874 37.5193 7.6903 37.294C7.48782 37.168 7.33135 37.0092 7.22193 36.8166C7.1125 36.625 7.05728 36.3996 7.05728 36.1425C7.05728 35.8515 7.12375 35.5882 7.25874 35.3526C7.39271 35.117 7.57372 34.9295 7.80075 34.7891C8.02778 34.6488 8.27833 34.5791 8.55241 34.5791C8.78251 34.5791 8.99727 34.6303 9.19668 34.7317C9.3961 34.8332 9.56177 34.9776 9.6937 35.1631L9.32452 35.6568C9.22021 35.6128 9.11078 35.5749 8.99624 35.5421C8.8817 35.5093 8.75796 35.4929 8.62706 35.4929C8.3806 35.4929 8.173 35.5524 8.00324 35.6702C7.83348 35.788 7.7486 35.9427 7.7486 36.1353C7.7486 36.3053 7.84166 36.4621 8.02778 36.6045C8.21391 36.7469 8.49616 36.8401 8.87352 36.8842C9.21305 36.8073 9.57405 36.7582 9.95754 36.7356L9.83483 37.6648C8.93693 37.714 8.26811 37.8697 7.82734 38.1299C7.38657 38.3902 7.1667 38.7149 7.1667 39.1042C7.1667 39.389 7.30169 39.6164 7.5727 39.7865C7.8437 39.9566 8.21391 40.0416 8.68535 40.0416C8.96965 40.0416 9.26111 40.0129 9.55973 39.9556C9.85835 39.8982 10.1058 39.8172 10.3032 39.7128L10.3022 39.7117Z" fill="white"/>
<path d="M12.5183 38.4702L12.3874 38.5522C11.9221 38.5522 11.5632 38.4497 11.3116 38.2438C11.06 38.0379 10.9312 37.7439 10.926 37.3597L10.877 33.3048L11.7145 33.1562L11.6818 36.9642C11.6818 37.1835 11.736 37.3412 11.8464 37.4375C11.9559 37.5338 12.1369 37.582 12.3884 37.582L12.5193 37.6639V38.4702H12.5183Z" fill="white"/>
<path d="M12.3872 38.5522L12.2563 38.4703V37.664L12.3872 37.582H13.0438L13.1747 37.664V38.4703L13.0438 38.5522H12.3872Z" fill="white"/>
<path d="M13.044 38.5522L12.9131 38.4703V37.664L13.044 37.582H13.7005L13.8314 37.664V38.4703L13.7005 38.5522H13.044Z" fill="white"/>
<path d="M13.7005 38.5522L13.5696 38.4703V37.664L13.7005 37.582H14.357L14.4879 37.664V38.4703L14.357 38.5522H13.7005Z" fill="white"/>
<path d="M14.3582 38.5522L14.2273 38.4703V37.664L14.3582 37.582H15.0147L15.1456 37.664V38.4703L15.0147 38.5522H14.3582Z" fill="white"/>
<path d="M15.0144 38.5522L14.8835 38.4703V37.664L15.0144 37.582H15.671L15.8019 37.664V38.4703L15.671 38.5522H15.0144Z" fill="white"/>
<path d="M15.6712 38.5522L15.5403 38.4703V37.664L15.6712 37.582H16.3277L16.4586 37.664V38.4703L16.3277 38.5522H15.6712Z" fill="white"/>
<path d="M16.3287 38.5522L16.1978 38.4703V37.664L16.3287 37.582H16.9852L17.1161 37.664V38.4703L16.9852 38.5522H16.3287Z" fill="white"/>
<path d="M16.9851 38.5522L16.8542 38.4703V37.664L16.9851 37.582H17.6417L17.7726 37.664V38.4703L17.6417 38.5522H16.9851Z" fill="white"/>
<path d="M17.6419 38.5522L17.511 38.4703V37.664L17.6419 37.582H18.2984L18.4293 37.664V38.4703L18.2984 38.5522H17.6419Z" fill="white"/>
<path d="M18.2984 38.5522L18.1675 38.4703V37.664L18.2984 37.582H18.9549L19.0869 37.664V38.4703L18.9549 38.5522H18.2984Z" fill="white"/>
<path d="M18.9559 38.5522L18.825 38.4703V37.664L18.9559 37.582H19.6124L19.7433 37.664V38.4703L19.6124 38.5522H18.9559Z" fill="white"/>
<path d="M19.6126 38.5522L19.4817 38.4703V37.664L19.6126 37.582H20.2691L20.4 37.664V38.4703L20.2691 38.5522H19.6126Z" fill="white"/>
<path d="M20.2691 38.5522L20.1382 38.4703V37.664L20.2691 37.582H20.9256L21.0565 37.664V38.4703L20.9256 38.5522H20.2691Z" fill="white"/>
<path d="M20.9256 38.5522L20.7947 38.4703V37.664L20.9256 37.582H21.5821L21.713 37.664V38.4703L21.5821 38.5522H20.9256Z" fill="white"/>
<path d="M21.583 38.5522L21.4521 38.4703V37.664L21.583 37.582H22.2396L22.3705 37.664V38.4703L22.2396 38.5522H21.583Z" fill="white"/>
<path d="M22.2395 38.5522L22.1086 38.4703V37.664L22.2395 37.582H22.8961L23.027 37.664V38.4703L22.8961 38.5522H22.2395Z" fill="white"/>
<path d="M25.7454 38.4702L25.6145 38.5522C25.2862 38.5522 25.0193 38.5061 24.8138 38.4118C24.6082 38.3186 24.4456 38.1793 24.3249 37.9928C24.193 38.1793 23.9977 38.3186 23.7379 38.4118C23.4782 38.5051 23.1969 38.5522 22.8963 38.5522L22.7654 38.4702V37.664L22.8963 37.582C23.2522 37.582 23.5037 37.5369 23.652 37.4468C23.8003 37.3566 23.8872 37.2398 23.9149 37.0974C23.9425 36.9714 23.9711 36.8055 24.0008 36.5995C24.0304 36.3936 24.057 36.2225 24.0785 36.0852L24.7841 36.1754C24.7453 36.4766 24.7197 36.702 24.7064 36.8495C24.6931 36.9981 24.6859 37.0851 24.6859 37.1128C24.6859 37.4253 24.9948 37.582 25.6135 37.582L25.7444 37.664V38.4702H25.7454ZM25.0561 34.9501L24.4405 35.5751L23.8249 34.9501L24.4405 34.3252L25.0561 34.9501Z" fill="white"/>
<path d="M25.6143 38.552L25.4834 38.4701V37.6638L25.6143 37.5819C25.7892 37.5819 25.9313 37.5562 26.0408 37.504C26.1502 37.4517 26.2483 37.3421 26.3363 37.1751C26.4242 37.0082 26.5194 36.752 26.6237 36.4058L27.3048 36.5871C27.2393 36.9877 27.1657 37.3145 27.0828 37.5696C27.001 37.8247 26.8967 38.0234 26.7709 38.1658C26.6451 38.3082 26.4887 38.4086 26.3026 38.466C26.1164 38.5234 25.8863 38.552 25.6133 38.552H25.6143ZM26.9601 37.212C27.0532 37.2889 27.1657 37.3534 27.2966 37.4056C27.4285 37.4579 27.5788 37.503 27.7486 37.5409C28.082 36.7623 28.4522 36.1589 28.8572 35.7317C29.2621 35.3044 29.6722 35.0903 30.0884 35.0903C30.3564 35.0903 30.6018 35.1672 30.8237 35.3208C31.0457 35.4745 31.2236 35.6856 31.3576 35.954C31.4915 36.2224 31.559 36.5328 31.559 36.8832C31.559 37.4313 31.3361 37.8574 30.8902 38.1617C30.4443 38.466 29.7939 38.6186 28.94 38.6186C28.4256 38.6186 27.9726 38.5674 27.5809 38.466C27.1892 38.3646 26.9039 38.2211 26.7229 38.0347L26.9611 37.212H26.9601ZM30.0721 36.0687C29.8041 36.0687 29.5331 36.2029 29.2591 36.4713C28.985 36.7397 28.7201 37.1239 28.4624 37.6228C28.5555 37.628 28.6526 37.6321 28.7539 37.6351C28.8551 37.6382 28.9574 37.6392 29.0617 37.6392C29.6415 37.6392 30.0813 37.5737 30.3799 37.4415C30.6785 37.3093 30.8278 37.1178 30.8278 36.8658C30.8278 36.6516 30.7542 36.4652 30.6059 36.3064C30.4576 36.1476 30.2807 36.0677 30.0721 36.0677V36.0687Z" fill="white"/>
<path d="M10.3677 47.4272L9.8421 47.2623C9.22339 47.0707 8.91455 46.6732 8.91455 46.0698C8.91455 45.785 8.98102 45.5217 9.11601 45.2799C9.24998 45.0391 9.42792 44.8445 9.64984 44.6959C9.87176 44.5474 10.1141 44.4736 10.377 44.4736C10.6398 44.4736 10.875 44.5515 11.0826 44.7082C11.2902 44.865 11.4518 45.0852 11.5673 45.37L11.0826 45.7317C10.8913 45.4735 10.6449 45.3455 10.3432 45.3455C10.1571 45.3455 9.99448 45.4018 9.85437 45.5145C9.71529 45.6272 9.64473 45.7624 9.64473 45.9212C9.64473 46.0421 9.68461 46.1312 9.76335 46.1886C9.84312 46.246 10.019 46.3187 10.2931 46.4068L10.8187 46.5718C11.3495 46.7418 11.6154 47.0512 11.6154 47.501C11.6154 47.7591 11.5356 48.0111 11.3771 48.258C11.2186 48.5049 11.0059 48.7283 10.741 48.9281C10.4751 49.1278 10.1775 49.2866 9.84619 49.4055C9.51485 49.5233 9.17737 49.5827 8.83171 49.5827C8.42674 49.5827 8.06778 49.5028 7.75587 49.344C7.44396 49.1852 7.19852 48.9598 7.02058 48.6699C6.84263 48.3789 6.75366 48.0388 6.75366 47.6495C6.75366 47.3422 6.81195 47.0277 6.93058 46.7039C7.04819 46.3802 7.21079 46.0872 7.41941 45.8239L7.93688 46.1446C7.67917 46.5779 7.55134 46.9918 7.55134 47.3862C7.55134 47.7591 7.67713 48.0552 7.9287 48.2744C8.18027 48.4937 8.52287 48.6033 8.95545 48.6033C9.18555 48.6033 9.41156 48.5777 9.63245 48.5254C9.85437 48.4732 10.0569 48.4045 10.2399 48.3195C10.423 48.2345 10.5692 48.1382 10.6786 48.0316C10.7881 47.9251 10.8433 47.8196 10.8433 47.7151C10.8433 47.6546 10.8157 47.6065 10.7615 47.5716C10.7062 47.5358 10.5753 47.4876 10.3677 47.4272Z" fill="white"/>
<path d="M15.6301 47.8542L15.4992 47.9361H14.949C14.7843 48.391 14.5072 48.7639 14.1155 49.0548C13.7238 49.3458 13.2463 49.521 12.6828 49.5814L12.3218 48.7096C12.8249 48.6604 13.2381 48.5631 13.5612 48.4176C13.8844 48.2721 14.1165 48.0734 14.2587 47.8214H14.0204C13.4784 47.8214 13.0612 47.6923 12.7687 47.4351C12.4762 47.178 12.3289 46.8235 12.3289 46.3738C12.3289 46.0613 12.3862 45.7775 12.5018 45.5224C12.6163 45.2674 12.7779 45.0645 12.9865 44.9139C13.1941 44.7633 13.4324 44.6875 13.7003 44.6875C14.138 44.6875 14.4816 44.8914 14.7312 45.3001C14.9807 45.7089 15.1075 46.2642 15.1126 46.9659H15.4982L15.6291 47.0479V47.8542H15.6301ZM13.0111 46.341C13.0111 46.758 13.3884 46.9659 14.1442 46.9659H14.4315C14.4203 46.5438 14.3497 46.2129 14.2178 45.9753C14.0859 45.7376 13.9008 45.6177 13.6594 45.6177C13.462 45.6177 13.3046 45.6853 13.1869 45.8195C13.0693 45.9538 13.01 46.1279 13.01 46.342L13.0111 46.341Z" fill="white"/>
<path d="M15.4993 47.9365L15.3684 47.8545V47.0483L15.4993 46.9663H16.1559L16.2868 47.0483V47.8545L16.1559 47.9365H15.4993Z" fill="white"/>
<path d="M16.156 47.9365L16.0251 47.8545V47.0483L16.156 46.9663H16.8126L16.9435 47.0483V47.8545L16.8126 47.9365H16.156Z" fill="white"/>
<path d="M16.8125 47.9365L16.6816 47.8545V47.0483L16.8125 46.9663H17.4691L17.6 47.0483V47.8545L17.4691 47.9365H16.8125Z" fill="white"/>
<path d="M17.4688 47.9365L17.3379 47.8545V47.0483L17.4688 46.9663H18.1253L18.2562 47.0483V47.8545L18.1253 47.9365H17.4688Z" fill="white"/>
<path d="M18.1265 47.9365L17.9956 47.8545V47.0483L18.1265 46.9663H18.7831L18.914 47.0483V47.8545L18.7831 47.9365H18.1265Z" fill="white"/>
<path d="M18.7832 47.9365L18.6523 47.8545V47.0483L18.7832 46.9663H19.4398L19.5717 47.0483V47.8545L19.4398 47.9365H18.7832Z" fill="white"/>
<path d="M19.4397 47.9365L19.3088 47.8545V47.0483L19.4397 46.9663H20.0963L20.2272 47.0483V47.8545L20.0963 47.9365H19.4397Z" fill="white"/>
<path d="M22.9454 47.8545L22.8145 47.9365C22.4862 47.9365 22.2193 47.8904 22.0137 47.7961C21.8082 47.7029 21.6456 47.5636 21.5249 47.3771C21.393 47.5636 21.1976 47.7029 20.9379 47.7961C20.6781 47.8893 20.3969 47.9365 20.0962 47.9365L19.9653 47.8545V47.0482L20.0962 46.9663C20.4521 46.9663 20.7037 46.9212 20.852 46.8311C21.0003 46.7409 21.0872 46.6241 21.1148 46.4817C21.1424 46.3557 21.171 46.1897 21.2007 45.9838C21.2304 45.7779 21.257 45.6068 21.2784 45.4695L21.9841 45.5597C21.9452 45.8609 21.9196 46.0863 21.9063 46.2338C21.893 46.3823 21.8859 46.4694 21.8859 46.4971C21.8859 46.8095 22.1947 46.9663 22.8134 46.9663L22.9443 47.0482V47.8545H22.9454ZM22.7817 44.3344L22.1661 44.9593L21.6405 44.4246L21.1148 44.9593L20.4992 44.3344L21.1148 43.7095L21.6405 44.2442L22.1661 43.7095L22.7817 44.3344Z" fill="white"/>
<path d="M24.7767 46.4292C24.9301 46.3574 25.0774 46.2929 25.2206 46.2345C25.3627 46.1771 25.5049 46.1259 25.647 46.0819L25.4578 45.9999C25.1838 45.8862 24.9649 45.8001 24.8013 45.7428C24.6366 45.6854 24.5027 45.6475 24.3994 45.628C24.2951 45.6086 24.1969 45.5993 24.1038 45.5993C23.9668 45.5993 23.8543 45.6208 23.7674 45.6649C23.6794 45.7089 23.5812 45.7878 23.4718 45.9036L22.9953 45.5338C23.3021 44.9693 23.7234 44.6865 24.2593 44.6865C24.4341 44.6865 24.6203 44.7152 24.8176 44.7726C25.015 44.8299 25.2942 44.9385 25.6552 45.0973C25.9559 45.2295 26.186 45.3186 26.3445 45.3647C26.503 45.4119 26.6564 45.4344 26.8047 45.4344H26.9693V46.3472C26.6513 46.4292 26.3588 46.5367 26.0909 46.6679C25.8229 46.799 25.5325 46.9527 25.2206 47.1289C24.9414 47.2877 24.6755 47.429 24.4239 47.552C24.1723 47.6749 23.9177 47.7702 23.66 47.8358C23.4023 47.9013 23.121 47.9341 22.8143 47.9341L22.6833 47.8522V47.0459L22.8143 46.9639C23.1701 46.9639 23.4974 46.9168 23.795 46.8236C24.0936 46.7304 24.4198 46.5982 24.7757 46.4271L24.7767 46.4292ZM27.6085 47.8542L27.4776 47.9362C27.045 47.9362 26.7116 47.8132 26.4764 47.5663C26.2412 47.3194 26.1236 46.966 26.1236 46.505C26.1236 46.4066 26.1266 46.3195 26.1318 46.2458C26.1369 46.172 26.1481 46.0962 26.1645 46.0194H26.6329C26.6165 46.1177 26.6083 46.2191 26.6083 46.3236C26.6083 46.5541 26.6738 46.7181 26.8057 46.8174C26.9376 46.9158 27.1616 46.966 27.4786 46.966L27.6095 47.0479V47.8542H27.6085Z" fill="white"/>
<path d="M29.5958 48.4547L28.8656 48.0521C28.7776 48.0081 28.6999 47.9783 28.6314 47.962C28.5629 47.9456 28.4575 47.9374 28.3154 47.9374H27.4778L27.3469 47.8554V47.0491L27.4778 46.9672H28.4463C28.4074 46.8463 28.3819 46.7223 28.3686 46.5933C28.3553 46.4642 28.3481 46.3228 28.3481 46.1701L28.3154 42.691L29.1529 42.5425L29.112 46.375C29.112 46.54 29.1294 46.6783 29.1652 46.79C29.201 46.9026 29.2716 47.002 29.379 47.0901C29.4853 47.1782 29.6377 47.2684 29.8351 47.3616L30.0979 47.4846L29.5968 48.4547H29.5958Z" fill="white"/>
<path d="M31.3119 47.9364H30.5807L30.5234 42.6891L31.361 42.5405L31.3119 47.9364Z" fill="white"/>
<path d="M57.2755 31.582C57.2755 31.988 56.9675 32.296 56.5615 32.296C56.1555 32.296 55.8475 31.988 55.8475 31.582C55.8475 31.176 56.1555 30.868 56.5615 30.868C56.9675 30.868 57.2755 31.176 57.2755 31.582ZM61.7415 37C60.9995 37 60.4955 36.818 60.1735 36.426C60.1035 38.526 58.8715 39.674 56.5615 39.674C53.7895 39.674 52.6555 38.316 52.6835 35.964C52.6975 35.376 52.7675 34.718 52.9075 34.018H53.8875C53.7615 34.662 53.6775 35.25 53.6635 35.754C53.6355 37.588 54.4055 38.554 56.5615 38.554C58.5495 38.554 59.4595 37.798 59.4595 36.146C59.4595 35.726 59.4175 35.278 59.3335 34.732L59.1375 33.528H60.1315L60.2995 34.578C60.4535 35.544 60.8315 35.88 62.0215 35.88V36.72L61.7415 37ZM69.3794 34.452C69.3794 36.132 68.3994 37.126 66.7194 37.126C65.6274 37.126 64.7314 36.734 64.0454 35.992C63.5134 36.734 62.8834 37 61.7354 37V36.16L62.0154 35.88C63.0374 35.88 63.3454 35.53 63.9194 34.172L64.0734 33.808C64.7594 32.17 65.5154 31.428 66.8034 31.428C68.2734 31.428 69.3794 32.73 69.3794 34.452ZM64.8014 34.522C64.7174 34.718 64.6334 34.914 64.5494 35.082C65.1094 35.656 65.8934 36.006 66.7054 36.006C67.8534 36.006 68.3994 35.516 68.3994 34.452C68.3994 33.36 67.6854 32.548 66.7474 32.548C65.9354 32.548 65.4594 32.968 64.9554 34.158L64.8014 34.522ZM75.5509 41.368H74.5709V36.874C74.5709 35.656 75.1449 34.97 76.3769 34.774V34.648C76.3769 32.814 77.5249 31.428 79.0509 31.428C80.2269 31.428 80.9549 31.932 81.8649 33.976L82.0329 34.354C82.5509 35.53 82.9709 35.88 83.6989 35.88V36.72L83.4189 37C82.6489 37 82.0329 36.636 81.4169 35.586C81.0669 36.566 80.2409 37.126 79.0509 37.126C77.9029 37.126 77.0489 36.678 76.6429 35.866C75.8449 35.964 75.5509 36.286 75.5509 36.958V41.368ZM77.3569 34.508C77.3569 35.432 78.0289 36.006 79.0649 36.006C80.1429 36.006 80.8429 35.572 81.0249 34.802C80.9829 34.704 80.9409 34.62 80.8989 34.522L80.7449 34.158C80.2409 32.968 79.6669 32.548 79.0229 32.548C78.0709 32.548 77.3569 33.388 77.3569 34.508ZM85.225 37H83.433V36.16L83.713 35.88H85.911C84.945 35.39 84.315 34.438 84.315 33.276C84.315 31.61 85.519 30.378 87.115 30.378C88.655 30.378 89.649 31.274 89.775 32.8H88.795C88.599 31.988 87.983 31.498 87.115 31.498C86.009 31.498 85.295 32.156 85.295 33.346C85.295 34.536 86.345 35.432 87.759 35.432C88.319 35.432 88.669 35.404 89.551 35.222L90.209 35.082V36.216L89.607 36.37C87.843 36.804 86.471 37 85.225 37ZM98.4673 36.72L98.1873 37C97.3893 37 96.9133 36.706 96.5073 35.978C95.6533 36.706 94.5333 37.14 93.4413 37.126C91.8453 37.112 91.1173 36.426 91.1173 34.928H92.0973C92.0973 35.67 92.4333 36.006 93.4413 36.006C94.4493 36.006 95.4293 35.712 96.1433 35.194C96.1293 35.124 96.1013 35.068 96.0733 34.998L94.3093 30.266H95.4013L97.0533 34.676C97.3753 35.544 97.6553 35.88 98.4673 35.88V36.72ZM98.4646 37H98.1846V36.16L98.4646 35.88C99.7806 35.88 100.173 35.32 100.173 34.088C100.173 33.486 100.089 32.632 99.9346 31.568H100.957C101.083 32.492 101.153 33.374 101.153 34.088C101.153 36.09 100.313 37 98.4646 37ZM100.733 38.834C100.733 39.24 100.425 39.548 100.019 39.548C99.6126 39.548 99.3046 39.24 99.3046 38.834C99.3046 38.428 99.6126 38.12 100.019 38.12C100.425 38.12 100.733 38.428 100.733 38.834Z" fill="#0E2938"/>
</svg>
