<svg width="54" height="114" viewBox="0 0 54 114" fill="none" xmlns="http://www.w3.org/2000/svg">
<path d="M53.2433 112.705C51.9061 113.067 51.2282 113.327 49.2575 113.378C48.0307 113.411 46.2478 113.795 45.021 113.802C43.724 113.811 42.4326 114.111 41.137 113.956C37.4007 113.506 32.9463 113.032 29.2085 113.399C20.1522 114.284 16.8071 111.355 7.75789 112.684C6.48951 112.87 2.53819 113.018 0 112.029V23.682C2.832 23 5.03625 23.8744 6.71453 23.2929C8.41286 22.7043 14.4065 23.1939 16.1206 23.1407C29.1054 22.7474 29.3189 25.4911 39.3412 24.2678C42.8827 23.8356 44.7358 24.7832 48.0107 24.4961C49.2719 24.3855 51.9992 24.9799 53.2433 25.5255V112.704V112.705Z" fill="#B12044"/>
<path d="M13.3098 48.8353C13.3098 49.4584 13.1221 49.9437 12.7466 50.294C12.3711 50.6443 11.8523 50.818 11.193 50.818C10.5337 50.818 9.99773 50.6457 9.63369 50.2997C9.26966 49.9537 9.08765 49.4541 9.08765 48.8008C9.08765 48.2624 9.18367 47.7728 9.37572 47.3306C9.56777 46.8884 9.82288 46.5352 10.141 46.2696C10.4592 46.004 10.8103 45.8719 11.1944 45.8719C11.5785 45.8719 11.9512 46.0026 12.2708 46.2639C12.5889 46.5252 12.8426 46.8798 13.0304 47.3306C13.2181 47.78 13.3127 48.2811 13.3127 48.8353H13.3098ZM12.8039 44.2825L11.9411 45.1583L11.2045 44.4089L10.4678 45.1583L9.60503 44.2825L10.4678 43.4067L11.2045 44.1562L11.9411 43.4067L12.8039 44.2825ZM12.3195 48.8697C12.3195 48.3859 12.212 47.9939 11.997 47.6939C11.7821 47.3938 11.514 47.2445 11.1916 47.2445C10.9995 47.2445 10.8175 47.3048 10.6455 47.4225C10.4735 47.5417 10.3345 47.6996 10.2313 47.8949C10.1281 48.0901 10.0766 48.3112 10.0766 48.5582C10.0766 48.8654 10.1783 49.0966 10.3818 49.2502C10.5853 49.4038 10.8548 49.4814 11.193 49.4814C11.4925 49.4814 11.7548 49.4225 11.9813 49.3033C12.2077 49.1842 12.3209 49.0406 12.3209 48.8712L12.3195 48.8697Z" fill="white"/>
<path d="M14.2872 53.0314L13.5964 51.8671C14.1482 51.6517 14.6441 51.4091 15.0812 51.1406C15.5184 50.8721 15.8638 50.5964 16.1174 50.3165C16.3711 50.0365 16.4972 49.7809 16.4972 49.5498C16.4972 49.3961 16.4471 49.1808 16.3482 48.9037C16.2478 48.6266 16.1146 48.3193 15.9454 47.9819C15.7763 47.6445 15.5843 47.3129 15.3707 46.9913L16.4413 46.3926C16.7781 46.8463 17.0433 47.343 17.2353 47.8857C17.4274 48.427 17.5234 48.9367 17.5234 49.4134C17.5234 50.1743 17.2396 50.8721 16.6721 51.5052C16.1045 52.1398 15.3105 52.6481 14.2901 53.0329L14.2872 53.0314Z" fill="white"/>
<path d="M18.5454 50.7266L18.2573 49.3325C18.4408 49.3627 18.6701 49.3928 18.9424 49.4187C19.2147 49.446 19.4655 49.4589 19.6963 49.4589C19.9499 49.4589 20.2065 49.4402 20.4673 49.4014C20.7282 49.3627 20.946 49.3167 21.1237 49.2636C21.3 49.2105 21.3889 49.1559 21.3889 49.1028C21.3889 48.9032 21.31 48.6577 21.1524 48.3648C20.9947 48.0734 20.7783 47.759 20.5017 47.4259C20.2251 47.0928 19.9155 46.774 19.5701 46.4754L20.4902 45.5996C21.0879 46.138 21.558 46.7166 21.8991 47.334C22.2402 47.9528 22.4107 48.5343 22.4107 49.0798C22.4107 49.7101 22.2029 50.1581 21.7887 50.4223C21.3745 50.6864 20.6766 50.82 19.6948 50.82C19.5114 50.82 19.3136 50.8128 19.1029 50.797C18.8922 50.7812 18.7059 50.7582 18.5454 50.7281V50.7266Z" fill="white"/>
<path d="M25.8059 50.6098L25.6224 50.7247C24.9703 50.7247 24.4673 50.5811 24.1147 50.2925C23.7622 50.0039 23.5816 49.5919 23.5744 49.0535L23.5056 43.3708L24.6794 43.1641L24.6335 48.5007C24.6335 48.808 24.7095 49.0291 24.8643 49.164C25.0176 49.299 25.2713 49.365 25.6239 49.365L25.8073 49.4799V50.6098H25.8059Z" fill="white"/>
<path d="M25.6209 50.7273L25.4375 50.6125V49.4825L25.6209 49.3677H26.5411L26.7245 49.4825V50.6125L26.5411 50.7273H25.6209Z" fill="white"/>
<path d="M26.5428 50.7273L26.3594 50.6125V49.4825L26.5428 49.3677H27.4629L27.6464 49.4825V50.6125L27.4629 50.7273H26.5428Z" fill="white"/>
<path d="M27.4627 50.7273L27.2793 50.6125V49.4825L27.4627 49.3677H28.3829L28.5663 49.4825V50.6125L28.3829 50.7273H27.4627Z" fill="white"/>
<path d="M28.3829 50.7273L28.1995 50.6125V49.4825L28.3829 49.3677H29.303L29.4865 49.4825V50.6125L29.303 50.7273H28.3829Z" fill="white"/>
<path d="M29.3028 50.7273L29.1194 50.6125V49.4825L29.3028 49.3677H30.2229L30.4064 49.4825V50.6125L30.2229 50.7273H29.3028Z" fill="white"/>
<path d="M30.2247 50.7273L30.0413 50.6125V49.4825L30.2247 49.3677H31.1448L31.3283 49.4825V50.6125L31.1448 50.7273H30.2247Z" fill="white"/>
<path d="M31.1449 50.7273L30.9614 50.6125V49.4825L31.1449 49.3677H32.065L32.2484 49.4825V50.6125L32.065 50.7273H31.1449Z" fill="white"/>
<path d="M32.0648 50.7273L31.8813 50.6125V49.4825L32.0648 49.3677H32.9849L33.1684 49.4825V50.6125L32.9849 50.7273H32.0648Z" fill="white"/>
<path d="M32.9862 50.7273L32.8027 50.6125V49.4825L32.9862 49.3677H33.9063L34.0897 49.4825V50.6125L33.9063 50.7273H32.9862Z" fill="white"/>
<path d="M33.9066 50.7273L33.7231 50.6125V49.4825L33.9066 49.3677H34.8267L35.0102 49.4825V50.6125L34.8267 50.7273H33.9066Z" fill="white"/>
<path d="M38.8194 50.61L38.636 50.7248C38.1759 50.7248 37.8018 50.6602 37.5138 50.5296C37.2257 50.3989 36.9978 50.2037 36.8287 49.9424C36.6438 50.2037 36.3701 50.4004 36.006 50.5296C35.642 50.6602 35.2479 50.7248 34.8265 50.7248L34.6431 50.61V49.4801L34.8265 49.3652C35.3253 49.3652 35.6778 49.302 35.8856 49.1757C36.0935 49.0493 36.2153 48.8857 36.254 48.6861C36.2927 48.5095 36.3328 48.2769 36.3744 47.9883C36.4159 47.6997 36.4532 47.46 36.4833 47.2676L37.4722 47.3939C37.4177 47.816 37.3819 48.1319 37.3633 48.3386C37.3446 48.5454 37.3346 48.6689 37.3346 48.7076C37.3346 49.1455 37.7674 49.3652 38.6345 49.3652L38.818 49.4801V50.61H38.8194ZM37.6571 52.4894L36.7943 53.3652L35.9315 52.4894L36.7943 51.6136L37.6571 52.4894Z" fill="white"/>
<path d="M42.2475 50.8189C41.4649 50.8189 40.8128 50.5045 40.2912 49.8742C40.0762 50.1743 39.8368 50.3911 39.5717 50.526C39.3065 50.661 38.9941 50.727 38.6344 50.727L38.4509 50.6122V49.4823L38.6344 49.3674C38.9339 49.3674 39.1675 49.31 39.3366 49.1951C39.5058 49.0803 39.6777 48.8649 39.854 48.549L40.4646 47.4765C40.9476 46.6079 41.5309 46.1743 42.2131 46.1743C42.5656 46.1743 42.8895 46.292 43.1848 46.5261C43.48 46.7601 43.7165 47.0731 43.8928 47.465C44.0691 47.857 44.1579 48.2906 44.1579 48.7673C44.1579 49.4047 43.9888 49.9072 43.652 50.2719C43.3138 50.6366 42.8465 50.8189 42.2489 50.8189H42.2475ZM41.0966 48.3638L40.8659 48.8247C41.0192 49.0329 41.2256 49.2009 41.4864 49.3315C41.7473 49.4622 42.0196 49.5268 42.3034 49.5268C42.5714 49.5268 42.782 49.4507 42.9368 49.2956C43.0916 49.1406 43.1676 48.9381 43.1676 48.684C43.1676 48.3609 43.0658 48.0824 42.8623 47.8484C42.6588 47.6144 42.4195 47.4966 42.1428 47.4966C41.7358 47.4966 41.3875 47.7852 41.0952 48.3609L41.0966 48.3638Z" fill="white"/>
<path d="M15.3349 63.7615L15.1515 63.8764C14.5682 63.8764 14.1009 63.7343 13.7484 63.45C13.403 63.796 12.9429 63.9683 12.3682 63.9683C11.9927 63.9683 11.6387 63.8893 11.3091 63.7314C10.9794 63.5735 10.6871 63.3524 10.4348 63.0681L10.2156 63.506C10.1926 63.5605 10.1812 63.6295 10.1812 63.7127L10.1697 68.254H9.14496L9.0647 63.6668C9.0647 63.5132 9.08046 63.3839 9.11056 63.2806C9.14066 63.1772 9.19512 63.0552 9.27108 62.9173L10.5825 60.623C11.0812 59.7544 11.6645 59.3208 12.331 59.3208C12.6835 59.3208 13.0074 59.4385 13.3027 59.6726C13.5979 59.9066 13.8344 60.2196 14.0107 60.6115C14.1869 61.0035 14.2758 61.4371 14.2758 61.9137C14.2758 61.9827 14.2744 62.0501 14.2701 62.1162C14.2658 62.1822 14.26 62.2454 14.2529 62.3057C14.4363 62.4435 14.7359 62.5124 15.15 62.5124L15.3335 62.6273V63.7572L15.3349 63.7615ZM11.2159 61.5146L10.9852 61.9755C11.1385 62.1837 11.3463 62.3516 11.6072 62.4823C11.868 62.613 12.1403 62.6776 12.4241 62.6776C12.6921 62.6776 12.9028 62.6015 13.0576 62.4464C13.2109 62.2928 13.2883 62.0889 13.2883 61.8348C13.2883 61.5117 13.1866 61.2332 12.9831 60.9992C12.7795 60.7652 12.5402 60.6474 12.2636 60.6474C11.8566 60.6474 11.5083 60.936 11.2159 61.5117V61.5146Z" fill="white"/>
<path d="M15.15 63.8787L14.9666 63.7638V62.6339L15.15 62.519H16.0701L16.2536 62.6339V63.7638L16.0701 63.8787H15.15Z" fill="white"/>
<path d="M16.0719 63.8787L15.8884 63.7638V62.6339L16.0719 62.519H16.992L17.1754 62.6339V63.7638L16.992 63.8787H16.0719Z" fill="white"/>
<path d="M16.9916 63.8787L16.8081 63.7638V62.6339L16.9916 62.519H17.9117L18.0951 62.6339V63.7638L17.9117 63.8787H16.9916Z" fill="white"/>
<path d="M17.912 63.8787L17.7285 63.7638V62.6339L17.912 62.519H18.8321L19.0155 62.6339V63.7638L18.8321 63.8787H17.912Z" fill="white"/>
<path d="M18.8321 63.8787L18.6487 63.7638V62.6339L18.8321 62.519H19.7522L19.9357 62.6339V63.7638L19.7522 63.8787H18.8321Z" fill="white"/>
<path d="M19.7535 63.8787L19.5701 63.7638V62.6339L19.7535 62.519H20.6736L20.8571 62.6339V63.7638L20.6736 63.8787H19.7535Z" fill="white"/>
<path d="M20.6737 63.8787L20.4902 63.7638V62.6339L20.6737 62.519H21.5938L21.7772 62.6339V63.7638L21.5938 63.8787H20.6737Z" fill="white"/>
<path d="M21.5938 63.8787L21.4104 63.7638V62.6339L21.5938 62.519H22.514L22.6974 62.6339V63.7638L22.514 63.8787H21.5938Z" fill="white"/>
<path d="M22.5155 63.8787L22.332 63.7638V62.6339L22.5155 62.519H23.4356L23.619 62.6339V63.7638L23.4356 63.8787H22.5155Z" fill="white"/>
<path d="M23.4356 63.8787L23.2522 63.7638V62.6339L23.4356 62.519H24.3558L24.5392 62.6339V63.7638L24.3558 63.8787H23.4356Z" fill="white"/>
<path d="M24.3556 63.8787L24.1721 63.7638V62.6339L24.3556 62.519H25.2757L25.4591 62.6339V63.7638L25.2757 63.8787H24.3556Z" fill="white"/>
<path d="M25.2757 63.8787L25.0923 63.7638V62.6339L25.2757 62.519H26.1958L26.3793 62.6339V63.7638L26.1958 63.8787H25.2757Z" fill="white"/>
<path d="M26.1971 63.8787L26.0137 63.7638V62.6339L26.1971 62.519H27.1172L27.3021 62.6339V63.7638L27.1172 63.8787H26.1971Z" fill="white"/>
<path d="M27.1175 63.8787L26.9341 63.7638V62.6339L27.1175 62.519H28.0376L28.2211 62.6339V63.7638L28.0376 63.8787H27.1175Z" fill="white"/>
<path d="M28.0377 63.8787L27.8542 63.7638V62.6339L28.0377 62.519H28.9578L29.1413 62.6339V63.7638L28.9578 63.8787H28.0377Z" fill="white"/>
<path d="M28.9576 63.8787L28.7742 63.7638V62.6339L28.9576 62.519H29.8777L30.0612 62.6339V63.7638L29.8777 63.8787H28.9576Z" fill="white"/>
<path d="M29.879 63.8787L29.6956 63.7638V62.6339L29.879 62.519H30.7991L30.9826 62.6339V63.7638L30.7991 63.8787H29.879Z" fill="white"/>
<path d="M30.7992 63.8787L30.6157 63.7638V62.6339L30.7992 62.519H31.7193L31.9027 62.6339V63.7638L31.7193 63.8787H30.7992Z" fill="white"/>
<path d="M31.7196 63.8787L31.5361 63.7638V62.6339L31.7196 62.519H32.6397L32.8231 62.6339V63.7638L32.6397 63.8787H31.7196Z" fill="white"/>
<path d="M32.6407 63.8787L32.4573 63.7638V62.6339L32.6407 62.519H33.5608L33.7443 62.6339V63.7638L33.5608 63.8787H32.6407Z" fill="white"/>
<path d="M33.5609 63.8787L33.3774 63.7638V62.6339L33.5609 62.519H34.481L34.6645 62.6339V63.7638L34.481 63.8787H33.5609Z" fill="white"/>
<path d="M39.2563 61.9074L39.0957 63.1407C38.7045 63.2943 38.2545 63.425 37.7442 63.5327C37.234 63.6403 36.7009 63.7222 36.1448 63.781C35.5887 63.8385 35.0341 63.8715 34.4823 63.8787L34.2988 63.7638V62.6339L34.4823 62.519C34.8664 62.519 35.2462 62.5075 35.6217 62.4846C35.315 62.1386 35.1616 61.7165 35.1616 61.2168C35.1616 60.8091 35.2562 60.4401 35.444 60.1099C35.6317 59.7796 35.8854 59.5169 36.2035 59.3202C36.5217 59.1249 36.8729 59.0259 37.2569 59.0259C37.5794 59.0259 37.8804 59.0977 38.1599 59.2384C38.4393 59.3805 38.6715 59.5829 38.8564 59.8443L38.339 60.5363C38.1928 60.4745 38.0395 60.4214 37.879 60.3755C37.7184 60.3295 37.545 60.3066 37.3616 60.3066C37.0162 60.3066 36.7252 60.3898 36.4873 60.5549C36.2494 60.7201 36.1305 60.9368 36.1305 61.2068C36.1305 61.4451 36.2537 61.6605 36.4988 61.8528C36.7439 62.0452 37.1122 62.1759 37.6038 62.2448C37.8804 62.1989 38.1541 62.1472 38.4264 62.0897C38.6987 62.0323 38.9768 61.9735 39.2606 61.9117L39.2563 61.9074Z" fill="white"/>
<path d="M40.3157 63.8775L40.0276 62.4834C40.211 62.5136 40.4403 62.5437 40.7127 62.5696C40.985 62.5968 41.2358 62.6098 41.4665 62.6098C41.7202 62.6098 41.9767 62.5911 42.2376 62.5523C42.4984 62.5136 42.7163 62.4676 42.894 62.4145C43.0703 62.3614 43.1591 62.3068 43.1591 62.2537C43.1591 62.0541 43.0803 61.8086 42.9226 61.5157C42.765 61.2243 42.5486 60.9098 42.272 60.5768C41.9954 60.2437 41.6858 59.9249 41.3404 59.6263L42.2605 58.7505C42.8581 59.2889 43.3282 59.8675 43.6693 60.4849C44.0104 61.1037 44.181 61.6851 44.181 62.2307C44.181 62.861 43.9732 63.309 43.5604 63.5731C43.1462 63.8388 42.4483 63.9708 41.4665 63.9708C41.2831 63.9708 41.0853 63.9637 40.8746 63.9479C40.6639 63.9321 40.4776 63.9091 40.3171 63.879L40.3157 63.8775Z" fill="white"/>
<path d="M14.4378 78.654L14.7718 79.4379C14.4421 79.7681 14.0236 80.0251 13.5177 80.2103C13.0118 80.3955 12.47 80.4874 11.8953 80.4874C11.3206 80.4874 10.7717 80.3855 10.3188 80.1816C9.86593 79.9777 9.5148 79.6863 9.26542 79.3058C9.01605 78.9253 8.89136 78.4774 8.89136 77.9634C8.89136 77.402 9.05474 76.8909 9.38008 76.43C9.70541 75.9692 10.1726 75.5815 10.7774 75.2656C10.4937 75.0891 10.2744 74.8665 10.121 74.5966C9.96769 74.3281 9.8903 74.0122 9.8903 73.6519C9.8903 73.2441 9.98345 72.8751 10.1726 72.5449C10.3604 72.2147 10.6141 71.952 10.9322 71.7553C11.2504 71.5586 11.6015 71.4609 11.9856 71.4609C12.3081 71.4609 12.6091 71.5327 12.8885 71.6749C13.168 71.817 13.4002 72.0194 13.5851 72.2793L13.0677 72.9713C12.9215 72.9096 12.7682 72.8565 12.6076 72.8105C12.4471 72.7646 12.2737 72.7416 12.0903 72.7416C11.7449 72.7416 11.4539 72.8249 11.216 72.99C10.9781 73.1551 10.8591 73.3719 10.8591 73.6418C10.8591 73.8802 10.9896 74.0998 11.2504 74.2994C11.5112 74.499 11.9068 74.6296 12.4357 74.6914C12.9115 74.5837 13.4174 74.5148 13.9548 74.4832L13.7829 75.7854C12.5245 75.8543 11.5872 76.0725 10.9695 76.4372C10.3518 76.8019 10.0436 77.257 10.0436 77.8026C10.0436 78.2017 10.2328 78.5205 10.6126 78.7588C10.9924 78.9971 11.5112 79.1163 12.1719 79.1163C12.5704 79.1163 12.9788 79.0761 13.3973 78.9957C13.8158 78.9153 14.1627 78.8019 14.4393 78.6554L14.4378 78.654Z" fill="white"/>
<path d="M17.5437 76.9135L17.3602 77.0283C16.7081 77.0283 16.2051 76.8848 15.8525 76.5962C15.5 76.3076 15.3194 75.8956 15.3122 75.3571L15.2434 69.6745L16.4172 69.4663L16.3713 74.803C16.3713 75.1102 16.4473 75.3313 16.6021 75.4663C16.7554 75.6012 17.0091 75.6687 17.3617 75.6687L17.5451 75.7836V76.9135H17.5437Z" fill="white"/>
<path d="M17.3602 77.0281L17.1768 76.9132V75.7833L17.3602 75.6685H18.2803L18.4638 75.7833V76.9132L18.2803 77.0281H17.3602Z" fill="white"/>
<path d="M18.2801 77.0281L18.0967 76.9132V75.7833L18.2801 75.6685H19.2002L19.3837 75.7833V76.9132L19.2002 77.0281H18.2801Z" fill="white"/>
<path d="M19.2003 77.0281L19.0168 76.9132V75.7833L19.2003 75.6685H20.1204L20.3039 75.7833V76.9132L20.1204 77.0281H19.2003Z" fill="white"/>
<path d="M20.1222 77.0281L19.9387 76.9132V75.7833L20.1222 75.6685H21.0423L21.2257 75.7833V76.9132L21.0423 77.0281H20.1222Z" fill="white"/>
<path d="M21.0418 77.0281L20.8584 76.9132V75.7833L21.0418 75.6685H21.962L22.1454 75.7833V76.9132L21.962 77.0281H21.0418Z" fill="white"/>
<path d="M21.9623 77.0281L21.7788 76.9132V75.7833L21.9623 75.6685H22.8824L23.0658 75.7833V76.9132L22.8824 77.0281H21.9623Z" fill="white"/>
<path d="M22.8836 77.0281L22.7002 76.9132V75.7833L22.8836 75.6685H23.8038L23.9872 75.7833V76.9132L23.8038 77.0281H22.8836Z" fill="white"/>
<path d="M23.8038 77.0281L23.6204 76.9132V75.7833L23.8038 75.6685H24.7239L24.9074 75.7833V76.9132L24.7239 77.0281H23.8038Z" fill="white"/>
<path d="M24.724 77.0281L24.5405 76.9132V75.7833L24.724 75.6685H25.6441L25.8275 75.7833V76.9132L25.6441 77.0281H24.724Z" fill="white"/>
<path d="M25.6439 77.0281L25.4604 76.9132V75.7833L25.6439 75.6685H26.564L26.7489 75.7833V76.9132L26.564 77.0281H25.6439Z" fill="white"/>
<path d="M26.5655 77.0281L26.3821 76.9132V75.7833L26.5655 75.6685H27.4856L27.6691 75.7833V76.9132L27.4856 77.0281H26.5655Z" fill="white"/>
<path d="M27.4857 77.0281L27.3022 76.9132V75.7833L27.4857 75.6685H28.4058L28.5893 75.7833V76.9132L28.4058 77.0281H27.4857Z" fill="white"/>
<path d="M28.4059 77.0281L28.2224 76.9132V75.7833L28.4059 75.6685H29.326L29.5094 75.7833V76.9132L29.326 77.0281H28.4059Z" fill="white"/>
<path d="M29.3258 77.0281L29.1423 76.9132V75.7833L29.3258 75.6685H30.2459L30.4293 75.7833V76.9132L30.2459 77.0281H29.3258Z" fill="white"/>
<path d="M30.2474 77.0281L30.064 76.9132V75.7833L30.2474 75.6685H31.1675L31.351 75.7833V76.9132L31.1675 77.0281H30.2474Z" fill="white"/>
<path d="M31.1673 77.0281L30.9839 76.9132V75.7833L31.1673 75.6685H32.0874L32.2709 75.7833V76.9132L32.0874 77.0281H31.1673Z" fill="white"/>
<path d="M36.0806 76.9135L35.8972 77.0284C35.4371 77.0284 35.0631 76.9637 34.775 76.8317C34.4869 76.701 34.259 76.5057 34.0899 76.2444C33.905 76.5057 33.6313 76.701 33.2673 76.8317C32.9032 76.9623 32.5091 77.0284 32.0877 77.0284L31.9043 76.9135V75.7836L32.0877 75.6687C32.5865 75.6687 32.9391 75.6055 33.1469 75.4792C33.3547 75.3528 33.4765 75.1892 33.5152 74.9896C33.5539 74.813 33.594 74.5804 33.6356 74.2918C33.6772 74.0033 33.7144 73.7635 33.7445 73.5711L34.7334 73.6974C34.679 74.1195 34.6431 74.4354 34.6245 74.6422C34.6059 74.8503 34.5958 74.9724 34.5958 75.0111C34.5958 75.449 35.0287 75.6687 35.8957 75.6687L36.0792 75.7836V76.9135H36.0806ZM35.1147 71.9803L34.2519 72.8561L33.3891 71.9803L34.2519 71.1045L35.1147 71.9803Z" fill="white"/>
<path d="M35.8971 77.0281L35.7136 76.9133V75.7833L35.8971 75.6685C36.1422 75.6685 36.3414 75.6326 36.4947 75.5594C36.6481 75.4861 36.7857 75.3325 36.9089 75.0985C37.0322 74.8645 37.1655 74.5055 37.3116 74.0202L38.2661 74.2744C38.1744 74.8358 38.0712 75.2938 37.9551 75.6512C37.8405 76.0087 37.6943 76.2873 37.518 76.4869C37.3417 76.6864 37.1225 76.8271 36.8616 76.9075C36.6008 76.9879 36.2783 77.0281 35.8956 77.0281H35.8971ZM37.7832 75.1502C37.9136 75.2579 38.0712 75.3483 38.2547 75.4215C38.4396 75.4948 38.6502 75.5579 38.8882 75.611C39.3554 74.5199 39.8742 73.6742 40.4417 73.0755C41.0093 72.4768 41.584 72.1768 42.1673 72.1768C42.5428 72.1768 42.8868 72.2844 43.1978 72.4998C43.5088 72.7152 43.7582 73.0109 43.9459 73.3871C44.1337 73.7633 44.2282 74.1983 44.2282 74.6893C44.2282 75.4574 43.9158 76.0547 43.2909 76.4811C42.6661 76.9075 41.7545 77.1214 40.5578 77.1214C39.8369 77.1214 39.202 77.0497 38.6531 76.9075C38.1042 76.7654 37.7043 76.5644 37.4507 76.3031L37.7846 75.1502H37.7832ZM42.1444 73.5479C41.7689 73.5479 41.3891 73.736 41.005 74.1121C40.6209 74.4883 40.2497 75.0267 39.8885 75.7259C40.0189 75.7331 40.1551 75.7388 40.297 75.7431C40.4389 75.7474 40.5822 75.7489 40.7284 75.7489C41.541 75.7489 42.1573 75.657 42.5758 75.4718C42.9943 75.2866 43.2035 75.0181 43.2035 74.6649C43.2035 74.3648 43.1003 74.1035 42.8925 73.881C42.6847 73.6584 42.4367 73.5465 42.1444 73.5465V73.5479Z" fill="white"/>
<path d="M14.5295 89.4664L13.7929 89.2352C12.9258 88.9667 12.4929 88.4097 12.4929 87.564C12.4929 87.1649 12.5861 86.7959 12.7753 86.4571C12.963 86.1197 13.2124 85.8469 13.5234 85.6387C13.8344 85.4305 14.1741 85.3271 14.5424 85.3271C14.9107 85.3271 15.2404 85.4363 15.5313 85.6559C15.8223 85.8756 16.0487 86.1843 16.2107 86.5834L15.5313 87.0902C15.2633 86.7284 14.9179 86.549 14.4951 86.549C14.2343 86.549 14.0064 86.6279 13.8101 86.7859C13.6151 86.9438 13.5162 87.1333 13.5162 87.3558C13.5162 87.5253 13.5721 87.6502 13.6825 87.7306C13.7943 87.811 14.0408 87.9129 14.4249 88.0364L15.1616 88.2675C15.9054 88.5059 16.278 88.9395 16.278 89.5698C16.278 89.9316 16.1662 90.2848 15.9441 90.6308C15.7219 90.9768 15.4238 91.2898 15.0526 91.5697C14.68 91.8497 14.2629 92.0723 13.7986 92.2388C13.3342 92.4039 12.8613 92.4872 12.3769 92.4872C11.8093 92.4872 11.3063 92.3752 10.8691 92.1527C10.432 91.9301 10.088 91.6143 9.83866 91.2079C9.58929 90.8002 9.4646 90.3235 9.4646 89.7779C9.4646 89.3472 9.54629 88.9065 9.71254 88.4528C9.87736 87.9991 10.1052 87.5884 10.3976 87.2195L11.1228 87.6688C10.7616 88.2762 10.5825 88.8562 10.5825 89.409C10.5825 89.9316 10.7588 90.3465 11.1113 90.6537C11.4639 90.961 11.944 91.1146 12.5503 91.1146C12.8727 91.1146 13.1895 91.0787 13.499 91.0055C13.8101 90.9323 14.0938 90.8361 14.3504 90.7169C14.6069 90.5977 14.8119 90.4628 14.9652 90.3135C15.1186 90.1642 15.196 90.0163 15.196 89.8698C15.196 89.7851 15.1573 89.7176 15.0813 89.6688C15.0039 89.6186 14.8205 89.5511 14.5295 89.4664Z" fill="white"/>
<path d="M21.9047 90.0643L21.7213 90.1792H20.9502C20.7194 90.8167 20.3311 91.3393 19.7821 91.747C19.2332 92.1548 18.5639 92.4003 17.7742 92.485L17.2683 91.2632C17.9734 91.1943 18.5525 91.0579 19.0053 90.854C19.4582 90.6501 19.7836 90.3716 19.9828 90.0184H19.6488C18.8893 90.0184 18.3045 89.8375 17.8946 89.4771C17.4847 89.1167 17.2783 88.62 17.2783 87.9897C17.2783 87.5518 17.3586 87.1541 17.5206 86.7966C17.6811 86.4391 17.9075 86.1548 18.1999 85.9438C18.4908 85.7327 18.8248 85.6265 19.2003 85.6265C19.8137 85.6265 20.2952 85.9122 20.6449 86.485C20.9946 87.0579 21.1723 87.8361 21.1795 88.8195H21.7198L21.9033 88.9344V90.0643H21.9047ZM18.2343 87.9437C18.2343 88.5281 18.7631 88.8195 19.8223 88.8195H20.225C20.2092 88.228 20.1103 87.7643 19.9255 87.4312C19.7406 87.0981 19.4812 86.9301 19.1429 86.9301C18.8663 86.9301 18.6456 87.0249 18.4808 87.213C18.316 87.401 18.2329 87.6451 18.2329 87.9452L18.2343 87.9437Z" fill="white"/>
<path d="M21.7213 90.18L21.5378 90.0651V88.9352L21.7213 88.8203H22.6414L22.8249 88.9352V90.0651L22.6414 90.18H21.7213Z" fill="white"/>
<path d="M22.6415 90.18L22.458 90.0651V88.9352L22.6415 88.8203H23.5616L23.745 88.9352V90.0651L23.5616 90.18H22.6415Z" fill="white"/>
<path d="M23.5616 90.18L23.3782 90.0651V88.9352L23.5616 88.8203H24.4817L24.6652 88.9352V90.0651L24.4817 90.18H23.5616Z" fill="white"/>
<path d="M24.4815 90.18L24.2981 90.0651V88.9352L24.4815 88.8203H25.4017L25.5851 88.9352V90.0651L25.4017 90.18H24.4815Z" fill="white"/>
<path d="M25.4034 90.18L25.22 90.0651V88.9352L25.4034 88.8203H26.3235L26.507 88.9352V90.0651L26.3235 90.18H25.4034Z" fill="white"/>
<path d="M26.3236 90.18L26.1401 90.0651V88.9352L26.3236 88.8203H27.2437L27.4286 88.9352V90.0651L27.2437 90.18H26.3236Z" fill="white"/>
<path d="M27.2435 90.18L27.0601 90.0651V88.9352L27.2435 88.8203H28.1636L28.3471 88.9352V90.0651L28.1636 90.18H27.2435Z" fill="white"/>
<path d="M32.1566 90.0649L31.9731 90.1797C31.5131 90.1797 31.139 90.1151 30.8509 89.983C30.5628 89.8524 30.335 89.6571 30.1658 89.3958C29.981 89.6571 29.7072 89.8524 29.3432 89.983C28.9792 90.1137 28.585 90.1797 28.1637 90.1797L27.9802 90.0649V88.9349L28.1637 88.8201C28.6624 88.8201 29.015 88.7569 29.2228 88.6306C29.4306 88.5042 29.5524 88.3405 29.5911 88.141C29.6298 87.9644 29.67 87.7318 29.7115 87.4432C29.7531 87.1546 29.7904 86.9148 29.8204 86.7225L30.8094 86.8488C30.7549 87.2709 30.7191 87.5868 30.7004 87.7935C30.6818 88.0017 30.6718 88.1237 30.6718 88.1625C30.6718 88.6004 31.1046 88.8201 31.9717 88.8201L32.1551 88.9349V90.0649H32.1566ZM31.9272 85.1317L31.0645 86.0075L30.3278 85.258L29.5911 86.0075L28.7284 85.1317L29.5911 84.2559L30.3278 85.0053L31.0645 84.2559L31.9272 85.1317Z" fill="white"/>
<path d="M34.7233 88.0677C34.9383 87.9672 35.1447 87.8767 35.3453 87.7949C35.5445 87.7145 35.7437 87.6427 35.943 87.581L35.6778 87.4661C35.2937 87.3067 34.987 87.1861 34.7577 87.1057C34.527 87.0253 34.3392 86.9722 34.1945 86.9449C34.0483 86.9177 33.9107 86.9047 33.7803 86.9047C33.5882 86.9047 33.4306 86.9349 33.3087 86.9966C33.1855 87.0584 33.0479 87.1689 32.8945 87.3311L32.2267 86.8128C32.6566 86.0218 33.2471 85.6255 33.9981 85.6255C34.2432 85.6255 34.504 85.6657 34.7806 85.7461C35.0572 85.8265 35.4485 85.9787 35.9544 86.2012C36.3758 86.3864 36.6982 86.5113 36.9204 86.5759C37.1425 86.642 37.3575 86.6736 37.5653 86.6736H37.7961V87.9528C37.3504 88.0677 36.9405 88.2184 36.565 88.4022C36.1895 88.586 35.7824 88.8013 35.3453 89.0483C34.954 89.2708 34.5814 89.469 34.2289 89.6413C33.8763 89.8135 33.5194 89.9471 33.1583 90.039C32.7971 90.1308 32.403 90.1768 31.973 90.1768L31.7896 90.0619V88.932L31.973 88.8171C32.4718 88.8171 32.9304 88.7511 33.3474 88.6204C33.7659 88.4898 34.2231 88.3046 34.7219 88.0648L34.7233 88.0677ZM38.6918 90.0648L38.5084 90.1797C37.9021 90.1797 37.4349 90.0074 37.1053 89.6614C36.7756 89.3153 36.6108 88.82 36.6108 88.1739C36.6108 88.0361 36.6151 87.9141 36.6223 87.8107C36.6295 87.7073 36.6452 87.6011 36.6682 87.4934H37.3246C37.3016 87.6312 37.2902 87.7734 37.2902 87.9198C37.2902 88.2428 37.3819 88.4726 37.5668 88.6118C37.7516 88.7497 38.0655 88.82 38.5098 88.82L38.6933 88.9349V90.0648H38.6918Z" fill="white"/>
<path d="M41.4766 90.9058L40.4532 90.3415C40.33 90.2798 40.2211 90.2382 40.125 90.2152C40.029 90.1922 39.8814 90.1807 39.6822 90.1807H38.5084L38.325 90.0659V88.9359L38.5084 88.8211H39.8656C39.8112 88.6517 39.7753 88.4779 39.7567 88.297C39.7381 88.1161 39.7281 87.918 39.7281 87.7041L39.6822 82.8283L40.856 82.6201L40.7986 87.9912C40.7986 88.2224 40.823 88.4162 40.8732 88.5727C40.9233 88.7306 41.0222 88.8699 41.1727 88.9934C41.3218 89.1168 41.5353 89.2432 41.8119 89.3738L42.1802 89.5461L41.478 90.9058H41.4766Z" fill="white"/>
<path d="M43.8816 90.1797H42.8569L42.7766 82.8259L43.9504 82.6177L43.8816 90.1797Z" fill="white"/>
<path d="M9.67163 6.356C9.67163 6.704 9.40763 6.968 9.05963 6.968C8.71163 6.968 8.44763 6.704 8.44763 6.356C8.44763 6.008 8.71163 5.744 9.05963 5.744C9.40763 5.744 9.67163 6.008 9.67163 6.356ZM13.4996 11C12.8636 11 12.4316 10.844 12.1556 10.508C12.0956 12.308 11.0396 13.292 9.05963 13.292C6.68363 13.292 5.71163 12.128 5.73563 10.112C5.74763 9.608 5.80762 9.044 5.92763 8.444H6.76763C6.65963 8.996 6.58763 9.5 6.57563 9.932C6.55163 11.504 7.21163 12.332 9.05963 12.332C10.7636 12.332 11.5436 11.684 11.5436 10.268C11.5436 9.908 11.5076 9.524 11.4356 9.056L11.2676 8.024H12.1196L12.2636 8.924C12.3956 9.752 12.7196 10.04 13.7396 10.04V10.76L13.4996 11ZM20.0464 8.816C20.0464 10.256 19.2064 11.108 17.7664 11.108C16.8304 11.108 16.0624 10.772 15.4744 10.136C15.0184 10.772 14.4784 11 13.4944 11V10.28L13.7344 10.04C14.6104 10.04 14.8744 9.74 15.3664 8.576L15.4984 8.264C16.0864 6.86 16.7344 6.224 17.8384 6.224C19.0984 6.224 20.0464 7.34 20.0464 8.816ZM16.1224 8.876C16.0504 9.044 15.9784 9.212 15.9064 9.356C16.3864 9.848 17.0584 10.148 17.7544 10.148C18.7384 10.148 19.2064 9.728 19.2064 8.816C19.2064 7.88 18.5944 7.184 17.7904 7.184C17.0944 7.184 16.6864 7.544 16.2544 8.564L16.1224 8.876ZM25.3362 14.744H24.4962V10.892C24.4962 9.848 24.9882 9.26 26.0442 9.092V8.984C26.0442 7.412 27.0282 6.224 28.3362 6.224C29.3442 6.224 29.9682 6.656 30.7482 8.408L30.8922 8.732C31.3362 9.74 31.6962 10.04 32.3202 10.04V10.76L32.0802 11C31.4202 11 30.8922 10.688 30.3642 9.788C30.0642 10.628 29.3562 11.108 28.3362 11.108C27.3522 11.108 26.6202 10.724 26.2722 10.028C25.5882 10.112 25.3362 10.388 25.3362 10.964V14.744ZM26.8842 8.864C26.8842 9.656 27.4602 10.148 28.3482 10.148C29.2722 10.148 29.8722 9.776 30.0282 9.116C29.9922 9.032 29.9562 8.96 29.9202 8.876L29.7882 8.564C29.3562 7.544 28.8642 7.184 28.3122 7.184C27.4962 7.184 26.8842 7.904 26.8842 8.864ZM33.6283 11H32.0923V10.28L32.3323 10.04H34.2163C33.3883 9.62 32.8483 8.804 32.8483 7.808C32.8483 6.38 33.8803 5.324 35.2483 5.324C36.5683 5.324 37.4203 6.092 37.5283 7.4H36.6883C36.5203 6.704 35.9923 6.284 35.2483 6.284C34.3003 6.284 33.6883 6.848 33.6883 7.868C33.6883 8.888 34.5883 9.656 35.8003 9.656C36.2803 9.656 36.5803 9.632 37.3363 9.476L37.9003 9.356V10.328L37.3843 10.46C35.8723 10.832 34.6963 11 33.6283 11ZM44.9789 10.76L44.7389 11C44.0549 11 43.6469 10.748 43.2989 10.124C42.5669 10.748 41.6069 11.12 40.6709 11.108C39.3029 11.096 38.6789 10.508 38.6789 9.224H39.5189C39.5189 9.86 39.8069 10.148 40.6709 10.148C41.5349 10.148 42.3749 9.896 42.9869 9.452C42.9749 9.392 42.9509 9.344 42.9269 9.284L41.4149 5.228H42.3509L43.7669 9.008C44.0429 9.752 44.2829 10.04 44.9789 10.04V10.76ZM44.9766 11H44.7366V10.28L44.9766 10.04C46.1046 10.04 46.4406 9.56 46.4406 8.504C46.4406 7.988 46.3686 7.256 46.2366 6.344H47.1126C47.2206 7.136 47.2806 7.892 47.2806 8.504C47.2806 10.22 46.5606 11 44.9766 11ZM46.9206 12.572C46.9206 12.92 46.6566 13.184 46.3086 13.184C45.9606 13.184 45.6966 12.92 45.6966 12.572C45.6966 12.224 45.9606 11.96 46.3086 11.96C46.6566 11.96 46.9206 12.224 46.9206 12.572Z" fill="#0E2938"/>
</svg>
