<svg width="71" height="84" viewBox="0 0 71 84" fill="none" xmlns="http://www.w3.org/2000/svg">
<path d="M66.0846 54.6288C65.8136 56.3418 65.7766 58.1278 65.6716 59.8608C65.6476 60.5978 65.6916 61.3088 65.7206 62.0388C65.7336 62.3988 65.7906 62.7718 65.8406 63.1428C65.8796 63.4778 65.9276 63.8118 65.8226 64.1308C65.6916 64.5668 65.2216 64.7248 64.7496 64.7478C64.1866 64.7858 63.5486 64.7368 63.0036 64.6178C62.1936 64.4538 61.5106 63.8968 61.1116 63.1718C60.8556 62.6988 60.7986 62.1968 60.6966 61.6868C60.0966 59.4088 60.4316 56.7818 60.6146 54.4778C60.6476 54.0308 60.6316 53.5248 60.8936 53.1468C61.3656 52.5278 62.4526 52.3438 63.1976 52.2848C63.7196 52.2448 64.2926 52.2388 64.7956 52.2428C65.3376 52.2268 66.0186 52.2398 66.1906 52.8718L66.1946 52.8838C66.3416 53.4498 66.1706 54.0608 66.0846 54.6288ZM62.8826 70.8388C60.4356 71.0778 58.0516 70.6158 55.6056 70.4568C54.8446 70.4098 54.0676 70.5188 53.3086 70.4928C52.7236 70.4608 52.2346 70.2978 51.6336 70.2838C50.5536 70.3028 49.5086 70.3988 48.4406 70.3248C43.7466 70.0358 39.0656 70.7888 34.3716 70.4858C33.6866 70.5148 32.9316 70.5418 32.6836 71.2528C32.3766 72.1608 31.8766 73.2368 31.2426 74.1368C30.2566 75.7588 28.0416 76.4938 27.1806 74.3948C26.8116 73.3168 28.7346 71.9828 28.0146 71.0848C27.7046 70.8508 27.0786 71.0478 26.6886 71.1458C26.0756 71.3038 25.4396 71.3518 24.7996 71.2618C21.1456 70.6678 19.7266 68.3258 19.8706 64.7938C19.9426 63.4378 19.6806 58.5028 20.4726 57.3828C20.8146 56.8248 21.2076 56.2408 21.8286 55.9568C24.4996 54.6608 29.5276 55.0288 31.2436 56.8948C33.8606 59.7388 31.9636 66.0868 33.6926 66.0128C35.6766 65.5018 33.8546 62.1628 35.9156 61.3168C36.5816 61.0658 37.5576 60.9418 38.1196 61.4348C39.5216 62.9168 37.2526 64.6588 39.4316 65.6768C41.3046 66.1878 43.3326 65.7498 45.2516 65.9708C46.0756 66.0378 47.7646 66.3838 47.2496 64.9758C46.6916 63.8368 45.1246 63.9608 44.0396 63.9038C43.1616 63.9188 42.1886 64.2638 41.3536 63.9878C40.6976 63.7768 40.2226 63.1218 40.0976 62.4478C39.9696 61.6038 40.4016 60.7918 40.4366 59.9498C40.4546 58.6548 40.5436 57.5138 41.9996 57.1498C43.0106 56.9648 43.9806 56.8098 45.0016 56.7178C47.3716 56.4368 50.2156 56.8958 51.6106 59.0188C52.4046 60.5698 52.3796 62.3528 52.2596 64.0558C51.8786 66.7968 54.1096 66.7438 54.0366 64.0778C54.1026 62.9848 53.8426 61.9308 53.8226 60.8448C53.8516 58.7638 53.6816 53.8508 55.3916 52.6078C55.8856 52.2488 56.7226 52.2748 57.3796 52.2508C58.0366 52.2388 58.8126 52.2028 59.2676 52.7288C59.9436 53.4828 59.3836 55.9428 59.3376 56.9738C59.0976 58.8498 59.4036 60.7798 59.2176 62.6558C59.1686 63.1198 59.2256 63.5868 59.2506 64.0618C59.2406 65.6788 59.8146 66.2608 61.4316 66.2358C62.2456 66.2518 62.9846 66.2648 63.7676 66.4998C64.7276 66.6698 65.2516 67.2598 65.2556 68.2228L65.2566 68.2328C65.3196 69.6008 64.3326 70.9428 62.8826 70.8388ZM14.0426 52.5848C13.2976 52.5578 12.5876 52.3518 11.8546 52.2048C9.96664 51.8618 8.04164 51.8698 7.04064 50.1808C6.51864 49.3118 6.30864 48.3518 6.07664 47.3688C5.80164 45.9878 5.39164 44.2178 5.78064 42.8738C5.90164 42.5338 6.09064 42.2738 6.30764 42.0048C6.48364 41.7928 6.75964 41.6278 6.90264 41.3868C6.97564 41.2658 6.88764 41.1838 6.78864 41.0918C5.51864 40.3078 4.91964 38.7818 4.90464 37.3338C4.88064 35.9708 5.08364 34.1008 5.59864 32.8128C5.76164 32.4268 5.86564 32.1398 6.00964 31.7878C6.23064 31.1808 6.58864 30.7248 7.04864 30.2548C7.35064 29.9238 7.67864 29.5868 8.02864 29.3028C8.62964 28.7888 9.38064 28.5578 10.1646 28.4538C11.3086 28.3068 12.4196 28.3238 13.5546 28.3588C14.6426 28.4008 15.6926 28.5588 16.8096 28.6058C17.8086 28.6368 18.7646 28.5938 19.5476 29.3308C20.8556 30.5518 21.4066 32.3138 21.7306 34.0478C21.8866 34.8888 22.1506 35.8388 21.6336 36.5888C21.2916 37.0768 20.6586 37.3598 20.0946 37.4418C19.4626 37.5188 18.8436 37.3518 18.2116 37.3698C16.9596 37.3228 14.5356 37.8148 13.5006 37.1288C13.0086 36.7158 13.1956 36.0108 13.0006 35.4368C12.8086 34.7148 12.1106 34.0518 11.3406 34.2138C10.4786 34.4538 10.0556 35.5378 9.91564 36.3618C9.81364 36.9618 9.66264 37.5398 9.94064 38.0658C10.4126 38.9478 11.4946 39.1608 12.4056 39.1508C13.3146 39.1388 14.3696 39.1718 15.3036 39.2538C16.5176 39.3238 17.7936 39.3688 19.0126 39.4268C19.6416 39.4348 20.3226 39.3988 20.9356 39.5438C21.5586 39.6628 22.0446 40.1708 22.2116 40.7748C22.3826 41.3518 22.4176 42.0498 22.0326 42.5438C21.5556 43.0408 20.7376 43.0218 20.0776 43.0588C17.8086 43.1458 15.5206 43.1838 13.2496 43.1468C12.8256 43.1358 12.4106 43.0728 11.9956 43.1308C11.4896 43.1708 11.0746 43.6368 11.3996 44.1038C11.6596 44.5038 12.1996 44.6738 12.6726 44.6988C14.6016 44.7218 16.5136 44.6808 18.4536 44.7098C19.4386 44.7598 20.8626 44.6618 21.7106 45.1668C22.3286 45.5728 22.2866 46.4288 22.3536 47.0798C22.4526 47.7698 22.5636 48.5278 22.6786 49.2318C22.7846 49.9158 22.8906 50.5638 22.8776 51.2698C22.8736 51.7378 22.8186 52.2568 22.5396 52.6418C22.2526 53.0478 21.7596 53.0998 21.2386 53.1288L21.2256 53.1298C20.7006 53.1458 20.1736 53.1288 19.6616 52.9978C17.8536 52.5018 15.8726 52.6948 14.0426 52.5848ZM11.7216 59.5398C11.6276 58.9308 11.6196 58.2938 11.3536 57.7258C11.1406 57.2058 10.6336 56.9338 10.2716 57.3938C9.94364 57.7608 9.84864 58.6878 9.89564 59.7168C9.96264 61.1958 9.91864 62.8878 10.3016 63.4258C10.7696 64.0968 11.8456 63.9528 12.5846 63.9928C12.9206 64.0148 13.2746 64.0538 13.6016 64.0698C14.4846 64.1208 15.4386 64.0678 16.2656 64.2328C17.2446 64.4298 18.2516 64.2648 18.6746 65.2148C19.1616 66.3448 19.2636 68.2268 19.1656 69.4778C19.0846 70.6218 19.0216 71.3598 18.5726 72.4408C17.9066 73.8138 16.1966 73.8258 14.8296 73.8908C13.8956 74.0078 12.9426 73.9378 12.0006 73.9318C9.71764 73.8508 8.03364 73.7918 5.73364 73.4128C4.92664 73.2788 3.74864 72.5758 3.64364 70.0428C3.59964 68.9648 3.74764 66.8528 3.70164 65.3198C3.69364 65.0698 3.94864 64.4548 4.96564 64.4098C5.65564 64.4118 5.54964 64.7238 5.82564 65.2848C6.08364 65.8388 5.70364 66.8288 6.04464 67.3238C6.91964 68.6048 9.65664 68.2848 11.0996 68.3308C12.2486 68.2648 13.4306 68.5108 14.5646 68.3768C14.9066 68.3218 15.2456 68.4618 15.5256 68.2868C15.9686 68.0428 16.0396 67.6688 15.6166 67.3998C14.9296 66.9988 13.8406 67.3618 13.0636 67.2428C12.3676 67.1548 10.8336 67.1868 10.1276 67.1978C8.75364 67.1548 7.22564 67.0658 6.81364 65.0468C6.63164 64.1578 6.63164 63.2648 6.65064 62.3638C6.64664 61.8558 6.49964 61.3418 6.51964 60.8388C6.54064 60.3388 6.47564 59.8058 6.45564 59.2918C6.44064 58.6618 6.52064 58.0468 6.62464 57.4418C6.70464 56.6048 6.78264 55.7338 7.35864 55.0878C8.32864 53.7978 9.98264 53.4608 11.5106 53.3778C12.3116 53.2328 13.0756 53.4538 13.8916 53.4868C15.3266 53.5028 16.8366 53.6498 18.1206 54.3638L18.1296 54.3698C19.0816 54.8428 19.3496 55.8968 19.3216 56.8918C19.3736 58.4598 19.3766 60.0308 18.9306 61.5588C18.5406 63.1258 17.1296 63.4268 15.7046 63.3108C10.1176 62.7768 12.6106 63.7068 11.7216 59.5398ZM22.9526 28.4748C23.0076 28.0928 23.0556 27.7218 23.0996 27.3388C23.3326 25.6218 23.4596 23.4578 24.4756 22.0548C25.0196 21.3508 25.8056 20.8538 26.6226 20.4818C27.5136 20.0658 28.5226 19.8808 29.4646 19.7728C29.9716 19.6958 30.4556 19.5598 30.9686 19.4948C31.9276 19.4108 33.0766 19.4468 34.0136 19.5538C36.2386 19.5158 38.9436 19.6228 41.2366 20.0658C43.0336 20.5278 43.2206 21.6268 42.9056 23.2778C42.7026 24.4588 42.3406 25.6808 42.5386 26.8918C42.6446 27.4038 42.9526 28.0128 43.4666 27.7318C43.9546 27.3678 43.9176 26.3688 43.9686 25.7658C44.0066 25.1818 44.0896 24.6548 44.1716 24.0898C44.3046 22.9658 44.5676 21.8578 45.3626 21.0088C45.6396 20.7018 45.9166 20.3748 46.3036 20.1998C47.1846 19.8398 48.2386 19.8738 49.1796 19.9368C50.8736 20.0508 52.5346 20.2088 54.1466 20.5728C54.9306 20.7388 55.7766 21.0408 56.1606 21.7928C56.5716 22.5398 56.3386 23.4738 56.3296 24.2948C56.3076 25.3018 56.2576 26.3698 55.3826 27.0218C55.0266 27.3168 54.6426 27.5448 54.1616 27.6078C53.4616 27.6798 52.7436 27.6078 52.0486 27.5378C50.4426 27.4468 49.9386 26.3118 49.8786 24.8138C49.8656 24.4938 49.9046 24.1738 49.8626 23.9058C49.8036 23.3368 49.3096 23.3058 48.9296 23.5628C48.6286 23.7538 48.3776 24.0718 48.1886 24.3868C47.5556 25.5198 47.1926 27.2068 47.9966 28.3198C48.1916 28.6328 48.5206 28.6948 48.8746 28.7098C50.3816 28.8408 52.6086 29.0308 54.0216 29.1528C54.4046 29.1928 54.8636 29.1848 55.0296 29.3548C55.3896 29.7308 55.4206 30.3418 55.3526 30.8388C55.2276 31.5688 54.8026 32.4028 54.1436 32.7328C53.5156 33.0248 52.8136 32.7938 52.1546 32.7438C50.0236 32.5388 47.9086 32.2338 45.7716 32.0648C44.1636 31.9528 42.5586 32.1388 40.9556 32.1248C39.6716 32.1278 38.3986 31.8388 37.1056 31.8978C35.6966 31.9918 34.0826 32.2188 32.8656 31.3658C31.5286 30.3588 31.4066 28.4318 31.6826 26.9078C31.8146 26.0328 31.9766 25.0818 32.2866 24.2608C32.4336 23.8618 32.6096 23.4498 32.5786 23.0178C32.5506 22.2168 31.5156 22.0568 31.0126 22.5518C30.6856 22.8638 30.5276 23.3508 30.3896 23.7828C30.2316 24.3138 30.1526 24.8628 30.0146 25.3998C29.8616 26.0138 29.6406 26.5898 29.5736 27.1948C29.4526 28.1728 29.6396 29.1798 29.5076 30.1528C29.3406 31.5428 27.8936 31.3128 26.8496 31.3548C26.1536 31.3638 25.4286 31.3898 24.7316 31.3458C24.2516 31.3038 23.7026 31.2568 23.3106 30.9998L23.3006 30.9928C22.5176 30.4388 22.8636 29.2938 22.9526 28.4748ZM47.0746 37.6258C47.0066 37.5068 46.8806 37.3998 46.7796 37.2978C46.4456 36.9738 46.1166 36.5248 46.2926 36.0558C46.4176 35.7708 46.6896 35.5808 46.9536 35.3768C47.2096 35.1808 47.4926 35.0278 47.8116 34.9658C48.4016 34.8398 48.9986 34.7428 49.5626 34.9528C50.3646 35.2298 50.8296 36.1198 50.5416 36.9278C50.3546 37.4188 49.9646 37.9008 49.5296 38.2138C49.2246 38.4248 48.8806 38.5698 48.5606 38.7618C47.8666 39.1818 47.0676 39.7728 46.2276 39.4588C45.9856 39.3668 45.6546 39.1808 45.6816 38.8938V38.8878C45.7276 38.5358 46.2146 38.3358 46.5486 38.1708C46.7496 38.0698 47.2346 37.9158 47.0746 37.6258ZM34.3136 36.3398C34.4946 35.7918 34.9546 35.6368 35.3756 35.6168C35.9326 35.5718 36.5666 35.5828 37.1036 35.6338C37.6606 35.7108 38.3136 35.7278 38.7276 36.2908C39.0676 36.7918 39.2306 37.7128 39.1166 38.3998L39.1146 38.4118C38.9596 39.2478 38.5946 39.7188 37.9316 39.6598C37.4006 39.6478 36.8666 39.6248 36.3346 39.6248C35.9566 39.6208 35.5786 39.6728 35.2026 39.6538C34.3296 39.6258 34.1486 39.1508 34.1326 38.0538C34.1206 37.4808 34.1326 36.8668 34.3136 36.3398ZM36.3876 57.4788C36.2766 58.1688 36.5186 58.7958 35.7646 58.7278C35.5816 58.7188 35.0886 58.6968 34.9026 58.6948C34.1716 58.6758 33.4066 58.8318 32.7866 58.4088C32.3246 58.0958 32.3356 57.3748 32.4946 56.7988C32.5796 56.4418 32.6416 56.0198 32.8426 55.7048C33.0836 55.2968 33.2126 55.1908 33.6386 55.1078C34.4206 54.9578 34.9706 55.0028 35.7636 55.1788C36.1056 55.2878 36.4066 55.3028 36.4976 55.6808L36.4996 55.6898C36.5556 55.9428 36.4736 56.2028 36.4066 56.4508C36.3176 56.7878 36.4386 57.1278 36.3876 57.4788ZM29.6186 51.7808C28.4936 51.6848 27.2606 51.2738 26.2336 50.8698C25.6056 50.6198 25.1566 50.1918 24.6886 49.6498C22.1646 46.1698 23.2096 37.6118 24.8366 33.8028C25.1306 33.0918 25.8116 32.8558 26.5166 32.7328C27.7926 32.4898 29.1126 32.1908 30.4216 32.3568C31.4446 32.5188 32.7096 32.4858 33.1286 33.6308C33.3216 34.1398 33.1856 34.6608 33.0696 35.1718C32.8926 36.0268 32.7086 36.8748 32.5856 37.7328C32.3096 39.4478 31.5636 46.3778 33.1866 47.2468C33.7426 47.5298 34.3786 47.2658 34.7736 46.7998C35.0846 46.4318 35.2776 45.9148 35.4726 45.4538C35.6526 45.0098 35.8096 44.5698 35.9166 44.1118C36.0706 43.4708 36.2616 42.7318 36.7156 42.2588C37.2966 41.6358 38.5066 41.7148 38.9356 42.4748C39.1946 42.9488 39.2036 43.5538 39.2076 44.0888C39.2056 44.5118 39.1496 44.8868 39.0656 45.2778C38.9936 45.6238 38.9176 46.0438 39.0926 46.3598C39.4116 46.9548 40.2316 46.7368 40.5576 46.2618C40.9756 45.7348 40.9956 45.0058 41.2706 44.4118C41.6366 43.5998 42.4446 42.9988 43.3366 42.9318C43.9376 42.8848 44.4736 43.2358 44.6236 43.8388C44.7396 44.2368 44.6616 44.7218 44.6006 45.1658C44.5556 45.5178 44.5256 45.7948 44.6606 46.0568C44.8956 46.4888 45.4576 46.7218 45.9306 46.7238C46.4266 46.7058 46.7626 46.3638 47.0966 45.9148C47.7626 44.9278 48.3796 43.9288 49.0446 42.9398C49.4276 42.3068 49.8936 41.7178 50.4566 41.1928C51.0486 40.5758 51.7156 40.0758 52.4296 39.6288C53.4236 38.8998 54.5166 38.4598 55.7096 38.0688C57.5156 37.4328 59.3586 37.2138 61.3006 37.3208C62.5636 37.3848 63.4946 37.5408 64.4816 38.3938C66.4596 40.2198 66.4026 43.3188 65.9086 45.7808C65.6096 47.0828 65.0756 48.8678 63.9806 49.6688C62.0816 50.9588 59.3516 50.9778 57.1996 51.2408C55.4046 51.4188 53.6326 51.8308 51.8256 51.9218C51.4096 51.9418 50.9936 51.9438 50.5776 51.9508C50.1476 51.9578 49.6976 51.9578 49.3376 52.2048C48.9536 52.4578 48.7316 52.9218 48.4386 53.3058C47.9526 53.9398 47.2856 54.6808 46.4406 54.6668H46.4276C45.8066 54.6458 45.1976 54.2278 44.9236 53.6708C44.6286 53.1608 44.8736 52.4118 44.3276 52.1168C44.0816 51.9878 43.7866 51.9828 43.5046 51.9728C38.8846 51.8718 34.2086 52.2598 29.6186 51.7808ZM36.8416 57.5848C36.8096 57.1848 36.7806 56.7788 36.8456 56.3788C36.8826 56.0088 36.9666 55.6358 37.1156 55.3508C37.2156 55.1698 37.3936 55.2538 37.5616 55.1908C37.8506 55.0998 38.1826 55.0748 38.4836 55.1068C39.0876 55.2448 40.3246 54.9818 40.5546 55.8268C40.6776 56.3858 40.5836 57.0268 40.4506 57.5708L40.4476 57.5818C40.2026 58.6168 39.1696 58.6318 38.4096 58.6548C37.9386 58.6568 37.3416 58.8618 36.9556 58.4608C36.7846 58.2038 36.8656 57.9278 36.8416 57.5848ZM60.1616 28.1408C59.4806 26.8098 57.9366 25.1718 57.8616 23.6878C57.8236 22.7508 58.2486 22.1678 59.1006 21.8168C59.8676 21.4518 60.7046 21.2208 61.5396 21.1238C62.6036 20.9808 63.6046 21.3678 64.1356 22.3418C64.8306 23.5778 65.2096 24.9638 65.6206 26.3128C66.2036 28.1478 66.6436 29.8318 65.7036 31.6628C65.4416 32.1858 65.1616 32.7688 64.7216 33.1398C64.2286 33.5628 63.6206 33.7018 62.9996 33.7878C62.1636 33.9078 61.0996 33.9858 60.2036 34.0078C58.8556 34.0658 57.2876 33.8608 56.6026 32.5678C56.3976 32.1758 56.3196 31.7418 56.2246 31.3148C56.1656 31.0328 56.1036 30.7378 56.1256 30.4508L56.1266 30.4388C56.1556 29.9368 56.5916 29.6148 57.1046 29.6298C58.3396 29.6648 59.7306 30.9238 60.5556 30.2368C61.1856 29.7138 60.6756 29.0768 60.1616 28.1408ZM70.7096 54.5498C70.7076 53.9548 70.7046 53.3748 70.7066 52.8148V52.7768C70.7146 49.6188 70.5286 46.4418 70.3486 43.3708C70.1756 40.4408 69.9986 37.4118 69.9956 34.4518V34.4108C69.9826 33.8968 69.9766 33.3828 69.9706 32.8378C69.9306 29.2738 69.8846 25.2328 67.7236 21.8408L67.7116 21.8208C63.8446 15.9238 55.3856 15.4678 48.5886 15.1018C47.4516 15.0398 46.3776 14.9828 45.3996 14.9008L45.3146 14.8968C44.3626 14.8648 43.3726 14.8158 42.4156 14.7678C37.8366 14.5368 33.1016 14.2998 28.6156 15.7108C26.2236 16.4778 24.1526 17.7448 22.2636 19.0048C19.9756 20.5478 17.8976 21.8968 15.6286 22.7828L15.6036 22.7938C14.7086 23.1598 13.7806 23.4738 12.7996 23.8068C10.1766 24.6948 7.46364 25.6138 5.24864 27.6178L5.22564 27.6388C-0.192359 32.7138 0.568642 39.9108 1.24064 46.2618C1.44164 48.1558 1.63064 49.9458 1.66264 51.6338L1.66464 51.6858C1.83164 55.0518 1.24864 58.3618 0.629639 61.8658C0.534638 62.4078 0.439644 62.9488 0.346642 63.4898C-0.445358 67.8028 0.125641 71.4578 1.99964 74.0638C3.64364 76.3488 6.18064 77.7508 9.54164 78.2308C10.9216 78.4368 12.3116 78.4958 13.6886 78.4958C14.6476 78.4958 15.6016 78.4668 16.5426 78.4388L16.7026 78.4338C18.3966 78.3528 20.1376 78.3198 21.8216 78.2898C25.2756 78.2268 28.8486 78.1608 32.3636 77.6738C34.0656 77.4408 35.7636 77.1278 37.4056 76.8248L37.9116 76.7328L37.9366 76.7268C39.3916 76.4378 40.8536 76.1988 42.3196 76.0118C45.8406 75.5798 49.8816 78.2628 53.1306 80.4198C55.6186 82.0718 57.5936 83.3838 59.3466 83.3838C59.3796 83.3838 59.4136 83.3828 59.4476 83.3818C60.0956 83.3628 60.6786 82.9828 60.9586 82.3978C61.2386 81.8128 61.1676 81.1188 60.7766 80.6018C59.8426 79.3688 58.6656 77.0158 59.1026 75.8798C59.2546 75.4828 59.6886 75.1778 60.3906 74.9678C60.6056 74.9208 60.8196 74.8688 61.0336 74.8138C61.0756 74.8048 61.1166 74.7938 61.1566 74.7808C61.2276 74.7628 61.2976 74.7458 61.3676 74.7258C65.5526 73.6098 68.3466 70.7278 69.6706 66.1588C70.7436 62.4588 70.7256 58.2568 70.7096 54.5498Z" fill="#022938"/>
<path d="M53.9627 5.77221H53.7227V5.05221L53.9627 4.81221C55.0907 4.81221 55.4267 4.33221 55.4267 3.27621C55.4267 2.76021 55.3547 2.02821 55.2227 1.11621H56.0987C56.2067 1.90821 56.2667 2.66421 56.2667 3.27621C56.2667 4.99221 55.5467 5.77221 53.9627 5.77221ZM55.9067 7.34421C55.9067 7.69221 55.6427 7.95621 55.2947 7.95621C54.9467 7.95621 54.6827 7.69221 54.6827 7.34421C54.6827 6.99621 54.9467 6.73221 55.2947 6.73221C55.6427 6.73221 55.9067 6.99621 55.9067 7.34421Z" fill="#022535"/>
<path d="M53.9641 5.532L53.7241 5.772C53.0401 5.772 52.6321 5.52 52.2841 4.896C51.5521 5.52 50.5921 5.892 49.6561 5.88C48.2881 5.868 47.6641 5.28 47.6641 3.996H48.5041C48.5041 4.632 48.7921 4.92 49.6561 4.92C50.5201 4.92 51.3601 4.668 51.9721 4.224C51.9601 4.164 51.9361 4.116 51.9121 4.056L50.4001 0H51.3361L52.7521 3.78C53.0281 4.524 53.2681 4.812 53.9641 4.812V5.532Z" fill="#022535"/>
<path d="M42.6141 5.77268H41.0781V5.05268L41.3181 4.81268H43.2021C42.3741 4.39268 41.8341 3.57668 41.8341 2.58068C41.8341 1.15268 42.8661 0.0966797 44.2341 0.0966797C45.5541 0.0966797 46.4061 0.864679 46.5141 2.17268H45.6741C45.5061 1.47668 44.9781 1.05668 44.2341 1.05668C43.2861 1.05668 42.6741 1.62068 42.6741 2.64068C42.6741 3.66068 43.5741 4.42868 44.7861 4.42868C45.2661 4.42868 45.5661 4.40468 46.3221 4.24868L46.8861 4.12868V5.10068L46.3701 5.23268C44.8581 5.60468 43.6821 5.77268 42.6141 5.77268Z" fill="#022535"/>
<path d="M34.3205 9.51609H33.4805V5.66409C33.4805 4.62009 33.9725 4.03209 35.0285 3.86409V3.75609C35.0285 2.18409 36.0125 0.996094 37.3205 0.996094C38.3285 0.996094 38.9525 1.42809 39.7325 3.18009L39.8765 3.50409C40.3205 4.51209 40.6805 4.81209 41.3045 4.81209V5.53209L41.0645 5.77209C40.4045 5.77209 39.8765 5.46009 39.3485 4.56009C39.0485 5.40009 38.3405 5.88009 37.3205 5.88009C36.3365 5.88009 35.6045 5.49609 35.2565 4.80009C34.5725 4.88409 34.3205 5.16009 34.3205 5.73609V9.51609ZM35.8685 3.63609C35.8685 4.42809 36.4445 4.92009 37.3325 4.92009C38.2565 4.92009 38.8565 4.54809 39.0125 3.88809C38.9765 3.80409 38.9405 3.73209 38.9045 3.64809L38.7725 3.33609C38.3405 2.31609 37.8485 1.95609 37.2965 1.95609C36.4805 1.95609 35.8685 2.67609 35.8685 3.63609Z" fill="#022535"/>
<path d="M29.0325 3.58809C29.0325 5.02809 28.1925 5.88009 26.7525 5.88009C25.8165 5.88009 25.0485 5.54409 24.4605 4.90809C24.0045 5.54409 23.4645 5.77209 22.4805 5.77209V5.05209L22.7205 4.81209C23.5965 4.81209 23.8605 4.51209 24.3525 3.34809L24.4845 3.03609C25.0725 1.63209 25.7205 0.996094 26.8245 0.996094C28.0845 0.996094 29.0325 2.11209 29.0325 3.58809ZM25.1085 3.64809C25.0365 3.81609 24.9645 3.98409 24.8925 4.12809C25.3725 4.62009 26.0445 4.92009 26.7405 4.92009C27.7245 4.92009 28.1925 4.50009 28.1925 3.58809C28.1925 2.65209 27.5805 1.95609 26.7765 1.95609C26.0805 1.95609 25.6725 2.31609 25.2405 3.33609L25.1085 3.64809Z" fill="#022535"/>
<path d="M18.6552 1.1286C18.6552 1.4766 18.3912 1.7406 18.0432 1.7406C17.6952 1.7406 17.4312 1.4766 17.4312 1.1286C17.4312 0.780602 17.6952 0.516602 18.0432 0.516602C18.3912 0.516602 18.6552 0.780602 18.6552 1.1286ZM22.4832 5.7726C21.8472 5.7726 21.4152 5.6166 21.1392 5.2806C21.0792 7.0806 20.0232 8.0646 18.0432 8.0646C15.6672 8.0646 14.6952 6.9006 14.7192 4.8846C14.7312 4.3806 14.7912 3.8166 14.9112 3.2166H15.7512C15.6432 3.7686 15.5712 4.2726 15.5592 4.7046C15.5352 6.2766 16.1952 7.1046 18.0432 7.1046C19.7472 7.1046 20.5272 6.4566 20.5272 5.0406C20.5272 4.6806 20.4912 4.2966 20.4192 3.8286L20.2512 2.7966H21.1032L21.2472 3.6966C21.3792 4.5246 21.7032 4.8126 22.7232 4.8126V5.5326L22.4832 5.7726Z" fill="#022535"/>
</svg>
