<svg width="71" height="69" viewBox="0 0 71 69" fill="none" xmlns="http://www.w3.org/2000/svg">
<path d="M66.0846 40.036C65.8136 41.749 65.7766 43.535 65.6716 45.268C65.6476 46.005 65.6916 46.716 65.7206 47.446C65.7336 47.806 65.7906 48.179 65.8406 48.55C65.8796 48.885 65.9276 49.219 65.8226 49.538C65.6916 49.974 65.2216 50.132 64.7496 50.155C64.1866 50.193 63.5486 50.144 63.0036 50.025C62.1936 49.861 61.5106 49.304 61.1116 48.579C60.8556 48.106 60.7986 47.604 60.6966 47.094C60.0966 44.816 60.4316 42.189 60.6146 39.885C60.6476 39.438 60.6316 38.932 60.8936 38.554C61.3656 37.935 62.4526 37.751 63.1976 37.692C63.7196 37.652 64.2926 37.646 64.7956 37.65C65.3376 37.634 66.0186 37.647 66.1906 38.279L66.1946 38.291C66.3416 38.857 66.1706 39.468 66.0846 40.036ZM62.8826 56.246C60.4356 56.485 58.0516 56.023 55.6056 55.864C54.8446 55.817 54.0676 55.926 53.3086 55.9C52.7236 55.868 52.2346 55.705 51.6336 55.691C50.5536 55.71 49.5086 55.806 48.4406 55.732C43.7466 55.443 39.0656 56.196 34.3716 55.893C33.6866 55.922 32.9316 55.949 32.6836 56.66C32.3766 57.568 31.8766 58.644 31.2426 59.544C30.2566 61.166 28.0416 61.901 27.1806 59.802C26.8116 58.724 28.7346 57.39 28.0146 56.492C27.7046 56.258 27.0786 56.455 26.6886 56.553C26.0756 56.711 25.4396 56.759 24.7996 56.669C21.1456 56.075 19.7266 53.733 19.8706 50.201C19.9426 48.845 19.6806 43.91 20.4726 42.79C20.8146 42.232 21.2076 41.648 21.8286 41.364C24.4996 40.068 29.5276 40.436 31.2436 42.302C33.8606 45.146 31.9636 51.494 33.6926 51.42C35.6766 50.909 33.8546 47.57 35.9156 46.724C36.5816 46.473 37.5576 46.349 38.1196 46.842C39.5216 48.324 37.2526 50.066 39.4316 51.084C41.3046 51.595 43.3326 51.157 45.2516 51.378C46.0756 51.445 47.7646 51.791 47.2496 50.383C46.6916 49.244 45.1246 49.368 44.0396 49.311C43.1616 49.326 42.1886 49.671 41.3536 49.395C40.6976 49.184 40.2226 48.529 40.0976 47.855C39.9696 47.011 40.4016 46.199 40.4366 45.357C40.4546 44.062 40.5436 42.921 41.9996 42.557C43.0106 42.372 43.9806 42.217 45.0016 42.125C47.3716 41.844 50.2156 42.303 51.6106 44.426C52.4046 45.977 52.3796 47.76 52.2596 49.463C51.8786 52.204 54.1096 52.151 54.0366 49.485C54.1026 48.392 53.8426 47.338 53.8226 46.252C53.8516 44.171 53.6816 39.258 55.3916 38.015C55.8856 37.656 56.7226 37.682 57.3796 37.658C58.0366 37.646 58.8126 37.61 59.2676 38.136C59.9436 38.89 59.3836 41.35 59.3376 42.381C59.0976 44.257 59.4036 46.187 59.2176 48.063C59.1686 48.527 59.2256 48.994 59.2506 49.469C59.2406 51.086 59.8146 51.668 61.4316 51.643C62.2456 51.659 62.9846 51.672 63.7676 51.907C64.7276 52.077 65.2516 52.667 65.2556 53.63L65.2566 53.64C65.3196 55.008 64.3326 56.35 62.8826 56.246ZM14.0426 37.992C13.2976 37.965 12.5876 37.759 11.8546 37.612C9.96664 37.269 8.04164 37.277 7.04064 35.588C6.51864 34.719 6.30864 33.759 6.07664 32.776C5.80164 31.395 5.39164 29.625 5.78064 28.281C5.90164 27.941 6.09064 27.681 6.30764 27.412C6.48364 27.2 6.75964 27.035 6.90264 26.794C6.97564 26.673 6.88764 26.591 6.78864 26.499C5.51864 25.715 4.91964 24.189 4.90464 22.741C4.88064 21.378 5.08364 19.508 5.59864 18.22C5.76164 17.834 5.86564 17.547 6.00964 17.195C6.23064 16.588 6.58864 16.132 7.04864 15.662C7.35064 15.331 7.67864 14.994 8.02864 14.71C8.62964 14.196 9.38064 13.965 10.1646 13.861C11.3086 13.714 12.4196 13.731 13.5546 13.766C14.6426 13.808 15.6926 13.966 16.8096 14.013C17.8086 14.044 18.7646 14.001 19.5476 14.738C20.8556 15.959 21.4066 17.721 21.7306 19.455C21.8866 20.296 22.1506 21.246 21.6336 21.996C21.2916 22.484 20.6586 22.767 20.0946 22.849C19.4626 22.926 18.8436 22.759 18.2116 22.777C16.9596 22.73 14.5356 23.222 13.5006 22.536C13.0086 22.123 13.1956 21.418 13.0006 20.844C12.8086 20.122 12.1106 19.459 11.3406 19.621C10.4786 19.861 10.0556 20.945 9.91564 21.769C9.81364 22.369 9.66264 22.947 9.94064 23.473C10.4126 24.355 11.4946 24.568 12.4056 24.558C13.3146 24.546 14.3696 24.579 15.3036 24.661C16.5176 24.731 17.7936 24.776 19.0126 24.834C19.6416 24.842 20.3226 24.806 20.9356 24.951C21.5586 25.07 22.0446 25.578 22.2116 26.182C22.3826 26.759 22.4176 27.457 22.0326 27.951C21.5556 28.448 20.7376 28.429 20.0776 28.466C17.8086 28.553 15.5206 28.591 13.2496 28.554C12.8256 28.543 12.4106 28.48 11.9956 28.538C11.4896 28.578 11.0746 29.044 11.3996 29.511C11.6596 29.911 12.1996 30.081 12.6726 30.106C14.6016 30.129 16.5136 30.088 18.4536 30.117C19.4386 30.167 20.8626 30.069 21.7106 30.574C22.3286 30.98 22.2866 31.836 22.3536 32.487C22.4526 33.177 22.5636 33.935 22.6786 34.639C22.7846 35.323 22.8906 35.971 22.8776 36.677C22.8736 37.145 22.8186 37.664 22.5396 38.049C22.2526 38.455 21.7596 38.507 21.2386 38.536L21.2256 38.537C20.7006 38.553 20.1736 38.536 19.6616 38.405C17.8536 37.909 15.8726 38.102 14.0426 37.992ZM11.7216 44.947C11.6276 44.338 11.6196 43.701 11.3536 43.133C11.1406 42.613 10.6336 42.341 10.2716 42.801C9.94364 43.168 9.84864 44.095 9.89564 45.124C9.96264 46.603 9.91864 48.295 10.3016 48.833C10.7696 49.504 11.8456 49.36 12.5846 49.4C12.9206 49.422 13.2746 49.461 13.6016 49.477C14.4846 49.528 15.4386 49.475 16.2656 49.64C17.2446 49.837 18.2516 49.672 18.6746 50.622C19.1616 51.752 19.2636 53.634 19.1656 54.885C19.0846 56.029 19.0216 56.767 18.5726 57.848C17.9066 59.221 16.1966 59.233 14.8296 59.298C13.8956 59.415 12.9426 59.345 12.0006 59.339C9.71764 59.258 8.03364 59.199 5.73364 58.82C4.92664 58.686 3.74864 57.983 3.64364 55.45C3.59964 54.372 3.74764 52.26 3.70164 50.727C3.69364 50.477 3.94864 49.862 4.96564 49.817C5.65564 49.819 5.54964 50.131 5.82564 50.692C6.08364 51.246 5.70364 52.236 6.04464 52.731C6.91964 54.012 9.65664 53.692 11.0996 53.738C12.2486 53.672 13.4306 53.918 14.5646 53.784C14.9066 53.729 15.2456 53.869 15.5256 53.694C15.9686 53.45 16.0396 53.076 15.6166 52.807C14.9296 52.406 13.8406 52.769 13.0636 52.65C12.3676 52.562 10.8336 52.594 10.1276 52.605C8.75364 52.562 7.22564 52.473 6.81364 50.454C6.63164 49.565 6.63164 48.672 6.65064 47.771C6.64664 47.263 6.49964 46.749 6.51964 46.246C6.54064 45.746 6.47564 45.213 6.45564 44.699C6.44064 44.069 6.52064 43.454 6.62464 42.849C6.70464 42.012 6.78264 41.141 7.35864 40.495C8.32864 39.205 9.98264 38.868 11.5106 38.785C12.3116 38.64 13.0756 38.861 13.8916 38.894C15.3266 38.91 16.8366 39.057 18.1206 39.771L18.1296 39.777C19.0816 40.25 19.3496 41.304 19.3216 42.299C19.3736 43.867 19.3766 45.438 18.9306 46.966C18.5406 48.533 17.1296 48.834 15.7046 48.718C10.1176 48.184 12.6106 49.114 11.7216 44.947ZM22.9526 13.882C23.0076 13.5 23.0556 13.129 23.0996 12.746C23.3326 11.029 23.4596 8.86502 24.4756 7.46201C25.0196 6.75801 25.8056 6.26101 26.6226 5.88902C27.5136 5.47301 28.5226 5.28801 29.4646 5.18002C29.9716 5.10302 30.4556 4.96701 30.9686 4.90202C31.9276 4.81802 33.0766 4.85402 34.0136 4.96101C36.2386 4.92302 38.9436 5.03001 41.2366 5.47301C43.0336 5.93501 43.2206 7.03402 42.9056 8.68502C42.7026 9.86602 42.3406 11.088 42.5386 12.299C42.6446 12.811 42.9526 13.42 43.4666 13.139C43.9546 12.775 43.9176 11.776 43.9686 11.173C44.0066 10.589 44.0896 10.062 44.1716 9.49702C44.3046 8.37302 44.5676 7.26501 45.3626 6.41602C45.6396 6.10902 45.9166 5.78202 46.3036 5.60702C47.1846 5.24702 48.2386 5.28102 49.1796 5.34402C50.8736 5.45802 52.5346 5.61602 54.1466 5.98002C54.9306 6.14602 55.7766 6.44802 56.1606 7.20002C56.5716 7.94702 56.3386 8.88102 56.3296 9.70202C56.3076 10.709 56.2576 11.777 55.3826 12.429C55.0266 12.724 54.6426 12.952 54.1616 13.015C53.4616 13.087 52.7436 13.015 52.0486 12.945C50.4426 12.854 49.9386 11.719 49.8786 10.221C49.8656 9.90102 49.9046 9.58102 49.8626 9.31302C49.8036 8.74402 49.3096 8.71302 48.9296 8.97002C48.6286 9.16102 48.3776 9.47902 48.1886 9.79401C47.5556 10.927 47.1926 12.614 47.9966 13.727C48.1916 14.04 48.5206 14.102 48.8746 14.117C50.3816 14.248 52.6086 14.438 54.0216 14.56C54.4046 14.6 54.8636 14.592 55.0296 14.762C55.3896 15.138 55.4206 15.749 55.3526 16.246C55.2276 16.976 54.8026 17.81 54.1436 18.14C53.5156 18.432 52.8136 18.201 52.1546 18.151C50.0236 17.946 47.9086 17.641 45.7716 17.472C44.1636 17.36 42.5586 17.546 40.9556 17.532C39.6716 17.535 38.3986 17.246 37.1056 17.305C35.6966 17.399 34.0826 17.626 32.8656 16.773C31.5286 15.766 31.4066 13.839 31.6826 12.315C31.8146 11.44 31.9766 10.489 32.2866 9.66801C32.4336 9.26901 32.6096 8.85702 32.5786 8.42502C32.5506 7.62402 31.5156 7.46402 31.0126 7.95901C30.6856 8.27102 30.5276 8.75802 30.3896 9.19002C30.2316 9.72102 30.1526 10.27 30.0146 10.807C29.8616 11.421 29.6406 11.997 29.5736 12.602C29.4526 13.58 29.6396 14.587 29.5076 15.56C29.3406 16.95 27.8936 16.72 26.8496 16.762C26.1536 16.771 25.4286 16.797 24.7316 16.753C24.2516 16.711 23.7026 16.664 23.3106 16.407L23.3006 16.4C22.5176 15.846 22.8636 14.701 22.9526 13.882ZM47.0746 23.033C47.0066 22.914 46.8806 22.807 46.7796 22.705C46.4456 22.381 46.1166 21.932 46.2926 21.463C46.4176 21.178 46.6896 20.988 46.9536 20.784C47.2096 20.588 47.4926 20.435 47.8116 20.373C48.4016 20.247 48.9986 20.15 49.5626 20.36C50.3646 20.637 50.8296 21.527 50.5416 22.335C50.3546 22.826 49.9646 23.308 49.5296 23.621C49.2246 23.832 48.8806 23.977 48.5606 24.169C47.8666 24.589 47.0676 25.18 46.2276 24.866C45.9856 24.774 45.6546 24.588 45.6816 24.301V24.295C45.7276 23.943 46.2146 23.743 46.5486 23.578C46.7496 23.477 47.2346 23.323 47.0746 23.033ZM34.3136 21.747C34.4946 21.199 34.9546 21.044 35.3756 21.024C35.9326 20.979 36.5666 20.99 37.1036 21.041C37.6606 21.118 38.3136 21.135 38.7276 21.698C39.0676 22.199 39.2306 23.12 39.1166 23.807L39.1146 23.819C38.9596 24.655 38.5946 25.126 37.9316 25.067C37.4006 25.055 36.8666 25.032 36.3346 25.032C35.9566 25.028 35.5786 25.08 35.2026 25.061C34.3296 25.033 34.1486 24.558 34.1326 23.461C34.1206 22.888 34.1326 22.274 34.3136 21.747ZM36.3876 42.886C36.2766 43.576 36.5186 44.203 35.7646 44.135C35.5816 44.126 35.0886 44.104 34.9026 44.102C34.1716 44.083 33.4066 44.239 32.7866 43.816C32.3246 43.503 32.3356 42.782 32.4946 42.206C32.5796 41.849 32.6416 41.427 32.8426 41.112C33.0836 40.704 33.2126 40.598 33.6386 40.515C34.4206 40.365 34.9706 40.41 35.7636 40.586C36.1056 40.695 36.4066 40.71 36.4976 41.088L36.4996 41.097C36.5556 41.35 36.4736 41.61 36.4066 41.858C36.3176 42.195 36.4386 42.535 36.3876 42.886ZM29.6186 37.188C28.4936 37.092 27.2606 36.681 26.2336 36.277C25.6056 36.027 25.1566 35.599 24.6886 35.057C22.1646 31.577 23.2096 23.019 24.8366 19.21C25.1306 18.499 25.8116 18.263 26.5166 18.14C27.7926 17.897 29.1126 17.598 30.4216 17.764C31.4446 17.926 32.7096 17.893 33.1286 19.038C33.3216 19.547 33.1856 20.068 33.0696 20.579C32.8926 21.434 32.7086 22.282 32.5856 23.14C32.3096 24.855 31.5636 31.785 33.1866 32.654C33.7426 32.937 34.3786 32.673 34.7736 32.207C35.0846 31.839 35.2776 31.322 35.4726 30.861C35.6526 30.417 35.8096 29.977 35.9166 29.519C36.0706 28.878 36.2616 28.139 36.7156 27.666C37.2966 27.043 38.5066 27.122 38.9356 27.882C39.1946 28.356 39.2036 28.961 39.2076 29.496C39.2056 29.919 39.1496 30.294 39.0656 30.685C38.9936 31.031 38.9176 31.451 39.0926 31.767C39.4116 32.362 40.2316 32.144 40.5576 31.669C40.9756 31.142 40.9956 30.413 41.2706 29.819C41.6366 29.007 42.4446 28.406 43.3366 28.339C43.9376 28.292 44.4736 28.643 44.6236 29.246C44.7396 29.644 44.6616 30.129 44.6006 30.573C44.5556 30.925 44.5256 31.202 44.6606 31.464C44.8956 31.896 45.4576 32.129 45.9306 32.131C46.4266 32.113 46.7626 31.771 47.0966 31.322C47.7626 30.335 48.3796 29.336 49.0446 28.347C49.4276 27.714 49.8936 27.125 50.4566 26.6C51.0486 25.983 51.7156 25.483 52.4296 25.036C53.4236 24.307 54.5166 23.867 55.7096 23.476C57.5156 22.84 59.3586 22.621 61.3006 22.728C62.5636 22.792 63.4946 22.948 64.4816 23.801C66.4596 25.627 66.4026 28.726 65.9086 31.188C65.6096 32.49 65.0756 34.275 63.9806 35.076C62.0816 36.366 59.3516 36.385 57.1996 36.648C55.4046 36.826 53.6326 37.238 51.8256 37.329C51.4096 37.349 50.9936 37.351 50.5776 37.358C50.1476 37.365 49.6976 37.365 49.3376 37.612C48.9536 37.865 48.7316 38.329 48.4386 38.713C47.9526 39.347 47.2856 40.088 46.4406 40.074H46.4276C45.8066 40.053 45.1976 39.635 44.9236 39.078C44.6286 38.568 44.8736 37.819 44.3276 37.524C44.0816 37.395 43.7866 37.39 43.5046 37.38C38.8846 37.279 34.2086 37.667 29.6186 37.188ZM36.8416 42.992C36.8096 42.592 36.7806 42.186 36.8456 41.786C36.8826 41.416 36.9666 41.043 37.1156 40.758C37.2156 40.577 37.3936 40.661 37.5616 40.598C37.8506 40.507 38.1826 40.482 38.4836 40.514C39.0876 40.652 40.3246 40.389 40.5546 41.234C40.6776 41.793 40.5836 42.434 40.4506 42.978L40.4476 42.989C40.2026 44.024 39.1696 44.039 38.4096 44.062C37.9386 44.064 37.3416 44.269 36.9556 43.868C36.7846 43.611 36.8656 43.335 36.8416 42.992ZM60.1616 13.548C59.4806 12.217 57.9366 10.579 57.8616 9.09502C57.8236 8.15802 58.2486 7.57502 59.1006 7.22401C59.8676 6.85902 60.7046 6.62801 61.5396 6.53101C62.6036 6.38802 63.6046 6.77501 64.1356 7.74902C64.8306 8.98501 65.2096 10.371 65.6206 11.72C66.2036 13.555 66.6436 15.239 65.7036 17.07C65.4416 17.593 65.1616 18.176 64.7216 18.547C64.2286 18.97 63.6206 19.109 62.9996 19.195C62.1636 19.315 61.0996 19.393 60.2036 19.415C58.8556 19.473 57.2876 19.268 56.6026 17.975C56.3976 17.583 56.3196 17.149 56.2246 16.722C56.1656 16.44 56.1036 16.145 56.1256 15.858L56.1266 15.846C56.1556 15.344 56.5916 15.022 57.1046 15.037C58.3396 15.072 59.7306 16.331 60.5556 15.644C61.1856 15.121 60.6756 14.484 60.1616 13.548ZM70.7096 39.957C70.7076 39.362 70.7046 38.782 70.7066 38.222V38.184C70.7146 35.026 70.5286 31.849 70.3486 28.778C70.1756 25.848 69.9986 22.819 69.9956 19.859V19.818C69.9826 19.304 69.9766 18.79 69.9706 18.245C69.9306 14.681 69.8846 10.64 67.7236 7.24802L67.7116 7.22802C63.8446 1.33102 55.3856 0.875019 48.5886 0.509018C47.4516 0.447018 46.3776 0.390015 45.3996 0.308014L45.3146 0.304016C44.3626 0.272015 43.3726 0.223019 42.4156 0.175018C37.8366 -0.0559807 33.1016 -0.29298 28.6156 1.11802C26.2236 1.88502 24.1526 3.15202 22.2636 4.41202C19.9756 5.95502 17.8976 7.30402 15.6286 8.19002L15.6036 8.20102C14.7086 8.56702 13.7806 8.88102 12.7996 9.21402C10.1766 10.102 7.46364 11.021 5.24864 13.025L5.22564 13.046C-0.192359 18.121 0.568642 25.318 1.24064 31.669C1.44164 33.563 1.63064 35.353 1.66264 37.041L1.66464 37.093C1.83164 40.459 1.24864 43.769 0.629639 47.273C0.534638 47.815 0.439644 48.356 0.346642 48.897C-0.445358 53.21 0.125641 56.865 1.99964 59.471C3.64364 61.756 6.18064 63.158 9.54164 63.638C10.9216 63.844 12.3116 63.903 13.6886 63.903C14.6476 63.903 15.6016 63.874 16.5426 63.846L16.7026 63.841C18.3966 63.76 20.1376 63.727 21.8216 63.697C25.2756 63.634 28.8486 63.568 32.3636 63.081C34.0656 62.848 35.7636 62.535 37.4056 62.232L37.9116 62.14L37.9366 62.134C39.3916 61.845 40.8536 61.606 42.3196 61.419C45.8406 60.987 49.8816 63.67 53.1306 65.827C55.6186 67.479 57.5936 68.791 59.3466 68.791C59.3796 68.791 59.4136 68.79 59.4476 68.789C60.0956 68.77 60.6786 68.39 60.9586 67.805C61.2386 67.22 61.1676 66.526 60.7766 66.009C59.8426 64.776 58.6656 62.423 59.1026 61.287C59.2546 60.89 59.6886 60.585 60.3906 60.375C60.6056 60.328 60.8196 60.276 61.0336 60.221C61.0756 60.212 61.1166 60.201 61.1566 60.188C61.2276 60.17 61.2976 60.153 61.3676 60.133C65.5526 59.017 68.3466 56.135 69.6706 51.566C70.7436 47.866 70.7256 43.664 70.7096 39.957Z" fill="#022938"/>
</svg>
