<svg width="456" height="38" viewBox="0 0 456 38" fill="none" xmlns="http://www.w3.org/2000/svg">
<path d="M364.5 2.40008C364.6 5.40008 364.5 7.40008 364.6 9.90008C364.6 12.2001 364.8 14.1001 364.7 16.7001C364.6 18.9001 364.8 21.2001 364.8 23.4001C364.8 25.6001 364.9 27.8001 364.9 29.9001C364.9 31.6001 365 33.1001 365 34.8001C365 35.1001 365 35.7001 365 36.0001C365 36.0001 361.7 35.9001 361.3 35.9001C360.2 36.0001 359.2 35.9001 358.9 35.8001C358.6 35.7001 358.5 29.9001 358.5 29.4001C358.5 27.2001 358.4 24.3001 358.4 22.1001C358.4 19.9001 358 16.5001 358 14.3001C358 12.0001 357.8 9.70008 357.8 7.40008C357.8 5.10008 357.7 5.00008 357.6 2.70008C357.6 2.20008 357.9 2.20008 358.5 2.20008C359.3 2.20008 363.8 2.10008 364.5 2.40008Z" fill="#BC3B42"/>
<path d="M372.6 32.4003C372.7 31.7003 372.8 31.1003 372.9 30.4003C372.4 30.4003 372 30.3003 371.6 30.1003C370.8 29.6003 370.3 28.8003 370.2 27.9003V27.5003C370.2 27.4003 370.2 27.3003 370.2 27.1003V26.4003C370.2 25.9003 370.2 25.4003 370.1 24.9003C370.1 24.5003 370.1 24.2003 370.1 23.8003C370.4 24.0003 370.7 24.1003 371.1 24.1003C370.6 23.8003 370.2 23.3003 370 22.8003C370 22.5003 370 22.2003 370 21.9003C370 20.9003 369.9 19.9003 369.8 18.9003C369.8 18.4003 369.7 17.9003 369.6 17.4003C369.5 16.9003 369.5 16.4003 369.4 15.9003C369.3 15.2003 369.2 14.4003 369 13.7003C369.5 14.1003 370.2 14.2003 370.8 14.1003C369.8 13.9003 369.2 13.3003 368.8 12.4003C368.5 11.7003 368.3 10.9003 368.1 10.2003C368 9.60029 367.6 8.60029 367.4 8.00029C367.8 8.30029 368.2 8.50029 368.5 8.50029C368.1 8.30029 367.9 8.20029 367.7 7.80029C367.1 6.80029 366.9 5.50029 366.7 4.30029C366.6 3.50029 366.8 2.8003 367.4 2.4003C366.8 2.3003 366.4 2.30029 366.4 2.30029C366.4 2.90029 366.4 3.8003 366.5 4.4003C366.5 5.4003 366.4 7.10029 366.5 8.10029C366.8 12.3003 366.8 13.9003 366.7 18.4003C366.7 20.9003 367 23.9003 367 26.2003C366.9 29.5003 367 31.9003 366.8 35.7003C366.8 35.7003 369.1 35.5003 370.3 35.7003C370.7 35.7003 371.3 35.8003 372 35.8003C372.2 34.8003 372.5 33.4003 372.6 32.4003Z" fill="#E85245"/>
<path d="M410.5 24.1001V22.2001H416.4V24.1001H410.5ZM413.1 5.80008H413.4V13.6001C413.2 13.6001 413 13.9001 413 14.1001C413 14.4001 413.2 14.6001 413.5 14.6001C413.8 14.6001 414 14.4001 414 14.1001C414 13.9001 413.8 13.7001 413.6 13.6001V5.80008H413.9C413.9 8.80008 417.3 13.4001 417.3 13.4001C415.7 18.7001 415.8 21.7001 415.8 21.7001H411.1C411.1 21.7001 411.2 18.8001 409.6 13.4001C409.7 13.4001 413.1 8.80008 413.1 5.80008ZM420.5 35.8001C420.5 35.2001 420.5 34.3001 420.4 33.7001C420.4 32.7001 420.5 31.0001 420.4 30.0001C420.1 25.8001 420.2 24.2001 420.2 19.7001C420.2 17.2001 419.9 14.2001 420 11.9001C420 8.60008 420 6.20008 420.1 2.40008C420.1 2.40008 419.7 2.60008 418.7 2.40008C416.8 2.10008 406.6 2.20008 406.6 2.20008C406.6 2.60008 406.6 6.90008 406.6 8.50008C406.7 11.2001 406.5 12.6001 406.5 14.2001C406.6 15.8001 406.8 17.4001 406.8 19.9001C406.8 23.6001 406.4 25.9001 406.5 28.6001C406.6 31.4001 406.5 30.4001 406.5 33.2001C406.5 33.6001 406.5 35.1001 406.8 35.7001C406.8 35.7001 409.2 36.2001 411.6 36.1001V24.4001H414.8V35.5001C417.2 35.3001 420.5 35.8001 420.5 35.8001Z" fill="#86B9BC"/>
<path d="M393.9 23.9004C393.7 23.9004 393.4 24.0004 393.2 24.0004C392.8 25.7004 392.2 27.2004 391.2 28.7004C390.1 30.2004 388.8 31.3004 387.2 31.9004C386.7 32.1004 386.2 32.2004 385.7 32.3004C385.7 34.0004 385.7 35.8004 385.8 35.8004C386.1 35.9004 390.1 36.1004 391.2 35.9004C391.6 35.8004 394.1 36.0004 394.1 36.0004C394.1 35.7004 394.1 35.1004 394.1 34.8004C394.1 33.1004 394.1 31.6004 394 29.9004C393.9 27.9004 393.9 25.9004 393.9 23.9004Z" fill="#6F3354"/>
<path d="M399.7 10.9003C399.3 11.4003 398.9 11.9003 398.5 12.4003L396.5 10.5003C396.9 10.0003 397.3 9.50027 397.7 9.00027C398.1 8.50027 398.5 8.00027 398.9 7.50027L400.9 9.40028C400.5 9.90028 400.1 10.4003 399.7 10.9003ZM405.4 30.0003C405.4 27.8003 405.3 25.7003 405.3 23.5003C405.3 21.3003 405.1 19.0003 405.2 16.8003C405.3 14.2003 405.1 12.3003 405.1 10.0003C405.1 7.40027 405.2 5.50027 405 2.50027C404.3 2.20027 398.7 2.50027 397.9 2.30027C397.3 2.10027 395.3 2.30027 395.3 2.80027C395.3 5.10027 395.4 7.00027 395.4 9.30027C395.4 11.6003 395.4 13.7003 395.4 15.9003C395.4 17.2003 395.5 18.5003 395.5 19.9003C396.2 19.1003 396.8 18.4003 397.5 17.6003C398.4 16.7003 399.2 15.8003 400.2 14.9003C400.7 14.5003 401.3 14.2003 402.2 14.0003C402.4 14.0003 402.6 13.9003 402.8 13.9003C403.4 13.9003 403.9 14.1003 404.3 14.6003C404.6 15.0003 404.8 15.5003 404.8 15.9003C404.8 16.2003 404.7 16.5003 404.5 16.9003C404.1 17.7003 403.6 18.4003 403.2 19.1003C402.4 20.1003 401.4 21.0003 400.2 21.7003C399 22.4003 397.8 22.9003 396.5 23.2003C396.2 23.3003 395.8 23.4003 395.5 23.5003C395.5 25.4003 395.5 27.4003 395.5 29.3003C395.5 29.8003 395.3 35.7003 395.5 35.8003C395.8 35.9003 398.7 36.1003 399.8 35.9003C400.2 35.8003 405.3 36.0003 405.3 36.0003C405.3 35.7003 405.3 35.1003 405.3 34.8003C405.5 33.2003 405.4 31.6003 405.4 30.0003Z" fill="#FBC29C"/>
<path d="M401.8 18.7001C401.9 18.6001 402 18.5001 402 18.4001C402 18.3001 401.9 18.1001 401.8 17.9001C401.6 17.6001 401.3 17.3001 400.8 17.2001C400.6 17.1001 400.4 17.1001 400.3 17.1001C400 17.1001 399.8 17.2001 399.5 17.3001C398.8 17.7001 398.2 18.1001 397.7 18.6001C397.2 19.1001 396.6 19.7001 396.1 20.2001C397.1 20.0001 398.1 19.8001 399.1 19.5001C400.1 19.4001 401 19.1001 401.8 18.7001Z" fill="#FBC29C"/>
<path d="M383.7 24.0001C383.7 23.2001 383.6 22.4001 383.5 21.6001C383.3 21.9001 383.2 22.3001 383 22.7001C382.6 23.4001 382.4 24.1001 382.2 24.8001C382.1 25.2001 382.1 25.6001 382.1 25.9001C382.1 26.2001 382.1 26.5001 382.2 26.7001C382.3 27.3001 382.8 27.8001 383.6 28.1001H383.7C383.7 26.4001 383.8 25.3001 383.7 24.0001Z" fill="#E85245"/>
<path d="M382.9 32.0002C381.8 31.4002 381.1 30.2002 380.9 28.4002C380.9 28.2002 380.9 28.1002 380.9 27.9002C380.9 26.1002 381.7 23.7002 383.4 20.7002C383.3 20.0002 383.3 19.2002 383.3 18.4002C383.3 14.7002 383.8 12.4002 383.7 9.70019C383.6 6.90019 383.7 7.90018 383.7 5.10018C383.7 4.70018 383.7 3.20018 383.3 2.60018C383.3 2.60018 377.1 1.80018 373.4 2.60018C372.4 2.80018 370.9 2.80019 369.5 2.70019C370.6 3.60019 371.5 4.60019 372.2 5.80019V6.90019C372.3 6.70019 372.4 6.40018 372.4 6.10018C372.9 6.80018 373.3 7.50019 373.7 8.20019C374.1 9.00019 374.6 9.80018 374.9 10.6002C375.2 11.6002 375.1 12.6002 374.8 13.7002C375.2 13.4002 375.6 13.1002 375.8 12.6002C376 13.2002 376.3 13.9002 376.5 14.6002C376.7 15.2002 376.8 15.7002 376.9 16.3002C377 16.9002 377.1 17.4002 377.2 18.0002C377.3 18.7002 377.4 19.3002 377.4 20.0002C377.2 21.5002 376.7 22.9002 375.6 23.9002C376.4 23.6002 376.9 23.2002 377.3 22.6002C377.2 23.4002 377.1 24.1002 376.9 24.9002C376.6 26.0002 376.3 27.1002 375.7 28.2002L375.1 29.2002C374.8 29.7002 374.4 30.1002 373.8 30.3002C373.8 29.9002 373.9 29.6002 373.9 29.2002C374 26.9002 374 24.5002 373.8 22.2002C373.5 17.5002 372.6 12.9002 370.8 8.60018C372.4 13.0002 373 17.6002 373.1 22.2002C373.1 22.7002 373.1 23.2002 373.1 23.7002C373.2 25.6002 373.2 27.4002 373.1 29.3002C373 30.5002 373 31.6002 372.8 32.8002C372.7 33.9002 372.5 35.0002 372.3 36.1002C376.4 36.2002 383.4 36.2002 383.4 36.2002C383.4 36.0002 383.4 34.1002 383.4 32.4002C383.4 32.2002 383.2 32.1002 382.9 32.0002Z" fill="#E85245"/>
<path d="M430.2 5.50048C428.1 6.30048 425.9 7.10048 423.8 7.80048L424.1 6.60048C426.5 5.80048 429 4.90048 430.9 4.20048V4.30048L430.2 5.50048ZM430.2 8.10048C428.1 8.90048 425.9 9.70048 423.8 10.4005L424.1 9.20048C426.5 8.40048 429 7.50048 430.9 6.80048V6.90048L430.2 8.10048ZM441.2 29.8005C441.2 27.6005 441.1 25.4005 441.1 23.3005C441.1 21.1005 440.9 18.8005 441 16.6005C441.1 14.0005 440.9 12.1005 440.9 9.80048C440.9 7.20048 441 5.30048 440.8 2.30048C440.1 2.00048 423.8 2.30048 423 2.20048C422.2 2.10048 422.1 2.40048 422.1 2.90048C422.1 5.20048 422.2 6.80048 422.2 9.10048C422.2 11.4005 422.2 13.5005 422.2 15.7005C422.2 17.9005 422.4 20.3005 422.4 22.5005C422.4 24.0005 422.4 25.6005 422.4 27.1005C422.5 26.9005 422.5 26.8005 422.6 26.6005C423.6 24.5005 424.8 23.0005 426.1 21.9005C425.9 21.7005 425.7 21.5005 425.4 21.1005C424.9 20.5005 424.6 19.7005 424.5 18.9005C424.5 18.6005 424.4 18.2005 424.4 17.9005C424.4 17.4005 424.5 17.0005 424.6 16.5005C424.8 15.8005 425.1 15.1005 425.5 14.6005C425.9 14.1005 426.4 13.9005 426.9 13.9005C427.3 13.9005 427.7 14.0005 428 14.0005C428.3 14.1005 428.7 14.2005 429.1 14.2005L428.2 17.1005C427.4 16.9005 426.6 16.7005 425.8 16.6005C425.9 17.2005 426 17.6005 426.2 17.9005C426.4 18.2005 426.7 18.5005 427 18.9005C427.3 19.2005 427.6 19.3005 428 19.3005C428.3 19.3005 428.7 19.2005 429.2 19.0005C430.1 18.5005 430.9 18.0005 431.6 17.3005L430.6 19.9005C430.4 20.3005 430.1 20.7005 429.5 21.2005C428.9 21.6005 428.4 22.1005 428 22.5005C427.7 22.8005 427.2 23.2005 426.4 23.9005C425.7 24.6005 425 25.3005 424.3 26.1005C423.6 26.9005 423.1 27.7005 422.8 28.4005C422.6 28.7005 422.6 29.1005 422.6 29.4005C422.6 29.8005 422.7 30.1005 423 30.3005C423.8 31.2005 424.7 31.8005 425.7 32.1005C426.8 32.5005 427.9 32.7005 429 32.7005C429.2 32.7005 429.4 32.7005 429.6 32.7005C430.6 32.7005 431.5 32.6005 432.5 32.5005C433.7 32.3005 434.8 32.1005 435.7 31.8005C435.8 31.8005 435.9 31.7005 436 31.7005C435.1 32.8005 433.9 33.7005 432.4 34.4005C431.4 34.9005 430.5 35.2005 429.5 35.4005C432.8 35.4005 441.2 35.5005 441.2 35.5005C441.2 35.2005 441.2 34.6005 441.2 34.3005C441.2 33.0005 441.2 31.4005 441.2 29.8005Z" fill="#062D39"/>
<path d="M423.9 35.2003C423.2 34.9003 422.7 34.4003 422.3 33.8003C422.3 34.8003 422.3 35.5003 422.4 35.6003C422.6 35.6003 424 35.7003 425.4 35.8003C424.9 35.7003 424.4 35.5003 423.9 35.2003Z" fill="#062D39"/>
<path d="M391.5 12.5004C391.2 13.2004 390.6 13.7004 389.9 14.0004C389.6 14.2004 389.3 14.3004 389 14.3004C388.7 14.4004 388.4 14.4004 388 14.4004H387.8C387.8 14.3004 388.3 14.0004 389.1 13.7004C389.9 13.3004 390.4 13.0004 390.6 12.7004C390.5 12.6004 390.1 12.5004 389.3 12.4004C389.1 12.4004 388.9 12.4004 388.7 12.4004C388.3 12.4004 388 12.5004 387.8 12.6004C387.7 12.7004 387.6 12.7004 387.5 12.8004C387.4 12.9004 387.3 13.0004 387.3 13.0004C387.3 12.9004 387.4 12.6004 387.6 12.2004C387.8 11.8004 388 11.4004 388.3 11.0004C388.5 10.8004 388.9 10.7004 389.5 10.7004H389.9C390.8 10.7004 391.3 10.9004 391.5 11.1004C391.6 11.2004 391.7 11.4004 391.7 11.6004C391.7 11.8004 391.6 12.1004 391.5 12.5004ZM393.7 16.7004C393.8 14.1004 393.6 12.2004 393.6 9.90037C393.6 7.30037 393.7 5.40038 393.5 2.40038C392.8 2.10038 389.2 2.20037 388.4 2.20037C387.6 2.10037 385.2 2.20037 385.2 2.70037C385.2 5.00037 385.3 6.90037 385.3 9.20037C385.3 11.5004 385.3 13.6004 385.3 15.8004C385.3 18.0004 385.5 20.4004 385.5 22.6004C385.5 24.4004 385.5 26.3004 385.5 28.1004C386.4 28.1004 387.2 27.9004 388 27.6004C389.4 27.1004 390.6 26.4004 391.5 25.5004V25.2004C391.5 24.5004 391.4 23.8004 391.3 23.2004C391.1 22.5004 391 21.9004 390.8 21.2004L392.4 17.6004C392.9 18.7004 393.2 19.4004 393.4 19.9004C393.5 20.0004 393.6 20.1004 393.7 20.2004C393.7 19.2004 393.7 17.9004 393.7 16.7004Z" fill="#6F3354"/>
<path d="M455.8 24.0002C455.7 22.4002 455.5 20.8002 455.5 18.4002C455.5 14.7002 455.9 12.4002 455.8 9.80019C455.7 7.00019 455.8 8.0002 455.8 5.2002C455.8 4.8002 455.8 3.3002 455.5 2.7002C455.5 2.7002 452.2 2.40019 448.8 2.30019C452.9 9.50019 454.6 15.8002 453.6 20.9002L450.1 24.4002L451.1 24.3002C451.1 24.3002 451.7 24.2002 452.6 24.1002C451.4 26.9002 449.5 28.6002 448.4 29.3002C448.4 29.2002 448.5 29.1002 448.5 29.0002C448.9 27.5002 449.2 25.9002 449.5 24.3002C450 20.9002 450.2 15.9002 448.9 11.3002C448.7 10.7002 448.5 10.2002 448.2 9.7002L448 9.4002C448 9.8002 448 10.1002 448 10.5002C448 10.9002 448.1 11.2002 448.2 11.6002C449.8 17.2002 449.2 23.8002 447.8 29.0002C447.8 29.1002 447.7 29.2002 447.7 29.3002C445.7 26.0002 444.6 22.3002 444.4 18.4002L447.1 19.6002L444.5 14.9002C444.6 14.2002 444.7 13.5002 444.8 12.8002L445 12.0002L448.8 2.2002C448.5 2.2002 448.1 2.2002 447.8 2.2002C445.9 2.2002 442.5 2.4002 442.5 2.4002C442.5 3.0002 442.5 3.90019 442.6 4.50019C442.6 5.40019 442.5 7.2002 442.6 8.2002C442.9 12.4002 442.8 14.0002 442.8 18.5002C442.8 21.0002 443.1 23.9002 443 26.3002C443 29.6002 443 32.0002 442.9 35.8002C442.9 35.8002 443.3 35.6002 444.3 35.8002C444.5 35.8002 444.9 35.9002 445.4 35.9002C445.5 35.6002 445.6 35.3002 445.8 35.0002C446.4 33.7002 447.1 32.1002 447.6 30.4002L447.8 30.7002L448.1 30.6002C448.1 30.6002 448.1 30.6002 448.2 30.5002L448.3 30.4002C447.9 31.9002 447.3 33.4002 446.7 34.6002C446.5 35.0002 446.3 35.5002 446 35.8002C449.4 35.9002 456 35.9002 456 35.9002C456 35.5002 456 31.2002 456 29.6002C455.6 27.1002 455.8 25.7002 455.8 24.0002Z" fill="#F29D42"/>
<path d="M8.00003 14.1002C6.40003 14.1002 5.50002 13.5002 5.30002 12.2002C4.80002 12.5002 4.30004 12.6002 3.60004 12.6002C3.20004 12.6002 2.90003 12.5002 2.50003 12.4002C2.20003 12.3002 1.90004 12.2002 1.60004 12.0002C1.40004 11.8002 1.20003 11.6002 1.00003 11.3002C0.900031 11.0002 0.800018 10.7002 0.800018 10.3002C0.800018 9.40019 1.20002 8.70019 1.90002 8.10019C2.70002 7.50019 3.70004 7.00019 5.10004 6.80019V5.80019L6.40002 5.60019L6.30002 11.3002C6.30002 11.8002 6.40004 12.1002 6.70004 12.3002C6.90004 12.5002 7.30002 12.6002 7.90002 12.6002L8.20004 12.8002V14.0002L8.00003 14.1002ZM2.80002 4.4002L1.80002 3.30019L2.80002 2.2002L3.80002 3.30019L2.80002 4.4002ZM3.90002 11.1002C4.40002 11.1002 4.90002 11.0002 5.30002 10.9002V8.2002C4.90002 8.2002 4.50004 8.3002 4.10004 8.4002C3.70004 8.5002 3.40004 8.60019 3.10004 8.80019C2.80004 9.00019 2.60002 9.1002 2.40002 9.4002C2.20002 9.6002 2.10004 9.80019 2.10004 10.1002C2.10004 10.3002 2.10004 10.5002 2.20004 10.6002C2.30004 10.7002 2.40004 10.8002 2.60004 10.9002C2.80004 11.0002 3.00004 11.0002 3.20004 11.1002C3.40004 11.1002 3.60002 11.1002 3.90002 11.1002ZM5.30002 4.4002L4.30002 3.30019L5.30002 2.2002L6.30002 3.30019L5.30002 4.4002Z" fill="#022535"/>
<path d="M7.80002 13.9001V12.7001L8.00003 12.6001H9.40002L9.70004 12.7001V13.9001L9.40002 14.1001H8.00003L7.80002 13.9001Z" fill="#022535"/>
<path d="M9.10004 13.9001V12.7001L9.40002 12.6001H10.7L11 12.7001V13.9001L10.7 14.1001H9.40002L9.10004 13.9001Z" fill="#022535"/>
<path d="M10.5 13.9001V12.7001L10.7 12.6001H12.1L12.4 12.7001V13.9001L12.1 14.1001H10.7L10.5 13.9001Z" fill="#022535"/>
<path d="M11.8 13.9001V12.7001L12.1 12.6001H13.4L13.7 12.7001V13.9001L13.4 14.1001H12.1L11.8 13.9001Z" fill="#022535"/>
<path d="M13.2 13.9001V12.7001L13.4 12.6001H14.8L15.1 12.7001V13.9001L14.8 14.1001H13.4L13.2 13.9001Z" fill="#022535"/>
<path d="M14.5 13.9001V12.7001L14.8 12.6001H16.1L16.4 12.7001V13.9001L16.1 14.1001H14.8L14.5 13.9001Z" fill="#022535"/>
<path d="M15.9 13.9001V12.7001L16.1 12.6001H17.5L17.8 12.7001V13.9001L17.5 14.1001H16.1L15.9 13.9001Z" fill="#022535"/>
<path d="M17.2 13.9001V12.7001L17.5 12.6001H18.8L19.1 12.7001V13.9001L18.8 14.1001H17.5L17.2 13.9001Z" fill="#022535"/>
<path d="M18.6 13.9001V12.7001L18.8 12.6001H20.2L20.5 12.7001V13.9001L20.2 14.1001H18.8L18.6 13.9001Z" fill="#022535"/>
<path d="M19.9 13.9001V12.7001L20.2 12.6001H21.5L21.8 12.7001V13.9001L21.5 14.1001H20.2L19.9 13.9001Z" fill="#022535"/>
<path d="M21.3 13.9001V12.7001L21.5 12.6001H22.9L23.1 12.7001V13.9001L22.9 14.1001H21.5L21.3 13.9001Z" fill="#022535"/>
<path d="M22.6 13.9001V12.7001L22.9 12.6001H24.2L24.5 12.7001V13.9001L24.2 14.1001H22.9L22.6 13.9001Z" fill="#022535"/>
<path d="M24 13.9001V12.7001L24.2 12.6001H25.6L25.8 12.7001V13.9001L25.6 14.1001H24.2L24 13.9001Z" fill="#022535"/>
<path d="M25.3 13.9001V12.7001L25.6 12.6001H26.9L27.2 12.7001V13.9001L26.9 14.1001H25.6L25.3 13.9001Z" fill="#022535"/>
<path d="M26.7 13.9001V12.7001L26.9 12.6001H28.3L28.5 12.7001V13.9001L28.3 14.1001H26.9L26.7 13.9001Z" fill="#022535"/>
<path d="M28 13.9001V12.7001L28.3 12.6001H29.6L29.9 12.7001V13.9001L29.6 14.1001H28.3L28 13.9001Z" fill="#022535"/>
<path d="M29.4 13.9001V12.7001L29.6 12.6001H31L31.2 12.7001V13.9001L31 14.1001H29.6L29.4 13.9001Z" fill="#022535"/>
<path d="M30.7 13.9001V12.7001L31 12.6001H32.3L32.6 12.7001V13.9001L32.3 14.1001H31L30.7 13.9001Z" fill="#022535"/>
<path d="M32.1 13.9001V12.7001L32.3 12.6001H33.7L33.9 12.7001V13.9001L33.7 14.1001H32.3L32.1 13.9001Z" fill="#022535"/>
<path d="M33.4 13.9001V12.7001L33.7 12.6001H35L35.3 12.7001V13.9001L35 14.1001H33.7L33.4 13.9001Z" fill="#022535"/>
<path d="M34.7 13.9001V12.7001L35 12.6001H36.4L36.6 12.7001V13.9001L36.4 14.1001H35L34.7 13.9001Z" fill="#022535"/>
<path d="M36.1 13.9001V12.7001L36.4 12.6001H37.7L38 12.7001V13.9001L37.7 14.1001H36.4L36.1 13.9001Z" fill="#022535"/>
<path d="M37.4 13.9001V12.7001L37.7 12.6001H39.1L39.3 12.7001V13.9001L39.1 14.1001H37.7L37.4 13.9001Z" fill="#022535"/>
<path d="M38.8 13.9001V12.7001L39.1 12.6001H40.4L40.7 12.7001V13.9001L40.4 14.1001H39.1L38.8 13.9001Z" fill="#022535"/>
<path d="M40.1 13.9001V12.7001L40.4 12.6001H41.8L42 12.7001V13.9001L41.8 14.1001H40.4L40.1 13.9001Z" fill="#022535"/>
<path d="M41.5 13.9001V12.7001L41.8 12.6001H43.1L43.4 12.7001V13.9001L43.1 14.1001H41.8L41.5 13.9001Z" fill="#022535"/>
<path d="M42.8 13.9001V12.7001L43.1 12.6001H44.5L44.7 12.7001V13.9001L44.5 14.1001H43.1L42.8 13.9001Z" fill="#022535"/>
<path d="M44.2 13.9001V12.7001L44.5 12.6001H45.8L46.1 12.7001V13.9001L45.8 14.1001H44.5L44.2 13.9001Z" fill="#022535"/>
<path d="M45.5 13.9001V12.7001L45.8 12.6001H47.2L47.4 12.7001V13.9001L47.2 14.1001H45.8L45.5 13.9001Z" fill="#022535"/>
<path d="M46.9 13.9001V12.7001L47.2 12.6001H48.5L48.8 12.7001V13.9001L48.5 14.1001H47.2L46.9 13.9001Z" fill="#022535"/>
<path d="M48.2 13.9001V12.7001L48.5 12.6001H49.9L50.1 12.7001V13.9001L49.9 14.1001H48.5L48.2 13.9001Z" fill="#022535"/>
<path d="M49.6 13.9001V12.7001L49.9 12.6001H51.2L51.5 12.7001V13.9001L51.2 14.1001H49.9L49.6 13.9001Z" fill="#022535"/>
<path d="M50.9 13.9001V12.7001L51.2 12.6001H52.6L52.8 12.7001V13.9001L52.6 14.1001H51.2L50.9 13.9001Z" fill="#022535"/>
<path d="M52.3 13.9001V12.7001L52.6 12.6001H53.9L54.2 12.7001V13.9001L53.9 14.1001H52.6L52.3 13.9001Z" fill="#022535"/>
<path d="M53.6 13.9001V12.7001L53.9 12.6001H55.3L55.5 12.7001V13.9001L55.3 14.1001H53.9L53.6 13.9001Z" fill="#022535"/>
<path d="M55 13.9001V12.7001L55.3 12.6001H56.6L56.9 12.7001V13.9001L56.6 14.1001H55.3L55 13.9001Z" fill="#022535"/>
<path d="M56.3 13.9001V12.7001L56.6 12.6001H57.9L58.2 12.7001V13.9001L57.9 14.1001H56.6L56.3 13.9001Z" fill="#022535"/>
<path d="M57.7 13.9001V12.7001L57.9 12.6001H59.3L59.6 12.7001V13.9001L59.3 14.1001H57.9L57.7 13.9001Z" fill="#022535"/>
<path d="M59 13.9001V12.7001L59.3 12.6001H60.6L60.9 12.7001V13.9001L60.6 14.1001H59.3L59 13.9001Z" fill="#022535"/>
<path d="M60.4 13.9001V12.7001L60.6 12.6001H62L62.3 12.7001V13.9001L62 14.1001H60.6L60.4 13.9001Z" fill="#022535"/>
<path d="M61.7 13.9001V12.7001L62 12.6001H63.3L63.6 12.7001V13.9001L63.3 14.1001H62L61.7 13.9001Z" fill="#022535"/>
<path d="M63.1 13.9001V12.7001L63.3 12.6001H64.7L65 12.7001V13.9001L64.7 14.1001H63.3L63.1 13.9001Z" fill="#022535"/>
<path d="M64.4 13.9001V12.7001L64.7 12.6001H66L66.3 12.7001V13.9001L66 14.1001H64.7L64.4 13.9001Z" fill="#022535"/>
<path d="M65.8 13.9001V12.7001L66 12.6001H67.4L67.7 12.7001V13.9001L67.4 14.1001H66L65.8 13.9001Z" fill="#022535"/>
<path d="M67.1 13.9001V12.7001L67.4 12.6001H68.7L69 12.7001V13.9001L68.7 14.1001H67.4L67.1 13.9001Z" fill="#022535"/>
<path d="M68.5 13.9001V12.7001L68.7 12.6001H70.1L70.4 12.7001V13.9001L70.1 14.1001H68.7L68.5 13.9001Z" fill="#022535"/>
<path d="M69.8 13.9001V12.7001L70.1 12.6001H71.4L71.7 12.7001V13.9001L71.4 14.1001H70.1L69.8 13.9001Z" fill="#022535"/>
<path d="M71.2 13.9001V12.7001L71.4 12.6001H72.8L73.1 12.7001V13.9001L72.8 14.1001H71.4L71.2 13.9001Z" fill="#022535"/>
<path d="M78 14.2002C77.4 14.2002 76.9 14.1002 76.4 13.8002C75.9 13.6002 75.5 13.2002 75.1 12.8002C74.8 13.2002 74.5 13.6002 74.1 13.8002C73.7 14.0002 73.3 14.1002 72.7 14.1002L72.4 13.9002V12.7002L72.7 12.5002C72.9 12.5002 73.1 12.5002 73.3 12.4002C73.5 12.4002 73.6 12.3002 73.8 12.2002C74 12.1002 74.1 12.0002 74.2 11.8002C74.3 11.7002 74.4 11.5002 74.6 11.2002L75.5 9.50019C75.9 8.90019 76.2 8.40019 76.6 8.10019C77 7.80019 77.4 7.7002 77.9 7.7002C78.3 7.7002 78.6 7.80019 78.9 8.00019C79.2 8.20019 79.5 8.40019 79.8 8.80019C80 9.10019 80.2 9.5002 80.4 9.9002C80.5 10.3002 80.6 10.8002 80.6 11.3002C80.6 12.2002 80.4 12.8002 79.9 13.3002C79.5 14.0002 78.9 14.2002 78 14.2002ZM75.8 11.6002C76 11.9002 76.4 12.2002 76.8 12.4002C77.2 12.6002 77.7 12.7002 78.1 12.7002C78.5 12.7002 78.9 12.6002 79.1 12.3002C79.3 12.1002 79.5 11.7002 79.5 11.3002C79.5 11.0002 79.5 10.8002 79.4 10.5002C79.3 10.3002 79.2 10.0002 79 9.9002C78.8 9.7002 78.7 9.60019 78.5 9.50019C78.3 9.40019 78.1 9.30019 77.9 9.30019C77.3 9.30019 76.8 9.70019 76.4 10.5002L75.8 11.6002ZM82.1 14.1002C81.4 14.1002 80.9 14.0002 80.4 13.7002C79.9 13.4002 79.6 13.1002 79.5 12.6002L80.4 11.5002C80.4 11.8002 80.5 12.1002 80.8 12.3002C81.1 12.5002 81.5 12.6002 82.1 12.6002L82.4 12.8002V14.0002L82.1 14.1002Z" fill="#022535"/>
<path d="M86.1 17.2001L85.1 16.2001L86.1 15.1001L87.2 16.2001L86.1 17.2001Z" fill="#022535"/>
<path d="M86.2 11.3004C86.6 11.1004 87 10.9004 87.3 10.8004C87.6 10.7004 87.9 10.5004 88.2 10.5004L87.3 10.1004C86.9 9.90039 86.6 9.80039 86.3 9.70039C86 9.60039 85.8 9.50039 85.6 9.40039C85.4 9.30039 85.2 9.30039 85.1 9.30039C84.9 9.30039 84.8 9.30039 84.6 9.30039C84.3 9.30039 84.1 9.30039 83.9 9.50039C83.7 9.60039 83.5 9.80039 83.2 10.1004L82.4 9.50039C82.7 9.00039 83 8.60039 83.4 8.30039C83.8 8.10039 84.2 7.90039 84.8 7.90039C85 7.90039 85.1 7.90039 85.3 7.90039C85.5 7.90039 85.7 8.00039 85.9 8.00039C86.1 8.10039 86.4 8.10039 86.6 8.30039C86.9 8.40039 87.2 8.60039 87.6 8.70039C87.9 8.80039 88.2 8.90039 88.4 9.00039C88.6 9.10039 88.8 9.20039 89 9.20039C89.2 9.30039 89.3 9.30039 89.5 9.30039C89.6 9.30039 89.8 9.30039 89.9 9.30039H90.2V10.7004C89.9 10.8004 89.7 10.8004 89.4 10.9004C89.2 11.0004 88.9 11.1004 88.6 11.2004C88.3 11.3004 88 11.5004 87.7 11.6004C87.4 11.8004 87 12.0004 86.6 12.2004C86.1 12.5004 85.6 12.8004 85.1 13.0004C84.7 13.2004 84.3 13.4004 83.9 13.5004C83.5 13.6004 83.2 13.7004 82.8 13.8004C82.5 13.9004 82.1 13.9004 81.7 13.9004L81.4 13.7004V12.5004L81.7 12.3004C82 12.3004 82.3 12.3004 82.7 12.2004C83 12.2004 83.3 12.1004 83.7 12.0004C84 11.9004 84.4 11.8004 84.7 11.6004C85.4 11.7004 85.8 11.6004 86.2 11.3004Z" fill="#022535"/>
<path d="M91.1 16.1003C91.7 15.9003 92.3 15.6003 92.8 15.3003C93.3 15.0003 93.8 14.7003 94.1 14.4003C94.5 14.1003 94.8 13.8003 95 13.4003C95.2 13.1003 95.3 12.8003 95.3 12.5003C95.3 12.2003 95.2 11.9003 95.1 11.4003C94.9 10.9003 94.7 10.4003 94.4 9.9003L95.7 9.30029C96 9.80029 96.2 10.3003 96.3 10.9003C96.4 11.4003 96.5 11.9003 96.5 12.4003C96.5 13.5003 96.1 14.4003 95.3 15.3003C94.5 16.2003 93.3 16.9003 91.9 17.4003L91.1 16.1003Z" fill="#022535"/>
<path d="M99 7.9002L98 6.80019L99 5.7002L100 6.80019L99 7.9002ZM101.5 7.9002L100.5 6.80019L101.5 5.7002L102.5 6.80019L101.5 7.9002Z" fill="#022535"/>
<path d="M102.2 14.1003C101.2 14.1003 100.5 13.9003 100 13.5003C99.5 13.1003 99.3 12.5003 99.3 11.8003C99.3 11.6003 99.3 11.3003 99.4 11.0003C99.2 11.0003 99 11.1003 98.7 11.1003C98.5 11.1003 98.2 11.1003 98 11.1003C97.8 11.1003 97.6 11.1003 97.4 11.1003C97.2 11.1003 96.9 11.0003 96.7 11.0003C96.5 11.0003 96.2 10.9003 96 10.9003C95.8 10.9003 95.6 10.8003 95.5 10.7003L95.8 9.4003C95.9 9.4003 96.1 9.50029 96.3 9.50029C96.5 9.50029 96.7 9.60029 96.9 9.60029C97.1 9.60029 97.3 9.60029 97.5 9.60029C97.7 9.60029 97.9 9.60029 98.1 9.60029C98.6 9.60029 99.1 9.60029 99.5 9.50029C99.9 9.40029 100.4 9.40029 100.7 9.30029C100.7 9.50029 100.7 9.7003 100.6 9.9003C100.6 10.1003 100.5 10.3003 100.5 10.5003C100.5 10.7003 100.5 10.9003 100.5 11.0003C100.5 11.2003 100.5 11.3003 100.5 11.3003C100.5 11.8003 100.6 12.1003 100.9 12.3003C101.2 12.5003 101.6 12.6003 102.2 12.6003L102.5 12.8003V14.0003L102.2 14.1003Z" fill="#022535"/>
<path d="M101.9 13.9002V12.7002L102.2 12.5002C102.4 12.5002 102.7 12.5002 102.9 12.5002C103.1 12.5002 103.3 12.4002 103.5 12.4002C103.7 12.3002 103.8 12.2002 104 12.1002C104.1 12.0002 104.2 11.9002 104.2 11.7002L104.1 3.4002L105.4 3.2002L105.3 11.6002C105.3 12.1002 105.2 12.5002 105 12.8002C104.8 13.1002 104.6 13.4002 104.3 13.6002C104 13.8002 103.7 13.9002 103.3 14.0002C102.9 14.1002 102.5 14.1002 102.1 14.1002L101.9 13.9002Z" fill="#022535"/>
<path d="M107.7 14.1002L107.6 3.4002L108.9 3.2002L108.8 14.1002H107.7Z" fill="#022535"/>
<path d="M110.9 16.1005C113.3 15.8005 114.7 14.9005 115.1 13.5005C114.9 13.7005 114.6 13.8005 114.3 13.9005C114 14.0005 113.7 14.0005 113.3 14.0005C112.6 14.0005 112 13.7005 111.5 13.2005C111.1 12.7005 110.8 12.0005 110.8 11.2005C110.8 10.7005 110.9 10.3005 111 9.90049C111.1 9.50049 111.3 9.20049 111.6 8.90049C111.8 8.60049 112.1 8.40049 112.4 8.20049C112.7 8.00049 113.1 8.00049 113.5 8.00049C114.4 8.00049 115.1 8.40049 115.5 9.20049C116 10.0005 116.2 11.1005 116.2 12.5005C116.2 13.2005 116.1 13.8005 115.9 14.4005C115.7 15.0005 115.3 15.5005 114.9 15.9005C114.5 16.3005 114 16.7005 113.4 17.0005C112.8 17.3005 112.1 17.5005 111.4 17.6005L110.9 16.1005ZM113.6 12.6005C113.9 12.6005 114.2 12.6005 114.5 12.5005C114.8 12.4005 115 12.3005 115.2 12.2005C115.2 11.3005 115 10.6005 114.7 10.1005C114.4 9.60049 114 9.40049 113.5 9.40049C113.1 9.40049 112.7 9.60049 112.4 9.90049C112.1 10.2005 112 10.7005 112 11.2005C112 11.7005 112.1 12.0005 112.4 12.3005C112.7 12.5005 113.1 12.6005 113.6 12.6005Z" fill="#022535"/>
<path d="M127 14.1003C126.2 14.1003 125.6 13.9003 125.1 13.6003C124.9 14.4003 124.3 15.1003 123.6 15.8003C122.8 16.5003 121.9 17.0003 120.7 17.4003L119.9 16.1003C121.1 15.6003 122.1 15.1003 122.9 14.5003C123.7 13.9003 124.1 13.2003 124.2 12.6003C124 12.3003 123.9 11.9003 123.7 11.5003C123.5 11.1003 123.3 10.5003 123.1 9.9003L124.4 9.30029C124.5 9.70029 124.7 10.1003 124.8 10.5003C124.9 10.9003 125 11.2003 125.1 11.4003C125.2 11.6003 125.3 11.8003 125.4 12.0003C125.5 12.1003 125.6 12.3003 125.8 12.4003C125.9 12.5003 126.1 12.6003 126.3 12.6003C126.5 12.6003 126.7 12.7003 127 12.7003L127.3 12.9003V14.1003H127Z" fill="#022535"/>
<path d="M126.7 13.9001V12.7001L127 12.6001H128.3L128.6 12.7001V13.9001L128.3 14.1001H127L126.7 13.9001Z" fill="#022535"/>
<path d="M128.1 13.9001V12.7001L128.3 12.6001H129.7L130 12.7001V13.9001L129.7 14.1001H128.3L128.1 13.9001Z" fill="#022535"/>
<path d="M129.4 13.9001V12.7001L129.7 12.6001H131L131.3 12.7001V13.9001L131 14.1001H129.7L129.4 13.9001Z" fill="#022535"/>
<path d="M130.8 13.9001V12.7001L131 12.6001H132.4L132.6 12.7001V13.9001L132.4 14.1001H131L130.8 13.9001Z" fill="#022535"/>
<path d="M132.1 13.9001V12.7001L132.4 12.6001H133.7L134 12.7001V13.9001L133.7 14.1001H132.4L132.1 13.9001Z" fill="#022535"/>
<path d="M133.5 13.9001V12.7001L133.7 12.6001H135.1L135.3 12.7001V13.9001L135.1 14.1001H133.7L133.5 13.9001Z" fill="#022535"/>
<path d="M134.8 13.9001V12.7001L135.1 12.6001H136.4L136.7 12.7001V13.9001L136.4 14.1001H135.1L134.8 13.9001Z" fill="#022535"/>
<path d="M136.2 13.9001V12.7001L136.4 12.6001H137.8L138 12.7001V13.9001L137.8 14.1001H136.4L136.2 13.9001Z" fill="#022535"/>
<path d="M137.5 13.9001V12.7001L137.8 12.6001H139.1L139.4 12.7001V13.9001L139.1 14.1001H137.8L137.5 13.9001Z" fill="#022535"/>
<path d="M138.9 13.9001V12.7001L139.1 12.6001H140.5L140.7 12.7001V13.9001L140.5 14.1001H139.1L138.9 13.9001Z" fill="#022535"/>
<path d="M140.2 13.9001V12.7001L140.5 12.6001H141.8L142.1 12.7001V13.9001L141.8 14.1001H140.5L140.2 13.9001Z" fill="#022535"/>
<path d="M141.6 13.9001V12.7001L141.8 12.6001H143.2L143.4 12.7001V13.9001L143.2 14.1001H141.8L141.6 13.9001Z" fill="#022535"/>
<path d="M142.9 13.9001V12.7001L143.2 12.6001H144.5L144.8 12.7001V13.9001L144.5 14.1001H143.2L142.9 13.9001Z" fill="#022535"/>
<path d="M144.2 13.9001V12.7001L144.5 12.6001H145.9L146.1 12.7001V13.9001L145.9 14.1001H144.5L144.2 13.9001Z" fill="#022535"/>
<path d="M145.6 13.9001V12.7001L145.9 12.6001H147.2L147.5 12.7001V13.9001L147.2 14.1001H145.9L145.6 13.9001Z" fill="#022535"/>
<path d="M146.9 13.9001V12.7001L147.2 12.6001H148.6L148.8 12.7001V13.9001L148.6 14.1001H147.2L146.9 13.9001Z" fill="#022535"/>
<path d="M148.3 13.9001V12.7001L148.6 12.6001H149.9L150.2 12.7001V13.9001L149.9 14.1001H148.6L148.3 13.9001Z" fill="#022535"/>
<path d="M149.6 13.9001V12.7001L149.9 12.6001H151.3L151.5 12.7001V13.9001L151.3 14.1001H149.9L149.6 13.9001Z" fill="#022535"/>
<path d="M151 13.9001V12.7001L151.3 12.6001H152.6L152.9 12.7001V13.9001L152.6 14.1001H151.3L151 13.9001Z" fill="#022535"/>
<path d="M152.3 13.9001V12.7001L152.6 12.6001H154L154.2 12.7001V13.9001L154 14.1001H152.6L152.3 13.9001Z" fill="#022535"/>
<path d="M153.7 13.9001V12.7001L154 12.6001H155.3L155.6 12.7001V13.9001L155.3 14.1001H154L153.7 13.9001Z" fill="#022535"/>
<path d="M155 13.9001V12.7001L155.3 12.6001H156.7L156.9 12.7001V13.9001L156.7 14.1001H155.3L155 13.9001Z" fill="#022535"/>
<path d="M156.4 13.9001V12.7001L156.7 12.6001H158L158.3 12.7001V13.9001L158 14.1001H156.7L156.4 13.9001Z" fill="#022535"/>
<path d="M157.7 13.9001V12.7001L158 12.6001H159.4L159.6 12.7001V13.9001L159.4 14.1001H158L157.7 13.9001Z" fill="#022535"/>
<path d="M159.1 13.9001V12.7001L159.4 12.6001H160.7L161 12.7001V13.9001L160.7 14.1001H159.4L159.1 13.9001Z" fill="#022535"/>
<path d="M160.4 13.9001V12.7001L160.7 12.6001H162.1L162.3 12.7001V13.9001L162.1 14.1001H160.7L160.4 13.9001Z" fill="#022535"/>
<path d="M161.8 13.9001V12.7001L162.1 12.6001H163.4L163.7 12.7001V13.9001L163.4 14.1001H162.1L161.8 13.9001Z" fill="#022535"/>
<path d="M163.1 13.9001V12.7001L163.4 12.6001H164.8L165 12.7001V13.9001L164.8 14.1001H163.4L163.1 13.9001Z" fill="#022535"/>
<path d="M164.5 13.9001V12.7001L164.8 12.6001H166.1L166.4 12.7001V13.9001L166.1 14.1001H164.8L164.5 13.9001Z" fill="#022535"/>
<path d="M165.8 13.9001V12.7001L166.1 12.6001H167.5L167.7 12.7001V13.9001L167.5 14.1001H166.1L165.8 13.9001Z" fill="#022535"/>
<path d="M167.2 13.9001V12.7001L167.4 12.6001H168.8L169.1 12.7001V13.9001L168.8 14.1001H167.4L167.2 13.9001Z" fill="#022535"/>
<path d="M168.5 13.9001V12.7001L168.8 12.6001H170.1L170.4 12.7001V13.9001L170.1 14.1001H168.8L168.5 13.9001Z" fill="#022535"/>
<path d="M169.9 13.9001V12.7001L170.1 12.6001H171.5L171.8 12.7001V13.9001L171.5 14.1001H170.1L169.9 13.9001Z" fill="#022535"/>
<path d="M171.2 13.9001V12.7001L171.5 12.6001H172.8L173.1 12.7001V13.9001L172.8 14.1001H171.5L171.2 13.9001Z" fill="#022535"/>
<path d="M172.6 13.9001V12.7001L172.8 12.6001H174.2L174.5 12.7001V13.9001L174.2 14.1001H172.8L172.6 13.9001Z" fill="#022535"/>
<path d="M173.9 13.9001V12.7001L174.2 12.6001H175.5L175.8 12.7001V13.9001L175.5 14.1001H174.2L173.9 13.9001Z" fill="#022535"/>
<path d="M175.3 13.9001V12.7001L175.5 12.6001H176.9L177.2 12.7001V13.9001L176.9 14.1001H175.5L175.3 13.9001Z" fill="#022535"/>
<path d="M176.6 13.9001V12.7001L176.9 12.6001H178.2L178.5 12.7001V13.9001L178.2 14.1001H176.9L176.6 13.9001Z" fill="#022535"/>
<path d="M178 13.9001V12.7001L178.2 12.6001H179.6L179.9 12.7001V13.9001L179.6 14.1001H178.2L178 13.9001Z" fill="#022535"/>
<path d="M179.3 13.9001V12.7001L179.6 12.6001H180.9L181.2 12.7001V13.9001L180.9 14.1001H179.6L179.3 13.9001Z" fill="#022535"/>
<path d="M180.7 13.9001V12.7001L180.9 12.6001H182.3L182.6 12.7001V13.9001L182.3 14.1001H180.9L180.7 13.9001Z" fill="#022535"/>
<path d="M182 13.9001V12.7001L182.3 12.6001H183.6L183.9 12.7001V13.9001L183.6 14.1001H182.3L182 13.9001Z" fill="#022535"/>
<path d="M183.4 13.9001V12.7001L183.6 12.6001H185L185.3 12.7001V13.9001L185 14.1001H183.6L183.4 13.9001Z" fill="#022535"/>
<path d="M184.7 13.9001V12.7001L185 12.6001H186.3L186.6 12.7001V13.9001L186.3 14.1001H185L184.7 13.9001Z" fill="#022535"/>
<path d="M186.1 13.9001V12.7001L186.3 12.6001H187.7L188 12.7001V13.9001L187.7 14.1001H186.3L186.1 13.9001Z" fill="#022535"/>
<path d="M187.4 13.9001V12.7001L187.7 12.6001H189L189.3 12.7001V13.9001L189 14.1001H187.7L187.4 13.9001Z" fill="#022535"/>
<path d="M188.8 13.9004V12.7004L189.1 12.5004C189.4 12.5004 189.7 12.5004 190 12.4004C190.2 12.3004 190.4 12.2004 190.6 12.1004C190.8 11.9004 190.9 11.7004 191 11.4004C191.1 11.1004 191.3 10.6004 191.4 10.1004L192.5 10.4004C192.4 11.2004 192.2 11.8004 192 12.2004C191.8 12.7004 191.6 13.1004 191.4 13.3004C191.2 13.6004 190.8 13.8004 190.5 13.9004C190.1 14.0004 189.7 14.1004 189.1 14.1004L188.8 13.9004ZM201 9.20039C201 9.60039 200.9 10.0004 200.9 10.3004C200.9 10.6004 200.8 10.9004 200.8 11.1004C200.8 11.3004 200.7 11.6004 200.7 11.8004C200.7 12.0004 200.6 12.2004 200.6 12.3004C200.3 13.5004 199.4 14.0004 197.9 14.0004C196.9 14.0004 196.2 13.7004 195.8 13.1004C195.6 13.4004 195.3 13.6004 194.9 13.8004C194.5 14.0004 194.1 14.0004 193.6 14.0004C192.9 14.0004 192.3 13.8004 191.9 13.5004C191.5 13.1004 191.2 12.6004 191.1 12.0004L191.7 10.9004C191.8 11.5004 192 11.9004 192.3 12.1004C192.6 12.4004 193 12.5004 193.6 12.5004C194.5 12.5004 195.1 12.1004 195.2 11.4004C195.2 11.3004 195.3 11.1004 195.3 10.9004C195.3 10.7004 195.4 10.5004 195.4 10.3004C195.4 10.1004 195.5 9.90039 195.5 9.70039C195.5 9.50039 195.5 9.30039 195.6 9.20039L196.7 9.30039C196.6 9.80039 196.6 10.2004 196.5 10.6004C196.5 11.0004 196.4 11.2004 196.4 11.3004C196.4 11.6004 196.5 11.9004 196.8 12.1004C197.1 12.3004 197.4 12.4004 197.9 12.4004C198.8 12.4004 199.3 12.1004 199.4 11.4004C199.4 11.3004 199.4 11.2004 199.5 11.0004C199.5 10.8004 199.6 10.6004 199.6 10.4004C199.6 10.2004 199.7 9.90039 199.7 9.70039C199.7 9.50039 199.7 9.20039 199.8 9.00039L201 9.20039ZM195.1 7.30039L194.1 6.20039L195.1 5.10039L196.1 6.20039L195.1 7.30039ZM196.3 5.10039L195.3 4.00039L196.3 2.90039L197.3 4.00039L196.3 5.10039ZM197.5 7.30039L196.5 6.20039L197.5 5.10039L198.5 6.20039L197.5 7.30039ZM202.3 14.1004C201.6 14.1004 201.1 14.0004 200.6 13.7004C200.1 13.4004 199.8 13.1004 199.7 12.6004L200.6 11.5004C200.6 11.8004 200.7 12.1004 201 12.3004C201.3 12.5004 201.7 12.6004 202.3 12.6004L202.6 12.8004V14.0004L202.3 14.1004Z" fill="#022535"/>
<path d="M207.9 14.1003C206.6 14.1003 205.7 13.7003 205.3 13.0003C205.1 13.4003 204.7 13.6003 204.2 13.8003C203.7 14.0003 203.1 14.1003 202.4 14.1003L202.1 13.9003V12.7003L202.4 12.5003C203.1 12.5003 203.7 12.4003 204 12.2003C204.4 12.0003 204.6 11.7003 204.7 11.4003C204.7 11.3003 204.8 11.1003 204.8 10.9003C204.8 10.7003 204.9 10.5003 204.9 10.3003C204.9 10.1003 205 9.90029 205 9.70029C205 9.50029 205 9.30029 205.1 9.20029L206.2 9.30029C206.1 9.80029 206.1 10.2003 206 10.6003C206 11.0003 205.9 11.2003 205.9 11.3003C205.9 12.0003 206.6 12.3003 207.9 12.3003L208.2 12.5003V13.7003L207.9 14.1003ZM205.6 8.00029L204.6 6.9003L205.6 5.80029L206.6 6.9003L205.6 8.00029Z" fill="#022535"/>
<path d="M207.6 13.9002V12.7002L207.9 12.5002C208.1 12.5002 208.4 12.5002 208.6 12.5002C208.8 12.5002 209 12.4002 209.2 12.4002C209.4 12.3002 209.5 12.2002 209.7 12.1002C209.8 12.0002 209.9 11.9002 209.9 11.7002L209.8 3.4002L211.1 3.2002L211 11.6002C211 12.1002 210.9 12.5002 210.7 12.8002C210.5 13.1002 210.3 13.4002 210 13.6002C209.7 13.8002 209.4 13.9002 209 14.0002C208.6 14.1002 208.2 14.1002 207.8 14.1002L207.6 13.9002Z" fill="#022535"/>
<path d="M213.4 14.1002L213.3 3.4002L214.6 3.2002L214.5 14.1002H213.4Z" fill="#022535"/>
<path d="M216.6 16.1005C219 15.8005 220.4 14.9005 220.8 13.5005C220.6 13.7005 220.3 13.8005 220 13.9005C219.7 14.0005 219.4 14.0005 219 14.0005C218.3 14.0005 217.7 13.7005 217.2 13.2005C216.7 12.7005 216.5 12.0005 216.5 11.2005C216.5 10.7005 216.6 10.3005 216.7 9.90049C216.8 9.50049 217 9.20049 217.3 8.90049C217.5 8.60049 217.8 8.40049 218.1 8.20049C218.4 8.00049 218.8 8.00049 219.2 8.00049C220.1 8.00049 220.8 8.40049 221.2 9.20049C221.7 10.0005 221.9 11.1005 221.9 12.5005C221.9 13.2005 221.8 13.8005 221.6 14.4005C221.4 15.0005 221 15.5005 220.6 15.9005C220.2 16.3005 219.7 16.7005 219.1 17.0005C218.5 17.3005 217.8 17.5005 217.1 17.6005L216.6 16.1005ZM219.3 12.6005C219.6 12.6005 219.9 12.6005 220.2 12.5005C220.5 12.4005 220.7 12.3005 220.9 12.2005C220.9 11.3005 220.7 10.6005 220.4 10.1005C220.1 9.60049 219.7 9.40049 219.2 9.40049C218.8 9.40049 218.4 9.60049 218.1 9.90049C217.8 10.2005 217.7 10.7005 217.7 11.2005C217.7 11.7005 217.8 12.0005 218.1 12.3005C218.4 12.5005 218.8 12.6005 219.3 12.6005Z" fill="#022535"/>
<path d="M237.1 7.40039C237.2 7.70039 237.4 8.00039 237.5 8.30039C237.6 8.60039 237.7 9.00039 237.8 9.30039C237.9 9.70039 238 10.0004 238 10.4004C238.1 10.8004 238.1 11.1004 238.1 11.4004C238.1 12.3004 237.6 13.0004 236.7 13.5004C235.8 13.9004 234.3 14.2004 232.3 14.2004C231.3 14.2004 230.4 14.1004 229.7 14.0004C229 13.9004 228.4 13.7004 227.9 13.4004C227.4 13.1004 227.1 12.8004 226.9 12.4004C226.7 12.0004 226.6 11.5004 226.6 11.0004C226.6 10.5004 226.7 10.0004 226.9 9.50039C227.1 9.00039 227.3 8.40039 227.6 7.90039L228.5 8.30039C228.3 8.70039 228.2 9.10039 228.1 9.40039C228 9.80039 228 10.1004 228 10.4004C228 10.8004 228.1 11.1004 228.2 11.4004C228.4 11.7004 228.6 11.9004 229 12.0004C229.4 12.2004 229.8 12.3004 230.4 12.4004C231 12.5004 231.7 12.5004 232.5 12.5004C233.1 12.5004 233.7 12.5004 234.3 12.4004C234.9 12.3004 235.3 12.3004 235.7 12.2004C236.1 12.1004 236.4 12.0004 236.7 11.9004C236.9 11.8004 237.1 11.6004 237.1 11.5004C237.1 11.3004 237.1 11.0004 237 10.8004C236.9 10.5004 236.9 10.2004 236.8 9.90039C236.7 9.60039 236.6 9.30039 236.5 9.00039C236.4 8.70039 236.2 8.40039 236.1 8.10039L237.1 7.40039ZM232.4 17.6004L231.4 16.5004L232.4 15.4004L233.4 16.5004L232.4 17.6004Z" fill="#022535"/>
<path d="M239.4 12.5005C239.7 12.6005 240 12.6005 240.4 12.6005C240.7 12.6005 241.1 12.6005 241.4 12.6005C241.7 12.6005 242.1 12.6005 242.4 12.5005C242.7 12.5005 243 12.4005 243.3 12.4005C243.5 12.3005 243.7 12.3005 243.9 12.2005C244.1 12.1005 244.1 12.1005 244.1 12.0005C244.1 11.7005 244 11.4005 243.9 11.1005C243.8 10.8005 243.6 10.4005 243.4 10.1005C243.2 9.70049 242.9 9.40049 242.6 9.00049C242.3 8.60049 241.9 8.30049 241.6 8.00049L242.6 7.00049C243 7.40049 243.4 7.80049 243.7 8.20049C244 8.60049 244.3 9.00049 244.6 9.50049C244.8 9.90049 245 10.4005 245.1 10.8005C245.2 11.2005 245.3 11.6005 245.3 12.0005C245.3 12.8005 245 13.3005 244.4 13.7005C243.8 14.0005 242.8 14.2005 241.5 14.2005C241.3 14.2005 241 14.2005 240.7 14.2005C240.4 14.2005 240.1 14.1005 239.9 14.1005L239.4 12.5005Z" fill="#022535"/>
<path d="M247.8 2.9003C246.9 3.0003 246 3.1003 245.2 3.4003L245 2.80029C245.2 2.70029 245.3 2.70029 245.4 2.60029C245.5 2.60029 245.7 2.50029 245.8 2.50029C245.4 2.30029 245.2 2.00029 245.2 1.60029C245.2 1.20029 245.3 0.900294 245.6 0.700294C245.9 0.400294 246.2 0.300293 246.5 0.300293C246.9 0.300293 247.2 0.400294 247.4 0.700294L247.1 1.20029C246.9 1.10029 246.8 1.00029 246.6 1.00029C246.4 1.00029 246.2 1.10029 246.1 1.20029C246 1.30029 245.9 1.40029 245.9 1.60029C245.9 1.80029 246 1.90029 246.2 2.00029C246.4 2.10029 246.6 2.20029 246.9 2.20029C247.1 2.20029 247.3 2.10029 247.4 2.10029C247.6 2.10029 247.7 2.10029 247.9 2.00029L247.8 2.9003ZM246.5 12.5003C246.7 12.3003 247 12.1003 247.3 11.8003C247.6 11.5003 247.8 11.3003 248.1 11.0003C248.4 10.7003 248.6 10.4003 248.8 10.1003C249 9.80029 249.3 9.50029 249.5 9.20029C248.9 8.50029 248.3 7.90029 247.7 7.30029C247 6.70029 246.4 6.10029 245.7 5.60029L246.6 4.50029C246.9 4.70029 247.2 5.00029 247.5 5.30029C247.8 5.60029 248.1 5.90029 248.4 6.20029C248.7 6.50029 249 6.80029 249.3 7.20029C249.6 7.50029 249.9 7.80029 250.1 8.10029C250.4 7.50029 250.7 6.80029 250.8 6.00029C251 5.20029 251 4.4003 251.1 3.4003L252.4 3.20029C252.4 4.30029 252.3 5.30029 252 6.30029C251.7 7.30029 251.4 8.20029 250.9 9.10029C251.5 9.90029 251.9 10.5003 252.2 11.0003C252.5 11.5003 252.6 12.0003 252.6 12.4003C252.6 13.0003 252.3 13.5003 251.8 13.8003C251.2 14.1003 250.4 14.3003 249.4 14.3003C248.9 14.3003 248.4 14.3003 247.9 14.2003C247.4 14.1003 247 14.0003 246.8 13.9003L246.5 12.5003ZM251.4 12.1003C251.4 12.0003 251.4 11.9003 251.3 11.8003C251.2 11.7003 251.2 11.5003 251.1 11.3003C251 11.1003 250.9 10.9003 250.7 10.7003C250.6 10.5003 250.4 10.3003 250.2 10.1003C249.9 10.6003 249.6 11.0003 249.2 11.4003C248.9 11.8003 248.5 12.2003 248.1 12.6003C248.3 12.6003 248.5 12.7003 248.7 12.7003C248.9 12.7003 249.2 12.7003 249.4 12.7003C250 12.7003 250.4 12.6003 250.8 12.5003C251.2 12.5003 251.4 12.3003 251.4 12.1003Z" fill="#022535"/>
<path d="M254.5 14.1002L254.4 3.4002L255.7 3.2002V14.1002H254.5Z" fill="#022535"/>
<path d="M267.6 14.1002C266 14.1002 265.1 13.5002 264.9 12.2002C264.4 12.5002 263.9 12.6002 263.2 12.6002C262.8 12.6002 262.5 12.5002 262.1 12.4002C261.8 12.3002 261.5 12.2002 261.2 12.0002C261 11.8002 260.8 11.6002 260.6 11.3002C260.5 11.0002 260.4 10.7002 260.4 10.3002C260.4 9.40019 260.8 8.70019 261.5 8.10019C262.3 7.50019 263.3 7.00019 264.7 6.80019V5.80019L266 5.60019L265.9 11.3002C265.9 11.8002 266 12.1002 266.3 12.3002C266.5 12.5002 266.9 12.6002 267.5 12.6002L267.8 12.8002V14.0002L267.6 14.1002ZM262.4 4.4002L261.4 3.30019L262.4 2.2002L263.4 3.30019L262.4 4.4002ZM263.4 11.1002C263.9 11.1002 264.4 11.0002 264.8 10.9002V8.2002C264.4 8.2002 264 8.3002 263.6 8.4002C263.2 8.5002 262.9 8.60019 262.6 8.80019C262.3 9.00019 262.1 9.1002 261.9 9.4002C261.7 9.6002 261.6 9.80019 261.6 10.1002C261.6 10.3002 261.6 10.5002 261.7 10.6002C261.8 10.7002 261.9 10.8002 262.1 10.9002C262.3 11.0002 262.5 11.0002 262.7 11.1002C263 11.1002 263.2 11.1002 263.4 11.1002ZM264.9 4.4002L263.9 3.30019L264.9 2.2002L265.9 3.30019L264.9 4.4002Z" fill="#022535"/>
<path d="M267.3 13.9001V12.7001L267.6 12.6001H269L269.2 12.7001V13.9001L269 14.1001H267.6L267.3 13.9001Z" fill="#022535"/>
<path d="M268.7 13.9001V12.7001L269 12.6001H270.3L270.6 12.7001V13.9001L270.3 14.1001H269L268.7 13.9001Z" fill="#022535"/>
<path d="M270 13.9001V12.7001L270.3 12.6001H271.7L271.9 12.7001V13.9001L271.7 14.1001H270.3L270 13.9001Z" fill="#022535"/>
<path d="M271.4 13.9001V12.7001L271.7 12.6001H273L273.3 12.7001V13.9001L273 14.1001H271.7L271.4 13.9001Z" fill="#022535"/>
<path d="M272.7 13.9001V12.7001L273 12.6001H274.4L274.6 12.7001V13.9001L274.4 14.1001H273L272.7 13.9001Z" fill="#022535"/>
<path d="M274.1 13.9001V12.7001L274.4 12.6001H275.7L276 12.7001V13.9001L275.7 14.1001H274.4L274.1 13.9001Z" fill="#022535"/>
<path d="M275.4 13.9001V12.7001L275.7 12.6001H277.1L277.3 12.7001V13.9001L277.1 14.1001H275.7L275.4 13.9001Z" fill="#022535"/>
<path d="M276.8 13.9001V12.7001L277.1 12.6001H278.4L278.7 12.7001V13.9001L278.4 14.1001H277.1L276.8 13.9001Z" fill="#022535"/>
<path d="M278.1 13.9001V12.7001L278.4 12.6001H279.8L280 12.7001V13.9001L279.8 14.1001H278.4L278.1 13.9001Z" fill="#022535"/>
<path d="M279.5 13.9001V12.7001L279.8 12.6001H281.1L281.4 12.7001V13.9001L281.1 14.1001H279.8L279.5 13.9001Z" fill="#022535"/>
<path d="M280.8 13.9001V12.7001L281.1 12.6001H282.5L282.7 12.7001V13.9001L282.5 14.1001H281.1L280.8 13.9001Z" fill="#022535"/>
<path d="M282.2 13.9001V12.7001L282.5 12.6001H283.8L284.1 12.7001V13.9001L283.8 14.1001H282.5L282.2 13.9001Z" fill="#022535"/>
<path d="M283.5 13.9001V12.7001L283.8 12.6001H285.2L285.4 12.7001V13.9001L285.2 14.1001H283.8L283.5 13.9001Z" fill="#022535"/>
<path d="M284.9 13.9001V12.7001L285.2 12.6001H286.5L286.8 12.7001V13.9001L286.5 14.1001H285.2L284.9 13.9001Z" fill="#022535"/>
<path d="M286.2 13.9001V12.7001L286.5 12.6001H287.8L288.1 12.7001V13.9001L287.8 14.1001H286.5L286.2 13.9001Z" fill="#022535"/>
<path d="M287.6 13.9001V12.7001L287.8 12.6001H289.2L289.5 12.7001V13.9001L289.2 14.1001H287.8L287.6 13.9001Z" fill="#022535"/>
<path d="M288.9 13.9001V12.7001L289.2 12.6001H290.5L290.8 12.7001V13.9001L290.5 14.1001H289.2L288.9 13.9001Z" fill="#022535"/>
<path d="M290.3 13.9001V12.7001L290.5 12.6001H291.9L292.2 12.7001V13.9001L291.9 14.1001H290.5L290.3 13.9001Z" fill="#022535"/>
<path d="M291.6 13.9001V12.7001L291.9 12.6001H293.2L293.5 12.7001V13.9001L293.2 14.1001H291.9L291.6 13.9001Z" fill="#022535"/>
<path d="M293 13.9001V12.7001L293.2 12.6001H294.6L294.9 12.7001V13.9001L294.6 14.1001H293.2L293 13.9001Z" fill="#022535"/>
<path d="M294.3 13.9001V12.7001L294.6 12.6001H295.9L296.2 12.7001V13.9001L295.9 14.1001H294.6L294.3 13.9001Z" fill="#022535"/>
<path d="M295.7 13.9001V12.7001L295.9 12.6001H297.3L297.6 12.7001V13.9001L297.3 14.1001H295.9L295.7 13.9001Z" fill="#022535"/>
<path d="M297 13.9001V12.7001L297.3 12.6001H298.6L298.9 12.7001V13.9001L298.6 14.1001H297.3L297 13.9001Z" fill="#022535"/>
<path d="M298.4 13.9001V12.7001L298.6 12.6001H300L300.3 12.7001V13.9001L300 14.1001H298.6L298.4 13.9001Z" fill="#022535"/>
<path d="M299.7 13.9001V12.7001L300 12.6001H301.3L301.6 12.7001V13.9001L301.3 14.1001H300L299.7 13.9001Z" fill="#022535"/>
<path d="M301.1 13.9001V12.7001L301.3 12.6001H302.7L303 12.7001V13.9001L302.7 14.1001H301.3L301.1 13.9001Z" fill="#022535"/>
<path d="M302.4 13.9001V12.7001L302.7 12.6001H304L304.3 12.7001V13.9001L304 14.1001H302.7L302.4 13.9001Z" fill="#022535"/>
<path d="M303.8 13.9001V12.7001L304 12.6001H305.4L305.7 12.7001V13.9001L305.4 14.1001H304L303.8 13.9001Z" fill="#022535"/>
<path d="M305.1 13.9001V12.7001L305.4 12.6001H306.7L307 12.7001V13.9001L306.7 14.1001H305.4L305.1 13.9001Z" fill="#022535"/>
<path d="M306.5 13.9001V12.7001L306.7 12.6001H308.1L308.4 12.7001V13.9001L308.1 14.1001H306.7L306.5 13.9001Z" fill="#022535"/>
<path d="M307.8 13.9001V12.7001L308.1 12.6001H309.4L309.7 12.7001V13.9001L309.4 14.1001H308.1L307.8 13.9001Z" fill="#022535"/>
<path d="M309.2 13.9001V12.7001L309.4 12.6001H310.8L311 12.7001V13.9001L310.8 14.1001H309.4L309.2 13.9001Z" fill="#022535"/>
<path d="M310.5 13.9001V12.7001L310.8 12.6001H312.1L312.4 12.7001V13.9001L312.1 14.1001H310.8L310.5 13.9001Z" fill="#022535"/>
<path d="M311.9 13.9001V12.7001L312.1 12.6001H313.5L313.7 12.7001V13.9001L313.5 14.1001H312.1L311.9 13.9001Z" fill="#022535"/>
<path d="M313.2 13.9001V12.7001L313.5 12.6001H314.8L315.1 12.7001V13.9001L314.8 14.1001H313.5L313.2 13.9001Z" fill="#022535"/>
<path d="M314.6 13.9001V12.7001L314.8 12.6001H316.2L316.4 12.7001V13.9001L316.2 14.1001H314.8L314.6 13.9001Z" fill="#022535"/>
<path d="M315.9 13.9001V12.7001L316.2 12.6001H317.5L317.8 12.7001V13.9001L317.5 14.1001H316.2L315.9 13.9001Z" fill="#022535"/>
<path d="M317.3 13.9001V12.7001L317.5 12.6001H318.9L319.1 12.7001V13.9001L318.9 14.1001H317.5L317.3 13.9001Z" fill="#022535"/>
<path d="M318.6 13.9001V12.7001L318.9 12.6001H320.2L320.5 12.7001V13.9001L320.2 14.1001H318.9L318.6 13.9001Z" fill="#022535"/>
<path d="M320 13.9001V12.7001L320.2 12.6001H321.6L321.8 12.7001V13.9001L321.6 14.1001H320.2L320 13.9001Z" fill="#022535"/>
<path d="M321.3 13.9001V12.7001L321.6 12.6001H322.9L323.2 12.7001V13.9001L322.9 14.1001H321.6L321.3 13.9001Z" fill="#022535"/>
<path d="M322.6 13.9001V12.7001L322.9 12.6001H324.3L324.5 12.7001V13.9001L324.3 14.1001H322.9L322.6 13.9001Z" fill="#022535"/>
<path d="M324 13.9001V12.7001L324.3 12.6001H325.6L325.9 12.7001V13.9001L325.6 14.1001H324.3L324 13.9001Z" fill="#022535"/>
<path d="M325.3 13.9001V12.7001L325.6 12.6001H327L327.2 12.7001V13.9001L327 14.1001H325.6L325.3 13.9001Z" fill="#022535"/>
<path d="M331.7 7.7001C330.8 7.8001 329.9 7.9001 329.1 8.2001L328.9 7.6001C329.1 7.5001 329.2 7.5001 329.3 7.4001C329.4 7.4001 329.6 7.3001 329.7 7.3001C329.3 7.1001 329.1 6.8001 329.1 6.4001C329.1 6.0001 329.2 5.7001 329.5 5.5001C329.8 5.2001 330.1 5.1001 330.4 5.1001C330.8 5.1001 331.1 5.2001 331.3 5.5001L331 6.0001C330.8 5.9001 330.7 5.8001 330.5 5.8001C330.3 5.8001 330.1 5.9001 330 6.0001C329.9 6.1001 329.8 6.2001 329.8 6.4001C329.8 6.6001 329.9 6.7001 330.1 6.8001C330.3 6.9001 330.5 7.0001 330.8 7.0001C331 7.0001 331.2 6.9001 331.3 6.9001C331.5 6.9001 331.6 6.9001 331.8 6.8001L331.7 7.7001Z" fill="#022535"/>
<path d="M332.5 14.1002C331.2 14.1002 330.3 13.7002 329.9 13.0002C329.7 13.4002 329.3 13.6002 328.8 13.8002C328.3 14.0002 327.7 14.1002 327 14.1002L326.7 13.9002V12.7002L327 12.5002C327.7 12.5002 328.3 12.4002 328.6 12.2002C329 12.0002 329.2 11.8002 329.3 11.4002C329.3 11.3002 329.4 11.1002 329.4 10.9002C329.4 10.7002 329.5 10.5002 329.5 10.3002C329.5 10.1002 329.6 9.9002 329.6 9.7002C329.6 9.5002 329.6 9.3002 329.7 9.2002L330.8 9.30019C330.7 9.80019 330.7 10.2002 330.6 10.6002C330.6 11.0002 330.5 11.2002 330.5 11.3002C330.5 12.0002 331.2 12.3002 332.5 12.3002L332.8 12.5002V13.7002L332.5 14.1002Z" fill="#022535"/>
<path d="M338.1 14.1002C336.8 14.1002 335.9 13.7002 335.5 13.0002C335.3 13.4002 334.9 13.6002 334.4 13.8002C333.9 14.0002 333.3 14.1002 332.6 14.1002L332.3 13.9002V12.7002L332.6 12.5002C333.3 12.5002 333.9 12.4002 334.2 12.2002C334.6 12.0002 334.8 11.8002 334.9 11.4002C334.9 11.3002 335 11.1002 335 10.9002C335 10.7002 335.1 10.5002 335.1 10.3002C335.1 10.1002 335.2 9.9002 335.2 9.7002C335.2 9.5002 335.2 9.3002 335.3 9.2002L336.4 9.30019C336.3 9.80019 336.3 10.2002 336.2 10.6002C336.2 11.0002 336.1 11.2002 336.1 11.3002C336.1 12.0002 336.8 12.3002 338.1 12.3002L338.4 12.5002V13.7002L338.1 14.1002ZM334.2 17.6002L333.2 16.5002L334.2 15.4002L335.2 16.5002L334.2 17.6002ZM336.7 17.6002L335.7 16.5002L336.7 15.4002L337.7 16.5002L336.7 17.6002Z" fill="#022535"/>
<path d="M343.7 10.6005C343.7 11.4005 343.4 12.0005 342.9 12.6005C343 12.6005 343.1 12.6005 343.3 12.6005C343.4 12.6005 343.6 12.6005 343.7 12.6005C344.3 12.6005 344.7 12.5005 345.1 12.4005C345.5 12.2005 345.6 12.0005 345.6 11.8005C345.6 11.3005 345.5 10.7005 345.3 10.2005C345.1 9.70049 344.8 9.20049 344.5 8.80049C344.1 8.40049 343.7 8.00049 343.2 7.60049C342.7 7.30049 342.1 7.00049 341.5 6.80049L342.1 5.50049C342.8 5.80049 343.5 6.10049 344 6.50049C344.6 6.90049 345.1 7.40049 345.5 7.90049C345.9 8.40049 346.2 9.00049 346.4 9.60049C346.6 10.2005 346.7 10.8005 346.7 11.5005C346.7 12.3005 346.4 13.0005 345.9 13.4005C345.4 13.9005 344.6 14.1005 343.7 14.1005C343.3 14.1005 342.9 14.0005 342.5 13.9005C342.1 13.8005 341.6 13.7005 341.3 13.5005C340.8 13.7005 340.3 13.8005 339.7 13.9005C339.1 14.0005 338.6 14.1005 338.1 14.1005L337.8 13.9005V12.7005L338.1 12.5005C338.4 12.5005 338.7 12.5005 338.9 12.5005C339.2 12.5005 339.4 12.5005 339.7 12.4005C339.2 11.9005 338.9 11.2005 338.9 10.5005C338.9 10.1005 339 9.80049 339.1 9.40049C339.2 9.10049 339.4 8.80049 339.6 8.50049C339.8 8.30049 340.1 8.10049 340.4 7.90049C340.7 7.80049 341 7.70049 341.3 7.70049C341.6 7.70049 342 7.80049 342.2 7.90049C342.5 8.00049 342.7 8.20049 343 8.50049C343.2 8.70049 343.4 9.00049 343.5 9.40049C343.7 9.90049 343.7 10.2005 343.7 10.6005ZM340 10.6005C340 10.9005 340.1 11.2005 340.4 11.5005C340.6 11.8005 341 12.0005 341.4 12.2005C342.3 11.9005 342.8 11.4005 342.8 10.6005C342.8 10.2005 342.7 9.90049 342.4 9.60049C342.1 9.30049 341.8 9.20049 341.4 9.20049C341 9.20049 340.7 9.30049 340.4 9.60049C340.1 9.90049 340 10.2005 340 10.6005Z" fill="#022535"/>
<path d="M1.60004 23.1001H3.20004V32.9001H9.10004V34.3001H1.60004V23.1001Z" fill="#022535"/>
<path d="M10.6 23.4004H12.3V25.1004H10.6V23.4004ZM10.7 26.5004H12.2V34.3004H10.7V26.5004Z" fill="#022535"/>
<path d="M15 27.7003H13.6V26.4003H15V23.8003H16.5V26.4003H18.8V27.7003H16.5V31.6003C16.5 32.2003 16.6 32.7003 16.8 32.9003C17 33.1003 17.3 33.3003 17.6 33.3003C17.9 33.3003 18.1 33.3003 18.3 33.2003C18.5 33.1003 18.7 33.0003 18.9 32.8003L19.6 33.7003C19.3 34.0003 18.9 34.2003 18.6 34.4003C18.3 34.5003 17.8 34.6003 17.4 34.6003C16.6 34.6003 16 34.4003 15.6 33.9003C15.2 33.5003 15 32.7003 15 31.8003V27.7003Z" fill="#022535"/>
<path d="M27.5 33.2004C27.4 33.3004 27.3 33.4004 27.1 33.6004C26.9 33.8004 26.7 33.9004 26.4 34.1004C26.1 34.2004 25.8 34.4004 25.4 34.5004C25 34.6004 24.6 34.7004 24.1 34.7004C23.5 34.7004 22.9 34.6004 22.4 34.4004C21.9 34.2004 21.5 33.9004 21.1 33.5004C20.7 33.1004 20.5 32.7004 20.3 32.2004C20.1 31.7004 20 31.1004 20 30.5004C20 29.9004 20.1 29.4004 20.3 28.9004C20.5 28.4004 20.8 28.0004 21.1 27.6004C21.4 27.2004 21.9 26.9004 22.3 26.7004C22.8 26.5004 23.3 26.4004 23.9 26.4004C24.6 26.4004 25.2 26.5004 25.6 26.8004C26.1 27.1004 26.5 27.4004 26.8 27.8004C27.1 28.2004 27.3 28.7004 27.5 29.3004C27.6 29.9004 27.7 30.4004 27.7 31.0004H21.5C21.5 31.3004 21.6 31.7004 21.7 32.0004C21.8 32.3004 22 32.5004 22.3 32.8004C22.5 33.0004 22.8 33.2004 23.1 33.3004C23.4 33.4004 23.7 33.5004 24.1 33.5004C24.8 33.5004 25.3 33.4004 25.7 33.2004C26.1 33.0004 26.4 32.8004 26.6 32.5004L27.5 33.2004ZM26.1 29.7004C26.1 29.1004 25.8 28.6004 25.5 28.1004C25.1 27.7004 24.6 27.5004 23.9 27.5004C23.5 27.5004 23.2 27.6004 22.9 27.7004C22.6 27.8004 22.4 28.0004 22.2 28.2004C22 28.4004 21.8 28.6004 21.7 28.9004C21.6 29.2004 21.5 29.4004 21.5 29.7004H26.1Z" fill="#022535"/>
<path d="M29.4 34.3005V27.0005C29.4 26.9005 29.4 26.7005 29.4 26.5005H30.9L31 27.8005C31.1 27.7005 31.2 27.5005 31.4 27.4005C31.5 27.2005 31.7 27.1005 31.9 27.0005C32.1 26.9005 32.3 26.8005 32.6 26.7005C32.9 26.6005 33.2 26.6005 33.6 26.6005C33.8 26.6005 33.9 26.6005 34.1 26.6005C34.2 26.6005 34.4 26.7005 34.5 26.7005L34.2 28.1005C34 28.0005 33.7 28.0005 33.4 28.0005C33.1 28.0005 32.8 28.1005 32.5 28.2005C32.2 28.3005 32 28.5005 31.8 28.7005C31.6 28.9005 31.4 29.2005 31.3 29.5005C31.2 29.8005 31.1 30.1005 31.1 30.4005V34.5005H29.4V34.3005Z" fill="#022535"/>
<path d="M40.2 33.4002C39.9 33.8002 39.5 34.1002 39 34.3002C38.5 34.5002 38 34.6002 37.5 34.6002C37.2 34.6002 36.9 34.6002 36.5 34.5002C36.2 34.4002 35.9 34.3002 35.6 34.1002C35.3 33.9002 35.1 33.6002 35 33.3002C34.8 33.0002 34.8 32.6002 34.8 32.2002C34.8 31.4002 35.1 30.7002 35.7 30.2002C36.3 29.7002 37.1 29.4002 38.3 29.4002C38.5 29.4002 38.7 29.4002 38.9 29.4002C39.1 29.4002 39.3 29.4002 39.5 29.4002C39.7 29.4002 39.8 29.4002 40 29.4002C40.1 29.4002 40.2 29.4002 40.3 29.4002V29.1002C40.3 28.5002 40.1 28.1002 39.8 27.8002C39.4 27.5002 39 27.4002 38.4 27.4002C37.8 27.4002 37.3 27.5002 37 27.6002C36.7 27.8002 36.4 27.9002 36.1 28.1002L35.4 27.1002C35.5 27.0002 35.7 26.9002 35.9 26.8002C36.1 26.7002 36.3 26.6002 36.6 26.5002C36.9 26.4002 37.2 26.3002 37.5 26.3002C37.8 26.2002 38.2 26.2002 38.6 26.2002C39.6 26.2002 40.4 26.4002 41 26.9002C41.6 27.4002 41.9 28.1002 41.9 29.0002V33.9002C41.9 34.0002 41.9 34.1002 41.9 34.3002H40.5L40.2 33.4002ZM40.1 30.6002C40.1 30.6002 40 30.6002 39.8 30.6002C39.7 30.6002 39.5 30.6002 39.4 30.6002C39.2 30.6002 39.1 30.6002 38.9 30.6002C38.7 30.6002 38.5 30.6002 38.3 30.6002C37.9 30.6002 37.5 30.7002 37.3 30.8002C37 30.9002 36.8 31.0002 36.7 31.2002C36.5 31.4002 36.4 31.5002 36.4 31.7002C36.3 31.9002 36.3 32.1002 36.3 32.2002C36.3 32.6002 36.4 32.9002 36.7 33.2002C37 33.4002 37.4 33.5002 37.9 33.5002C38.2 33.5002 38.5 33.5002 38.7 33.3002C39 33.2002 39.2 33.1002 39.4 32.9002C39.6 32.7002 39.8 32.5002 39.9 32.3002C40 32.1002 40.1 31.8002 40.1 31.6002V30.6002Z" fill="#022535"/>
<path d="M44.3 27.7003H42.9V26.4003H44.3V23.8003H45.8V26.4003H48.1V27.7003H45.8V31.6003C45.8 32.2003 45.9 32.7003 46.1 32.9003C46.3 33.1003 46.6 33.3003 46.9 33.3003C47.2 33.3003 47.4 33.3003 47.6 33.2003C47.8 33.1003 48 33.0003 48.2 32.8003L48.9 33.7003C48.6 34.0003 48.2 34.2003 47.9 34.4003C47.6 34.5003 47.1 34.6003 46.7 34.6003C45.9 34.6003 45.3 34.4003 44.9 33.9003C44.5 33.5003 44.3 32.7003 44.3 31.8003V27.7003Z" fill="#022535"/>
<path d="M49.9 26.5005H51.4V31.1005C51.4 31.8005 51.6 32.4005 51.9 32.7005C52.2 33.0005 52.6 33.2005 53.2 33.2005C53.6 33.2005 54 33.1005 54.3 32.9005C54.6 32.7005 54.8 32.5005 55 32.2005C55.2 31.9005 55.3 31.6005 55.4 31.2005C55.5 30.8005 55.5 30.5005 55.5 30.1005V26.5005H57V33.9005C57 34.1005 57 34.2005 57 34.4005H55.5L55.4 33.2005C55.3 33.3005 55.2 33.5005 55 33.6005C54.9 33.8005 54.7 33.9005 54.5 34.0005C54.3 34.1005 54 34.2005 53.8 34.3005C53.5 34.4005 53.2 34.4005 52.8 34.4005C51.8 34.4005 51 34.1005 50.5 33.5005C50 32.9005 49.8 32.1005 49.8 31.1005V26.5005H49.9Z" fill="#022535"/>
<path d="M59.1 34.3005V27.0005C59.1 26.9005 59.1 26.7005 59.1 26.5005H60.5L60.6 27.8005C60.7 27.7005 60.8 27.5005 61 27.4005C61.1 27.2005 61.3 27.1005 61.5 27.0005C61.7 26.9005 61.9 26.8005 62.2 26.7005C62.5 26.6005 62.8 26.6005 63.2 26.6005C63.4 26.6005 63.5 26.6005 63.7 26.6005C63.8 26.6005 64 26.7005 64.1 26.7005L63.8 28.1005C63.6 28.0005 63.3 28.0005 63 28.0005C62.7 28.0005 62.4 28.1005 62.1 28.2005C61.8 28.3005 61.6 28.5005 61.4 28.7005C61.2 28.9005 61 29.2005 60.9 29.5005C60.8 29.8005 60.7 30.1005 60.7 30.4005V34.5005H59.1V34.3005Z" fill="#022535"/>
<path d="M72 33.2004C71.9 33.3004 71.8 33.4004 71.6 33.6004C71.4 33.8004 71.2 33.9004 70.9 34.1004C70.6 34.2004 70.3 34.4004 69.9 34.5004C69.5 34.6004 69.1 34.7004 68.6 34.7004C68 34.7004 67.4 34.6004 66.9 34.4004C66.4 34.2004 66 33.9004 65.6 33.5004C65.2 33.1004 65 32.7004 64.8 32.2004C64.6 31.7004 64.5 31.1004 64.5 30.5004C64.5 29.9004 64.6 29.4004 64.8 28.9004C65 28.4004 65.3 28.0004 65.6 27.6004C65.9 27.2004 66.4 26.9004 66.8 26.7004C67.3 26.5004 67.8 26.4004 68.4 26.4004C69.1 26.4004 69.7 26.5004 70.1 26.8004C70.6 27.1004 71 27.4004 71.3 27.8004C71.6 28.2004 71.8 28.7004 72 29.3004C72.1 29.9004 72.2 30.4004 72.2 31.0004H66C66 31.3004 66.1 31.7004 66.2 32.0004C66.3 32.3004 66.5 32.5004 66.8 32.8004C67 33.0004 67.3 33.2004 67.6 33.3004C67.9 33.4004 68.2 33.5004 68.6 33.5004C69.3 33.5004 69.8 33.4004 70.2 33.2004C70.6 33.0004 70.9 32.8004 71.1 32.5004L72 33.2004ZM70.6 29.7004C70.6 29.1004 70.3 28.6004 70 28.1004C69.6 27.7004 69.1 27.5004 68.4 27.5004C68 27.5004 67.7 27.6004 67.4 27.7004C67.1 27.8004 66.9 28.0004 66.7 28.2004C66.5 28.4004 66.3 28.6004 66.2 28.9004C66.1 29.2004 66 29.4004 66 29.7004H70.6Z" fill="#022535"/>
<path d="M74.7 34.3004H74V32.4004H75.9V34.3004L74.8 36.3004H73.8L74.7 34.3004Z" fill="#022535"/>
<path d="M81.5 23.1001H85.1C85.9 23.1001 86.5 23.2001 87 23.4001C87.5 23.6001 87.9 23.9001 88.2 24.2001C88.5 24.5001 88.7 24.9001 88.8 25.3001C88.9 25.7001 89 26.1001 89 26.5001C89 27.1001 88.9 27.6001 88.7 28.0001C88.5 28.4001 88.2 28.8001 87.9 29.1001C87.6 29.4001 87.2 29.6001 86.7 29.7001C86.2 29.8001 85.7 29.9001 85.2 29.9001H83.2V34.3001H81.6V23.1001H81.5ZM85.1 28.5001C85.8 28.5001 86.3 28.3001 86.7 28.0001C87.1 27.6001 87.3 27.2001 87.3 26.5001C87.3 25.9001 87.1 25.4001 86.7 25.0001C86.3 24.6001 85.8 24.5001 85.1 24.5001H83.1V28.6001H85.1V28.5001Z" fill="#022535"/>
<path d="M90.4 26.5005H91.9V31.1005C91.9 31.8005 92.1 32.4005 92.4 32.7005C92.7 33.0005 93.1 33.2005 93.7 33.2005C94.1 33.2005 94.5 33.1005 94.8 32.9005C95.1 32.7005 95.3 32.5005 95.5 32.2005C95.7 31.9005 95.8 31.6005 95.9 31.2005C96 30.8005 96 30.5005 96 30.1005V26.5005H97.5V33.9005C97.5 34.1005 97.5 34.2005 97.5 34.4005H96L95.9 33.2005C95.8 33.3005 95.7 33.5005 95.5 33.6005C95.4 33.8005 95.2 33.9005 95 34.0005C94.8 34.1005 94.5 34.2005 94.3 34.3005C94 34.4005 93.7 34.4005 93.3 34.4005C92.3 34.4005 91.5 34.1005 91 33.5005C90.5 32.9005 90.3 32.1005 90.3 31.1005V26.5005H90.4Z" fill="#022535"/>
<path d="M99.6 23.1001H101.1V27.4001C101.2 27.3001 101.3 27.2001 101.4 27.1001C101.5 27.0001 101.7 26.9001 101.9 26.8001C102.1 26.7001 102.3 26.6001 102.6 26.5001C102.9 26.4001 103.2 26.4001 103.5 26.4001C104.1 26.4001 104.6 26.5001 105 26.7001C105.4 26.9001 105.8 27.2001 106.1 27.6001C106.4 28.0001 106.6 28.4001 106.8 28.9001C107 29.4001 107 29.9001 107 30.5001C107 31.1001 106.9 31.7001 106.7 32.2001C106.5 32.7001 106.2 33.2001 105.8 33.5001C105.4 33.9001 104.9 34.2001 104.4 34.4001C103.9 34.6001 103.3 34.7001 102.6 34.7001C102 34.7001 101.4 34.7001 100.8 34.5001C100.2 34.4001 99.8 34.3001 99.5 34.1001V23.1001H99.6ZM101.1 33.0001C101.3 33.0001 101.5 33.1001 101.7 33.1001C101.9 33.2001 102.3 33.2001 102.7 33.2001C103.1 33.2001 103.5 33.1001 103.9 33.0001C104.2 32.9001 104.5 32.7001 104.8 32.4001C105.1 32.1001 105.2 31.8001 105.4 31.5001C105.5 31.1001 105.6 30.8001 105.6 30.3001C105.6 29.9001 105.6 29.6001 105.5 29.3001C105.4 29.0001 105.3 28.7001 105.1 28.4001C104.9 28.1001 104.7 27.9001 104.4 27.8001C104.1 27.6001 103.8 27.6001 103.4 27.6001C103 27.6001 102.7 27.7001 102.4 27.8001C102.1 27.9001 101.9 28.1001 101.7 28.3001C101.5 28.5001 101.4 28.7001 101.3 29.0001C101.2 29.3001 101.2 29.6001 101.2 29.9001V33.0001H101.1Z" fill="#022535"/>
<path d="M110.3 23.1001H108.8V34.3001H110.3V23.1001Z" fill="#022535"/>
<path d="M112.4 23.4004H114.1V25.1004H112.4V23.4004ZM112.5 26.5004H114V34.3004H112.5V26.5004Z" fill="#022535"/>
<path d="M116.6 32.3002C116.9 32.6002 117.2 32.8002 117.6 33.0002C118 33.2002 118.4 33.3002 119 33.3002C119.5 33.3002 119.9 33.2002 120.3 33.1002C120.6 32.9002 120.8 32.7002 120.8 32.3002C120.8 32.1002 120.8 32.0002 120.7 31.8002C120.6 31.7002 120.5 31.6002 120.3 31.5002C120.1 31.4002 119.9 31.3002 119.6 31.2002C119.3 31.1002 119 31.0002 118.5 30.9002C118.2 30.8002 117.9 30.7002 117.6 30.6002C117.3 30.5002 117 30.3002 116.8 30.2002C116.6 30.0002 116.4 29.8002 116.2 29.5002C116.1 29.2002 116 28.9002 116 28.5002C116 28.1002 116.1 27.8002 116.3 27.5002C116.5 27.2002 116.7 27.0002 117 26.8002C117.3 26.6002 117.6 26.5002 118 26.4002C118.4 26.3002 118.7 26.2002 119.1 26.2002C119.8 26.2002 120.3 26.3002 120.8 26.5002C121.3 26.7002 121.7 26.9002 122.1 27.2002L121.3 28.2002C121.1 28.0002 120.8 27.8002 120.4 27.7002C120 27.6002 119.6 27.5002 119.2 27.5002C118.7 27.5002 118.3 27.6002 118 27.7002C117.7 27.9002 117.6 28.1002 117.6 28.5002C117.6 28.8002 117.8 29.1002 118.2 29.3002C118.6 29.5002 119.1 29.6002 119.7 29.8002C120.1 29.9002 120.4 30.0002 120.7 30.1002C121 30.2002 121.3 30.4002 121.5 30.6002C121.7 30.8002 121.9 31.0002 122.1 31.3002C122.2 31.6002 122.3 31.9002 122.3 32.3002C122.3 32.7002 122.2 33.0002 122 33.3002C121.8 33.6002 121.6 33.8002 121.3 34.1002C121 34.3002 120.6 34.5002 120.3 34.6002C119.9 34.7002 119.5 34.8002 119.1 34.8002C117.6 34.8002 116.5 34.4002 115.8 33.6002L116.6 32.3002Z" fill="#022535"/>
<path d="M124.1 23.1001H125.6V27.7001C125.7 27.6001 125.8 27.4001 126 27.3001C126.1 27.1001 126.3 27.0001 126.5 26.9001C126.7 26.8001 127 26.7001 127.2 26.6001C127.5 26.5001 127.8 26.5001 128.2 26.5001C129.2 26.5001 130 26.8001 130.5 27.4001C131 28.0001 131.2 28.8001 131.2 29.8001V34.5001H129.7V29.9001C129.7 29.2001 129.5 28.6001 129.2 28.3001C128.9 28.0001 128.4 27.8001 127.9 27.8001C127.5 27.8001 127.1 27.9001 126.8 28.1001C126.5 28.3001 126.3 28.5001 126.1 28.8001C125.9 29.1001 125.8 29.4001 125.7 29.8001C125.6 30.2001 125.6 30.5001 125.6 30.9001V34.5001H124.1V23.1001Z" fill="#022535"/>
<path d="M133.2 23.4004H134.9V25.1004H133.2V23.4004ZM133.3 26.5004H134.8V34.3004H133.3V26.5004Z" fill="#022535"/>
<path d="M137 34.3005V27.0005C137 26.9005 137 26.7005 137 26.5005H138.5L138.6 27.7005C138.7 27.6005 138.8 27.4005 139 27.3005C139.1 27.1005 139.3 27.0005 139.5 26.9005C139.7 26.8005 140 26.7005 140.3 26.6005C140.6 26.5005 140.9 26.5005 141.3 26.5005C142.3 26.5005 143.1 26.8005 143.6 27.4005C144.1 28.0005 144.3 28.8005 144.3 29.8005V34.5005H142.8V29.9005C142.8 29.2005 142.6 28.6005 142.3 28.3005C142 28.0005 141.5 27.8005 141 27.8005C140.6 27.8005 140.2 27.9005 139.9 28.1005C139.6 28.3005 139.4 28.5005 139.2 28.8005C139 29.1005 138.9 29.4005 138.8 29.8005C138.7 30.2005 138.7 30.5005 138.7 30.9005V34.5005H137V34.3005Z" fill="#022535"/>
<path d="M147.2 35.9003C147.5 36.1003 147.8 36.2003 148.2 36.4003C148.6 36.5003 149 36.6003 149.6 36.6003C150.4 36.6003 150.9 36.4003 151.3 36.0003C151.7 35.6003 151.9 35.0003 151.9 34.4003V33.4003C151.8 33.5003 151.7 33.6003 151.6 33.7003C151.5 33.8003 151.3 33.9003 151.1 34.0003C150.9 34.1003 150.7 34.2003 150.4 34.3003C150.1 34.4003 149.8 34.4003 149.5 34.4003C148.9 34.4003 148.4 34.3003 148 34.1003C147.6 33.9003 147.2 33.6003 146.9 33.3003C146.6 33.0003 146.4 32.5003 146.2 32.1003C146 31.6003 146 31.1003 146 30.5003C146 29.9003 146.1 29.3003 146.3 28.8003C146.5 28.3003 146.8 27.8003 147.2 27.5003C147.6 27.1003 148.1 26.8003 148.6 26.6003C149.1 26.4003 149.7 26.3003 150.4 26.3003C151 26.3003 151.6 26.4003 152.2 26.5003C152.8 26.6003 153.2 26.7003 153.5 26.9003V34.4003C153.5 35.5003 153.2 36.4003 152.5 37.0003C151.8 37.6003 150.9 37.9003 149.7 37.9003C148.9 37.9003 148.3 37.8003 147.8 37.6003C147.3 37.4003 146.9 37.2003 146.7 37.0003L147.2 35.9003ZM151.8 27.9003C151.7 27.9003 151.5 27.8003 151.3 27.8003C151.1 27.7003 150.7 27.7003 150.2 27.7003C149.8 27.7003 149.4 27.8003 149 27.9003C148.7 28.0003 148.4 28.2003 148.1 28.5003C147.8 28.8003 147.6 29.1003 147.5 29.4003C147.4 29.7003 147.3 30.1003 147.3 30.5003C147.3 30.9003 147.3 31.2003 147.4 31.5003C147.5 31.8003 147.6 32.1003 147.8 32.3003C148 32.5003 148.2 32.7003 148.5 32.9003C148.8 33.0003 149.1 33.1003 149.5 33.1003C149.9 33.1003 150.2 33.0003 150.5 32.9003C150.8 32.8003 151 32.6003 151.2 32.5003C151.4 32.3003 151.5 32.1003 151.6 31.9003C151.7 31.7003 151.7 31.4003 151.7 31.2003V27.9003H151.8Z" fill="#022535"/>
<path d="M164.8 33.1003C164.4 33.5003 164 33.9003 163.4 34.2003C162.9 34.5003 162.2 34.6003 161.5 34.6003C160.9 34.6003 160.4 34.5003 160 34.4003C159.6 34.2003 159.2 34.0003 158.9 33.7003C158.6 33.4003 158.4 33.1003 158.2 32.7003C158 32.3003 158 31.9003 158 31.5003C158 30.8003 158.2 30.2003 158.6 29.6003C159 29.0003 159.6 28.5003 160.4 27.9003L160.2 27.6003C159.9 27.3003 159.7 26.9003 159.6 26.6003C159.5 26.2003 159.4 25.9003 159.4 25.5003C159.4 25.2003 159.5 24.8003 159.6 24.5003C159.7 24.2003 159.9 23.9003 160.2 23.6003C160.5 23.4003 160.8 23.2003 161.1 23.0003C161.5 22.9003 161.9 22.8003 162.4 22.8003C162.8 22.8003 163.2 22.9003 163.5 23.0003C163.8 23.1003 164.1 23.2003 164.3 23.4003C164.5 23.6003 164.7 23.8003 164.9 24.0003C165.1 24.2003 165.2 24.4003 165.3 24.7003L164.2 25.4003C163.9 24.9003 163.6 24.6003 163.4 24.4003C163.1 24.2003 162.9 24.2003 162.6 24.2003C162.1 24.2003 161.8 24.3003 161.5 24.6003C161.3 24.9003 161.1 25.2003 161.1 25.5003C161.1 25.8003 161.2 26.1003 161.3 26.4003C161.5 26.7003 161.7 27.0003 161.9 27.3003L165 30.9003L166.5 29.0003L167.6 29.9003L165.9 32.0003L168 34.4003H166L164.8 33.1003ZM161.2 28.9003C160.6 29.3003 160.2 29.7003 160 30.1003C159.8 30.5003 159.6 30.9003 159.6 31.4003C159.6 31.9003 159.8 32.3003 160.1 32.7003C160.4 33.0003 160.9 33.2003 161.6 33.2003C162.1 33.2003 162.6 33.1003 162.9 32.9003C163.3 32.7003 163.6 32.4003 163.9 32.1003L161.2 28.9003Z" fill="#022535"/>
<path d="M175.6 24.5001H171.6V23.1001H181.3V24.5001H177.3V34.3001H175.6V24.5001Z" fill="#022535"/>
<path d="M180.4 34.3005V27.0005C180.4 26.9005 180.4 26.7005 180.4 26.5005H181.9L182 27.8005C182.1 27.7005 182.2 27.5005 182.4 27.4005C182.5 27.2005 182.7 27.1005 182.9 27.0005C183.1 26.9005 183.4 26.8005 183.6 26.7005C183.9 26.6005 184.2 26.6005 184.6 26.6005C184.8 26.6005 184.9 26.6005 185.1 26.6005C185.2 26.6005 185.4 26.7005 185.5 26.7005L185.2 28.1005C185 28.0005 184.7 28.0005 184.4 28.0005C184.1 28.0005 183.8 28.1005 183.5 28.2005C183.2 28.3005 183 28.5005 182.8 28.7005C182.6 28.9005 182.4 29.2005 182.3 29.5005C182.2 29.8005 182.1 30.1005 182.1 30.4005V34.5005H180.4V34.3005Z" fill="#022535"/>
<path d="M191.2 33.4002C190.9 33.8002 190.5 34.1002 190 34.3002C189.5 34.5002 189 34.6002 188.5 34.6002C188.2 34.6002 187.9 34.6002 187.5 34.5002C187.2 34.4002 186.9 34.3002 186.6 34.1002C186.3 33.9002 186.1 33.6002 186 33.3002C185.8 33.0002 185.8 32.6002 185.8 32.2002C185.8 31.4002 186.1 30.7002 186.7 30.2002C187.3 29.7002 188.1 29.4002 189.3 29.4002C189.5 29.4002 189.7 29.4002 189.9 29.4002C190.1 29.4002 190.3 29.4002 190.5 29.4002C190.7 29.4002 190.8 29.4002 191 29.4002C191.1 29.4002 191.2 29.4002 191.3 29.4002V29.1002C191.3 28.5002 191.1 28.1002 190.8 27.8002C190.4 27.5002 190 27.4002 189.4 27.4002C188.8 27.4002 188.3 27.5002 188 27.6002C187.7 27.8002 187.4 27.9002 187.1 28.1002L186.4 27.1002C186.5 27.0002 186.7 26.9002 186.9 26.8002C187.1 26.7002 187.3 26.6002 187.6 26.5002C187.9 26.4002 188.2 26.3002 188.5 26.3002C188.8 26.2002 189.2 26.2002 189.6 26.2002C190.6 26.2002 191.4 26.4002 192 26.9002C192.6 27.4002 192.9 28.1002 192.9 29.0002V33.9002C192.9 34.0002 192.9 34.1002 192.9 34.3002H191.5L191.2 33.4002ZM191.1 30.6002C191.1 30.6002 191 30.6002 190.8 30.6002C190.7 30.6002 190.5 30.6002 190.4 30.6002C190.2 30.6002 190.1 30.6002 189.9 30.6002C189.7 30.6002 189.5 30.6002 189.3 30.6002C188.9 30.6002 188.5 30.7002 188.3 30.8002C188 30.9002 187.8 31.0002 187.7 31.2002C187.5 31.4002 187.4 31.5002 187.4 31.7002C187.3 31.9002 187.3 32.1002 187.3 32.2002C187.3 32.6002 187.4 32.9002 187.7 33.2002C188 33.5002 188.4 33.5002 188.9 33.5002C189.2 33.5002 189.5 33.5002 189.7 33.3002C190 33.2002 190.2 33.1002 190.4 32.9002C190.6 32.7002 190.8 32.5002 190.9 32.3002C191 32.1002 191.1 31.8002 191.1 31.6002V30.6002Z" fill="#022535"/>
<path d="M194.7 34.3005V27.0005C194.7 26.9005 194.7 26.7005 194.7 26.5005H196.2L196.3 27.7005C196.4 27.6005 196.5 27.4005 196.7 27.3005C196.8 27.1005 197 27.0005 197.2 26.9005C197.4 26.8005 197.7 26.7005 198 26.6005C198.3 26.5005 198.6 26.5005 199 26.5005C200 26.5005 200.8 26.8005 201.3 27.4005C201.8 28.0005 202 28.8005 202 29.8005V34.5005H200.5V29.9005C200.5 29.2005 200.3 28.6005 200 28.3005C199.7 28.0005 199.2 27.8005 198.7 27.8005C198.3 27.8005 197.9 27.9005 197.6 28.1005C197.3 28.3005 197.1 28.5005 196.9 28.8005C196.7 29.1005 196.6 29.4005 196.5 29.8005C196.4 30.2005 196.4 30.5005 196.4 30.9005V34.5005H194.7V34.3005Z" fill="#022535"/>
<path d="M204.3 32.3002C204.6 32.6002 204.9 32.8002 205.3 33.0002C205.7 33.2002 206.1 33.3002 206.7 33.3002C207.2 33.3002 207.6 33.2002 208 33.1002C208.3 32.9002 208.5 32.7002 208.5 32.3002C208.5 32.1002 208.5 32.0002 208.4 31.8002C208.3 31.7002 208.2 31.6002 208 31.5002C207.8 31.4002 207.6 31.3002 207.3 31.2002C207 31.1002 206.7 31.0002 206.2 30.9002C205.9 30.8002 205.6 30.7002 205.3 30.6002C205 30.5002 204.7 30.3002 204.5 30.2002C204.3 30.0002 204.1 29.8002 203.9 29.5002C203.8 29.2002 203.7 28.9002 203.7 28.5002C203.7 28.1002 203.8 27.8002 204 27.5002C204.2 27.2002 204.4 27.0002 204.7 26.8002C205 26.6002 205.3 26.5002 205.7 26.4002C206.1 26.3002 206.4 26.2002 206.8 26.2002C207.5 26.2002 208 26.3002 208.5 26.5002C209 26.7002 209.4 26.9002 209.8 27.2002L209 28.2002C208.8 28.0002 208.5 27.8002 208.1 27.7002C207.7 27.6002 207.3 27.5002 206.9 27.5002C206.4 27.5002 206 27.6002 205.7 27.7002C205.4 27.9002 205.3 28.1002 205.3 28.5002C205.3 28.8002 205.5 29.1002 205.9 29.3002C206.3 29.5002 206.8 29.6002 207.4 29.8002C207.8 29.9002 208.1 30.0002 208.4 30.1002C208.7 30.2002 209 30.4002 209.2 30.6002C209.4 30.8002 209.6 31.0002 209.8 31.3002C209.9 31.6002 210 31.9002 210 32.3002C210 32.7002 209.9 33.0002 209.7 33.3002C209.5 33.6002 209.3 33.8002 209 34.1002C208.7 34.3002 208.3 34.5002 208 34.6002C207.6 34.7002 207.2 34.8002 206.8 34.8002C205.3 34.8002 204.2 34.4002 203.5 33.6002L204.3 32.3002Z" fill="#022535"/>
<path d="M213.3 23.1001H211.8V34.3001H213.3V23.1001Z" fill="#022535"/>
<path d="M220.3 33.4002C220 33.8002 219.6 34.1002 219.1 34.3002C218.6 34.5002 218.1 34.6002 217.6 34.6002C217.3 34.6002 217 34.6002 216.6 34.5002C216.3 34.4002 216 34.3002 215.7 34.1002C215.4 33.9002 215.2 33.6002 215.1 33.3002C214.9 33.0002 214.9 32.6002 214.9 32.2002C214.9 31.4002 215.2 30.7002 215.8 30.2002C216.4 29.7002 217.2 29.4002 218.4 29.4002C218.6 29.4002 218.8 29.4002 219 29.4002C219.2 29.4002 219.4 29.4002 219.6 29.4002C219.8 29.4002 219.9 29.4002 220.1 29.4002C220.2 29.4002 220.3 29.4002 220.4 29.4002V29.1002C220.4 28.5002 220.2 28.1002 219.9 27.8002C219.5 27.5002 219.1 27.4002 218.5 27.4002C217.9 27.4002 217.4 27.5002 217.1 27.6002C216.8 27.8002 216.5 27.9002 216.2 28.1002L215.5 27.1002C215.6 27.0002 215.8 26.9002 216 26.8002C216.2 26.7002 216.4 26.6002 216.7 26.5002C217 26.4002 217.3 26.3002 217.6 26.3002C217.9 26.2002 218.3 26.2002 218.7 26.2002C219.7 26.2002 220.5 26.4002 221.1 26.9002C221.7 27.4002 222 28.1002 222 29.0002V33.9002C222 34.0002 222 34.1002 222 34.3002H220.6L220.3 33.4002ZM220.3 30.6002C220.3 30.6002 220.2 30.6002 220 30.6002C219.9 30.6002 219.7 30.6002 219.6 30.6002C219.4 30.6002 219.3 30.6002 219.1 30.6002C218.9 30.6002 218.7 30.6002 218.5 30.6002C218.1 30.6002 217.7 30.7002 217.5 30.8002C217.2 30.9002 217 31.0002 216.9 31.2002C216.7 31.4002 216.6 31.5002 216.6 31.7002C216.5 31.9002 216.5 32.1002 216.5 32.2002C216.5 32.6002 216.6 32.9002 216.9 33.2002C217.2 33.4002 217.6 33.5002 218.1 33.5002C218.4 33.5002 218.7 33.5002 218.9 33.3002C219.2 33.2002 219.4 33.1002 219.6 32.9002C219.8 32.7002 220 32.5002 220.1 32.3002C220.2 32.1002 220.3 31.8002 220.3 31.6002V30.6002Z" fill="#022535"/>
<path d="M224.5 27.7003H223V26.4003H224.4V23.8003H225.9V26.4003H228.2V27.7003H226V31.6003C226 32.2003 226.1 32.7003 226.3 32.9003C226.5 33.1003 226.8 33.3003 227.1 33.3003C227.4 33.3003 227.6 33.3003 227.8 33.2003C228 33.1003 228.2 33.0003 228.4 32.8003L229.1 33.7003C228.8 34.0003 228.4 34.2003 228.1 34.4003C227.8 34.5003 227.3 34.6003 226.9 34.6003C226.1 34.6003 225.5 34.4003 225.1 33.9003C224.7 33.5003 224.5 32.7003 224.5 31.8003V27.7003Z" fill="#022535"/>
<path d="M230.2 23.4004H231.9V25.1004H230.2V23.4004ZM230.3 26.5004H231.8V34.3004H230.3V26.5004Z" fill="#022535"/>
<path d="M237.8 34.5003C237.2 34.5003 236.6 34.4003 236.1 34.2003C235.6 34.0003 235.2 33.7003 234.8 33.3003C234.4 32.9003 234.1 32.5003 233.9 32.0003C233.7 31.5003 233.6 31.0003 233.6 30.4003C233.6 29.8003 233.7 29.3003 233.9 28.8003C234.1 28.3003 234.4 27.9003 234.8 27.5003C235.2 27.1003 235.6 26.8003 236.1 26.6003C236.6 26.4003 237.2 26.3003 237.8 26.3003C238.4 26.3003 238.9 26.4003 239.5 26.6003C240 26.8003 240.4 27.1003 240.8 27.5003C241.2 27.9003 241.5 28.3003 241.7 28.8003C241.9 29.3003 242 29.8003 242 30.4003C242 31.0003 241.9 31.5003 241.7 32.0003C241.5 32.5003 241.2 32.9003 240.8 33.3003C240.4 33.7003 240 34.0003 239.5 34.2003C238.9 34.4003 238.4 34.5003 237.8 34.5003ZM237.8 33.2003C238.2 33.2003 238.6 33.1003 238.9 33.0003C239.2 32.8003 239.5 32.6003 239.7 32.4003C239.9 32.1003 240.1 31.8003 240.2 31.5003C240.3 31.2003 240.4 30.8003 240.4 30.4003C240.4 30.1003 240.3 29.7003 240.2 29.4003C240.1 29.1003 239.9 28.8003 239.7 28.5003C239.5 28.2003 239.2 28.0003 238.9 27.9003C238.6 27.7003 238.2 27.7003 237.8 27.7003C237.4 27.7003 237 27.8003 236.7 27.9003C236.4 28.1003 236.1 28.3003 235.9 28.5003C235.7 28.8003 235.5 29.1003 235.4 29.4003C235.3 29.7003 235.2 30.1003 235.2 30.5003C235.2 30.9003 235.3 31.2003 235.4 31.5003C235.5 31.8003 235.7 32.1003 235.9 32.4003C236.1 32.7003 236.4 32.9003 236.7 33.0003C237 33.2003 237.4 33.2003 237.8 33.2003Z" fill="#022535"/>
<path d="M243.7 34.3005V27.0005C243.7 26.9005 243.7 26.7005 243.7 26.5005H245.2L245.3 27.7005C245.4 27.6005 245.5 27.4005 245.7 27.3005C245.8 27.1005 246 27.0005 246.2 26.9005C246.4 26.8005 246.7 26.7005 247 26.6005C247.3 26.5005 247.6 26.5005 248 26.5005C249 26.5005 249.8 26.8005 250.3 27.4005C250.8 28.0005 251 28.8005 251 29.8005V34.5005H249.5V29.9005C249.5 29.2005 249.3 28.6005 249 28.3005C248.7 28.0005 248.2 27.8005 247.7 27.8005C247.3 27.8005 246.9 27.9005 246.6 28.1005C246.3 28.3005 246.1 28.5005 245.9 28.8005C245.7 29.1005 245.6 29.4005 245.5 29.8005C245.4 30.2005 245.4 30.5005 245.4 30.9005V34.5005H243.7V34.3005Z" fill="#022535"/>
<path d="M265.7 32.3002C265.6 32.5002 265.4 32.7002 265.1 33.0002C264.8 33.3002 264.5 33.5002 264.2 33.7002C263.8 33.9002 263.4 34.1002 262.9 34.3002C262.4 34.5002 261.9 34.5002 261.3 34.5002C260.5 34.5002 259.7 34.4002 259 34.1002C258.3 33.8002 257.7 33.4002 257.2 32.9002C256.7 32.4002 256.3 31.8002 256 31.0002C255.7 30.3002 255.6 29.5002 255.6 28.7002C255.6 27.9002 255.7 27.1002 256 26.4002C256.3 25.7002 256.7 25.1002 257.2 24.5002C257.7 24.0002 258.3 23.5002 259 23.2002C259.7 22.9002 260.5 22.7002 261.3 22.7002C261.9 22.7002 262.4 22.8002 262.9 22.9002C263.4 23.0002 263.8 23.2002 264.1 23.4002C264.5 23.6002 264.8 23.9002 265 24.1002C265.3 24.4002 265.5 24.6002 265.6 24.8002L264.5 25.8002C264.4 25.6002 264.2 25.4002 264 25.2002C263.8 25.0002 263.6 24.8002 263.3 24.6002C263 24.4002 262.7 24.3002 262.4 24.2002C262.1 24.1002 261.7 24.0002 261.2 24.0002C260.6 24.0002 260 24.1002 259.5 24.4002C259 24.6002 258.6 25.0002 258.3 25.4002C258 25.8002 257.7 26.3002 257.5 26.8002C257.3 27.3002 257.2 27.9002 257.2 28.5002C257.2 29.1002 257.3 29.7002 257.5 30.2002C257.7 30.7002 257.9 31.2002 258.3 31.6002C258.6 32.0002 259 32.3002 259.5 32.5002C260 32.7002 260.5 32.8002 261.1 32.8002C261.6 32.8002 262 32.7002 262.4 32.6002C262.8 32.5002 263.1 32.3002 263.3 32.1002C263.6 31.9002 263.8 31.7002 263.9 31.6002C264.1 31.4002 264.2 31.3002 264.3 31.1002L265.7 32.3002Z" fill="#022535"/>
<path d="M270.8 34.5003C270.2 34.5003 269.6 34.4003 269.1 34.2003C268.6 34.0003 268.2 33.7003 267.8 33.3003C267.4 32.9003 267.1 32.5003 266.9 32.0003C266.7 31.5003 266.6 31.0003 266.6 30.4003C266.6 29.8003 266.7 29.3003 266.9 28.8003C267.1 28.3003 267.4 27.9003 267.8 27.5003C268.2 27.1003 268.6 26.8003 269.1 26.6003C269.6 26.4003 270.2 26.3003 270.8 26.3003C271.4 26.3003 271.9 26.4003 272.5 26.6003C273 26.8003 273.4 27.1003 273.8 27.5003C274.2 27.9003 274.5 28.3003 274.7 28.8003C274.9 29.3003 275 29.8003 275 30.4003C275 31.0003 274.9 31.5003 274.7 32.0003C274.5 32.5003 274.2 32.9003 273.8 33.3003C273.4 33.7003 273 34.0003 272.5 34.2003C271.9 34.4003 271.4 34.5003 270.8 34.5003ZM270.8 33.2003C271.2 33.2003 271.6 33.1003 271.9 33.0003C272.2 32.8003 272.5 32.6003 272.7 32.4003C272.9 32.1003 273.1 31.8003 273.2 31.5003C273.3 31.2003 273.4 30.8003 273.4 30.4003C273.4 30.1003 273.3 29.7003 273.2 29.4003C273.1 29.1003 272.9 28.8003 272.7 28.5003C272.5 28.2003 272.2 28.0003 271.9 27.9003C271.6 27.7003 271.2 27.7003 270.8 27.7003C270.4 27.7003 270 27.8003 269.7 27.9003C269.4 28.1003 269.1 28.3003 268.9 28.5003C268.7 28.8003 268.5 29.1003 268.4 29.4003C268.3 29.7003 268.2 30.1003 268.2 30.5003C268.2 30.9003 268.3 31.2003 268.4 31.5003C268.5 31.8003 268.7 32.1003 268.9 32.4003C269.1 32.7003 269.4 32.9003 269.7 33.0003C270 33.2003 270.3 33.2003 270.8 33.2003Z" fill="#022535"/>
<path d="M276.6 34.3005V27.0005C276.6 26.9005 276.6 26.7005 276.6 26.5005H278.1L278.2 27.7005C278.3 27.6005 278.4 27.4005 278.6 27.3005C278.7 27.1005 278.9 27.0005 279.1 26.9005C279.3 26.8005 279.5 26.7005 279.8 26.6005C280.1 26.5005 280.4 26.5005 280.8 26.5005C281.4 26.5005 281.9 26.6005 282.3 26.9005C282.7 27.1005 283 27.5005 283.2 28.0005C283.5 27.6005 283.9 27.3005 284.4 27.0005C284.9 26.7005 285.4 26.6005 286.1 26.6005C287.1 26.6005 287.9 26.9005 288.3 27.5005C288.7 28.1005 289 28.9005 289 29.9005V34.6005H287.5V30.0005C287.5 29.3005 287.4 28.7005 287.1 28.4005C286.8 28.1005 286.4 27.9005 285.8 27.9005C285.5 27.9005 285.2 28.0005 284.9 28.1005C284.6 28.2005 284.4 28.4005 284.2 28.6005C284 28.8005 283.9 29.1005 283.7 29.3005C283.6 29.6005 283.5 29.9005 283.5 30.2005V34.5005H282V29.9005C282 29.2005 281.9 28.6005 281.6 28.3005C281.3 28.0005 280.9 27.8005 280.4 27.8005C280 27.8005 279.6 27.9005 279.4 28.1005C279.1 28.3005 278.9 28.5005 278.7 28.8005C278.5 29.1005 278.4 29.4005 278.3 29.8005C278.2 30.2005 278.2 30.5005 278.2 30.9005V34.5005H276.6V34.3005Z" fill="#022535"/>
<path d="M291 34.3005V27.0005C291 26.9005 291 26.7005 291 26.5005H292.5L292.6 27.7005C292.7 27.6005 292.8 27.4005 293 27.3005C293.1 27.1005 293.3 27.0005 293.5 26.9005C293.7 26.8005 293.9 26.7005 294.2 26.6005C294.5 26.5005 294.8 26.5005 295.2 26.5005C295.8 26.5005 296.3 26.6005 296.7 26.9005C297.1 27.1005 297.4 27.5005 297.6 28.0005C297.9 27.6005 298.3 27.3005 298.8 27.0005C299.3 26.7005 299.8 26.6005 300.5 26.6005C301.5 26.6005 302.3 26.9005 302.7 27.5005C303.2 28.1005 303.4 28.9005 303.4 29.9005V34.6005H301.9V30.0005C301.9 29.3005 301.8 28.7005 301.5 28.4005C301.2 28.1005 300.8 27.9005 300.2 27.9005C299.9 27.9005 299.6 28.0005 299.3 28.1005C299 28.2005 298.8 28.4005 298.6 28.6005C298.4 28.8005 298.3 29.1005 298.1 29.3005C298 29.6005 297.9 29.9005 297.9 30.2005V34.5005H296.4V29.9005C296.4 29.2005 296.3 28.6005 296 28.3005C295.7 28.0005 295.3 27.8005 294.8 27.8005C294.4 27.8005 294 27.9005 293.8 28.1005C293.5 28.3005 293.3 28.5005 293.1 28.8005C292.9 29.1005 292.8 29.4005 292.7 29.8005C292.6 30.2005 292.6 30.5005 292.6 30.9005V34.5005H291V34.3005Z" fill="#022535"/>
<path d="M305.3 23.4004H307V25.1004H305.3V23.4004ZM305.4 26.5004H306.9V34.3004H305.4V26.5004Z" fill="#022535"/>
<path d="M309.5 32.3002C309.8 32.6002 310.1 32.8002 310.5 33.0002C310.9 33.2002 311.3 33.3002 311.9 33.3002C312.4 33.3002 312.8 33.2002 313.2 33.1002C313.5 32.9002 313.7 32.7002 313.7 32.3002C313.7 32.1002 313.7 32.0002 313.6 31.8002C313.5 31.7002 313.4 31.6002 313.2 31.5002C313 31.4002 312.8 31.3002 312.5 31.2002C312.2 31.1002 311.9 31.0002 311.4 30.9002C311.1 30.8002 310.8 30.7002 310.5 30.6002C310.2 30.5002 309.9 30.3002 309.7 30.2002C309.5 30.0002 309.3 29.8002 309.1 29.5002C309 29.2002 308.9 28.9002 308.9 28.5002C308.9 28.1002 309 27.8002 309.2 27.5002C309.4 27.2002 309.6 27.0002 309.9 26.8002C310.2 26.6002 310.5 26.5002 310.9 26.4002C311.3 26.3002 311.6 26.2002 312 26.2002C312.7 26.2002 313.2 26.3002 313.7 26.5002C314.2 26.7002 314.6 26.9002 315 27.2002L314.2 28.2002C314 28.0002 313.7 27.8002 313.3 27.7002C312.9 27.6002 312.5 27.5002 312.1 27.5002C311.6 27.5002 311.2 27.6002 310.9 27.7002C310.6 27.9002 310.5 28.1002 310.5 28.5002C310.5 28.8002 310.7 29.1002 311.1 29.3002C311.5 29.5002 312 29.6002 312.6 29.8002C313 29.9002 313.3 30.0002 313.6 30.1002C313.9 30.2002 314.2 30.4002 314.4 30.6002C314.6 30.8002 314.8 31.0002 315 31.3002C315.1 31.6002 315.2 31.9002 315.2 32.3002C315.2 32.7002 315.1 33.0002 314.9 33.3002C314.7 33.6002 314.5 33.8002 314.2 34.1002C313.9 34.3002 313.5 34.5002 313.2 34.6002C312.8 34.7002 312.4 34.8002 312 34.8002C310.5 34.8002 309.4 34.4002 308.7 33.6002L309.5 32.3002Z" fill="#022535"/>
<path d="M317.5 32.3002C317.8 32.6002 318.1 32.8002 318.5 33.0002C318.9 33.2002 319.3 33.3002 319.9 33.3002C320.4 33.3002 320.8 33.2002 321.2 33.1002C321.5 32.9002 321.7 32.7002 321.7 32.3002C321.7 32.1002 321.7 32.0002 321.6 31.8002C321.5 31.7002 321.4 31.6002 321.2 31.5002C321 31.4002 320.8 31.3002 320.5 31.2002C320.2 31.1002 319.9 31.0002 319.4 30.9002C319.1 30.8002 318.8 30.7002 318.5 30.6002C318.2 30.5002 317.9 30.3002 317.7 30.2002C317.5 30.0002 317.3 29.8002 317.1 29.5002C317 29.2002 316.9 28.9002 316.9 28.5002C316.9 28.1002 317 27.8002 317.2 27.5002C317.4 27.2002 317.6 27.0002 317.9 26.8002C318.2 26.6002 318.5 26.5002 318.9 26.4002C319.3 26.3002 319.6 26.2002 320 26.2002C320.7 26.2002 321.2 26.3002 321.7 26.5002C322.2 26.7002 322.6 26.9002 323 27.2002L322.2 28.2002C322 28.0002 321.7 27.8002 321.3 27.7002C320.9 27.6002 320.5 27.5002 320.1 27.5002C319.6 27.5002 319.2 27.6002 318.9 27.7002C318.6 27.9002 318.5 28.1002 318.5 28.5002C318.5 28.8002 318.7 29.1002 319.1 29.3002C319.5 29.5002 320 29.6002 320.6 29.8002C321 29.9002 321.3 30.0002 321.6 30.1002C321.9 30.2002 322.2 30.4002 322.4 30.6002C322.6 30.8002 322.8 31.0002 323 31.3002C323.1 31.6002 323.2 31.9002 323.2 32.3002C323.2 32.7002 323.1 33.0002 322.9 33.3002C322.7 33.6002 322.5 33.8002 322.2 34.1002C321.9 34.3002 321.5 34.5002 321.2 34.6002C320.8 34.7002 320.4 34.8002 320 34.8002C318.5 34.8002 317.4 34.4002 316.7 33.6002L317.5 32.3002Z" fill="#022535"/>
<path d="M324.9 23.4004H326.6V25.1004H324.9V23.4004ZM325 26.5004H326.5V34.3004H325V26.5004Z" fill="#022535"/>
<path d="M332.5 34.5003C331.9 34.5003 331.3 34.4003 330.8 34.2003C330.3 34.0003 329.9 33.7003 329.5 33.3003C329.1 32.9003 328.8 32.5003 328.6 32.0003C328.4 31.5003 328.3 31.0003 328.3 30.4003C328.3 29.8003 328.4 29.3003 328.6 28.8003C328.8 28.3003 329.1 27.9003 329.5 27.5003C329.9 27.1003 330.3 26.8003 330.8 26.6003C331.3 26.4003 331.9 26.3003 332.5 26.3003C333.1 26.3003 333.6 26.4003 334.2 26.6003C334.7 26.8003 335.1 27.1003 335.5 27.5003C335.9 27.9003 336.2 28.3003 336.4 28.8003C336.6 29.3003 336.7 29.8003 336.7 30.4003C336.7 31.0003 336.6 31.5003 336.4 32.0003C336.2 32.5003 335.9 32.9003 335.5 33.3003C335.1 33.7003 334.7 34.0003 334.2 34.2003C333.6 34.4003 333.1 34.5003 332.5 34.5003ZM332.5 33.2003C332.9 33.2003 333.3 33.1003 333.6 33.0003C333.9 32.8003 334.2 32.6003 334.4 32.4003C334.6 32.1003 334.8 31.8003 334.9 31.5003C335 31.2003 335.1 30.8003 335.1 30.4003C335.1 30.1003 335 29.7003 334.9 29.4003C334.8 29.1003 334.6 28.8003 334.4 28.5003C334.2 28.2003 333.9 28.0003 333.6 27.9003C333.3 27.7003 332.9 27.7003 332.5 27.7003C332.1 27.7003 331.7 27.8003 331.4 27.9003C331.1 28.1003 330.8 28.3003 330.6 28.5003C330.4 28.8003 330.2 29.1003 330.1 29.4003C330 29.7003 329.9 30.1003 329.9 30.5003C329.9 30.9003 330 31.2003 330.1 31.5003C330.2 31.8003 330.4 32.1003 330.6 32.4003C330.8 32.7003 331.1 32.9003 331.4 33.0003C331.7 33.2003 332.1 33.2003 332.5 33.2003Z" fill="#022535"/>
<path d="M338.3 34.3005V27.0005C338.3 26.9005 338.3 26.7005 338.3 26.5005H339.8L339.9 27.7005C340 27.6005 340.1 27.4005 340.3 27.3005C340.4 27.1005 340.6 27.0005 340.8 26.9005C341 26.8005 341.3 26.7005 341.6 26.6005C341.9 26.5005 342.2 26.5005 342.6 26.5005C343.6 26.5005 344.4 26.8005 344.9 27.4005C345.4 28.0005 345.6 28.8005 345.6 29.8005V34.5005H344V29.9005C344 29.2005 343.8 28.6005 343.5 28.3005C343.2 28.0005 342.7 27.8005 342.2 27.8005C341.8 27.8005 341.4 27.9005 341.1 28.1005C340.8 28.3005 340.6 28.5005 340.4 28.8005C340.2 29.1005 340.1 29.4005 340 29.8005C339.9 30.2005 339.9 30.5005 339.9 30.9005V34.5005H338.3V34.3005Z" fill="#022535"/>
</svg>
