<svg width="1447" height="490" viewBox="0 0 1447 490" fill="none" xmlns="http://www.w3.org/2000/svg">
<path d="M1202.01 490H244.855C109.625 490 0 380.375 0 245.144C0 109.913 109.625 0.288034 244.855 0.288034H1202.01C1337.24 0.288034 1446.86 109.913 1446.86 245.144C1446.86 380.375 1337.24 490 1202.01 490Z" fill="black"/>
<path d="M428.977 182.564C394.055 182.564 368.029 208.755 368.029 243.512C368.029 247.959 369.017 254.548 370.17 259.161H408.716C405.421 255.043 403.115 248.289 403.115 243.512C403.115 228.687 414.151 217.65 428.977 217.65C443.802 217.65 454.838 228.687 454.838 243.512C454.838 258.337 442.978 269.374 427.494 269.374H403.444H369.017H335.413V189.647H293.079C257.993 189.647 231.637 216.662 231.637 252.572V269.703H177.278C162.452 269.703 151.416 258.666 151.416 243.841C151.416 229.016 162.452 217.98 177.278 217.98V182.564C142.356 182.564 116 208.755 116 243.677C116 278.763 142.356 305.119 177.442 305.119H231.801H267.382V269.538V252.407C267.382 236.923 278.418 225.063 293.244 225.063H300.492V305.119H369.182H403.609H427.659C463.569 305.119 490.584 278.763 490.584 243.677C490.419 208.755 464.063 182.564 428.977 182.564Z" fill="white"/>
<path d="M226.53 312.037C214.505 312.037 205.281 321.591 205.281 333.122C205.281 344.982 214.505 354.371 226.53 354.371C238.39 354.371 247.78 344.817 247.78 333.122C247.78 321.591 238.226 312.037 226.53 312.037Z" fill="white"/>
<path d="M176.948 312.037C164.923 312.037 155.699 321.591 155.699 333.122C155.699 344.982 164.923 354.371 176.948 354.371C188.808 354.371 198.198 344.817 198.198 333.122C198.362 321.591 188.808 312.037 176.948 312.037Z" fill="white"/>
<path d="M765.18 181.081C777.37 181.081 786.43 172.021 786.43 159.831C786.43 147.806 777.37 138.747 765.18 138.747C752.991 138.747 743.931 147.806 743.931 159.831C743.931 172.021 752.826 181.081 765.18 181.081Z" fill="white"/>
<path d="M762.05 269.538H759.085L742.448 225.227H768.968C782.311 225.227 790.218 232.64 790.218 245.323C790.383 259.16 778.358 269.538 762.05 269.538ZM875.545 253.395C875.545 263.608 869.286 269.538 858.908 269.538H818.55C822.833 261.302 825.469 252.077 825.469 240.711C825.469 209.578 805.372 189.647 771.439 189.647H705.714V227.039L721.857 269.538H561.91C551.532 269.538 545.272 263.608 545.272 253.395V150.277H509.692V253.395C509.692 284.857 530.282 305.118 561.91 305.118H858.908C890.535 305.118 911.126 284.693 911.126 253.395V189.647H875.545V253.395Z" fill="white"/>
<path d="M967.297 189.647H932.21V305.283H967.297V189.647Z" fill="white"/>
<path d="M949.671 155.384H967.462V139.241H949.671C937.811 139.241 928.916 147.971 928.916 159.832C928.916 171.692 937.976 180.587 949.671 180.587H967.462V164.444H949.671C947.2 164.444 945.059 162.302 945.059 159.832C944.894 157.196 947.036 155.384 949.671 155.384Z" fill="white"/>
<path d="M893.5 138.747C881.31 138.747 872.25 147.806 872.25 159.831C872.25 172.021 881.31 181.081 893.5 181.081C905.69 181.081 914.749 172.021 914.749 159.831C914.749 147.806 905.69 138.747 893.5 138.747Z" fill="white"/>
<path d="M1216.88 275.006C1207.09 288.341 1191.5 296.573 1174.25 296.573C1145.4 296.573 1121.84 273.195 1121.84 244.549C1121.84 215.903 1145.4 192.526 1174.25 192.526C1203.11 192.526 1226.66 215.903 1226.66 244.549V366.705L1245.24 370.162V244.549C1245.24 205.696 1213.4 173.923 1174.09 173.923C1134.95 173.923 1102.94 205.532 1102.94 244.549C1102.94 283.402 1134.78 315.176 1174.09 315.176C1189.84 315.176 1204.61 310.072 1216.71 301.182V275.006H1216.88Z" fill="#FF00FF"/>
<path d="M1216.46 313.276C1204.14 320.877 1189.69 325.173 1174.25 325.173C1130.08 325.173 1094.12 288.987 1094.12 244.539C1094.12 200.09 1130.08 163.904 1174.25 163.904C1218.43 163.904 1254.39 200.09 1254.39 244.539V372.43L1272.78 375.9V244.539C1272.78 189.846 1228.61 145.232 1174.09 145.232C1119.73 145.232 1075.4 189.681 1075.4 244.539C1075.4 299.231 1119.57 343.845 1174.09 343.845C1189.03 343.845 1203.48 340.54 1216.29 334.426V313.276H1216.46Z" fill="#00CFE5"/>
<path d="M1216.49 344.497C1203.29 350.085 1188.77 353.044 1174.09 353.044C1114.03 353.044 1065.19 304.395 1065.19 244.571C1065.19 184.746 1114.03 136.097 1174.09 136.097C1234.15 136.097 1282.99 184.746 1282.99 244.571V377.039L1301.47 380.491V244.571C1301.47 174.556 1244.38 117.69 1174.09 117.69C1103.8 117.69 1046.7 174.556 1046.7 244.571C1046.7 314.585 1103.8 371.451 1174.09 371.451C1188.61 371.451 1202.96 368.986 1216.49 364.22V344.497Z" fill="#03FF17"/>
<path d="M1217 374.962C1203.65 379.245 1189.32 381.551 1174.66 381.551C1099.05 381.551 1037.61 320.109 1037.61 244.5C1037.61 168.891 1099.05 107.449 1174.66 107.449C1250.27 107.449 1311.71 168.891 1311.71 244.5V382.539L1330.16 385.998V244.5C1330.16 158.679 1260.32 89 1174.66 89C1089.01 89 1019.16 158.843 1019.16 244.5C1019.16 330.157 1089.01 400 1174.66 400C1191.96 400 1208.76 397.2 1224.41 391.928C1233.14 388.963 1241.54 385.34 1249.45 380.892L1217 374.962Z" fill="#E0FF00"/>
</svg>
