<svg width="360" height="163" viewBox="0 0 360 163" fill="none" xmlns="http://www.w3.org/2000/svg">
<path d="M193.8 24.5998C190.1 24.5998 187.1 21.5998 187.1 17.8998V16.2998H190.3V17.8998C190.3 19.7998 191.9 21.3998 193.8 21.3998C195.7 21.3998 197.3 19.7998 197.3 17.8998V16.2998H200.5V17.8998C200.4 21.5998 197.4 24.5998 193.8 24.5998Z" fill="#91B8B3"/>
<path d="M183.5 24.5998C179.8 24.5998 176.8 21.5998 176.8 17.8998V16.2998H180V17.8998C180 19.7998 181.6 21.3998 183.5 21.3998C185.4 21.3998 187 19.7998 187 17.8998V16.2998H190.2V17.8998C190.2 21.5998 187.2 24.5998 183.5 24.5998Z" fill="#91B8B3"/>
<path d="M193.075 151.382C198.536 148.85 200.91 142.369 198.378 136.908C195.845 131.447 189.365 129.073 183.904 131.605C178.442 134.138 176.068 140.618 178.601 146.079C181.133 151.541 187.614 153.915 193.075 151.382Z" fill="#B51F35"/>
<path d="M188.5 162.8C176.8 162.8 167.2 153.2 167.2 141.5C167.2 129.8 176.8 120.2 188.5 120.2C200.2 120.2 209.8 129.8 209.8 141.5C209.8 153.3 200.3 162.8 188.5 162.8ZM188.5 123.4C178.5 123.4 170.4 131.5 170.4 141.5C170.4 151.5 178.5 159.6 188.5 159.6C198.5 159.6 206.6 151.5 206.6 141.5C206.7 131.5 198.5 123.4 188.5 123.4Z" fill="#91B8B3"/>
<path d="M334.3 25.3999H311.9V28.5999H334.3V25.3999Z" fill="#FF961A"/>
<path d="M242.4 78.4V113.9C220 120.1 193.6 100.1 172.5 86.6C153.9 74.8 139.3 68.4 135 90.4C135 84.1 135 80.3 135 80.2C135 61.9 147.1 45.5 166.2 45.5C196.6 45.5 207.5 78.9 242.4 78.4Z" fill="#91B8B3"/>
<path d="M355.1 61.5V68.4C355.1 71.2 354 73.2 352.6 74.5C349.5 76.9 345.5 78.4 341.3 78.4C332.2 78.4 324.7 71.9 322.9 63.4C321.2 72 313.6 78.4 304.5 78.4C295.4 78.4 287.9 71.9 286.1 63.4C284.5 71.5 277.7 77.7 269.3 78.4V114.5C277.7 113.8 284.5 107.6 286.1 99.5C287.8 108.1 295.4 114.5 304.5 114.5C313.6 114.5 321.1 108 322.9 99.5C324.6 108.1 332.2 114.5 341.3 114.5C345.8 114.5 350 112.9 353.2 110.2C357.4 106.7 359.6 101.4 359.6 95.9V70.9C359.7 63 355.1 61.5 355.1 61.5Z" fill="#FF961A"/>
<path d="M242.4 108.9V113.9C242.4 113.9 225 129.2 193.7 111.3C168.4 96.8001 152.8 97.0001 143.9 102.1C136.4 106.5 135 114.5 135 114.5C135 114.5 135.4 104.9 143.4 96.6001C150.7 89.0001 161.5 85.9001 172.5 86.6001C180.5 87.1001 188.5 89.6001 195.4 93.9001C212 104.2 231 116.5 242.4 108.9Z" fill="#91B8B3"/>
<path d="M0 109C0 100.6 0.899976 89.6 4.59998 80.4C4.59998 80.4 3.7 95.8 11 105.4C11 105.4 25.3 126.6 54.1 126.6C76.1 126.6 93.9 108.8 93.9 86.8V21.2C93.9 15.5 96.3999 10 100.7 6.2L107.7 0V109.1V109C107.7 138.7 83.5999 162.9 53.7999 162.9C23.9999 162.9 0 138.7 0 109Z" fill="#EB593D"/>
</svg>
