<svg width="52" height="85" viewBox="0 0 52 85" fill="none" xmlns="http://www.w3.org/2000/svg">
<path d="M43.9996 37.6003C43.9996 47.5003 35.9996 55.5003 26.0996 55.5003C16.1996 55.5003 8.19958 47.5003 8.19958 37.6003V19.7003C8.19958 9.80032 16.1996 1.80029 26.0996 1.80029C35.9996 1.80029 43.9996 9.80032 43.9996 19.7003V37.6003Z" stroke="#B51F35" stroke-width="3" stroke-miterlimit="10" stroke-linejoin="round"/>
<path d="M2.09961 31.6001V37.6001C2.09961 51.0001 12.5996 61.5001 25.9996 61.5001C39.3996 61.5001 49.8997 51.0001 49.8997 37.6001V31.6001" stroke="#B51F35" stroke-width="3" stroke-miterlimit="10" stroke-linecap="round" stroke-linejoin="round"/>
<path d="M25.9996 61.5V82.7" stroke="#B51F35" stroke-width="3" stroke-miterlimit="10" stroke-linecap="round" stroke-linejoin="round"/>
<path d="M25.9996 1.7002V10.6002" stroke="#B51F35" stroke-width="3" stroke-miterlimit="10" stroke-linecap="round" stroke-linejoin="round"/>
<path d="M31.9996 2.7002V10.6002" stroke="#B51F35" stroke-width="3" stroke-miterlimit="10" stroke-linecap="round" stroke-linejoin="round"/>
<path d="M19.9996 2.7002V10.6002" stroke="#B51F35" stroke-width="3" stroke-miterlimit="10" stroke-linecap="round" stroke-linejoin="round"/>
<path d="M2.09961 37.6001H49.9996" stroke="#B51F35" stroke-width="3" stroke-miterlimit="10" stroke-linejoin="round"/>
<path d="M8.09961 19.6001H19.9996" stroke="#B51F35" stroke-width="3" stroke-miterlimit="10" stroke-linecap="round" stroke-linejoin="round"/>
<path d="M8.09961 25.6001H19.9996" stroke="#B51F35" stroke-width="3" stroke-miterlimit="10" stroke-linecap="round" stroke-linejoin="round"/>
<path d="M43.9996 19.6001H31.9996" stroke="#B51F35" stroke-width="3" stroke-miterlimit="10" stroke-linecap="round" stroke-linejoin="round"/>
<path d="M43.9996 25.6001H31.9996" stroke="#B51F35" stroke-width="3" stroke-miterlimit="10" stroke-linecap="round" stroke-linejoin="round"/>
<path d="M8.09961 31.6001H19.9996" stroke="#B51F35" stroke-width="3" stroke-miterlimit="10" stroke-linecap="round" stroke-linejoin="round"/>
<path d="M43.9996 31.6001H31.9996" stroke="#B51F35" stroke-width="3" stroke-miterlimit="10" stroke-linecap="round" stroke-linejoin="round"/>
</svg>
