<svg width="70" height="74" viewBox="0 0 70 74" fill="none" xmlns="http://www.w3.org/2000/svg">
<path d="M68.27 1.97998H1.49994V71.79H68.27V1.97998Z" stroke="white" stroke-width="2.95" stroke-linecap="round" stroke-linejoin="round"/>
<path d="M34.89 44.47V23.23" stroke="white" stroke-width="2.95" stroke-linecap="round" stroke-linejoin="round"/>
<path d="M53.1899 44.4699V38.3999" stroke="white" stroke-width="2.95" stroke-linecap="round" stroke-linejoin="round"/>
<path d="M16.68 26.26V11.09" stroke="white" stroke-width="2.95" stroke-linecap="round" stroke-linejoin="round"/>
<path d="M16.68 44.47V32.33" stroke="white" stroke-width="2.95" stroke-linecap="round" stroke-linejoin="round"/>
<path d="M53.1899 32.33V11.09" stroke="white" stroke-width="2.95" stroke-linecap="round" stroke-linejoin="round"/>
<path d="M34.89 17.16V11.09" stroke="white" stroke-width="2.95" stroke-linecap="round" stroke-linejoin="round"/>
<path d="M59.2599 32.33H47.1199V38.4H59.2599V32.33Z" stroke="white" stroke-width="2.95" stroke-linecap="round" stroke-linejoin="round"/>
<path d="M40.9599 17.1599H28.8199V23.2299H40.9599V17.1599Z" stroke="white" stroke-width="2.95" stroke-linecap="round" stroke-linejoin="round"/>
<path d="M22.7499 26.26H10.6099V32.33H22.7499V26.26Z" stroke="white" stroke-width="2.95" stroke-linecap="round" stroke-linejoin="round"/>
<path d="M53.2199 62.68C55.7328 62.68 57.77 60.6429 57.77 58.13C57.77 55.6171 55.7328 53.58 53.2199 53.58C50.707 53.58 48.67 55.6171 48.67 58.13C48.67 60.6429 50.707 62.68 53.2199 62.68Z" stroke="white" stroke-width="2.95" stroke-linecap="round" stroke-linejoin="round"/>
<path d="M34.89 62.68C37.4028 62.68 39.4399 60.6429 39.4399 58.13C39.4399 55.6171 37.4028 53.58 34.89 53.58C32.3771 53.58 30.3399 55.6171 30.3399 58.13C30.3399 60.6429 32.3771 62.68 34.89 62.68Z" stroke="white" stroke-width="2.95" stroke-linecap="round" stroke-linejoin="round"/>
<path d="M16.68 62.68C19.1929 62.68 21.2299 60.6429 21.2299 58.13C21.2299 55.6171 19.1929 53.58 16.68 53.58C14.1671 53.58 12.1299 55.6171 12.1299 58.13C12.1299 60.6429 14.1671 62.68 16.68 62.68Z" stroke="white" stroke-width="2.95" stroke-linecap="round" stroke-linejoin="round"/>
</svg>
