<svg width="86" height="145" viewBox="0 0 86 145" fill="none" xmlns="http://www.w3.org/2000/svg">
<path d="M36.42 100.76V94.2601C36.42 86.9801 33.27 82.0502 20.47 70.4402C4.12997 56.4602 0 47.0102 0 34.8102C0 12.7602 15.55 0.160156 41.14 0.160156C66.73 0.160156 84.05 16.8902 85.23 42.8802H65.5499C64.1699 30.8702 55.1199 23.1902 40.5499 23.1902C28.5399 23.1902 21.65 28.1102 21.65 36.5802C21.65 41.9002 23.62 47.2102 34.25 57.2502C50.98 72.4102 55.51 79.6902 55.51 93.0802V100.76H36.42ZM45.67 144.26C37.01 144.26 30.12 137.57 30.12 128.91C30.12 120.25 37.01 113.36 45.67 113.36C54.33 113.36 61.62 120.25 61.62 128.91C61.62 137.57 54.53 144.26 45.67 144.26Z" fill="#EB593D"/>
</svg>
