<svg width="1963" height="907" viewBox="0 0 1963 907" fill="none" xmlns="http://www.w3.org/2000/svg">
<path d="M1963 907H0V-3.17884e-06H1963V907Z" fill="#0E2938"/>
<path d="M1151.8 436.486C1148.03 407.462 1139.38 379.922 1118.6 355.566C1115.95 352.467 1113.18 349.488 1110.35 346.613C1107.59 343.819 1104.81 341.064 1101.98 338.355C1099.2 335.685 1096.41 333.03 1093.54 330.491C1093.43 330.4 1093.33 330.304 1093.23 330.214C1092.68 329.739 1092.14 329.259 1091.59 328.779C1085.93 323.815 1080.05 319.097 1074.02 314.699C1070.75 312.315 1067.46 309.968 1064.08 307.78C1060.9 305.721 1057.72 303.649 1054.42 301.828C1052.76 300.915 1051.11 299.973 1049.42 299.142C1047.52 298.205 1045.61 297.296 1043.68 296.413C1040.27 294.853 1036.73 293.606 1033.2 292.411C1026.03 289.985 1018.63 288.242 1011.17 287.22C1003.71 286.188 996.18 285.397 988.643 285.216C984.555 285.126 980.475 285.101 976.388 285.279C972.659 285.441 968.931 285.795 965.221 286.254C964.413 286.356 963.6 286.458 962.787 286.554C963.024 286.526 963.261 286.498 963.502 286.47C956.283 287.358 949.078 288.708 942.003 290.629C937.725 291.811 933.47 293.089 929.249 294.523C925.156 295.914 921.045 297.323 917.025 298.971C913.374 300.473 909.727 302.004 906.163 303.756C902.781 305.41 899.42 307.128 896.119 308.974C889.252 312.818 882.543 317.039 876.133 321.795C869.803 326.493 863.729 331.612 857.702 336.796C854.622 339.442 851.692 342.304 848.925 345.35C846.292 348.254 843.681 351.201 841.21 354.283C836.125 360.629 831.426 367.416 827.164 374.473C825.152 377.809 823.241 381.221 821.382 384.661C819.391 388.351 817.42 392.066 815.769 395.96C812.473 403.744 809.593 411.73 807.688 420.073C806.801 423.975 805.957 427.884 805.212 431.824C804.459 435.809 804.024 439.842 803.625 443.886C803.207 448.109 802.987 452.324 803.001 456.567C803.015 460.528 803.138 464.501 803.413 468.445C803.686 472.375 804.033 476.313 804.504 480.213L807.982 551.575H948.823C948.823 533.59 963.402 519.009 981.388 519.009C999.373 519.009 1013.95 533.59 1013.95 551.575H1155.77C1155.51 534.067 1155.24 516.558 1154.98 499.05C1154.66 477.856 1154.43 456.807 1151.8 436.486ZM943.971 302.708C944.078 302.676 944.184 302.651 944.287 302.619C945.7 302.257 947.111 301.914 948.53 301.59C946.997 301.94 945.478 302.314 943.971 302.708Z" fill="#FC4C2C"/>
<path d="M807.382 566.473C806.986 562.015 808.065 557.122 807.382 552.708C807.311 552.245 807.464 552.035 807.382 551.575H664.583C664.583 569.56 650.003 584.14 632.018 584.14C614.032 584.14 599.453 569.56 599.453 551.575H460.361C459.595 554.99 458.86 558.41 458.208 561.855C457.449 565.876 457.013 569.946 456.611 574.026C456.234 577.864 456.003 581.715 456 585.572C455.995 589.857 456.114 594.16 456.413 598.428C456.684 602.353 457.031 606.286 457.502 610.18C457.996 614.254 458.91 618.255 459.804 622.231C460.189 623.931 460.582 625.632 460.975 627.327C461.084 628.372 461.202 629.412 461.333 630.45C461.885 634.814 462.471 639.161 463.197 643.489C463.569 645.7 463.977 647.904 464.399 650.104C464.815 652.266 465.307 654.405 465.782 656.552C466.249 658.661 466.842 660.738 467.38 662.833C467.535 663.44 467.725 664.036 467.917 664.63C468.304 665.83 468.611 667.095 469.018 668.287C470.401 672.377 471.74 676.484 473.326 680.473C474.887 684.39 476.443 688.331 478.169 692.155C481.546 699.648 485.005 707.122 488.884 714.294C490.916 718.052 492.984 721.77 495.162 725.418C497.205 728.848 499.363 732.182 501.535 735.502C503.807 738.973 506.194 742.358 508.612 745.693C510.984 748.973 513.381 752.25 515.899 755.394C518.546 758.701 521.247 761.944 524.05 765.091C525.415 766.624 526.824 768.109 528.232 769.603C529.401 770.838 530.611 772.057 531.839 773.215C534.889 776.1 537.963 778.929 541.132 781.647C543.942 784.062 546.818 786.428 549.818 788.543C551.581 789.79 553.341 791.024 555.147 792.199C556.924 793.356 558.723 794.437 560.539 795.521C561.981 796.38 563.449 797.196 564.95 797.946C566.755 798.848 568.546 799.783 570.371 800.63C577.48 803.932 584.717 806.917 592.135 809.261C594.068 809.866 595.996 810.465 597.944 811.01C599.904 811.565 601.868 812.059 603.841 812.553C607.323 813.415 610.849 814.107 614.373 814.703C615.366 814.873 616.362 815.041 617.356 815.208C622.088 816.01 626.841 816.568 631.608 817.06C636.1 817.527 640.618 817.629 645.129 817.723L645.088 817.72C646.714 817.757 648.348 817.738 649.976 817.676C652.037 817.598 654.095 817.51 656.155 817.375C658.102 817.248 660.041 817.045 661.986 816.867C663.11 816.757 664.23 816.57 665.347 816.416C666.09 816.315 666.836 816.211 667.573 816.077C668.713 815.868 669.848 815.658 670.987 815.449C671.865 815.29 672.737 815.033 673.601 814.827C675.646 814.334 677.651 813.725 679.666 813.104C680.41 812.874 681.139 812.597 681.865 812.316C682.95 811.894 684.044 811.523 685.111 811.046C687.148 810.129 689.204 809.285 691.162 808.183C691.958 807.815 692.724 807.384 693.505 806.986C694.337 806.56 695.146 806.047 695.958 805.574C702.868 801.569 709.474 796.911 715.825 791.877C718.835 789.498 721.798 786.985 724.599 784.302C726.162 782.813 727.712 781.327 729.236 779.789C730.759 778.251 732.252 776.673 733.741 775.086C739.261 769.213 744.449 762.92 749.496 756.539C754.648 750.025 759.548 743.283 764.234 736.344C766.427 733.099 768.592 729.824 770.621 726.446C771.815 724.46 772.98 722.468 774.121 720.452C775.196 718.552 776.207 716.613 777.23 714.682C779.19 710.991 780.903 707.129 782.583 703.28C784.248 699.457 785.824 695.583 787.334 691.686C790.364 683.873 793.303 675.98 795.551 667.838C797.847 659.526 799.755 651.12 801.436 642.634C803.129 634.093 804.663 625.534 805.825 616.885C806.356 612.952 806.754 608.974 807.001 605.01L807.055 604.112C807.296 600.106 807.495 596.087 807.54 592.069C807.639 583.437 808.138 575.053 807.382 566.473Z" fill="white"/>
<path d="M1504.59 551.575H1362C1362 569.56 1347.42 584.14 1329.43 584.14C1311.44 584.14 1296.87 569.56 1296.87 551.575H1156L1156.83 629.028C1156.59 633.041 1156.39 637.064 1156.35 641.087C1156.25 649.731 1156.56 658.352 1157.31 666.943C1157.71 671.408 1158.22 675.831 1158.9 680.252C1159.23 682.378 1159.68 684.484 1160.15 686.577C1160.59 688.48 1161.03 690.392 1161.6 692.252C1162.9 696.525 1164.3 700.749 1165.97 704.852C1167.68 709.052 1169.58 713.126 1171.63 717.125C1173.5 720.769 1175.62 724.227 1177.79 727.65C1180 731.14 1182.41 734.499 1184.88 737.761C1187.42 741.131 1190.03 744.41 1192.75 747.598C1195.39 750.697 1198.17 753.676 1201 756.551C1203.75 759.346 1206.54 762.1 1209.36 764.809C1212.15 767.479 1214.93 770.135 1217.81 772.674C1217.91 772.764 1218.02 772.86 1218.12 772.951C1218.66 773.426 1219.21 773.905 1219.75 774.386C1225.41 779.348 1231.29 784.067 1237.32 788.466C1240.59 790.849 1243.89 793.197 1247.27 795.385C1250.44 797.442 1253.63 799.515 1256.93 801.337C1258.58 802.25 1260.23 803.191 1261.93 804.021C1263.83 804.96 1265.74 805.869 1267.66 806.752C1271.08 808.311 1274.61 809.558 1278.14 810.754C1285.31 813.179 1292.71 814.922 1300.17 815.944C1307.64 816.976 1315.17 817.767 1322.7 817.948C1326.79 818.039 1330.87 818.062 1334.96 817.886C1338.69 817.723 1342.42 817.37 1346.12 816.911C1346.93 816.808 1347.75 816.707 1348.56 816.61C1348.32 816.638 1348.09 816.667 1347.85 816.694C1355.06 815.806 1362.27 814.457 1369.34 812.535C1373.62 811.353 1377.88 810.076 1382.1 808.641C1386.19 807.25 1390.3 805.842 1394.32 804.192C1397.97 802.691 1401.62 801.16 1405.18 799.409C1408.57 797.754 1411.93 796.037 1415.23 794.189C1422.1 790.346 1428.8 786.126 1435.21 781.37C1441.54 776.672 1447.62 771.553 1453.64 766.369C1456.72 763.722 1459.65 760.86 1462.42 757.814C1465.06 754.911 1467.67 751.964 1470.14 748.881C1475.22 742.536 1479.92 735.749 1484.18 728.691C1486.19 725.355 1488.11 721.943 1489.96 718.504C1491.95 714.813 1493.93 711.098 1495.58 707.205C1509.18 675.116 1508.2 643.557 1506.42 609.63C1506.19 605.176 1504.93 551.575 1504.59 551.575ZM1367.06 800.546C1365.65 800.907 1364.24 801.25 1362.82 801.574C1364.35 801.224 1365.87 800.849 1367.38 800.456C1367.27 800.487 1367.16 800.513 1367.06 800.546Z" fill="white"/>
<path d="M1853.61 512.272C1853.33 508.342 1852.99 504.403 1852.51 500.503C1852.02 496.424 1851.1 492.418 1850.21 488.437C1849.82 486.735 1849.43 485.032 1849.04 483.335C1848.93 482.288 1848.81 481.247 1848.68 480.209C1848.13 475.838 1847.54 471.486 1846.81 467.152C1846.44 464.938 1846.03 462.731 1845.61 460.528C1845.19 458.363 1844.7 456.221 1844.22 454.072C1843.78 452.055 1843.22 450.07 1842.7 448.068C1842.46 447.141 1842.15 446.228 1841.88 445.314C1841.58 444.318 1841.32 443.295 1840.98 442.321C1839.6 438.225 1838.26 434.114 1836.67 430.119C1835.11 426.197 1833.55 422.251 1831.82 418.421C1828.44 410.918 1824.98 403.434 1821.09 396.253C1819.06 392.491 1816.99 388.768 1814.81 385.115C1812.76 381.68 1810.6 378.342 1808.42 375.018C1806.15 371.542 1803.76 368.153 1801.34 364.813C1798.96 361.529 1796.56 358.248 1794.04 355.1C1791.39 351.789 1788.69 348.541 1785.88 345.39C1784.51 343.855 1783.1 342.368 1781.69 340.873C1780.52 339.635 1779.31 338.415 1778.08 337.254C1775.03 334.367 1771.95 331.534 1768.77 328.812C1765.96 326.395 1763.08 324.025 1760.08 321.907C1758.31 320.658 1756.55 319.423 1754.74 318.247C1752.98 317.101 1751.2 316.03 1749.4 314.958C1747.94 314.085 1746.44 313.251 1744.93 312.492C1743.12 311.588 1741.33 310.653 1739.5 309.804C1732.38 306.498 1725.13 303.508 1717.7 301.162C1715.77 300.556 1713.84 299.956 1711.89 299.411C1709.92 298.855 1707.96 298.36 1705.98 297.866C1702.5 297.002 1698.97 296.31 1695.44 295.712C1694.44 295.543 1693.45 295.375 1692.45 295.208C1687.71 294.405 1682.95 293.846 1678.18 293.353C1673.68 292.885 1669.16 292.782 1664.64 292.689L1664.68 292.692C1663.05 292.655 1661.42 292.674 1659.79 292.736C1657.72 292.814 1655.66 292.902 1653.6 293.037C1651.65 293.165 1649.71 293.368 1647.76 293.546C1646.59 293.66 1645.43 293.858 1644.27 294.014C1643.57 294.113 1642.86 294.207 1642.16 294.338C1641.02 294.547 1639.89 294.757 1638.75 294.966C1637.87 295.125 1637 295.382 1636.13 295.589C1634.02 296.097 1631.95 296.73 1629.87 297.372C1629.06 297.625 1628.26 297.953 1627.46 298.257C1626.5 298.618 1625.54 298.956 1624.61 299.375C1622.88 300.154 1621.13 300.881 1619.44 301.758C1618.35 302.324 1617.25 302.887 1616.15 303.465C1615.34 303.887 1614.54 304.39 1613.75 304.855C1606.83 308.865 1600.21 313.528 1593.85 318.568C1590.84 320.951 1587.87 323.467 1585.07 326.154C1583.5 327.645 1581.95 329.131 1580.42 330.672C1578.9 332.212 1577.4 333.793 1575.91 335.381C1570.39 341.262 1565.19 347.563 1560.14 353.953C1554.98 360.476 1550.07 367.227 1545.38 374.174C1543.18 377.424 1541.02 380.704 1538.98 384.085C1537.79 386.074 1536.62 388.068 1535.48 390.088C1534.4 391.99 1533.39 393.932 1532.37 395.865C1530.41 399.561 1528.69 403.428 1527.01 407.283C1525.34 411.11 1523.76 414.989 1522.25 418.891C1519.22 426.714 1516.27 434.618 1514.02 442.77C1511.72 451.093 1509.81 459.51 1508.13 468.007C1506.43 476.559 1504.9 485.13 1503.73 493.791C1503.2 497.728 1502.8 501.711 1502.56 505.68L1502.5 506.581C1502.26 510.592 1502.06 514.616 1502.02 518.639C1501.92 527.283 1502.23 535.904 1502.98 544.495C1503.19 546.865 1503.44 549.223 1503.72 551.576H1645.44C1645.44 533.59 1660.02 519.01 1678.01 519.01C1695.99 519.01 1710.57 533.59 1710.57 551.576H1851.27C1851.45 550.681 1851.64 549.79 1851.81 548.892C1852.56 544.907 1853 540.874 1853.39 536.83C1853.81 532.607 1854.03 528.392 1854.02 524.149C1854 520.188 1853.88 516.215 1853.61 512.272Z" fill="white"/>
<path d="M212 112.026C212.587 110.15 212.931 108.151 213.806 106.42C216.893 100.32 221.957 97.0619 228.799 96.6879C230.733 96.5829 232.678 96.6719 234.733 96.6719C234.733 95.2769 234.724 93.9899 234.735 92.7029C234.756 89.9509 236.535 88.0179 239.045 88.0069C241.558 87.9959 243.365 89.9279 243.391 92.6659C243.403 93.9569 243.393 95.2479 243.393 96.5969H262.886C262.886 95.1609 262.838 93.6969 262.895 92.2379C263.011 89.2559 265.819 87.3109 268.602 88.2429C270.31 88.8139 271.469 90.3729 271.524 92.2659C271.564 93.6699 271.532 95.0769 271.532 96.5699H291.249C291.249 95.1319 291.195 93.6669 291.26 92.2059C291.409 88.8199 295.034 86.8939 297.867 88.6799C299.186 89.5109 299.85 90.7519 299.888 92.2979C299.922 93.7009 299.895 95.1039 299.895 96.6579C301.166 96.6579 302.378 96.6799 303.589 96.6519C306.311 96.5879 308.984 96.7959 311.572 97.7519C318.033 100.141 322.694 106.39 322.8 113.292C322.928 121.731 322.859 130.174 322.833 138.616C322.826 141.111 320.914 142.97 318.522 142.971C316.091 142.973 314.207 141.084 314.199 138.514C314.174 130.505 314.193 122.497 314.187 114.488C314.184 110.779 312.664 107.92 309.291 106.247C308.315 105.764 307.173 105.466 306.087 105.394C304.08 105.26 302.059 105.356 299.899 105.356C299.899 106.663 299.907 107.947 299.898 109.23C299.879 112.044 298.071 113.996 295.52 113.966C293.012 113.937 291.26 112.006 291.241 109.239C291.233 107.981 291.24 106.723 291.24 105.39H271.538C271.538 106.581 271.539 107.759 271.538 108.938C271.533 111.98 269.846 113.951 267.234 113.966C264.615 113.982 262.884 112.006 262.878 108.99C262.876 107.807 262.878 106.624 262.878 105.379H243.386C243.386 106.806 243.432 108.269 243.376 109.728C243.263 112.712 240.461 114.66 237.676 113.733C235.931 113.152 234.786 111.57 234.742 109.607C234.711 108.211 234.736 106.814 234.736 105.203C232.183 105.328 229.696 105.179 227.324 105.628C223.452 106.359 220.894 109.729 220.673 113.788C220.658 114.075 220.661 114.365 220.661 114.653C220.661 136.731 220.662 158.809 220.658 180.886C220.657 184.636 222.118 187.593 225.568 189.214C226.887 189.834 228.479 190.117 229.949 190.128C240.592 190.202 251.237 190.174 261.881 190.159C263.279 190.156 264.532 190.46 265.533 191.476C267.613 193.591 266.975 197.112 264.288 198.395C263.967 198.548 263.637 198.683 263.311 198.826H227.372C227.211 198.759 227.057 198.659 226.891 198.631C220.802 197.651 216.361 194.386 213.706 188.85C212.899 187.168 212.556 185.261 212 183.458V112.026Z" fill="#FC4C2C"/>
<path d="M314.182 172.615C314.169 162.964 306.248 155.074 296.602 155.104C286.988 155.135 279.138 162.988 279.115 172.599C279.092 182.245 286.988 190.159 296.64 190.164C306.29 190.17 314.195 182.262 314.182 172.615ZM294.484 198.825C292.011 198.213 289.458 197.821 287.081 196.95C275.841 192.838 268.717 180.39 270.815 168.612C272.665 158.228 278.606 151.052 288.592 147.812C298.862 144.48 308.143 146.905 315.613 154.712C322.491 161.897 324.568 170.658 321.662 180.139C318.563 190.257 311.476 196.344 301.035 198.415C300.296 198.56 299.554 198.689 298.813 198.825H294.484Z" fill="#FC4C2C"/>
<path d="M243.383 133.466C243.377 135.846 241.404 137.797 239.023 137.777C236.643 137.755 234.703 135.769 234.739 133.39C234.774 131.053 236.706 129.142 239.045 129.134C241.425 129.125 243.389 131.086 243.383 133.466Z" fill="#FC4C2C"/>
<path d="M257.925 137.776C255.544 137.793 253.574 135.838 253.574 133.458C253.572 131.078 255.541 129.12 257.92 129.133C260.259 129.147 262.188 131.062 262.218 133.399C262.249 135.778 260.305 137.76 257.925 137.776Z" fill="#FC4C2C"/>
<path d="M281.055 133.477C281.043 135.857 279.064 137.804 276.684 137.776C274.304 137.749 272.369 135.758 272.411 133.379C272.451 131.042 274.39 129.136 276.727 129.134C279.107 129.131 281.067 131.097 281.055 133.477Z" fill="#FC4C2C"/>
<path d="M295.573 137.776C293.193 137.78 291.234 135.814 291.246 133.433C291.258 131.054 293.237 129.107 295.617 129.133C297.954 129.161 299.872 131.086 299.89 133.423C299.908 135.802 297.954 137.773 295.573 137.776Z" fill="#FC4C2C"/>
<path d="M239.019 147.966C241.399 147.943 243.375 149.891 243.384 152.272C243.393 154.652 241.432 156.615 239.051 156.609C236.712 156.603 234.777 154.695 234.739 152.358C234.701 149.98 236.64 147.989 239.019 147.966Z" fill="#FC4C2C"/>
<path d="M257.921 156.608C255.541 156.623 253.573 154.665 253.574 152.285C253.575 149.905 255.545 147.95 257.925 147.965C260.263 147.982 262.19 149.898 262.218 152.235C262.247 154.614 260.302 156.594 257.921 156.608Z" fill="#FC4C2C"/>
<path d="M243.383 171.21C243.333 173.589 241.32 175.504 238.942 175.439C236.563 175.373 234.661 173.351 234.741 170.973C234.82 168.636 236.788 166.763 239.126 166.797C241.505 166.832 243.434 168.831 243.383 171.21Z" fill="#FC4C2C"/>
<path d="M257.902 175.44C255.521 175.444 253.562 173.476 253.574 171.097C253.587 168.717 255.566 166.771 257.945 166.797C260.283 166.825 262.201 168.749 262.219 171.086C262.237 173.466 260.282 175.437 257.902 175.44Z" fill="#FC4C2C"/>
<path d="M300.965 168.321C301.821 168.321 302.506 168.282 303.185 168.328C305.52 168.487 307.282 170.398 307.249 172.698C307.216 174.954 305.462 176.846 303.166 176.93C300.899 177.013 298.624 177.016 296.358 176.925C294.15 176.837 292.408 175.08 292.351 172.862C292.273 169.767 292.274 166.667 292.348 163.571C292.405 161.222 294.34 159.441 296.641 159.438C298.94 159.434 300.847 161.215 300.952 163.558C301.022 165.096 300.965 166.64 300.965 168.321Z" fill="#FC4C2C"/>
<path d="M1487 127.187C1487 128.859 1485.7 130.151 1484.03 130.151C1482.28 130.151 1480.99 128.859 1480.99 127.187C1480.99 125.439 1482.28 124.147 1484.03 124.147C1485.7 124.147 1487 125.439 1487 127.187ZM1480.12 127.187C1480.12 128.859 1478.86 130.151 1477.15 130.151C1475.44 130.151 1474.11 128.859 1474.11 127.187C1474.11 125.439 1475.44 124.147 1477.15 124.147C1478.86 124.147 1480.12 125.439 1480.12 127.187ZM1491.52 153.787L1490.15 155.155C1485.29 155.155 1483.31 153.559 1482.7 149.911C1481.71 152.799 1479.78 154.129 1476.62 154.129C1472.25 154.129 1469.78 151.431 1469.78 146.871C1469.78 142.653 1472.25 139.613 1476.62 138.017L1482.13 135.965V132.203H1488.82V145.009C1488.82 147.175 1489.54 147.973 1491.52 147.973V153.787ZM1474.49 145.389C1474.49 146.339 1475.22 146.947 1477.61 146.947C1480.35 146.947 1482.13 146.187 1482.13 143.793V141.209L1477.27 143.033C1475.18 143.831 1474.49 144.401 1474.49 145.389ZM1508.45 130.341C1508.45 132.013 1507.16 133.305 1505.49 133.305C1503.74 133.305 1502.45 132.013 1502.45 130.341C1502.45 128.593 1503.74 127.301 1505.49 127.301C1507.16 127.301 1508.45 128.593 1508.45 130.341ZM1501.61 130.341C1501.61 132.013 1500.32 133.305 1498.61 133.305C1496.9 133.305 1495.57 132.013 1495.57 130.341C1495.57 128.593 1496.9 127.301 1498.61 127.301C1500.32 127.301 1501.61 128.593 1501.61 130.341ZM1493.1 155.155H1490.67V149.189L1492.04 147.973H1493.97C1493.4 146.871 1493.1 145.655 1493.1 144.363C1493.1 139.461 1497.01 135.357 1502.03 135.357C1507.01 135.357 1510.69 139.537 1510.69 144.363C1510.69 145.617 1510.31 146.833 1509.59 147.973H1511.83V153.787L1510.5 155.155H1509.36C1506.36 155.155 1503.63 154.661 1501.27 153.825C1498.8 154.661 1496.03 155.155 1493.1 155.155ZM1497.85 144.705C1497.85 145.997 1499.48 146.985 1502.41 147.517C1504.8 146.985 1505.98 146.073 1505.98 144.933C1505.98 143.565 1504.2 142.501 1501.73 142.539C1499.29 142.539 1497.85 143.489 1497.85 144.705ZM1512.98 155.155H1511V149.189L1512.37 147.973C1514.65 147.973 1515.34 146.947 1515.34 144.249C1515.34 142.691 1515.15 140.525 1514.8 137.827H1521.07C1521.38 140.677 1521.57 143.261 1521.57 145.427C1521.57 151.659 1518.57 155.155 1512.98 155.155ZM1520.47 160.209C1520.47 161.919 1519.17 163.211 1517.46 163.211C1515.75 163.211 1514.46 161.919 1514.46 160.209C1514.46 158.499 1515.75 157.169 1517.46 157.169C1519.17 157.169 1520.47 158.499 1520.47 160.209ZM1533.02 155.155H1532.37C1526.82 155.155 1524.81 152.419 1524.81 146.567V126.655H1531.5V144.857C1531.5 147.289 1532.1 147.973 1534.35 147.973V153.787L1533.02 155.155ZM1565.49 155.155C1561.99 155.155 1559.79 153.483 1559.22 150.595C1558.84 153.863 1557.09 155.649 1554.32 155.649C1551.85 155.649 1549.91 154.129 1549.41 151.469C1549.03 154.167 1547.32 155.649 1544.74 155.649C1541.78 155.649 1539.72 153.939 1539.23 151.013C1538.77 153.711 1536.76 155.155 1533.49 155.155V149.189L1534.86 147.973C1537.1 147.973 1538.01 147.137 1538.01 144.971V143.147H1544.25V144.971C1544.25 147.175 1544.82 148.201 1546.11 148.201C1547.21 148.201 1547.89 147.175 1547.89 144.971V143.147H1554.13V144.971C1554.13 147.175 1554.73 148.201 1555.91 148.201C1557.05 148.201 1557.7 147.137 1557.7 144.971V141.817H1563.89V144.971C1563.89 147.137 1564.73 147.973 1566.82 147.973V153.787L1565.49 155.155ZM1590.78 155.155C1588 155.155 1586.06 153.863 1584.62 150.861C1583.78 154.281 1581.77 155.649 1578.27 155.649C1575.31 155.649 1573.11 154.623 1572.19 152.001C1570.79 154.205 1568.81 155.155 1565.96 155.155V149.189L1567.33 147.973C1569.12 147.973 1569.8 147.403 1570.75 145.465L1572.08 142.805C1573.79 139.347 1576.37 137.447 1579.45 137.447C1583.52 137.447 1585.99 139.195 1588 143.603L1588.31 144.287C1589.64 147.175 1590.47 147.973 1592.11 147.973V153.787L1590.78 155.155ZM1574.89 146.681C1574.89 147.821 1576.03 148.467 1578.46 148.467C1580.86 148.467 1582.38 148.163 1583.1 147.479C1582.04 145.351 1580.63 144.477 1578.27 144.477C1576.3 144.477 1574.89 145.541 1574.89 146.681ZM1605.06 153.787L1603.7 155.155C1599.59 155.155 1597.27 153.369 1596.74 150.063C1596.29 153.331 1594.39 155.155 1591.27 155.155V149.189L1592.64 147.973C1594.8 147.973 1595.53 147.023 1595.53 144.781V126.655H1602.21V144.781C1602.21 147.365 1602.82 147.973 1605.06 147.973V153.787ZM1606.62 155.155H1604.22V149.189L1605.59 147.973C1607.87 147.973 1608.44 147.327 1608.44 144.629V126.655H1615.17V144.781C1615.17 151.887 1612.47 155.155 1606.62 155.155ZM1655.51 132.811C1655.51 134.483 1654.26 135.775 1652.55 135.775C1650.84 135.775 1649.51 134.483 1649.51 132.811C1649.51 131.063 1650.84 129.771 1652.55 129.771C1654.26 129.771 1655.51 131.063 1655.51 132.811ZM1654.52 156.827C1654.52 161.349 1648.29 164.807 1639.78 164.807C1630.39 164.807 1625.83 160.969 1625.83 153.217C1625.83 151.393 1626.02 149.379 1626.44 147.403H1632.52C1632.22 149.037 1632.07 150.367 1632.07 151.659C1632.07 155.421 1634.84 157.321 1640.69 157.321C1645.97 157.321 1649.28 156.599 1649.28 155.345C1649.28 154.585 1648.29 153.939 1645.59 153.939H1641.34V146.719H1647.76C1649.66 146.719 1650.5 146.073 1650.5 144.249C1650.5 142.691 1650.27 140.525 1649.81 137.827H1656.04C1656.5 140.677 1656.69 143.261 1656.69 145.427C1656.69 149.379 1655.02 151.963 1651.94 152.761C1653.76 153.825 1654.52 155.041 1654.52 156.827ZM1646.24 169.899C1646.24 171.571 1644.95 172.863 1643.24 172.863C1641.53 172.863 1640.24 171.571 1640.24 169.899C1640.24 168.151 1641.53 166.859 1643.24 166.859C1644.95 166.859 1646.24 168.151 1646.24 169.899ZM1639.36 169.899C1639.36 171.571 1638.11 172.863 1636.4 172.863C1634.69 172.863 1633.36 171.571 1633.36 169.899C1633.36 168.151 1634.69 166.859 1636.4 166.859C1638.11 166.859 1639.36 168.151 1639.36 169.899ZM1679.52 147.137C1679.52 152.457 1676.37 155.649 1671.05 155.649C1667.93 155.649 1664.89 154.737 1662.99 152.913C1661.58 154.471 1659.8 155.155 1657.25 155.155V149.189L1658.62 147.973C1660.44 147.973 1661.28 147.327 1662.27 145.275L1663.37 143.147C1665.31 139.309 1667.74 137.447 1671.39 137.447C1676.06 137.447 1679.52 141.323 1679.52 147.137ZM1671.65 144.477C1669.03 144.477 1667.36 145.275 1666.26 147.061C1667.74 147.973 1669.94 148.467 1671.84 148.467C1674.12 148.467 1675.07 147.973 1675.07 146.681C1675.07 145.389 1673.78 144.477 1671.65 144.477ZM1690.46 135.471C1690.46 137.143 1689.2 138.435 1687.49 138.435C1685.78 138.435 1684.45 137.143 1684.45 135.471C1684.45 133.723 1685.78 132.431 1687.49 132.431C1689.2 132.431 1690.46 133.723 1690.46 135.471ZM1694.45 155.155C1692.62 155.155 1691.29 154.547 1690.49 153.369C1690.27 160.893 1687.49 164.541 1682.02 164.541C1680.84 164.541 1679.63 164.465 1678.64 164.351V157.131C1679.7 157.245 1680.54 157.321 1681.34 157.321C1684.19 157.321 1686.16 155.649 1686.16 150.785C1686.16 147.631 1685.63 144.287 1684.79 140.487H1691.33L1691.86 143.869C1692.36 147.061 1693.34 147.973 1695.78 147.973V153.787L1694.45 155.155ZM1697.31 155.155H1694.92V149.189L1696.29 147.973C1698.57 147.973 1699.14 147.327 1699.14 144.629V126.655H1705.86V144.781C1705.86 151.887 1703.16 155.155 1697.31 155.155ZM1716.75 155.155H1710.06V126.655H1716.75V155.155ZM1736.67 155.155H1725.31V147.973H1728.43C1728.77 147.327 1729.11 146.719 1729.45 146.111V126.655H1736.14V138.397C1738.53 136.687 1741.16 135.851 1744.01 135.851C1749.55 135.851 1753.43 140.031 1753.43 145.313C1753.43 146.035 1753.35 146.719 1753.2 147.403C1753.96 147.821 1754.95 147.973 1756.7 147.973V153.711L1755.37 155.155C1752.82 155.155 1751.07 154.205 1749.93 152.229C1747.16 154.167 1742.75 155.155 1736.67 155.155ZM1743.85 143.033C1739.83 143.033 1736.29 144.781 1733.06 147.973H1738C1746.25 147.973 1748.68 147.365 1748.68 145.541C1748.68 144.249 1746.78 143.033 1743.85 143.033ZM1761.06 155.155H1755.85V149.189L1757.22 147.973H1761.36C1765.24 147.973 1767.1 147.821 1770.75 147.213L1773.18 146.757C1774.13 146.567 1774.96 146.453 1775.76 146.339C1774.66 146.187 1773.48 146.035 1772.15 145.845L1769.3 145.389C1766.64 145.009 1764.89 144.933 1760.83 144.933H1758.51V138.473H1763.07C1767.02 138.473 1768.01 137.789 1768.01 135.129V126.655H1774.7V134.483C1774.7 137.447 1773.79 139.309 1771.77 140.411L1772.99 140.601C1777.36 141.247 1779.9 141.475 1782.75 141.475H1783.51L1783.48 148.011H1782.53C1779.87 148.011 1778.38 148.581 1774.47 150.671L1771.47 152.267C1767.21 154.547 1765.05 155.155 1761.06 155.155ZM1764.13 132.887C1764.13 134.597 1762.88 135.889 1761.17 135.889C1759.46 135.889 1758.13 134.597 1758.13 132.887C1758.13 131.177 1759.46 129.847 1761.17 129.847C1762.88 129.847 1764.13 131.177 1764.13 132.887ZM1793.34 155.155H1786.65V126.655H1793.34V155.155Z" fill="white"/>
<path d="M1581.74 621.492C1579.84 621.492 1578.47 620.928 1577.52 619.837C1577.16 624.941 1573.86 628.356 1567.2 628.356C1559.35 628.356 1555.76 624.237 1555.76 617.021C1555.76 615.472 1555.9 613.572 1556.29 611.636H1561.92C1561.64 613.008 1561.5 614.276 1561.5 615.402C1561.47 619.168 1563.05 621.421 1567.48 621.421C1572.24 621.421 1574.14 619.837 1574.14 616.704V595.092H1580.33V611.882C1580.33 614.17 1581.04 614.839 1582.97 614.839V620.224L1581.74 621.492ZM1594.34 620.224L1593.11 621.492C1589.59 621.492 1587.44 619.872 1586.91 616.951C1586.49 619.872 1584.66 621.492 1581.7 621.492V615.965L1582.97 614.839C1585.15 614.839 1585.82 613.959 1585.82 611.882V607.904H1591.59V611.882C1591.59 614.17 1592.26 614.839 1594.34 614.839V620.224ZM1593.28 626.666C1593.28 627.933 1592.33 628.954 1591 628.954C1589.69 628.954 1588.67 627.933 1588.67 626.666C1588.67 625.328 1589.69 624.343 1591 624.343C1592.33 624.343 1593.28 625.328 1593.28 626.666ZM1587.9 626.666C1587.9 627.933 1586.95 628.954 1585.61 628.954C1584.31 628.954 1583.29 627.933 1583.29 626.666C1583.29 625.328 1584.31 624.343 1585.61 624.343C1586.95 624.343 1587.9 625.328 1587.9 626.666ZM1597.34 621.492H1593.08V615.965L1594.35 614.839H1597.34C1600.79 614.839 1603.82 614.381 1605.93 613.431L1608.32 612.41C1608.75 612.234 1609.13 612.058 1609.52 611.917C1608.75 611.776 1608.01 611.6 1607.16 611.389L1604.35 610.685C1603.15 610.368 1602.59 610.263 1601.78 610.263C1600.83 610.263 1600.19 610.791 1600.05 611.706H1595.12C1595.16 606.602 1597.66 603.61 1601.81 603.61C1602.8 603.61 1603.96 603.786 1606.32 604.49L1612.34 606.25C1614.69 606.989 1615.79 607.165 1617.93 607.165H1618.71L1618.67 612.973H1617.55C1616.88 612.973 1616.31 613.044 1615.75 613.149C1615.79 614.452 1616.7 614.839 1619.62 614.839V620.154L1618.35 621.492C1614.31 621.492 1611.98 619.204 1611.56 615.296C1611.24 615.508 1610.89 615.754 1610.51 616.036L1607.79 617.972C1603.92 620.788 1601.85 621.492 1597.34 621.492ZM1609.55 626.173C1609.55 627.757 1608.36 628.954 1606.81 628.954C1605.19 628.954 1603.99 627.757 1603.99 626.173C1603.99 624.589 1605.19 623.357 1606.81 623.357C1608.36 623.357 1609.55 624.589 1609.55 626.173ZM1647.99 621.492C1644.75 621.492 1642.71 619.943 1642.18 617.268C1641.83 620.295 1640.21 621.949 1637.64 621.949C1635.35 621.949 1633.55 620.541 1633.1 618.077C1632.74 620.576 1631.16 621.949 1628.77 621.949C1626.02 621.949 1624.12 620.365 1623.66 617.655C1623.24 620.154 1621.37 621.492 1618.35 621.492V615.965L1619.61 614.839C1621.69 614.839 1622.54 614.064 1622.54 612.058V610.368H1628.31V612.058C1628.31 614.1 1628.84 615.05 1630.03 615.05C1631.05 615.05 1631.69 614.1 1631.69 612.058V610.368H1637.46V612.058C1637.46 614.1 1638.02 615.05 1639.11 615.05C1640.17 615.05 1640.77 614.064 1640.77 612.058V609.136H1646.51V612.058C1646.51 614.064 1647.28 614.839 1649.22 614.839V620.224L1647.99 621.492ZM1659.95 603.716C1659.95 605.018 1659 606.004 1657.66 606.004C1656.32 606.004 1655.34 605.018 1655.34 603.716C1655.34 602.413 1656.32 601.392 1657.66 601.392C1659 601.392 1659.95 602.413 1659.95 603.716ZM1654.56 603.716C1654.56 605.018 1653.58 606.004 1652.27 606.004C1650.94 606.004 1649.95 605.018 1649.95 603.716C1649.95 602.413 1650.94 601.392 1652.27 601.392C1653.58 601.392 1654.56 602.413 1654.56 603.716ZM1660.58 620.224L1659.35 621.492C1655.83 621.492 1653.68 619.872 1653.15 616.951C1652.73 619.872 1650.9 621.492 1647.94 621.492V615.965L1649.21 614.839C1651.39 614.839 1652.06 613.959 1652.06 611.882V607.904H1657.83V611.882C1657.83 614.17 1658.5 614.839 1660.58 614.839V620.224ZM1661.54 621.492H1659.32V615.965L1660.59 614.839C1662.7 614.839 1663.23 614.24 1663.23 611.741V595.092H1669.46V611.882C1669.46 618.464 1666.96 621.492 1661.54 621.492ZM1679.06 621.492H1672.87V595.092H1679.06V621.492ZM1718.45 612.234C1718.45 618.922 1713.66 621.949 1703.35 621.949C1692.61 621.949 1688.18 618.816 1688.18 611.53C1688.18 610.016 1688.39 608.151 1688.74 606.672H1694.41C1694.09 608.045 1693.92 609.277 1693.92 610.228C1693.92 613.712 1696.52 615.015 1703.35 615.015C1710.39 615.015 1712.68 614.135 1712.68 611.389C1712.68 609.946 1712.5 607.94 1712.08 605.44H1717.89C1718.27 607.975 1718.45 610.298 1718.45 612.234ZM1706.1 626.56C1706.1 628.144 1704.93 629.341 1703.35 629.341C1701.77 629.341 1700.53 628.144 1700.53 626.56C1700.53 624.976 1701.77 623.744 1703.35 623.744C1704.93 623.744 1706.1 624.976 1706.1 626.56ZM1728.59 621.492H1728C1722.86 621.492 1720.99 618.957 1720.99 613.536V595.092H1727.19V611.952C1727.19 614.205 1727.75 614.839 1729.83 614.839V620.224L1728.59 621.492ZM1730.38 621.492H1728.55V615.965L1729.82 614.839C1731.93 614.839 1732.57 613.888 1732.57 611.389C1732.57 609.946 1732.39 607.94 1732.07 605.44H1737.88C1738.16 608.08 1738.34 610.474 1738.34 612.48C1738.34 618.253 1735.56 621.492 1730.38 621.492ZM1737.32 626.173C1737.32 627.757 1736.12 628.954 1734.54 628.954C1732.95 628.954 1731.76 627.757 1731.76 626.173C1731.76 624.589 1732.95 623.357 1734.54 623.357C1736.12 623.357 1737.32 624.589 1737.32 626.173ZM1771.05 620.154L1769.81 621.492C1765.27 621.492 1762.95 618.676 1762.95 613.959V613.008C1756.12 614.064 1751.86 617.056 1751.86 620.682C1751.86 624.026 1754.61 625.751 1760.03 625.751C1763.48 625.751 1766.89 624.941 1769.25 623.991V631.207C1766.72 632.298 1763.09 633.037 1759.46 633.037C1751.05 633.037 1746.09 628.884 1746.09 622.266C1746.09 615.684 1750.38 611.46 1759.32 609.876C1759.18 609.84 1759.01 609.77 1758.87 609.735L1756.54 609.031C1755.38 608.644 1754.61 608.503 1753.66 608.503C1752.6 608.503 1751.97 609.031 1751.83 609.946H1746.86C1746.93 604.842 1749.4 601.85 1753.55 601.85C1754.68 601.85 1756.75 602.202 1759.25 603.188L1763.76 604.983C1765.94 605.898 1767.31 606.25 1768.69 606.25H1769.29L1769.25 612.586H1768.55C1768.09 612.586 1767.63 612.586 1767.21 612.621V613.079C1767.21 614.416 1768.09 614.839 1771.05 614.839V620.154ZM1781.77 603.716C1781.77 605.018 1780.82 606.004 1779.48 606.004C1778.15 606.004 1777.16 605.018 1777.16 603.716C1777.16 602.413 1778.15 601.392 1779.48 601.392C1780.82 601.392 1781.77 602.413 1781.77 603.716ZM1776.39 603.716C1776.39 605.018 1775.4 606.004 1774.1 606.004C1772.76 606.004 1771.78 605.018 1771.78 603.716C1771.78 602.413 1772.76 601.392 1774.1 601.392C1775.4 601.392 1776.39 602.413 1776.39 603.716ZM1782.41 620.224L1781.17 621.492C1777.65 621.492 1775.51 619.872 1774.98 616.951C1774.56 619.872 1772.73 621.492 1769.77 621.492V615.965L1771.04 614.839C1773.22 614.839 1773.89 613.959 1773.89 611.882V607.904H1779.66V611.882C1779.66 614.17 1780.33 614.839 1782.41 614.839V620.224ZM1793.36 594.036C1793.36 595.584 1792.16 596.781 1790.62 596.781C1789 596.781 1787.8 595.584 1787.8 594.036C1787.8 592.452 1789 591.22 1790.62 591.22C1792.16 591.22 1793.36 592.452 1793.36 594.036ZM1790.26 621.492H1781.15V615.965L1782.41 614.839H1790.65C1794.21 614.839 1795.47 614.487 1795.79 612.586C1794.49 613.114 1792.62 613.396 1790.05 613.396C1785.65 613.396 1783.08 611.002 1783.08 607.306C1783.08 602.8 1786.78 598.752 1791.04 598.752C1795.83 598.752 1799.7 603.751 1799.7 611.319C1799.7 618.253 1796.92 621.492 1790.26 621.492ZM1787.2 606.848C1787.2 607.904 1788.33 608.362 1790.3 608.362C1792.23 608.362 1793.82 608.292 1795.16 608.151C1794.14 606.109 1792.13 604.983 1790.09 604.983C1788.12 604.983 1787.2 605.898 1787.2 606.848Z" fill="white"/>
<path d="M1654.39 467.523C1652.7 467.523 1651.47 466.96 1650.73 465.869C1650.52 472.838 1647.95 476.217 1642.88 476.217C1641.79 476.217 1640.66 476.147 1639.75 476.041V469.353C1640.73 469.459 1641.51 469.529 1642.25 469.529C1644.89 469.529 1646.72 467.981 1646.72 463.475C1646.72 460.553 1646.22 457.456 1645.45 453.936H1651.5L1652 457.069C1652.45 460.025 1653.37 460.87 1655.62 460.87V466.256L1654.39 467.523ZM1655.63 467.523H1653.8V461.997L1655.06 460.87C1657.17 460.87 1657.81 459.92 1657.81 457.421C1657.81 455.977 1657.63 453.971 1657.32 451.472H1663.12C1663.4 454.112 1663.58 456.505 1663.58 458.512C1663.58 464.285 1660.8 467.523 1655.63 467.523ZM1664.74 472.697C1664.74 473.965 1663.79 474.985 1662.45 474.985C1661.12 474.985 1660.13 473.965 1660.13 472.697C1660.13 471.36 1661.12 470.374 1662.45 470.374C1663.79 470.374 1664.74 471.36 1664.74 472.697ZM1659.36 472.697C1659.36 473.965 1658.41 474.985 1657.07 474.985C1655.73 474.985 1654.75 473.965 1654.75 472.697C1654.75 471.36 1655.73 470.374 1657.07 470.374C1658.41 470.374 1659.36 471.36 1659.36 472.697ZM1671.82 467.523H1665.62V441.123H1671.82V467.523ZM1685.4 467.523C1683.71 467.523 1682.48 466.96 1681.74 465.869C1681.52 472.838 1678.96 476.217 1673.89 476.217C1672.8 476.217 1671.67 476.147 1670.75 476.041V469.353C1671.74 469.459 1672.51 469.529 1673.25 469.529C1675.89 469.529 1677.72 467.981 1677.72 463.475C1677.72 460.553 1677.23 457.456 1676.46 453.936H1682.51L1683 457.069C1683.46 460.025 1684.38 460.87 1686.63 460.87V466.256L1685.4 467.523ZM1686.63 467.523H1684.8V461.997L1686.07 460.87C1688.18 460.87 1688.81 459.92 1688.81 457.421C1688.81 455.977 1688.64 453.971 1688.32 451.472H1694.13C1694.41 454.112 1694.59 456.505 1694.59 458.512C1694.59 464.285 1691.81 467.523 1686.63 467.523ZM1693.57 472.205C1693.57 473.789 1692.37 474.985 1690.79 474.985C1689.2 474.985 1688 473.789 1688 472.205C1688 470.621 1689.2 469.389 1690.79 469.389C1692.37 469.389 1693.57 470.621 1693.57 472.205ZM1705.85 440.067C1705.85 441.616 1704.65 442.813 1703.1 442.813C1701.49 442.813 1700.29 441.616 1700.29 440.067C1700.29 438.483 1701.49 437.251 1703.1 437.251C1704.65 437.251 1705.85 438.483 1705.85 440.067ZM1702.75 467.523H1693.64V461.997L1694.9 460.87H1703.14C1706.7 460.87 1707.96 460.518 1708.28 458.617C1706.98 459.145 1705.11 459.427 1702.54 459.427C1698.14 459.427 1695.57 457.033 1695.57 453.337C1695.57 448.832 1699.27 444.784 1703.53 444.784C1708.31 444.784 1712.19 449.782 1712.19 457.35C1712.19 464.285 1709.41 467.523 1702.75 467.523ZM1699.69 452.88C1699.69 453.936 1700.82 454.393 1702.79 454.393C1704.72 454.393 1706.31 454.323 1707.65 454.182C1706.62 452.141 1704.62 451.014 1702.58 451.014C1700.61 451.014 1699.69 451.929 1699.69 452.88Z" fill="#FC4C2C"/>
<path d="M1312.41 721.211C1310.97 721.211 1309.81 720.683 1308.89 719.627C1308.12 725.048 1304.85 727.617 1298.72 727.617C1291.12 727.617 1287.77 723.077 1287.74 716.318C1287.74 714.664 1287.95 712.833 1288.34 710.897H1293.97C1293.69 712.376 1293.51 713.713 1293.55 714.91C1293.62 718.536 1295.24 720.683 1299.53 720.683C1303.93 720.683 1305.94 719.205 1305.94 716.037C1305.94 714.734 1305.76 713.432 1305.34 711.144L1305.06 709.63H1310.83L1311.15 711.32C1311.6 713.643 1312.2 714.312 1313.4 714.312C1314.63 714.312 1315.23 713.326 1315.23 711.32V709.63H1321V711.32C1321 713.361 1321.71 714.312 1322.69 714.312C1323.64 714.312 1324.14 713.643 1324.14 712.094C1324.14 710.827 1323.92 709.102 1323.47 707.166H1329.42C1329.73 709.032 1329.91 710.686 1329.91 712.305C1329.91 718.149 1327.06 721.211 1322.52 721.211C1319.74 721.211 1317.27 719.768 1316.67 717.304C1316.32 719.838 1314.81 721.211 1312.41 721.211ZM1342.14 716.494C1342.14 725.365 1339.19 729.448 1332.57 729.448C1331.55 729.448 1330.49 729.377 1329.37 729.272V722.513C1330.35 722.654 1331.48 722.76 1332.39 722.76C1335.42 722.76 1336.51 721.07 1336.51 716.741C1336.51 713.537 1335.84 710.017 1334.75 705.406H1340.74C1341.62 709.067 1342.14 713.08 1342.14 716.494ZM1353.05 720.753H1352.45C1347.31 720.753 1345.44 718.219 1345.44 712.798V694.353H1351.64V711.214C1351.64 713.467 1352.2 714.101 1354.28 714.101V719.486L1353.05 720.753ZM1374.46 713.326C1374.46 718.254 1371.54 721.211 1366.61 721.211C1363.72 721.211 1360.9 720.366 1359.14 718.677C1357.84 720.12 1356.19 720.753 1353.83 720.753V715.227L1355.1 714.101C1356.79 714.101 1357.56 713.502 1358.48 711.601L1359.5 709.63C1361.29 706.075 1363.54 704.35 1366.92 704.35C1371.25 704.35 1374.46 707.941 1374.46 713.326ZM1367.17 710.862C1364.74 710.862 1363.19 711.601 1362.17 713.256C1363.54 714.101 1365.59 714.558 1367.35 714.558C1369.46 714.558 1370.34 714.101 1370.34 712.904C1370.34 711.707 1369.14 710.862 1367.17 710.862Z" fill="#FC4C2C"/>
<path d="M201.925 606.32C201.925 607.869 200.728 609.066 199.179 609.066C197.56 609.066 196.363 607.869 196.363 606.32C196.363 604.701 197.56 603.504 199.179 603.504C200.728 603.504 201.925 604.701 201.925 606.32ZM212.59 621.492C210.936 621.492 209.774 621.069 208.894 620.084C208.19 625.68 204.952 628.356 198.827 628.356C191.048 628.356 187.739 623.92 187.739 616.951C187.739 615.296 187.95 613.536 188.302 611.636H193.934C193.653 612.973 193.512 614.24 193.512 615.332C193.477 619.168 195.061 621.421 199.531 621.421C203.896 621.421 205.902 619.943 205.902 616.775C205.902 615.472 205.726 614.17 205.304 611.882L205.022 610.368H210.795L211.112 612.058C211.534 614.24 212.098 614.839 213.858 614.839V620.224L212.59 621.492ZM214.204 621.492H212.373V615.965L213.641 614.839C215.753 614.839 216.386 613.888 216.386 611.389C216.386 609.946 216.21 607.94 215.893 605.44H221.701C221.983 608.08 222.159 610.474 222.159 612.48C222.159 618.253 219.378 621.492 214.204 621.492ZM223.321 626.666C223.321 627.933 222.37 628.954 221.033 628.954C219.695 628.954 218.709 627.933 218.709 626.666C218.709 625.328 219.695 624.343 221.033 624.343C222.37 624.343 223.321 625.328 223.321 626.666ZM217.935 626.666C217.935 627.933 216.985 628.954 215.647 628.954C214.309 628.954 213.324 627.933 213.324 626.666C213.324 625.328 214.309 624.343 215.647 624.343C216.985 624.343 217.935 625.328 217.935 626.666ZM237.804 603.258C237.804 604.807 236.642 606.004 235.058 606.004C233.474 606.004 232.242 604.807 232.242 603.258C232.242 601.639 233.474 600.442 235.058 600.442C236.642 600.442 237.804 601.639 237.804 603.258ZM241.5 621.492C239.81 621.492 238.578 620.928 237.839 619.837C237.628 626.807 235.058 630.186 229.989 630.186C228.898 630.186 227.772 630.116 226.857 630.01V623.322C227.842 623.428 228.617 623.498 229.356 623.498C231.996 623.498 233.826 621.949 233.826 617.444C233.826 614.522 233.333 611.424 232.559 607.904H238.613L239.106 611.037C239.564 613.994 240.479 614.839 242.732 614.839V620.224L241.5 621.492ZM251.562 602.871L243.184 604.068V600.864L244.311 600.724C243.818 600.125 243.607 599.386 243.607 598.576C243.642 596.394 245.296 594.74 247.549 594.74C249.556 594.74 250.858 596.077 250.999 598.365L248.992 598.612C248.746 598.224 248.183 597.943 247.514 597.943C246.564 597.943 246.106 598.26 246.106 598.858C246.106 599.703 247.268 600.301 248.781 600.055L251.562 599.632V602.871ZM243.079 621.492H241.248V615.965L242.516 614.839C244.628 614.839 245.261 613.888 245.261 611.389C245.261 609.946 245.085 607.94 244.768 605.44H250.576C250.858 608.08 251.034 610.474 251.034 612.48C251.034 618.253 248.253 621.492 243.079 621.492ZM260.951 621.492H260.353C255.214 621.492 253.348 618.957 253.348 613.536V595.092H259.543V611.952C259.543 614.205 260.107 614.839 262.183 614.839V620.224L260.951 621.492ZM273.834 598.506C273.834 600.055 272.637 601.252 271.089 601.252C269.469 601.252 268.273 600.055 268.273 598.506C268.273 596.887 269.469 595.69 271.089 595.69C272.637 595.69 273.834 596.887 273.834 598.506ZM262.957 621.492H260.705V615.965L261.972 614.839H263.767C263.239 613.818 262.957 612.692 262.957 611.495C262.957 606.954 266.583 603.152 271.229 603.152C275.841 603.152 279.255 607.024 279.255 611.495C279.255 612.656 278.903 613.783 278.234 614.839H280.311V620.224L279.079 621.492H278.023C275.242 621.492 272.708 621.034 270.525 620.26C268.237 621.034 265.668 621.492 262.957 621.492ZM267.357 611.812C267.357 613.008 268.871 613.924 271.581 614.416C273.799 613.924 274.89 613.079 274.89 612.023C274.89 610.756 273.236 609.77 270.948 609.805C268.695 609.805 267.357 610.685 267.357 611.812ZM281.072 621.492H278.855V615.965L280.122 614.839C282.234 614.839 282.762 614.24 282.762 611.741V595.092H288.992V611.882C288.992 618.464 286.493 621.492 281.072 621.492ZM298.389 621.492H292.194V595.092H298.389V621.492ZM321.208 606.18C321.208 607.728 320.046 608.925 318.462 608.925C316.878 608.925 315.646 607.728 315.646 606.18C315.646 604.56 316.878 603.364 318.462 603.364C320.046 603.364 321.208 604.56 321.208 606.18ZM330.853 616.423C330.853 624.026 326.347 628.356 318.673 628.356C310.472 628.356 306.952 624.096 306.952 616.951C306.952 615.296 307.128 613.536 307.48 611.636H313.112C312.83 613.008 312.654 614.276 312.689 615.402C312.654 619.168 314.238 621.421 318.744 621.421C323.073 621.421 325.08 619.943 325.08 616.634C325.08 615.015 324.833 612.304 324.305 609.136H330.078C330.571 611.882 330.853 614.592 330.853 616.423ZM338.767 621.421L332.079 622.055V615.543L336.373 615.12L334.191 599.808H340.949L342.604 614.381C345.631 613.748 346.018 612.762 346.018 610.65V595.092H352.213V611.952C352.213 614.205 352.812 614.839 354.889 614.839V620.224L353.621 621.492H353.058C349.045 621.492 347.285 619.837 346.757 616.282C346.124 619.52 344.012 620.928 338.767 621.421ZM356.652 621.492H353.449V615.965L354.681 614.839H357.779C356.582 613.783 355.878 612.304 355.878 610.404C355.878 605.933 359.152 602.484 364.115 602.484C369.078 602.484 372.387 605.229 372.457 611.213H367.388C367.001 609.911 365.558 609.136 363.833 609.136C361.651 609.136 360.348 609.981 360.348 611.46C360.348 613.29 362.39 614.17 366.051 614.17C367.635 614.17 368.726 614.1 370.556 613.853L373.372 613.536V619.943L370.592 620.4C366.262 621.175 362.531 621.492 356.652 621.492ZM381.92 621.492H375.725V595.092H381.92V621.492ZM382.976 631.172L374.563 632.368V629.165L375.69 629.024C375.232 628.426 375.021 627.722 375.021 626.912C375.056 624.73 376.71 623.04 378.963 623.04C380.97 623.04 382.272 624.413 382.413 626.666L380.406 626.948C380.125 626.525 379.597 626.279 378.928 626.279C377.978 626.279 377.485 626.56 377.485 627.194C377.485 628.004 378.682 628.602 380.195 628.356L382.976 627.968V631.172Z" fill="white"/>
<path d="M1222.88 513.664C1220.98 513.664 1219.61 513.101 1218.66 512.01C1218.31 517.114 1215 520.528 1208.35 520.528C1200.5 520.528 1196.91 516.41 1196.91 509.194C1196.91 507.645 1197.05 505.744 1197.43 503.808H1203.07C1202.78 505.181 1202.64 506.448 1202.64 507.574C1202.61 511.341 1204.19 513.594 1208.63 513.594C1213.38 513.594 1215.28 512.01 1215.28 508.877V487.264H1221.48V504.054C1221.48 506.342 1222.18 507.011 1224.12 507.011V512.397L1222.88 513.664ZM1235.55 512.397L1234.32 513.664C1230.8 513.664 1228.65 512.045 1228.13 509.123C1227.7 512.045 1225.87 513.664 1222.92 513.664V508.138L1224.18 507.011C1226.37 507.011 1227.03 506.131 1227.03 504.054V500.077H1232.81V504.054C1232.81 506.342 1233.48 507.011 1235.55 507.011V512.397ZM1234.5 518.838C1234.5 520.106 1233.55 521.126 1232.21 521.126C1230.91 521.126 1229.89 520.106 1229.89 518.838C1229.89 517.501 1230.91 516.515 1232.21 516.515C1233.55 516.515 1234.5 517.501 1234.5 518.838ZM1229.11 518.838C1229.11 520.106 1228.16 521.126 1226.82 521.126C1225.52 521.126 1224.5 520.106 1224.5 518.838C1224.5 517.501 1225.52 516.515 1226.82 516.515C1228.16 516.515 1229.11 517.501 1229.11 518.838ZM1238.62 513.664H1234.36V508.138L1235.63 507.011H1238.62C1242.07 507.011 1245.1 506.554 1247.21 505.603L1249.6 504.582C1250.03 504.406 1250.41 504.23 1250.8 504.09C1250.03 503.949 1249.29 503.773 1248.44 503.562L1245.63 502.858C1244.43 502.541 1243.87 502.435 1243.06 502.435C1242.11 502.435 1241.47 502.963 1241.33 503.878H1236.4C1236.44 498.774 1238.94 495.782 1243.09 495.782C1244.08 495.782 1245.24 495.958 1247.6 496.662L1253.62 498.422C1255.98 499.162 1257.07 499.338 1259.21 499.338H1259.99L1259.95 505.146H1258.83C1258.16 505.146 1257.59 505.216 1257.03 505.322C1257.07 506.624 1257.98 507.011 1260.9 507.011V512.326L1259.64 513.664C1255.59 513.664 1253.26 511.376 1252.84 507.469C1252.53 507.68 1252.17 507.926 1251.79 508.208L1249.08 510.144C1245.2 512.96 1243.13 513.664 1238.62 513.664ZM1250.84 518.346C1250.84 519.93 1249.64 521.126 1248.09 521.126C1246.47 521.126 1245.27 519.93 1245.27 518.346C1245.27 516.762 1246.47 515.53 1248.09 515.53C1249.64 515.53 1250.84 516.762 1250.84 518.346ZM1289.34 513.664C1286.1 513.664 1284.06 512.115 1283.53 509.44C1283.18 512.467 1281.56 514.122 1278.99 514.122C1276.7 514.122 1274.9 512.714 1274.45 510.25C1274.09 512.749 1272.51 514.122 1270.12 514.122C1267.37 514.122 1265.47 512.538 1265.01 509.827C1264.59 512.326 1262.72 513.664 1259.7 513.664V508.138L1260.96 507.011C1263.04 507.011 1263.89 506.237 1263.89 504.23V502.541H1269.66V504.23C1269.66 506.272 1270.19 507.222 1271.38 507.222C1272.4 507.222 1273.04 506.272 1273.04 504.23V502.541H1278.81V504.23C1278.81 506.272 1279.37 507.222 1280.46 507.222C1281.52 507.222 1282.12 506.237 1282.12 504.23V501.309H1287.86V504.23C1287.86 506.237 1288.63 507.011 1290.57 507.011V512.397L1289.34 513.664ZM1301.37 495.888C1301.37 497.19 1300.42 498.176 1299.08 498.176C1297.74 498.176 1296.75 497.19 1296.75 495.888C1296.75 494.586 1297.74 493.565 1299.08 493.565C1300.42 493.565 1301.37 494.586 1301.37 495.888ZM1295.98 495.888C1295.98 497.19 1294.99 498.176 1293.69 498.176C1292.35 498.176 1291.37 497.19 1291.37 495.888C1291.37 494.586 1292.35 493.565 1293.69 493.565C1294.99 493.565 1295.98 494.586 1295.98 495.888ZM1302 512.397L1300.77 513.664C1297.25 513.664 1295.1 512.045 1294.57 509.123C1294.15 512.045 1292.32 513.664 1289.36 513.664V508.138L1290.63 507.011C1292.81 507.011 1293.48 506.131 1293.48 504.054V500.077H1299.25V504.054C1299.25 506.342 1299.92 507.011 1302 507.011V512.397ZM1303.03 513.664H1300.81V508.138L1302.08 507.011C1304.19 507.011 1304.72 506.413 1304.72 503.914V487.264H1310.95V504.054C1310.95 510.637 1308.45 513.664 1303.03 513.664ZM1320.62 513.664H1314.42V487.264H1320.62V513.664ZM1360.14 504.406C1360.14 511.094 1355.36 514.122 1345.04 514.122C1334.31 514.122 1329.87 510.989 1329.87 503.702C1329.87 502.189 1330.08 500.323 1330.44 498.845H1336.1C1335.79 500.218 1335.61 501.45 1335.61 502.4C1335.61 505.885 1338.21 507.187 1345.04 507.187C1352.08 507.187 1354.37 506.307 1354.37 503.562C1354.37 502.118 1354.2 500.112 1353.77 497.613H1359.58C1359.97 500.147 1360.14 502.47 1360.14 504.406ZM1347.79 518.733C1347.79 520.317 1346.63 521.514 1345.04 521.514C1343.46 521.514 1342.23 520.317 1342.23 518.733C1342.23 517.149 1343.46 515.917 1345.04 515.917C1346.63 515.917 1347.79 517.149 1347.79 518.733ZM1370.36 513.664H1369.76C1364.62 513.664 1362.75 511.13 1362.75 505.709V487.264H1368.95V504.125C1368.95 506.378 1369.51 507.011 1371.59 507.011V512.397L1370.36 513.664ZM1372.21 513.664H1370.38V508.138L1371.65 507.011C1373.76 507.011 1374.4 506.061 1374.4 503.562C1374.4 502.118 1374.22 500.112 1373.9 497.613H1379.71C1379.99 500.253 1380.17 502.646 1380.17 504.653C1380.17 510.426 1377.39 513.664 1372.21 513.664ZM1379.15 518.346C1379.15 519.93 1377.95 521.126 1376.37 521.126C1374.78 521.126 1373.59 519.93 1373.59 518.346C1373.59 516.762 1374.78 515.53 1376.37 515.53C1377.95 515.53 1379.15 516.762 1379.15 518.346ZM1411.22 492.614C1411.22 494.163 1410.06 495.36 1408.47 495.36C1406.89 495.36 1405.66 494.163 1405.66 492.614C1405.66 490.995 1406.89 489.798 1408.47 489.798C1410.06 489.798 1411.22 490.995 1411.22 492.614ZM1404.88 492.614C1404.88 494.163 1403.69 495.36 1402.14 495.36C1400.52 495.36 1399.32 494.163 1399.32 492.614C1399.32 490.995 1400.52 489.798 1402.14 489.798C1403.69 489.798 1404.88 490.995 1404.88 492.614ZM1413.68 509.968C1413.68 518.838 1409.71 522.886 1401.05 522.886C1392.56 522.886 1388.41 518.874 1388.41 511.024C1388.41 509.334 1388.66 507.152 1389.04 505.357H1394.71C1394.36 507.152 1394.18 508.701 1394.18 510.074C1394.18 514.298 1396.4 516.234 1402.1 516.234C1405.97 516.234 1408.58 515.459 1409.35 512.854C1408.23 513.277 1406.85 513.488 1404.95 513.488C1400.2 513.488 1397.32 511.27 1397.32 506.624C1397.32 501.802 1401.01 497.261 1405.59 497.261C1410.3 497.261 1413.68 501.978 1413.68 509.968ZM1401.47 505.85C1401.47 506.941 1402.6 507.398 1404.67 507.398C1406.36 507.398 1407.77 507.293 1408.97 507.117C1408.16 504.864 1406.5 503.773 1404.32 503.773C1402.56 503.773 1401.47 504.688 1401.47 505.85ZM1422.39 513.594L1415.7 514.227V507.715L1420 507.293L1417.81 491.981H1424.57L1426.23 506.554C1429.25 505.92 1429.64 504.934 1429.64 502.822V487.264H1435.84V504.125C1435.84 506.378 1436.44 507.011 1438.51 507.011V512.397L1437.24 513.664H1436.68C1432.67 513.664 1430.91 512.01 1430.38 508.454C1429.75 511.693 1427.64 513.101 1422.39 513.594ZM1450.79 490.538C1450.79 492.122 1449.63 493.318 1448.05 493.318C1446.46 493.318 1445.23 492.122 1445.23 490.538C1445.23 488.954 1446.46 487.722 1448.05 487.722C1449.63 487.722 1450.79 488.954 1450.79 490.538ZM1440.55 513.664H1437.35V508.138L1438.58 507.011H1441.68C1440.48 505.955 1439.78 504.477 1439.78 502.576C1439.78 498.106 1443.05 494.656 1448.01 494.656C1452.98 494.656 1456.29 497.402 1456.36 503.386H1451.29C1450.9 502.083 1449.46 501.309 1447.73 501.309C1445.55 501.309 1444.25 502.154 1444.25 503.632C1444.25 505.462 1446.29 506.342 1449.95 506.342C1451.53 506.342 1452.62 506.272 1454.45 506.026L1457.27 505.709V512.01L1454.21 512.538C1449.39 513.418 1446.36 513.664 1440.55 513.664ZM1466.09 513.664H1459.9V487.264H1466.09V513.664ZM1467.15 523.344L1458.74 524.541V521.338L1459.86 521.197C1459.41 520.598 1459.19 519.894 1459.19 519.085C1459.23 516.902 1460.88 515.213 1463.14 515.213C1465.14 515.213 1466.45 516.586 1466.59 518.838L1464.58 519.12C1464.3 518.698 1463.77 518.451 1463.1 518.451C1462.15 518.451 1461.66 518.733 1461.66 519.366C1461.66 520.176 1462.86 520.774 1464.37 520.528L1467.15 520.141V523.344Z" fill="white"/>
<path d="M571.717 513.664C569.816 513.664 568.443 513.101 567.493 512.01C567.141 517.114 563.832 520.528 557.179 520.528C549.33 520.528 545.739 516.41 545.739 509.194C545.739 507.645 545.88 505.744 546.267 503.808H551.899C551.618 505.181 551.477 506.448 551.477 507.574C551.442 511.341 553.026 513.594 557.461 513.594C562.213 513.594 564.114 512.01 564.114 508.877V487.264H570.309V504.054C570.309 506.342 571.013 507.011 572.949 507.011V512.397L571.717 513.664ZM594.528 513.664C591.958 513.664 590.163 512.467 588.825 509.686C588.051 512.854 586.185 514.122 582.947 514.122C580.201 514.122 578.16 513.171 577.315 510.742C576.013 512.784 574.182 513.664 571.542 513.664V508.138L572.809 507.011C574.464 507.011 575.097 506.483 575.977 504.688L577.209 502.224C578.793 499.021 581.187 497.261 584.038 497.261C587.805 497.261 590.093 498.88 591.958 502.963L592.24 503.597C593.472 506.272 594.246 507.011 595.76 507.011V512.397L594.528 513.664ZM579.814 505.814C579.814 506.87 580.87 507.469 583.123 507.469C585.341 507.469 586.749 507.187 587.417 506.554C586.432 504.582 585.129 503.773 582.947 503.773C581.117 503.773 579.814 504.758 579.814 505.814ZM598.556 513.664H594.367V508.138L595.634 507.011H600.703C600.351 506.659 600.034 506.272 599.682 505.885L597.958 503.878V497.754C600.246 497.19 603.836 496.592 607.11 496.592C613.481 496.592 616.086 498 616.156 502.083C616.156 503.808 615.522 505.498 614.396 507.011H618.444V512.397L617.212 513.664H616.332C612.953 513.664 610.102 513.136 607.497 511.974C604.892 513.03 601.83 513.664 598.556 513.664ZM607.11 502.682C605.561 502.682 604.047 502.752 602.534 502.963C604.329 504.899 605.842 505.99 607.884 506.518C610.594 506.026 612.108 505.181 612.073 504.23C612.073 503.069 610.524 502.682 607.11 502.682ZM619.272 513.664H617.055V508.138L618.322 507.011C620.434 507.011 620.962 506.413 620.962 503.914V487.264H627.192V504.054C627.192 510.637 624.693 513.664 619.272 513.664ZM636.658 513.664H630.462V487.264H636.658V513.664ZM677.566 493.424C677.566 494.726 676.616 495.712 675.278 495.712C673.976 495.712 672.955 494.726 672.955 493.424C672.955 492.086 673.976 491.101 675.278 491.101C676.616 491.101 677.566 492.086 677.566 493.424ZM674.891 498.211C674.891 499.514 673.905 500.499 672.603 500.499C671.265 500.499 670.28 499.514 670.28 498.211C670.28 496.874 671.265 495.888 672.603 495.888C673.905 495.888 674.891 496.874 674.891 498.211ZM680.276 498.211C680.276 499.514 679.291 500.499 677.988 500.499C676.651 500.499 675.665 499.514 675.665 498.211C675.665 496.874 676.651 495.888 677.988 495.888C679.291 495.888 680.276 496.874 680.276 498.211ZM670.033 514.122C668.59 514.122 667.428 513.594 666.513 512.538C665.739 517.958 662.465 520.528 656.34 520.528C648.737 520.528 645.393 515.987 645.358 509.229C645.358 507.574 645.569 505.744 645.956 503.808H651.588C651.307 505.286 651.131 506.624 651.166 507.821C651.236 511.446 652.856 513.594 657.15 513.594C661.55 513.594 663.556 512.115 663.556 508.947C663.556 507.645 663.38 506.342 662.958 504.054L662.676 502.541H668.449L668.766 504.23C669.224 506.554 669.822 507.222 671.019 507.222C672.251 507.222 672.849 506.237 672.849 504.23V502.541H678.622V504.23C678.622 506.272 679.326 507.222 680.312 507.222C681.262 507.222 681.755 506.554 681.755 505.005C681.755 503.738 681.544 502.013 681.086 500.077H687.035C687.352 501.942 687.528 503.597 687.528 505.216C687.528 511.059 684.676 514.122 680.136 514.122C677.355 514.122 674.891 512.678 674.292 510.214C673.94 512.749 672.427 514.122 670.033 514.122ZM698.8 509.405C698.8 518.275 695.843 522.358 689.225 522.358C688.205 522.358 687.149 522.288 686.022 522.182V515.424C687.008 515.565 688.134 515.67 689.049 515.67C692.077 515.67 693.168 513.981 693.168 509.651C693.168 506.448 692.499 502.928 691.408 498.317H697.392C698.272 501.978 698.8 505.99 698.8 509.405ZM716.8 510.32C716.8 517.149 714.019 522.358 706.486 522.358C704.972 522.358 703.036 522.182 700.854 521.69V515.6C703.036 516.093 704.867 516.234 706.31 516.234C710.217 516.234 712.048 515.53 712.681 513.277C711.555 513.84 710.147 514.122 707.929 514.122C703.072 514.122 700.15 511.341 700.15 506.554C700.15 501.802 703.846 497.261 708.492 497.261C713.244 497.261 716.8 501.942 716.8 510.32ZM704.268 505.814C704.268 506.906 705.395 507.469 707.648 507.469C709.548 507.469 711.062 507.363 712.329 507.082C711.449 504.899 709.654 503.773 707.19 503.773C705.36 503.773 704.268 504.688 704.268 505.814Z" fill="white"/>
<path d="M1644.47 425.863V383.52L1632.79 390.442V375.339L1646.99 365.63H1662.63V425.863H1644.47ZM1697.61 426.942C1677.83 426.942 1670.28 414.625 1670.28 397.185V395.566C1670.28 376.148 1682.33 364.821 1698.06 364.821C1712.17 364.821 1720.36 370.844 1721.7 382.801H1705.07C1704.53 380.104 1703 378.126 1698.78 378.126C1692.13 378.126 1688.53 383.61 1688.26 393.319C1690.96 389.273 1694.91 386.397 1702.55 386.397C1713.7 386.397 1722.96 392.869 1722.96 405.725C1722.96 418.491 1713.43 426.942 1697.61 426.942ZM1697.52 414.086C1702.2 414.086 1705.34 410.67 1705.34 405.815C1705.34 401.05 1702.38 397.634 1697.43 397.634C1692.58 397.634 1689.34 401.23 1689.34 405.725C1689.34 410.58 1692.49 414.086 1697.52 414.086Z" fill="#EB593D"/>
<path d="M460.606 512.272C460.334 508.342 459.986 504.403 459.515 500.503C459.02 496.424 458.106 492.418 457.21 488.437C456.825 486.735 456.431 485.032 456.038 483.335C455.928 482.288 455.81 481.247 455.679 480.209C455.127 475.838 454.539 471.486 453.812 467.152C453.441 464.938 453.031 462.731 452.609 460.528C452.193 458.363 451.699 456.221 451.224 454.072C450.777 452.055 450.216 450.07 449.697 448.068C449.459 447.141 449.152 446.228 448.879 445.314C448.582 444.318 448.316 443.295 447.983 442.321C446.599 438.225 445.257 434.114 443.669 430.119C442.106 426.197 440.549 422.251 438.821 418.421C435.439 410.918 431.977 403.434 428.092 396.253C426.057 392.491 423.986 388.768 421.806 385.115C419.76 381.68 417.599 378.342 415.424 375.018C413.149 371.542 410.759 368.153 408.338 364.813C405.963 361.529 403.563 358.248 401.042 355.1C398.391 351.789 395.687 348.541 392.879 345.39C391.513 343.855 390.102 342.368 388.692 340.873C387.522 339.635 386.31 338.415 385.081 337.254C382.026 334.367 378.948 331.534 375.775 328.812C372.961 326.395 370.082 324.025 367.078 321.907C365.313 320.658 363.55 319.423 361.742 318.247C359.983 317.101 358.202 316.03 356.405 314.958C354.944 314.085 353.439 313.251 351.926 312.492C350.119 311.588 348.326 310.653 346.498 309.804C339.379 306.498 332.133 303.508 324.705 301.162C322.77 300.556 320.839 299.956 318.888 299.411C316.926 298.855 314.959 298.36 312.984 297.866C309.497 297.002 305.966 296.31 302.439 295.712C301.444 295.543 300.448 295.375 299.453 295.208C294.714 294.405 289.954 293.846 285.181 293.353C280.683 292.885 276.158 292.782 271.642 292.689L271.683 292.692C270.055 292.655 268.419 292.674 266.789 292.736C264.725 292.814 262.664 292.902 260.601 293.037C258.651 293.165 256.71 293.368 254.762 293.546C253.595 293.66 252.432 293.858 251.271 294.014C250.567 294.113 249.864 294.207 249.163 294.338C248.023 294.547 246.889 294.757 245.75 294.966C244.871 295.125 243.998 295.382 243.132 295.589C241.021 296.097 238.953 296.73 236.872 297.372C236.058 297.625 235.261 297.953 234.457 298.257C233.502 298.618 232.544 298.956 231.607 299.375C229.875 300.154 228.129 300.881 226.441 301.758C225.349 302.324 224.247 302.887 223.153 303.465C222.338 303.887 221.543 304.39 220.746 304.855C213.826 308.865 207.212 313.528 200.853 318.568C197.839 320.951 194.872 323.467 192.067 326.154C190.502 327.645 188.95 329.131 187.425 330.672C185.899 332.212 184.404 333.793 182.914 335.381C177.386 341.262 172.191 347.563 167.138 353.953C161.98 360.476 157.072 367.227 152.381 374.174C150.185 377.424 148.017 380.704 145.985 384.085C144.79 386.074 143.623 388.068 142.481 390.088C141.403 391.99 140.392 393.932 139.368 395.865C137.405 399.561 135.689 403.428 134.007 407.283C132.34 411.11 130.762 414.989 129.25 418.891C126.216 426.714 123.273 434.618 121.023 442.77C118.723 451.093 116.814 459.51 115.13 468.007C113.435 476.559 111.898 485.13 110.735 493.791C110.204 497.728 109.805 501.711 109.558 505.68L109.503 506.581C109.262 510.592 109.062 514.616 109.018 518.639C108.919 527.283 109.228 535.904 109.985 544.495C110.195 546.865 110.441 549.223 110.725 551.576H252.444C252.444 533.59 267.024 519.01 285.009 519.01C302.995 519.01 317.574 533.59 317.574 551.576H458.268C458.447 550.681 458.638 549.79 458.808 548.892C459.56 544.907 459.996 540.874 460.395 536.83C460.812 532.607 461.032 528.392 461.018 524.149C461.004 520.188 460.881 516.215 460.606 512.272Z" fill="white"/>
<path d="M909.389 620.964L892.845 621.949L892.88 615.824L895.485 615.719C894.746 614.804 894.288 613.642 894.288 612.128C894.288 608.503 897.104 605.476 901.258 605.476C905.939 605.476 908.262 608.608 908.474 612.797L903.405 613.044C903.229 612.269 902.56 611.6 901.152 611.6C899.779 611.6 898.758 612.023 898.758 613.29C898.758 614.733 900.096 615.332 905.094 615.05L909.389 614.839V620.964ZM918.345 621.492H912.15V595.092H918.345V621.492ZM938.529 613.748C938.494 619.38 935.326 621.984 928.392 621.984C922.478 621.984 920.683 619.239 920.683 613.396H925.892C925.998 614.733 926.491 615.296 928.884 615.296C932.088 615.296 933.284 614.874 933.32 613.888C933.355 612.621 931.595 611.178 925.294 607.376L928.603 601.463C936.347 606.496 938.529 609.207 938.529 613.748ZM949.653 595.655L941.24 596.852V593.648L942.367 593.508C941.909 592.909 941.698 592.205 941.698 591.396C941.733 589.213 943.387 587.524 945.64 587.524C947.647 587.524 948.949 588.896 949.09 591.149L947.083 591.431C946.802 591.008 946.274 590.762 945.605 590.762C944.655 590.762 944.162 591.079 944.162 591.677C944.162 592.487 945.359 593.085 946.872 592.874L949.653 592.452V595.655ZM951.871 621.492H939.973V614.909L946.872 609.136C947.048 608.996 947.189 608.855 947.33 608.749L938.107 603.293L941.311 597.767L951.307 603.786C951.659 602.73 951.8 601.533 951.8 600.055V595.092H958.031V600.055C958.031 602.836 957.538 604.666 955.848 606.637C958.453 608.644 959.403 610.72 959.403 613.888C959.403 618.711 956.658 621.492 951.871 621.492ZM945.746 614.839H952.328C953.842 614.839 954.44 614.557 954.44 613.959C954.44 613.36 953.912 612.692 952.082 611.53L950.991 610.896L945.746 614.839ZM968.361 621.492H962.165V595.092H968.361V621.492ZM1007.75 612.234C1007.75 618.922 1002.96 621.949 992.648 621.949C981.912 621.949 977.477 618.816 977.477 611.53C977.477 610.016 977.688 608.151 978.04 606.672H983.707C983.39 608.045 983.214 609.277 983.214 610.228C983.214 613.712 985.819 615.015 992.648 615.015C999.688 615.015 1001.98 614.135 1001.98 611.389C1001.98 609.946 1001.8 607.94 1001.38 605.44H1007.19C1007.57 607.975 1007.75 610.298 1007.75 612.234ZM995.394 626.56C995.394 628.144 994.232 629.341 992.648 629.341C991.064 629.341 989.832 628.144 989.832 626.56C989.832 624.976 991.064 623.744 992.648 623.744C994.232 623.744 995.394 624.976 995.394 626.56ZM1019.16 617.232C1019.16 626.103 1016.2 630.186 1009.58 630.186C1008.56 630.186 1007.51 630.116 1006.38 630.01V623.252C1007.37 623.392 1008.49 623.498 1009.41 623.498C1012.44 623.498 1013.53 621.808 1013.53 617.479C1013.53 614.276 1012.86 610.756 1011.77 606.144H1017.75C1018.63 609.805 1019.16 613.818 1019.16 617.232ZM1029.24 621.492H1028.64C1023.5 621.492 1021.63 618.957 1021.63 613.536V595.092H1027.83V611.952C1027.83 614.205 1028.39 614.839 1030.47 614.839V620.224L1029.24 621.492ZM1033.45 621.492H1029.2V615.965L1030.46 614.839H1033.45C1036.9 614.839 1039.93 614.381 1042.04 613.431L1044.44 612.41C1044.86 612.234 1045.25 612.058 1045.63 611.917C1044.86 611.776 1044.12 611.6 1043.28 611.389L1040.46 610.685C1039.26 610.368 1038.7 610.263 1037.89 610.263C1036.94 610.263 1036.31 610.791 1036.16 611.706H1031.24C1031.27 606.602 1033.77 603.61 1037.92 603.61C1038.91 603.61 1040.07 603.786 1042.43 604.49L1048.45 606.25C1050.81 606.989 1051.9 607.165 1054.05 607.165H1054.82L1054.79 612.973H1053.66C1052.99 612.973 1052.43 613.044 1051.86 613.149C1051.9 614.452 1052.81 614.839 1055.74 614.839V620.154L1054.47 621.492C1050.42 621.492 1048.1 619.204 1047.68 615.296C1047.36 615.508 1047.01 615.754 1046.62 616.036L1043.91 617.972C1040.04 620.788 1037.96 621.492 1033.45 621.492ZM1045.67 626.173C1045.67 627.757 1044.47 628.954 1042.92 628.954C1041.3 628.954 1040.11 627.757 1040.11 626.173C1040.11 624.589 1041.3 623.357 1042.92 623.357C1044.47 623.357 1045.67 624.589 1045.67 626.173ZM1065.62 601.252C1065.62 602.554 1064.67 603.54 1063.33 603.54C1062.03 603.54 1061.01 602.554 1061.01 601.252C1061.01 599.949 1062.03 598.928 1063.33 598.928C1064.67 598.928 1065.62 599.949 1065.62 601.252ZM1060.23 601.252C1060.23 602.554 1059.28 603.54 1057.95 603.54C1056.64 603.54 1055.62 602.554 1055.62 601.252C1055.62 599.949 1056.64 598.928 1057.95 598.928C1059.28 598.928 1060.23 599.949 1060.23 601.252ZM1056.29 621.492H1054.46V615.965L1055.73 614.839C1057.84 614.839 1058.47 613.888 1058.47 611.389C1058.47 609.946 1058.3 607.94 1057.98 605.44H1063.79C1064.07 608.08 1064.25 610.474 1064.25 612.48C1064.25 618.253 1061.47 621.492 1056.29 621.492Z" fill="white"/>
<path d="M273.717 467.523C271.816 467.523 270.443 466.96 269.493 465.869C269.141 470.973 265.832 474.387 259.179 474.387C251.33 474.387 247.739 470.269 247.739 463.053C247.739 461.504 247.88 459.603 248.267 457.667H253.899C253.618 459.04 253.477 460.307 253.477 461.433C253.442 465.2 255.026 467.453 259.461 467.453C264.213 467.453 266.114 465.869 266.114 462.736V441.123H272.309V457.913C272.309 460.201 273.013 460.87 274.949 460.87V466.256L273.717 467.523ZM275.098 467.523H273.267V461.997L274.534 460.87C276.646 460.87 277.28 459.92 277.28 457.421C277.28 455.977 277.104 453.971 276.787 451.472H282.595C282.877 454.112 283.053 456.505 283.053 458.512C283.053 464.285 280.272 467.523 275.098 467.523ZM284.214 472.697C284.214 473.965 283.264 474.985 281.926 474.985C280.589 474.985 279.603 473.965 279.603 472.697C279.603 471.36 280.589 470.374 281.926 470.374C283.264 470.374 284.214 471.36 284.214 472.697ZM278.829 472.697C278.829 473.965 277.878 474.985 276.541 474.985C275.203 474.985 274.218 473.965 274.218 472.697C274.218 471.36 275.203 470.374 276.541 470.374C277.878 470.374 278.829 471.36 278.829 472.697ZM301.981 467.523C300.291 467.523 299.059 466.96 298.32 465.869C298.109 472.838 295.539 476.217 290.471 476.217C289.379 476.217 288.253 476.147 287.338 476.041V469.353C288.323 469.459 289.098 469.529 289.837 469.529C292.477 469.529 294.307 467.981 294.307 463.475C294.307 460.553 293.815 457.456 293.04 453.936H299.095L299.587 457.069C300.045 460.025 300.96 460.87 303.213 460.87V466.256L301.981 467.523ZM303.354 467.523H301.523V461.997L302.791 460.87C304.903 460.87 305.536 459.92 305.536 457.421C305.536 455.977 305.36 453.971 305.043 451.472H310.851C311.133 454.112 311.309 456.505 311.309 458.512C311.309 464.285 308.528 467.523 303.354 467.523ZM310.288 472.205C310.288 473.789 309.091 474.985 307.507 474.985C305.923 474.985 304.727 473.789 304.727 472.205C304.727 470.621 305.923 469.389 307.507 469.389C309.091 469.389 310.288 470.621 310.288 472.205ZM321.337 444.009L312.959 445.206V442.003L314.086 441.862C313.593 441.264 313.382 440.525 313.382 439.715C313.417 437.533 315.071 435.878 317.324 435.878C319.331 435.878 320.633 437.216 320.774 439.504L318.767 439.75C318.521 439.328 317.958 439.081 317.289 439.081C316.339 439.081 315.846 439.398 315.846 439.997C315.846 440.841 317.043 441.44 318.556 441.193L321.337 440.771V444.009ZM320.281 467.523H314.086V446.509H320.281V467.523Z" fill="#FC4C2C"/>
<path d="M283.959 426.852C269.215 426.852 260.675 420.379 259.416 408.602H276.048C276.587 411.389 278.385 413.457 282.97 413.457C290.252 413.457 293.129 408.242 293.398 398.443C290.701 402.489 287.105 405.455 279.554 405.455C267.777 405.455 258.607 398.983 258.607 386.037C258.607 373.361 268.316 364.731 284.139 364.731C302.658 364.731 311.289 376.957 311.289 394.398V396.196C311.289 415.704 301.669 426.852 283.959 426.852ZM283.869 393.858C288.814 393.858 292.05 390.352 292.05 385.857C292.05 380.913 288.903 377.407 283.869 377.407C279.014 377.407 275.958 380.913 275.958 385.767C275.958 390.442 278.925 393.858 283.869 393.858Z" fill="#EB593D"/>
<path d="M1298.47 674.914V632.571L1286.79 639.493V624.39L1300.99 614.681H1316.63V674.914H1298.47ZM1349.01 675.902C1334.26 675.902 1325.72 669.43 1324.46 657.653H1341.1C1341.64 660.44 1343.43 662.507 1348.02 662.507C1355.3 662.507 1358.18 657.293 1358.45 647.494C1355.75 651.54 1352.15 654.506 1344.6 654.506C1332.83 654.506 1323.66 648.033 1323.66 635.088C1323.66 622.412 1333.36 613.782 1349.19 613.782C1367.71 613.782 1376.34 626.008 1376.34 643.449V645.247C1376.34 664.755 1366.72 675.902 1349.01 675.902ZM1348.92 642.909C1353.86 642.909 1357.1 639.403 1357.1 634.908C1357.1 629.964 1353.95 626.457 1348.92 626.457C1344.06 626.457 1341.01 629.964 1341.01 634.818C1341.01 639.493 1343.97 642.909 1348.92 642.909Z" fill="#EB593D"/>
<path d="M677.708 721.204C676.265 721.204 675.103 720.676 674.188 719.62C673.414 725.041 670.14 727.611 664.015 727.611C656.412 727.611 653.068 723.07 653.033 716.311C653.033 714.657 653.244 712.827 653.631 710.891H659.263C658.982 712.369 658.806 713.707 658.841 714.903C658.911 718.529 660.531 720.676 664.825 720.676C669.225 720.676 671.231 719.198 671.231 716.03C671.231 714.727 671.055 713.425 670.633 711.137L670.351 709.623H676.124L676.441 711.313C676.899 713.636 677.497 714.305 678.694 714.305C679.926 714.305 680.524 713.319 680.524 711.313V709.623H686.297V711.313C686.297 713.355 687.001 714.305 687.987 714.305C688.937 714.305 689.43 713.636 689.43 712.087C689.43 710.82 689.219 709.095 688.761 707.159H694.71C695.027 709.025 695.203 710.679 695.203 712.299C695.203 718.142 692.351 721.204 687.811 721.204C685.03 721.204 682.566 719.761 681.967 717.297C681.615 719.831 680.102 721.204 677.708 721.204ZM707.437 716.487C707.437 725.358 704.481 729.441 697.863 729.441C696.842 729.441 695.786 729.371 694.66 729.265V722.507C695.645 722.647 696.772 722.753 697.687 722.753C700.714 722.753 701.805 721.063 701.805 716.734C701.805 713.531 701.137 710.011 700.045 705.399H706.029C706.909 709.06 707.437 713.073 707.437 716.487ZM718.339 720.747H717.74C712.601 720.747 710.736 718.212 710.736 712.791V694.347H716.931V711.207C716.931 713.46 717.494 714.094 719.571 714.094V719.479L718.339 720.747ZM739.751 713.319C739.751 718.247 736.829 721.204 731.901 721.204C729.015 721.204 726.199 720.359 724.439 718.67C723.136 720.113 721.482 720.747 719.123 720.747V715.22L720.391 714.094C722.08 714.094 722.855 713.495 723.77 711.595L724.791 709.623C726.586 706.068 728.839 704.343 732.218 704.343C736.547 704.343 739.751 707.934 739.751 713.319ZM732.464 710.855C730.035 710.855 728.487 711.595 727.466 713.249C728.839 714.094 730.88 714.551 732.64 714.551C734.752 714.551 735.632 714.094 735.632 712.897C735.632 711.7 734.435 710.855 732.464 710.855Z" fill="#FC4C2C"/>
<path d="M534.081 721.747C532.18 721.747 530.807 721.183 529.857 720.092C529.505 725.196 526.196 728.611 519.543 728.611C511.694 728.611 508.103 724.492 508.103 717.276C508.103 715.727 508.244 713.827 508.631 711.891H514.263C513.982 713.263 513.841 714.531 513.841 715.657C513.806 719.423 515.39 721.676 519.825 721.676C524.577 721.676 526.478 720.092 526.478 716.959V695.347H532.673V712.137C532.673 714.425 533.377 715.094 535.313 715.094V720.479L534.081 721.747ZM536.699 721.747H534.869V716.22L536.136 715.094C538.248 715.094 538.882 714.143 538.882 711.644C538.882 710.201 538.706 708.195 538.389 705.695H544.197C544.478 708.335 544.654 710.729 544.654 712.735C544.654 718.508 541.874 721.747 536.699 721.747ZM545.816 726.921C545.816 728.188 544.866 729.209 543.528 729.209C542.19 729.209 541.205 728.188 541.205 726.921C541.205 725.583 542.19 724.598 543.528 724.598C544.866 724.598 545.816 725.583 545.816 726.921ZM540.43 726.921C540.43 728.188 539.48 729.209 538.142 729.209C536.805 729.209 535.819 728.188 535.819 726.921C535.819 725.583 536.805 724.598 538.142 724.598C539.48 724.598 540.43 725.583 540.43 726.921ZM562.551 721.747C560.862 721.747 559.63 721.183 558.891 720.092C558.679 727.062 556.11 730.441 551.041 730.441C549.95 730.441 548.823 730.371 547.908 730.265V723.577C548.894 723.683 549.668 723.753 550.407 723.753C553.047 723.753 554.878 722.204 554.878 717.699C554.878 714.777 554.385 711.679 553.611 708.159H559.665L560.158 711.292C560.615 714.249 561.531 715.094 563.783 715.094V720.479L562.551 721.747ZM565.162 721.747H563.331V716.22L564.598 715.094C566.71 715.094 567.344 714.143 567.344 711.644C567.344 710.201 567.168 708.195 566.851 705.695H572.659C572.941 708.335 573.117 710.729 573.117 712.735C573.117 718.508 570.336 721.747 565.162 721.747ZM572.096 726.428C572.096 728.012 570.899 729.209 569.315 729.209C567.731 729.209 566.534 728.012 566.534 726.428C566.534 724.844 567.731 723.612 569.315 723.612C570.899 723.612 572.096 724.844 572.096 726.428ZM584.382 698.233L576.005 699.43V696.227L577.131 696.086C576.638 695.487 576.427 694.748 576.427 693.939C576.462 691.756 578.117 690.102 580.369 690.102C582.376 690.102 583.678 691.439 583.819 693.727L581.813 693.974C581.566 693.551 581.003 693.305 580.334 693.305C579.384 693.305 578.891 693.622 578.891 694.22C578.891 695.065 580.088 695.663 581.601 695.417L584.382 694.995V698.233ZM583.326 721.747H577.131V700.732H583.326V721.747Z" fill="#FC4C2C"/>
<path d="M665.688 675.992C648.427 675.992 640.426 668.261 639.797 654.956H655.889C656.428 659.72 658.766 662.867 664.789 662.867C669.913 662.867 672.52 660.53 672.52 656.484C672.52 652.079 670.003 649.831 664.609 649.831H659.754V638.684H664.339C669.733 638.684 672.34 636.436 672.34 632.391C672.34 628.885 670.003 626.727 665.508 626.727C660.833 626.727 658.226 629.424 657.507 634.099H641.595C642.314 621.962 650.495 613.871 665.958 613.871C680.521 613.871 689.332 620.254 689.332 630.413C689.332 637.156 685.376 641.471 678.903 643.359C685.915 644.707 690.86 649.652 690.86 656.844C690.86 668.441 682.14 675.992 665.688 675.992ZM723.439 675.992C706.089 675.992 695.211 665.114 695.211 646.056V643.628C695.211 624.48 707.437 613.871 723.889 613.871C740.071 613.871 752.387 623.491 752.387 643.269V645.516C752.387 664.755 741.15 675.992 723.439 675.992ZM724.069 661.968C731.441 661.968 734.407 656.664 734.407 645.876V643.538C734.407 632.75 731.261 627.536 723.889 627.536C716.517 627.536 713.281 632.75 713.281 643.538V645.966C713.281 656.844 716.517 661.968 724.069 661.968Z" fill="#EB593D"/>
<path d="M545.763 676.992C529.221 676.992 521.76 668.182 521.4 656.765H537.762C538.391 660.72 540.009 663.328 545.583 663.328C550.528 663.328 552.685 659.732 552.685 655.416C552.685 650.292 549.808 647.235 544.504 647.235C539.65 647.235 536.593 649.123 534.525 651.461H523.647L525.086 615.681H566.979V628.806H538.121L537.762 641.662C540.099 638.335 544.414 635.099 552.236 635.099C563.563 635.099 570.935 642.561 570.935 655.686C570.935 668.452 561.495 676.992 545.763 676.992Z" fill="#EB593D"/>
<path d="M595.89 655.675V642.55H622.141V655.675H595.89Z" fill="#EB593D"/>
<path d="M1557.25 254.298C1557.46 254.334 1557.68 254.371 1557.89 254.407C1557.91 254.41 1557.93 254.413 1557.95 254.416C1557.72 254.377 1557.48 254.337 1557.25 254.298Z" fill="#FC4C2C"/>
<path d="M1345.73 417.555C1345.93 417.588 1346.13 417.623 1346.33 417.657C1346.35 417.659 1346.37 417.661 1346.38 417.664C1346.17 417.628 1345.95 417.591 1345.73 417.555Z" fill="#FC4C2C"/>
<path d="M964.946 685.61C964.746 685.577 964.546 685.542 964.345 685.508C964.328 685.506 964.31 685.504 964.293 685.501C964.509 685.537 964.73 685.573 964.946 685.61Z" fill="#FC4C2C"/>
<path d="M960.414 467.966C958.971 467.966 957.81 467.438 956.894 466.382C956.12 471.803 952.846 474.372 946.722 474.372C939.118 474.372 935.774 469.832 935.739 463.073C935.739 461.419 935.95 459.588 936.338 457.652H941.97C941.688 459.131 941.512 460.468 941.547 461.665C941.618 465.291 943.237 467.438 947.531 467.438C951.931 467.438 953.938 465.96 953.938 462.792C953.938 461.489 953.762 460.187 953.339 457.899L953.058 456.385H958.83L959.147 458.075C959.605 460.398 960.203 461.067 961.4 461.067C962.632 461.067 963.23 460.081 963.23 458.075V456.385H969.003V458.075C969.003 460.116 969.707 461.067 970.693 461.067C971.643 461.067 972.136 460.398 972.136 458.849C972.136 457.582 971.925 455.857 971.467 453.921H977.416C977.733 455.787 977.909 457.441 977.909 459.06C977.909 464.904 975.058 467.966 970.517 467.966C967.736 467.966 965.272 466.523 964.674 464.059C964.322 466.593 962.808 467.966 960.414 467.966ZM990.144 463.249C990.144 472.12 987.187 476.203 980.569 476.203C979.548 476.203 978.492 476.132 977.366 476.027V469.268C978.352 469.409 979.478 469.515 980.393 469.515C983.42 469.515 984.512 467.825 984.512 463.496C984.512 460.292 983.843 456.772 982.752 452.161H988.736C989.616 455.822 990.144 459.835 990.144 463.249ZM1001.05 467.508H1000.45C995.308 467.508 993.442 464.974 993.442 459.553V441.108H999.637V457.969C999.637 460.222 1000.2 460.856 1002.28 460.856V466.241L1001.05 467.508ZM1022.46 460.081C1022.46 465.009 1019.54 467.966 1014.61 467.966C1011.72 467.966 1008.9 467.121 1007.14 465.432C1005.84 466.875 1004.19 467.508 1001.83 467.508V461.982L1003.1 460.856C1004.79 460.856 1005.56 460.257 1006.48 458.356L1007.5 456.385C1009.29 452.83 1011.54 451.105 1014.92 451.105C1019.25 451.105 1022.46 454.695 1022.46 460.081ZM1015.17 457.617C1012.74 457.617 1011.19 458.356 1010.17 460.011C1011.54 460.856 1013.59 461.313 1015.35 461.313C1017.46 461.313 1018.34 460.856 1018.34 459.659C1018.34 458.462 1017.14 457.617 1015.17 457.617Z" fill="white"/>
<path d="M924.719 425.863V423.346L946.026 401.23C952.229 394.847 956.274 389.723 956.274 384.778C956.274 381.003 954.206 378.306 949.981 378.306C945.666 378.306 942.969 380.913 942.25 387.745H925.798C926.427 372.462 935.777 364.821 950.88 364.821C966.073 364.821 974.074 372.732 974.074 383.969C974.074 392.33 969.4 398.533 962.567 404.916L954.296 412.378H974.614V425.863H924.719ZM1003.76 426.852C989.013 426.852 980.473 420.379 979.214 408.602H995.846C996.385 411.389 998.183 413.457 1002.77 413.457C1010.05 413.457 1012.93 408.242 1013.2 398.443C1010.5 402.489 1006.9 405.455 999.352 405.455C987.575 405.455 978.405 398.983 978.405 386.037C978.405 373.361 988.114 364.731 1003.94 364.731C1022.46 364.731 1031.09 376.957 1031.09 394.398V396.196C1031.09 415.704 1021.47 426.852 1003.76 426.852ZM1003.67 393.858C1008.61 393.858 1011.85 390.352 1011.85 385.857C1011.85 380.913 1008.7 377.407 1003.67 377.407C998.812 377.407 995.756 380.913 995.756 385.767C995.756 390.442 998.722 393.858 1003.67 393.858Z" fill="white"/>
</svg>
