<svg width="1746" height="731" viewBox="0 0 1746 731" fill="none" xmlns="http://www.w3.org/2000/svg">
<path d="M1042.8 348.486C1039.03 319.462 1030.38 291.922 1009.6 267.566C1006.95 264.467 1004.18 261.488 1001.35 258.613C998.593 255.819 995.808 253.064 992.983 250.355C990.201 247.685 987.415 245.03 984.541 242.491C984.434 242.4 984.33 242.304 984.226 242.214C983.683 241.739 983.141 241.259 982.594 240.779C976.933 235.815 971.055 231.097 965.024 226.699C961.754 224.315 958.457 221.968 955.079 219.78C951.904 217.721 948.717 215.649 945.418 213.828C943.762 212.915 942.112 211.973 940.418 211.142C938.517 210.205 936.608 209.296 934.682 208.413C931.267 206.853 927.735 205.606 924.205 204.411C917.034 201.985 909.633 200.242 902.175 199.22C894.71 198.188 887.18 197.397 879.643 197.216C875.555 197.126 871.475 197.101 867.388 197.279C863.659 197.441 859.931 197.795 856.221 198.254C855.413 198.356 854.6 198.458 853.787 198.554C854.024 198.526 854.261 198.498 854.502 198.47C847.283 199.358 840.078 200.708 833.003 202.629C828.725 203.811 824.47 205.089 820.249 206.523C816.156 207.914 812.045 209.323 808.025 210.971C804.374 212.473 800.727 214.004 797.163 215.756C793.781 217.41 790.42 219.128 787.119 220.974C780.252 224.818 773.543 229.039 767.133 233.795C760.803 238.493 754.729 243.612 748.702 248.796C745.622 251.442 742.692 254.304 739.925 257.35C737.292 260.254 734.681 263.201 732.21 266.283C727.125 272.629 722.426 279.416 718.164 286.473C716.152 289.809 714.241 293.221 712.382 296.661C710.391 300.351 708.42 304.066 706.769 307.96C703.473 315.744 700.593 323.73 698.688 332.073C697.801 335.975 696.957 339.884 696.212 343.824C695.459 347.809 695.024 351.842 694.625 355.886C694.207 360.109 693.987 364.324 694.001 368.567C694.015 372.528 694.138 376.501 694.413 380.445C694.686 384.375 695.033 388.313 695.504 392.213L698.982 463.575H839.823C839.823 445.59 854.402 431.009 872.388 431.009C890.373 431.009 904.953 445.59 904.953 463.575H1046.77C1046.51 446.067 1046.24 428.558 1045.98 411.05C1045.66 389.856 1045.43 368.807 1042.8 348.486ZM834.971 214.708C835.078 214.676 835.184 214.651 835.287 214.619C836.7 214.257 838.111 213.914 839.53 213.59C837.997 213.94 836.478 214.314 834.971 214.708Z" fill="#FC4C2C"/>
<path d="M698.382 478.473C697.986 474.015 699.065 469.122 698.382 464.708C698.311 464.245 698.464 464.035 698.382 463.575H555.583C555.583 481.56 541.003 496.14 523.018 496.14C505.032 496.14 490.453 481.56 490.453 463.575H351.361C350.595 466.99 349.86 470.41 349.208 473.855C348.449 477.876 348.013 481.946 347.611 486.026C347.234 489.864 347.003 493.715 347 497.572C346.995 501.857 347.114 506.16 347.413 510.428C347.684 514.353 348.031 518.286 348.502 522.18C348.996 526.254 349.91 530.255 350.804 534.231C351.189 535.931 351.582 537.632 351.975 539.327C352.084 540.372 352.202 541.412 352.333 542.45C352.885 546.814 353.471 551.161 354.197 555.489C354.569 557.7 354.977 559.904 355.399 562.104C355.815 564.266 356.307 566.405 356.782 568.552C357.249 570.661 357.842 572.738 358.38 574.833C358.535 575.44 358.725 576.036 358.917 576.63C359.304 577.83 359.611 579.095 360.018 580.287C361.401 584.377 362.74 588.484 364.326 592.473C365.887 596.39 367.443 600.331 369.169 604.155C372.546 611.648 376.005 619.122 379.884 626.294C381.916 630.052 383.984 633.77 386.162 637.418C388.205 640.848 390.363 644.182 392.535 647.502C394.807 650.973 397.194 654.358 399.612 657.693C401.984 660.973 404.381 664.25 406.899 667.394C409.546 670.701 412.247 673.944 415.05 677.091C416.415 678.624 417.824 680.109 419.232 681.603C420.401 682.838 421.611 684.057 422.839 685.215C425.889 688.1 428.963 690.929 432.132 693.647C434.942 696.062 437.818 698.428 440.818 700.543C442.581 701.79 444.341 703.024 446.147 704.199C447.924 705.356 449.723 706.437 451.539 707.521C452.981 708.38 454.449 709.196 455.95 709.946C457.755 710.848 459.546 711.783 461.371 712.63C468.48 715.932 475.717 718.917 483.135 721.261C485.068 721.866 486.996 722.465 488.944 723.01C490.904 723.565 492.868 724.059 494.841 724.553C498.323 725.415 501.849 726.107 505.373 726.703C506.366 726.873 507.362 727.041 508.356 727.208C513.088 728.01 517.841 728.568 522.608 729.06C527.1 729.527 531.618 729.629 536.129 729.723L536.088 729.72C537.714 729.757 539.348 729.738 540.976 729.676C543.037 729.598 545.095 729.51 547.155 729.375C549.102 729.248 551.041 729.045 552.986 728.867C554.11 728.757 555.23 728.57 556.347 728.416C557.09 728.315 557.836 728.211 558.573 728.077C559.713 727.868 560.848 727.658 561.987 727.449C562.865 727.29 563.737 727.033 564.601 726.827C566.646 726.334 568.651 725.725 570.666 725.104C571.41 724.874 572.139 724.597 572.865 724.316C573.95 723.894 575.044 723.523 576.111 723.046C578.148 722.129 580.204 721.285 582.162 720.183C582.958 719.815 583.724 719.384 584.505 718.986C585.337 718.56 586.146 718.047 586.958 717.574C593.868 713.569 600.474 708.911 606.825 703.877C609.835 701.498 612.798 698.985 615.599 696.302C617.162 694.813 618.712 693.327 620.236 691.789C621.759 690.251 623.252 688.673 624.741 687.086C630.261 681.213 635.449 674.92 640.496 668.539C645.648 662.025 650.548 655.283 655.234 648.344C657.427 645.099 659.592 641.824 661.621 638.446C662.815 636.46 663.98 634.468 665.121 632.452C666.196 630.552 667.207 628.613 668.23 626.682C670.19 622.991 671.903 619.129 673.583 615.28C675.248 611.457 676.824 607.583 678.334 603.686C681.364 595.873 684.303 587.98 686.551 579.838C688.847 571.526 690.755 563.12 692.436 554.634C694.129 546.093 695.663 537.534 696.825 528.885C697.356 524.952 697.754 520.974 698.001 517.01L698.055 516.112C698.296 512.106 698.495 508.087 698.54 504.069C698.639 495.437 699.138 487.053 698.382 478.473Z" fill="white"/>
<path d="M1395.59 463.575H1253C1253 481.56 1238.42 496.14 1220.43 496.14C1202.44 496.14 1187.87 481.56 1187.87 463.575H1047L1047.83 541.028C1047.59 545.041 1047.39 549.064 1047.35 553.087C1047.25 561.731 1047.56 570.352 1048.31 578.943C1048.71 583.408 1049.22 587.831 1049.9 592.252C1050.23 594.378 1050.68 596.484 1051.15 598.577C1051.59 600.48 1052.03 602.392 1052.6 604.252C1053.9 608.525 1055.3 612.749 1056.97 616.852C1058.68 621.052 1060.58 625.126 1062.63 629.125C1064.5 632.769 1066.62 636.227 1068.79 639.65C1071 643.14 1073.41 646.499 1075.88 649.761C1078.42 653.131 1081.03 656.41 1083.75 659.598C1086.39 662.697 1089.17 665.676 1092 668.551C1094.75 671.346 1097.54 674.1 1100.36 676.809C1103.15 679.479 1105.93 682.135 1108.81 684.674C1108.91 684.764 1109.02 684.86 1109.12 684.951C1109.66 685.426 1110.21 685.905 1110.75 686.386C1116.41 691.348 1122.29 696.067 1128.32 700.466C1131.59 702.849 1134.89 705.197 1138.27 707.385C1141.44 709.442 1144.63 711.515 1147.93 713.337C1149.58 714.25 1151.23 715.191 1152.93 716.021C1154.83 716.96 1156.74 717.869 1158.66 718.752C1162.08 720.311 1165.61 721.558 1169.14 722.754C1176.31 725.179 1183.71 726.922 1191.17 727.944C1198.64 728.976 1206.17 729.767 1213.7 729.948C1217.79 730.039 1221.87 730.062 1225.96 729.886C1229.69 729.723 1233.42 729.37 1237.12 728.911C1237.93 728.808 1238.75 728.707 1239.56 728.61C1239.32 728.638 1239.09 728.667 1238.85 728.694C1246.06 727.806 1253.27 726.457 1260.34 724.535C1264.62 723.353 1268.88 722.076 1273.1 720.641C1277.19 719.25 1281.3 717.842 1285.32 716.192C1288.97 714.691 1292.62 713.16 1296.18 711.409C1299.57 709.754 1302.93 708.037 1306.23 706.189C1313.1 702.346 1319.8 698.126 1326.21 693.37C1332.54 688.672 1338.62 683.553 1344.64 678.369C1347.72 675.722 1350.65 672.86 1353.42 669.814C1356.06 666.911 1358.67 663.964 1361.14 660.881C1366.22 654.536 1370.92 647.749 1375.18 640.691C1377.19 637.355 1379.11 633.943 1380.96 630.504C1382.95 626.813 1384.93 623.098 1386.58 619.205C1400.18 587.116 1399.2 555.557 1397.42 521.63C1397.19 517.176 1395.93 463.575 1395.59 463.575ZM1258.06 712.546C1256.65 712.907 1255.24 713.25 1253.82 713.574C1255.35 713.224 1256.87 712.849 1258.38 712.456C1258.27 712.487 1258.16 712.513 1258.06 712.546Z" fill="white"/>
<path d="M1744.61 424.272C1744.33 420.342 1743.99 416.403 1743.51 412.503C1743.02 408.424 1742.1 404.418 1741.21 400.437C1740.82 398.735 1740.43 397.032 1740.04 395.335C1739.93 394.288 1739.81 393.247 1739.68 392.209C1739.13 387.838 1738.54 383.486 1737.81 379.152C1737.44 376.938 1737.03 374.731 1736.61 372.528C1736.19 370.363 1735.7 368.221 1735.22 366.072C1734.78 364.055 1734.22 362.07 1733.7 360.068C1733.46 359.141 1733.15 358.228 1732.88 357.314C1732.58 356.318 1732.32 355.295 1731.98 354.321C1730.6 350.225 1729.26 346.114 1727.67 342.119C1726.11 338.197 1724.55 334.251 1722.82 330.421C1719.44 322.918 1715.98 315.434 1712.09 308.253C1710.06 304.491 1707.99 300.768 1705.81 297.115C1703.76 293.68 1701.6 290.342 1699.42 287.018C1697.15 283.542 1694.76 280.153 1692.34 276.813C1689.96 273.529 1687.56 270.248 1685.04 267.1C1682.39 263.789 1679.69 260.541 1676.88 257.39C1675.51 255.855 1674.1 254.368 1672.69 252.873C1671.52 251.635 1670.31 250.415 1669.08 249.254C1666.03 246.367 1662.95 243.534 1659.77 240.812C1656.96 238.395 1654.08 236.025 1651.08 233.907C1649.31 232.658 1647.55 231.423 1645.74 230.247C1643.98 229.101 1642.2 228.03 1640.4 226.958C1638.94 226.085 1637.44 225.251 1635.93 224.492C1634.12 223.588 1632.33 222.653 1630.5 221.804C1623.38 218.498 1616.13 215.508 1608.7 213.162C1606.77 212.556 1604.84 211.956 1602.89 211.411C1600.92 210.855 1598.96 210.36 1596.98 209.866C1593.5 209.002 1589.97 208.31 1586.44 207.712C1585.44 207.543 1584.45 207.375 1583.45 207.208C1578.71 206.405 1573.95 205.846 1569.18 205.353C1564.68 204.885 1560.16 204.782 1555.64 204.689L1555.68 204.692C1554.05 204.655 1552.42 204.674 1550.79 204.736C1548.72 204.814 1546.66 204.902 1544.6 205.037C1542.65 205.165 1540.71 205.368 1538.76 205.546C1537.59 205.66 1536.43 205.858 1535.27 206.014C1534.57 206.113 1533.86 206.207 1533.16 206.338C1532.02 206.547 1530.89 206.757 1529.75 206.966C1528.87 207.125 1528 207.382 1527.13 207.589C1525.02 208.097 1522.95 208.73 1520.87 209.372C1520.06 209.625 1519.26 209.953 1518.46 210.257C1517.5 210.618 1516.54 210.956 1515.61 211.375C1513.88 212.154 1512.13 212.881 1510.44 213.758C1509.35 214.324 1508.25 214.887 1507.15 215.465C1506.34 215.887 1505.54 216.39 1504.75 216.855C1497.83 220.865 1491.21 225.528 1484.85 230.568C1481.84 232.951 1478.87 235.467 1476.07 238.154C1474.5 239.645 1472.95 241.131 1471.42 242.672C1469.9 244.212 1468.4 245.793 1466.91 247.381C1461.39 253.262 1456.19 259.563 1451.14 265.953C1445.98 272.476 1441.07 279.227 1436.38 286.174C1434.18 289.424 1432.02 292.704 1429.98 296.085C1428.79 298.074 1427.62 300.068 1426.48 302.088C1425.4 303.99 1424.39 305.932 1423.37 307.865C1421.41 311.561 1419.69 315.428 1418.01 319.283C1416.34 323.11 1414.76 326.989 1413.25 330.891C1410.22 338.714 1407.27 346.618 1405.02 354.77C1402.72 363.093 1400.81 371.51 1399.13 380.007C1397.43 388.559 1395.9 397.13 1394.73 405.791C1394.2 409.728 1393.8 413.711 1393.56 417.68L1393.5 418.581C1393.26 422.592 1393.06 426.616 1393.02 430.639C1392.92 439.283 1393.23 447.904 1393.98 456.495C1394.19 458.865 1394.44 461.223 1394.72 463.576H1536.44C1536.44 445.59 1551.02 431.01 1569.01 431.01C1586.99 431.01 1601.57 445.59 1601.57 463.576H1742.27C1742.45 462.681 1742.64 461.79 1742.81 460.892C1743.56 456.907 1744 452.874 1744.39 448.83C1744.81 444.607 1745.03 440.392 1745.02 436.149C1745 432.188 1744.88 428.215 1744.61 424.272Z" fill="white"/>
<path d="M103 24.0259C103.587 22.1499 103.931 20.1509 104.806 18.4199C107.893 12.3199 112.957 9.0619 119.799 8.6879C121.733 8.5829 123.678 8.67189 125.733 8.67189C125.733 7.27689 125.724 5.9899 125.735 4.7029C125.756 1.9509 127.535 0.0178967 130.045 0.00689697C132.558 -0.00410461 134.365 1.92789 134.391 4.66589C134.403 5.95689 134.393 7.24789 134.393 8.59689H153.886C153.886 7.16089 153.838 5.69689 153.895 4.23789C154.011 1.25589 156.819 -0.68911 159.602 0.242889C161.31 0.81389 162.469 2.37289 162.524 4.26589C162.564 5.66989 162.532 7.07689 162.532 8.56989H182.249C182.249 7.13189 182.195 5.66689 182.26 4.20589C182.409 0.819895 186.034 -1.10611 188.867 0.679893C190.186 1.51089 190.85 2.7519 190.888 4.2979C190.922 5.7009 190.895 7.1039 190.895 8.6579C192.166 8.6579 193.378 8.67989 194.589 8.65189C197.311 8.58789 199.984 8.79589 202.572 9.75189C209.033 12.1409 213.694 18.3899 213.8 25.2919C213.928 33.7309 213.859 42.1739 213.833 50.6159C213.826 53.1109 211.914 54.9699 209.522 54.9709C207.091 54.9729 205.207 53.0839 205.199 50.5139C205.174 42.5049 205.193 34.4969 205.187 26.4879C205.184 22.7789 203.664 19.9199 200.291 18.2469C199.315 17.7639 198.173 17.4659 197.087 17.3939C195.08 17.2599 193.059 17.3559 190.899 17.3559C190.899 18.6629 190.907 19.9469 190.898 21.2299C190.879 24.0439 189.071 25.9959 186.52 25.9659C184.012 25.9369 182.26 24.0059 182.241 21.2389C182.233 19.9809 182.24 18.7229 182.24 17.3899H162.538C162.538 18.5809 162.539 19.7589 162.538 20.9379C162.533 23.9799 160.846 25.9509 158.234 25.9659C155.615 25.9819 153.884 24.0059 153.878 20.9899C153.876 19.8069 153.878 18.6239 153.878 17.3789H134.386C134.386 18.8059 134.432 20.2689 134.376 21.7279C134.263 24.7119 131.461 26.6599 128.676 25.7329C126.931 25.1519 125.786 23.5699 125.742 21.6069C125.711 20.2109 125.736 18.8139 125.736 17.2029C123.183 17.3279 120.696 17.1789 118.324 17.6279C114.452 18.3589 111.894 21.7289 111.673 25.7879C111.658 26.0749 111.661 26.3649 111.661 26.6529C111.661 48.7309 111.662 70.8089 111.658 92.8859C111.657 96.6359 113.118 99.5929 116.568 101.214C117.887 101.834 119.479 102.117 120.949 102.128C131.592 102.202 142.237 102.174 152.881 102.159C154.279 102.156 155.532 102.46 156.533 103.476C158.613 105.591 157.975 109.112 155.288 110.395C154.967 110.548 154.637 110.683 154.311 110.826H118.372C118.211 110.759 118.057 110.659 117.891 110.631C111.802 109.651 107.361 106.386 104.706 100.85C103.899 99.1679 103.556 97.2609 103 95.4579V24.0259Z" fill="#FC4C2C"/>
<path d="M205.182 84.6149C205.169 74.9639 197.248 67.0739 187.602 67.1039C177.988 67.1349 170.138 74.9879 170.115 84.5989C170.092 94.2449 177.988 102.159 187.64 102.164C197.29 102.17 205.195 94.2619 205.182 84.6149ZM185.484 110.825C183.011 110.213 180.458 109.821 178.081 108.95C166.841 104.838 159.717 92.3899 161.815 80.6119C163.665 70.2279 169.606 63.0519 179.592 59.8119C189.862 56.4799 199.143 58.9049 206.613 66.7119C213.491 73.8969 215.568 82.6579 212.662 92.1389C209.563 102.257 202.476 108.344 192.035 110.415C191.296 110.56 190.554 110.689 189.813 110.825H185.484Z" fill="#FC4C2C"/>
<path d="M134.383 45.4664C134.377 47.8464 132.404 49.7974 130.023 49.7774C127.643 49.7554 125.703 47.7694 125.739 45.3904C125.774 43.0534 127.706 41.1424 130.045 41.1344C132.425 41.1254 134.389 43.0864 134.383 45.4664Z" fill="#FC4C2C"/>
<path d="M148.925 49.776C146.544 49.793 144.574 47.838 144.574 45.458C144.572 43.078 146.541 41.12 148.92 41.133C151.259 41.147 153.188 43.062 153.218 45.399C153.249 47.778 151.305 49.76 148.925 49.776Z" fill="#FC4C2C"/>
<path d="M172.055 45.4773C172.043 47.8573 170.064 49.8043 167.684 49.7763C165.304 49.7493 163.369 47.7583 163.411 45.3793C163.451 43.0423 165.39 41.1363 167.727 41.1343C170.107 41.1313 172.067 43.0973 172.055 45.4773Z" fill="#FC4C2C"/>
<path d="M186.573 49.7761C184.193 49.7801 182.234 47.8141 182.246 45.4331C182.258 43.0541 184.237 41.1071 186.617 41.1331C188.954 41.1611 190.872 43.0861 190.89 45.4231C190.908 47.8021 188.954 49.7731 186.573 49.7761Z" fill="#FC4C2C"/>
<path d="M130.019 59.9656C132.399 59.9426 134.375 61.8906 134.384 64.2716C134.393 66.6516 132.432 68.6146 130.051 68.6086C127.712 68.6026 125.777 66.6946 125.739 64.3576C125.701 61.9796 127.64 59.9886 130.019 59.9656Z" fill="#FC4C2C"/>
<path d="M148.921 68.608C146.541 68.623 144.573 66.665 144.574 64.285C144.575 61.905 146.545 59.95 148.925 59.965C151.263 59.982 153.19 61.898 153.218 64.235C153.247 66.614 151.302 68.594 148.921 68.608Z" fill="#FC4C2C"/>
<path d="M134.383 83.2105C134.333 85.5895 132.32 87.5045 129.942 87.4395C127.563 87.3735 125.661 85.3515 125.741 82.9735C125.82 80.6365 127.788 78.7635 130.126 78.7975C132.505 78.8325 134.434 80.8315 134.383 83.2105Z" fill="#FC4C2C"/>
<path d="M148.902 87.4401C146.521 87.4441 144.562 85.4761 144.574 83.0971C144.587 80.7171 146.566 78.7711 148.945 78.7971C151.283 78.8251 153.201 80.7491 153.219 83.0861C153.237 85.4661 151.282 87.4371 148.902 87.4401Z" fill="#FC4C2C"/>
<path d="M191.965 80.3211C192.821 80.3211 193.506 80.2821 194.185 80.3281C196.52 80.4871 198.282 82.3981 198.249 84.6981C198.216 86.9541 196.462 88.8461 194.166 88.9301C191.899 89.0131 189.624 89.0161 187.358 88.9251C185.15 88.8371 183.408 87.0801 183.351 84.8621C183.273 81.7671 183.274 78.6671 183.348 75.5711C183.405 73.2221 185.34 71.4411 187.641 71.4381C189.94 71.4341 191.847 73.2151 191.952 75.5581C192.022 77.0961 191.965 78.6401 191.965 80.3211Z" fill="#FC4C2C"/>
<path d="M1378 39.1868C1378 40.8588 1376.7 42.1508 1375.03 42.1508C1373.28 42.1508 1371.99 40.8588 1371.99 39.1868C1371.99 37.4388 1373.28 36.1468 1375.03 36.1468C1376.7 36.1468 1378 37.4388 1378 39.1868ZM1371.12 39.1868C1371.12 40.8588 1369.86 42.1508 1368.15 42.1508C1366.44 42.1508 1365.11 40.8588 1365.11 39.1868C1365.11 37.4388 1366.44 36.1468 1368.15 36.1468C1369.86 36.1468 1371.12 37.4388 1371.12 39.1868ZM1382.52 65.7868L1381.15 67.1548C1376.29 67.1548 1374.31 65.5588 1373.7 61.9108C1372.71 64.7988 1370.78 66.1288 1367.62 66.1288C1363.25 66.1288 1360.78 63.4308 1360.78 58.8708C1360.78 54.6528 1363.25 51.6128 1367.62 50.0168L1373.13 47.9648V44.2028H1379.82V57.0088C1379.82 59.1748 1380.54 59.9728 1382.52 59.9728V65.7868ZM1365.49 57.3888C1365.49 58.3388 1366.22 58.9468 1368.61 58.9468C1371.35 58.9468 1373.13 58.1868 1373.13 55.7928V53.2088L1368.27 55.0328C1366.18 55.8308 1365.49 56.4008 1365.49 57.3888ZM1399.45 42.3408C1399.45 44.0128 1398.16 45.3048 1396.49 45.3048C1394.74 45.3048 1393.45 44.0128 1393.45 42.3408C1393.45 40.5928 1394.74 39.3008 1396.49 39.3008C1398.16 39.3008 1399.45 40.5928 1399.45 42.3408ZM1392.61 42.3408C1392.61 44.0128 1391.32 45.3048 1389.61 45.3048C1387.9 45.3048 1386.57 44.0128 1386.57 42.3408C1386.57 40.5928 1387.9 39.3008 1389.61 39.3008C1391.32 39.3008 1392.61 40.5928 1392.61 42.3408ZM1384.1 67.1548H1381.67V61.1888L1383.04 59.9728H1384.97C1384.4 58.8708 1384.1 57.6548 1384.1 56.3628C1384.1 51.4608 1388.01 47.3568 1393.03 47.3568C1398.01 47.3568 1401.69 51.5368 1401.69 56.3628C1401.69 57.6168 1401.31 58.8328 1400.59 59.9728H1402.83V65.7868L1401.5 67.1548H1400.36C1397.36 67.1548 1394.63 66.6608 1392.27 65.8248C1389.8 66.6608 1387.03 67.1548 1384.1 67.1548ZM1388.85 56.7048C1388.85 57.9968 1390.48 58.9848 1393.41 59.5168C1395.8 58.9848 1396.98 58.0728 1396.98 56.9328C1396.98 55.5648 1395.2 54.5008 1392.73 54.5388C1390.29 54.5388 1388.85 55.4888 1388.85 56.7048ZM1403.98 67.1548H1402V61.1888L1403.37 59.9728C1405.65 59.9728 1406.34 58.9468 1406.34 56.2488C1406.34 54.6908 1406.15 52.5248 1405.8 49.8268H1412.07C1412.38 52.6768 1412.57 55.2608 1412.57 57.4268C1412.57 63.6588 1409.57 67.1548 1403.98 67.1548ZM1411.47 72.2088C1411.47 73.9188 1410.17 75.2108 1408.46 75.2108C1406.75 75.2108 1405.46 73.9188 1405.46 72.2088C1405.46 70.4988 1406.75 69.1688 1408.46 69.1688C1410.17 69.1688 1411.47 70.4988 1411.47 72.2088ZM1424.02 67.1548H1423.37C1417.82 67.1548 1415.81 64.4188 1415.81 58.5668V38.6548H1422.5V56.8568C1422.5 59.2888 1423.1 59.9728 1425.35 59.9728V65.7868L1424.02 67.1548ZM1456.49 67.1548C1452.99 67.1548 1450.79 65.4828 1450.22 62.5948C1449.84 65.8628 1448.09 67.6488 1445.32 67.6488C1442.85 67.6488 1440.91 66.1288 1440.41 63.4688C1440.03 66.1668 1438.32 67.6488 1435.74 67.6488C1432.78 67.6488 1430.72 65.9388 1430.23 63.0128C1429.77 65.7108 1427.76 67.1548 1424.49 67.1548V61.1888L1425.86 59.9728C1428.1 59.9728 1429.01 59.1368 1429.01 56.9708V55.1468H1435.25V56.9708C1435.25 59.1748 1435.82 60.2008 1437.11 60.2008C1438.21 60.2008 1438.89 59.1748 1438.89 56.9708V55.1468H1445.13V56.9708C1445.13 59.1748 1445.73 60.2008 1446.91 60.2008C1448.05 60.2008 1448.7 59.1368 1448.7 56.9708V53.8168H1454.89V56.9708C1454.89 59.1368 1455.73 59.9728 1457.82 59.9728V65.7868L1456.49 67.1548ZM1481.78 67.1548C1479 67.1548 1477.06 65.8628 1475.62 62.8608C1474.78 66.2808 1472.77 67.6488 1469.27 67.6488C1466.31 67.6488 1464.11 66.6228 1463.19 64.0008C1461.79 66.2048 1459.81 67.1548 1456.96 67.1548V61.1888L1458.33 59.9728C1460.12 59.9728 1460.8 59.4028 1461.75 57.4648L1463.08 54.8048C1464.79 51.3468 1467.37 49.4468 1470.45 49.4468C1474.52 49.4468 1476.99 51.1948 1479 55.6028L1479.31 56.2868C1480.64 59.1748 1481.47 59.9728 1483.11 59.9728V65.7868L1481.78 67.1548ZM1465.89 58.6808C1465.89 59.8208 1467.03 60.4668 1469.46 60.4668C1471.86 60.4668 1473.38 60.1628 1474.1 59.4788C1473.04 57.3508 1471.63 56.4768 1469.27 56.4768C1467.3 56.4768 1465.89 57.5408 1465.89 58.6808ZM1496.06 65.7868L1494.7 67.1548C1490.59 67.1548 1488.27 65.3688 1487.74 62.0628C1487.29 65.3308 1485.39 67.1548 1482.27 67.1548V61.1888L1483.64 59.9728C1485.8 59.9728 1486.53 59.0228 1486.53 56.7808V38.6548H1493.21V56.7808C1493.21 59.3648 1493.82 59.9728 1496.06 59.9728V65.7868ZM1497.62 67.1548H1495.22V61.1888L1496.59 59.9728C1498.87 59.9728 1499.44 59.3268 1499.44 56.6288V38.6548H1506.17V56.7808C1506.17 63.8868 1503.47 67.1548 1497.62 67.1548ZM1546.51 44.8108C1546.51 46.4828 1545.26 47.7748 1543.55 47.7748C1541.84 47.7748 1540.51 46.4828 1540.51 44.8108C1540.51 43.0628 1541.84 41.7708 1543.55 41.7708C1545.26 41.7708 1546.51 43.0628 1546.51 44.8108ZM1545.52 68.8268C1545.52 73.3488 1539.29 76.8068 1530.78 76.8068C1521.39 76.8068 1516.83 72.9688 1516.83 65.2168C1516.83 63.3928 1517.02 61.3788 1517.44 59.4028H1523.52C1523.22 61.0368 1523.07 62.3668 1523.07 63.6588C1523.07 67.4208 1525.84 69.3208 1531.69 69.3208C1536.97 69.3208 1540.28 68.5988 1540.28 67.3448C1540.28 66.5848 1539.29 65.9388 1536.59 65.9388H1532.34V58.7188H1538.76C1540.66 58.7188 1541.5 58.0728 1541.5 56.2488C1541.5 54.6908 1541.27 52.5248 1540.81 49.8268H1547.04C1547.5 52.6768 1547.69 55.2608 1547.69 57.4268C1547.69 61.3788 1546.02 63.9628 1542.94 64.7608C1544.76 65.8248 1545.52 67.0408 1545.52 68.8268ZM1537.24 81.8988C1537.24 83.5708 1535.95 84.8628 1534.24 84.8628C1532.53 84.8628 1531.24 83.5708 1531.24 81.8988C1531.24 80.1508 1532.53 78.8588 1534.24 78.8588C1535.95 78.8588 1537.24 80.1508 1537.24 81.8988ZM1530.36 81.8988C1530.36 83.5708 1529.11 84.8628 1527.4 84.8628C1525.69 84.8628 1524.36 83.5708 1524.36 81.8988C1524.36 80.1508 1525.69 78.8588 1527.4 78.8588C1529.11 78.8588 1530.36 80.1508 1530.36 81.8988ZM1570.52 59.1368C1570.52 64.4568 1567.37 67.6488 1562.05 67.6488C1558.93 67.6488 1555.89 66.7368 1553.99 64.9128C1552.58 66.4708 1550.8 67.1548 1548.25 67.1548V61.1888L1549.62 59.9728C1551.44 59.9728 1552.28 59.3268 1553.27 57.2748L1554.37 55.1468C1556.31 51.3088 1558.74 49.4468 1562.39 49.4468C1567.06 49.4468 1570.52 53.3228 1570.52 59.1368ZM1562.65 56.4768C1560.03 56.4768 1558.36 57.2748 1557.26 59.0608C1558.74 59.9728 1560.94 60.4668 1562.84 60.4668C1565.12 60.4668 1566.07 59.9728 1566.07 58.6808C1566.07 57.3888 1564.78 56.4768 1562.65 56.4768ZM1581.46 47.4708C1581.46 49.1428 1580.2 50.4348 1578.49 50.4348C1576.78 50.4348 1575.45 49.1428 1575.45 47.4708C1575.45 45.7228 1576.78 44.4308 1578.49 44.4308C1580.2 44.4308 1581.46 45.7228 1581.46 47.4708ZM1585.45 67.1548C1583.62 67.1548 1582.29 66.5468 1581.49 65.3688C1581.27 72.8928 1578.49 76.5408 1573.02 76.5408C1571.84 76.5408 1570.63 76.4648 1569.64 76.3508V69.1308C1570.7 69.2448 1571.54 69.3208 1572.34 69.3208C1575.19 69.3208 1577.16 67.6488 1577.16 62.7848C1577.16 59.6308 1576.63 56.2868 1575.79 52.4868H1582.33L1582.86 55.8688C1583.36 59.0608 1584.34 59.9728 1586.78 59.9728V65.7868L1585.45 67.1548ZM1588.31 67.1548H1585.92V61.1888L1587.29 59.9728C1589.57 59.9728 1590.14 59.3268 1590.14 56.6288V38.6548H1596.86V56.7808C1596.86 63.8868 1594.16 67.1548 1588.31 67.1548ZM1607.75 67.1548H1601.06V38.6548H1607.75V67.1548ZM1627.67 67.1548H1616.31V59.9728H1619.43C1619.77 59.3268 1620.11 58.7188 1620.45 58.1108V38.6548H1627.14V50.3968C1629.53 48.6868 1632.16 47.8508 1635.01 47.8508C1640.55 47.8508 1644.43 52.0308 1644.43 57.3128C1644.43 58.0348 1644.35 58.7188 1644.2 59.4028C1644.96 59.8208 1645.95 59.9728 1647.7 59.9728V65.7108L1646.37 67.1548C1643.82 67.1548 1642.07 66.2048 1640.93 64.2288C1638.16 66.1668 1633.75 67.1548 1627.67 67.1548ZM1634.85 55.0328C1630.83 55.0328 1627.29 56.7808 1624.06 59.9728H1629C1637.25 59.9728 1639.68 59.3648 1639.68 57.5408C1639.68 56.2488 1637.78 55.0328 1634.85 55.0328ZM1652.06 67.1548H1646.85V61.1888L1648.22 59.9728H1652.36C1656.24 59.9728 1658.1 59.8208 1661.75 59.2128L1664.18 58.7568C1665.13 58.5668 1665.96 58.4528 1666.76 58.3388C1665.66 58.1868 1664.48 58.0348 1663.15 57.8448L1660.3 57.3888C1657.64 57.0088 1655.89 56.9328 1651.83 56.9328H1649.51V50.4728H1654.07C1658.02 50.4728 1659.01 49.7888 1659.01 47.1288V38.6548H1665.7V46.4828C1665.7 49.4468 1664.79 51.3088 1662.77 52.4108L1663.99 52.6008C1668.36 53.2468 1670.9 53.4748 1673.75 53.4748H1674.51L1674.48 60.0108H1673.53C1670.87 60.0108 1669.38 60.5808 1665.47 62.6708L1662.47 64.2668C1658.21 66.5468 1656.05 67.1548 1652.06 67.1548ZM1655.13 44.8868C1655.13 46.5968 1653.88 47.8888 1652.17 47.8888C1650.46 47.8888 1649.13 46.5968 1649.13 44.8868C1649.13 43.1768 1650.46 41.8468 1652.17 41.8468C1653.88 41.8468 1655.13 43.1768 1655.13 44.8868ZM1684.34 67.1548H1677.65V38.6548H1684.34V67.1548Z" fill="white"/>
<path d="M1472.74 533.492C1470.84 533.492 1469.47 532.929 1468.52 531.837C1468.16 536.941 1464.86 540.356 1458.2 540.356C1450.35 540.356 1446.76 536.237 1446.76 529.021C1446.76 527.473 1446.9 525.572 1447.29 523.636H1452.92C1452.64 525.009 1452.5 526.276 1452.5 527.402C1452.47 531.169 1454.05 533.421 1458.48 533.421C1463.24 533.421 1465.14 531.837 1465.14 528.705V507.092H1471.33V523.882C1471.33 526.17 1472.04 526.839 1473.97 526.839V532.225L1472.74 533.492ZM1485.34 532.225L1484.11 533.492C1480.59 533.492 1478.44 531.873 1477.91 528.951C1477.49 531.873 1475.66 533.492 1472.7 533.492V527.965L1473.97 526.839C1476.15 526.839 1476.82 525.959 1476.82 523.882V519.905H1482.59V523.882C1482.59 526.17 1483.26 526.839 1485.34 526.839V532.225ZM1484.28 538.666C1484.28 539.933 1483.33 540.954 1482 540.954C1480.69 540.954 1479.67 539.933 1479.67 538.666C1479.67 537.329 1480.69 536.343 1482 536.343C1483.33 536.343 1484.28 537.329 1484.28 538.666ZM1478.9 538.666C1478.9 539.933 1477.95 540.954 1476.61 540.954C1475.31 540.954 1474.29 539.933 1474.29 538.666C1474.29 537.329 1475.31 536.343 1476.61 536.343C1477.95 536.343 1478.9 537.329 1478.9 538.666ZM1488.34 533.492H1484.08V527.965L1485.35 526.839H1488.34C1491.79 526.839 1494.82 526.381 1496.93 525.431L1499.32 524.41C1499.75 524.234 1500.13 524.058 1500.52 523.917C1499.75 523.777 1499.01 523.601 1498.16 523.389L1495.35 522.685C1494.15 522.369 1493.59 522.263 1492.78 522.263C1491.83 522.263 1491.19 522.791 1491.05 523.706H1486.12C1486.16 518.602 1488.66 515.61 1492.81 515.61C1493.8 515.61 1494.96 515.786 1497.32 516.49L1503.34 518.25C1505.69 518.989 1506.79 519.165 1508.93 519.165H1509.71L1509.67 524.973H1508.55C1507.88 524.973 1507.31 525.044 1506.75 525.149C1506.79 526.452 1507.7 526.839 1510.62 526.839V532.154L1509.35 533.492C1505.31 533.492 1502.98 531.204 1502.56 527.297C1502.24 527.508 1501.89 527.754 1501.51 528.036L1498.79 529.972C1494.92 532.788 1492.85 533.492 1488.34 533.492ZM1500.55 538.173C1500.55 539.757 1499.36 540.954 1497.81 540.954C1496.19 540.954 1494.99 539.757 1494.99 538.173C1494.99 536.589 1496.19 535.357 1497.81 535.357C1499.36 535.357 1500.55 536.589 1500.55 538.173ZM1538.99 533.492C1535.75 533.492 1533.71 531.943 1533.18 529.268C1532.83 532.295 1531.21 533.949 1528.64 533.949C1526.35 533.949 1524.55 532.541 1524.1 530.077C1523.74 532.577 1522.16 533.949 1519.77 533.949C1517.02 533.949 1515.12 532.365 1514.66 529.655C1514.24 532.154 1512.37 533.492 1509.35 533.492V527.965L1510.61 526.839C1512.69 526.839 1513.54 526.065 1513.54 524.058V522.369H1519.31V524.058C1519.31 526.1 1519.84 527.05 1521.03 527.05C1522.05 527.05 1522.69 526.1 1522.69 524.058V522.369H1528.46V524.058C1528.46 526.1 1529.02 527.05 1530.11 527.05C1531.17 527.05 1531.77 526.065 1531.77 524.058V521.137H1537.51V524.058C1537.51 526.065 1538.28 526.839 1540.22 526.839V532.225L1538.99 533.492ZM1550.95 515.716C1550.95 517.018 1550 518.004 1548.66 518.004C1547.32 518.004 1546.34 517.018 1546.34 515.716C1546.34 514.413 1547.32 513.393 1548.66 513.393C1550 513.393 1550.95 514.413 1550.95 515.716ZM1545.56 515.716C1545.56 517.018 1544.58 518.004 1543.27 518.004C1541.94 518.004 1540.95 517.018 1540.95 515.716C1540.95 514.413 1541.94 513.393 1543.27 513.393C1544.58 513.393 1545.56 514.413 1545.56 515.716ZM1551.58 532.225L1550.35 533.492C1546.83 533.492 1544.68 531.873 1544.15 528.951C1543.73 531.873 1541.9 533.492 1538.94 533.492V527.965L1540.21 526.839C1542.39 526.839 1543.06 525.959 1543.06 523.882V519.905H1548.83V523.882C1548.83 526.17 1549.5 526.839 1551.58 526.839V532.225ZM1552.54 533.492H1550.32V527.965L1551.59 526.839C1553.7 526.839 1554.23 526.241 1554.23 523.741V507.092H1560.46V523.882C1560.46 530.465 1557.96 533.492 1552.54 533.492ZM1570.06 533.492H1563.87V507.092H1570.06V533.492ZM1609.45 524.234C1609.45 530.922 1604.66 533.949 1594.35 533.949C1583.61 533.949 1579.18 530.817 1579.18 523.53C1579.18 522.017 1579.39 520.151 1579.74 518.673H1585.41C1585.09 520.045 1584.92 521.277 1584.92 522.228C1584.92 525.713 1587.52 527.015 1594.35 527.015C1601.39 527.015 1603.68 526.135 1603.68 523.389C1603.68 521.946 1603.5 519.94 1603.08 517.441H1608.89C1609.27 519.975 1609.45 522.298 1609.45 524.234ZM1597.1 538.561C1597.1 540.145 1595.93 541.341 1594.35 541.341C1592.77 541.341 1591.53 540.145 1591.53 538.561C1591.53 536.977 1592.77 535.745 1594.35 535.745C1595.93 535.745 1597.1 536.977 1597.1 538.561ZM1619.59 533.492H1619C1613.86 533.492 1611.99 530.957 1611.99 525.537V507.092H1618.19V523.953C1618.19 526.205 1618.75 526.839 1620.83 526.839V532.225L1619.59 533.492ZM1621.38 533.492H1619.55V527.965L1620.82 526.839C1622.93 526.839 1623.57 525.889 1623.57 523.389C1623.57 521.946 1623.39 519.94 1623.07 517.441H1628.88C1629.16 520.081 1629.34 522.474 1629.34 524.481C1629.34 530.253 1626.56 533.492 1621.38 533.492ZM1628.32 538.173C1628.32 539.757 1627.12 540.954 1625.54 540.954C1623.95 540.954 1622.76 539.757 1622.76 538.173C1622.76 536.589 1623.95 535.357 1625.54 535.357C1627.12 535.357 1628.32 536.589 1628.32 538.173ZM1662.05 532.154L1660.81 533.492C1656.27 533.492 1653.95 530.676 1653.95 525.959V525.009C1647.12 526.065 1642.86 529.057 1642.86 532.682C1642.86 536.026 1645.61 537.751 1651.03 537.751C1654.48 537.751 1657.89 536.941 1660.25 535.991V543.207C1657.72 544.298 1654.09 545.037 1650.46 545.037C1642.05 545.037 1637.09 540.884 1637.09 534.266C1637.09 527.684 1641.38 523.46 1650.32 521.876C1650.18 521.841 1650.01 521.77 1649.87 521.735L1647.54 521.031C1646.38 520.644 1645.61 520.503 1644.66 520.503C1643.6 520.503 1642.97 521.031 1642.83 521.946H1637.86C1637.93 516.842 1640.4 513.85 1644.55 513.85C1645.68 513.85 1647.75 514.202 1650.25 515.188L1654.76 516.983C1656.94 517.898 1658.31 518.25 1659.69 518.25H1660.29L1660.25 524.586H1659.55C1659.09 524.586 1658.63 524.586 1658.21 524.621V525.079C1658.21 526.417 1659.09 526.839 1662.05 526.839V532.154ZM1672.77 515.716C1672.77 517.018 1671.82 518.004 1670.48 518.004C1669.15 518.004 1668.16 517.018 1668.16 515.716C1668.16 514.413 1669.15 513.393 1670.48 513.393C1671.82 513.393 1672.77 514.413 1672.77 515.716ZM1667.39 515.716C1667.39 517.018 1666.4 518.004 1665.1 518.004C1663.76 518.004 1662.78 517.018 1662.78 515.716C1662.78 514.413 1663.76 513.393 1665.1 513.393C1666.4 513.393 1667.39 514.413 1667.39 515.716ZM1673.41 532.225L1672.17 533.492C1668.65 533.492 1666.51 531.873 1665.98 528.951C1665.56 531.873 1663.73 533.492 1660.77 533.492V527.965L1662.04 526.839C1664.22 526.839 1664.89 525.959 1664.89 523.882V519.905H1670.66V523.882C1670.66 526.17 1671.33 526.839 1673.41 526.839V532.225ZM1684.36 506.036C1684.36 507.585 1683.16 508.781 1681.62 508.781C1680 508.781 1678.8 507.585 1678.8 506.036C1678.8 504.452 1680 503.22 1681.62 503.22C1683.16 503.22 1684.36 504.452 1684.36 506.036ZM1681.26 533.492H1672.15V527.965L1673.41 526.839H1681.65C1685.21 526.839 1686.47 526.487 1686.79 524.586C1685.49 525.114 1683.62 525.396 1681.05 525.396C1676.65 525.396 1674.08 523.002 1674.08 519.306C1674.08 514.801 1677.78 510.753 1682.04 510.753C1686.83 510.753 1690.7 515.751 1690.7 523.319C1690.7 530.253 1687.92 533.492 1681.26 533.492ZM1678.2 518.849C1678.2 519.905 1679.33 520.362 1681.3 520.362C1683.23 520.362 1684.82 520.292 1686.16 520.151C1685.14 518.109 1683.13 516.983 1681.09 516.983C1679.12 516.983 1678.2 517.898 1678.2 518.849Z" fill="white"/>
<path d="M1545.39 379.523C1543.7 379.523 1542.47 378.96 1541.73 377.869C1541.52 384.838 1538.95 388.217 1533.88 388.217C1532.79 388.217 1531.66 388.147 1530.75 388.041V381.353C1531.73 381.459 1532.51 381.529 1533.25 381.529C1535.89 381.529 1537.72 379.981 1537.72 375.475C1537.72 372.553 1537.22 369.456 1536.45 365.936H1542.5L1543 369.069C1543.45 372.025 1544.37 372.87 1546.62 372.87V378.256L1545.39 379.523ZM1546.63 379.523H1544.8V373.997L1546.06 372.87C1548.17 372.87 1548.81 371.92 1548.81 369.421C1548.81 367.977 1548.63 365.971 1548.32 363.472H1554.12C1554.4 366.112 1554.58 368.505 1554.58 370.512C1554.58 376.285 1551.8 379.523 1546.63 379.523ZM1555.74 384.697C1555.74 385.965 1554.79 386.985 1553.45 386.985C1552.12 386.985 1551.13 385.965 1551.13 384.697C1551.13 383.36 1552.12 382.374 1553.45 382.374C1554.79 382.374 1555.74 383.36 1555.74 384.697ZM1550.36 384.697C1550.36 385.965 1549.41 386.985 1548.07 386.985C1546.73 386.985 1545.75 385.965 1545.75 384.697C1545.75 383.36 1546.73 382.374 1548.07 382.374C1549.41 382.374 1550.36 383.36 1550.36 384.697ZM1562.82 379.523H1556.62V353.123H1562.82V379.523ZM1576.4 379.523C1574.71 379.523 1573.48 378.96 1572.74 377.869C1572.52 384.838 1569.96 388.217 1564.89 388.217C1563.8 388.217 1562.67 388.147 1561.75 388.041V381.353C1562.74 381.459 1563.51 381.529 1564.25 381.529C1566.89 381.529 1568.72 379.981 1568.72 375.475C1568.72 372.553 1568.23 369.456 1567.46 365.936H1573.51L1574 369.069C1574.46 372.025 1575.38 372.87 1577.63 372.87V378.256L1576.4 379.523ZM1577.63 379.523H1575.8V373.997L1577.07 372.87C1579.18 372.87 1579.81 371.92 1579.81 369.421C1579.81 367.977 1579.64 365.971 1579.32 363.472H1585.13C1585.41 366.112 1585.59 368.505 1585.59 370.512C1585.59 376.285 1582.81 379.523 1577.63 379.523ZM1584.57 384.205C1584.57 385.789 1583.37 386.985 1581.79 386.985C1580.2 386.985 1579 385.789 1579 384.205C1579 382.621 1580.2 381.389 1581.79 381.389C1583.37 381.389 1584.57 382.621 1584.57 384.205ZM1596.85 352.067C1596.85 353.616 1595.65 354.813 1594.1 354.813C1592.49 354.813 1591.29 353.616 1591.29 352.067C1591.29 350.483 1592.49 349.251 1594.1 349.251C1595.65 349.251 1596.85 350.483 1596.85 352.067ZM1593.75 379.523H1584.64V373.997L1585.9 372.87H1594.14C1597.7 372.87 1598.96 372.518 1599.28 370.617C1597.98 371.145 1596.11 371.427 1593.54 371.427C1589.14 371.427 1586.57 369.033 1586.57 365.337C1586.57 360.832 1590.27 356.784 1594.53 356.784C1599.31 356.784 1603.19 361.782 1603.19 369.35C1603.19 376.285 1600.41 379.523 1593.75 379.523ZM1590.69 364.88C1590.69 365.936 1591.82 366.393 1593.79 366.393C1595.72 366.393 1597.31 366.323 1598.65 366.182C1597.62 364.141 1595.62 363.014 1593.58 363.014C1591.61 363.014 1590.69 363.929 1590.69 364.88Z" fill="#FC4C2C"/>
<path d="M1203.41 633.211C1201.97 633.211 1200.81 632.683 1199.89 631.627C1199.12 637.048 1195.85 639.617 1189.72 639.617C1182.12 639.617 1178.77 635.077 1178.74 628.318C1178.74 626.664 1178.95 624.833 1179.34 622.897H1184.97C1184.69 624.376 1184.51 625.713 1184.55 626.91C1184.62 630.536 1186.24 632.683 1190.53 632.683C1194.93 632.683 1196.94 631.205 1196.94 628.037C1196.94 626.734 1196.76 625.432 1196.34 623.144L1196.06 621.63H1201.83L1202.15 623.32C1202.6 625.643 1203.2 626.312 1204.4 626.312C1205.63 626.312 1206.23 625.326 1206.23 623.32V621.63H1212V623.32C1212 625.361 1212.71 626.312 1213.69 626.312C1214.64 626.312 1215.14 625.643 1215.14 624.094C1215.14 622.827 1214.92 621.102 1214.47 619.166H1220.42C1220.73 621.032 1220.91 622.686 1220.91 624.305C1220.91 630.149 1218.06 633.211 1213.52 633.211C1210.74 633.211 1208.27 631.768 1207.67 629.304C1207.32 631.838 1205.81 633.211 1203.41 633.211ZM1233.14 628.494C1233.14 637.365 1230.19 641.448 1223.57 641.448C1222.55 641.448 1221.49 641.377 1220.37 641.272V634.513C1221.35 634.654 1222.48 634.76 1223.39 634.76C1226.42 634.76 1227.51 633.07 1227.51 628.741C1227.51 625.537 1226.84 622.017 1225.75 617.406H1231.74C1232.62 621.067 1233.14 625.08 1233.14 628.494ZM1244.05 632.753H1243.45C1238.31 632.753 1236.44 630.219 1236.44 624.798V606.353H1242.64V623.214C1242.64 625.467 1243.2 626.101 1245.28 626.101V631.486L1244.05 632.753ZM1265.46 625.326C1265.46 630.254 1262.54 633.211 1257.61 633.211C1254.72 633.211 1251.9 632.366 1250.14 630.677C1248.84 632.12 1247.19 632.753 1244.83 632.753V627.227L1246.1 626.101C1247.79 626.101 1248.56 625.502 1249.48 623.601L1250.5 621.63C1252.29 618.075 1254.54 616.35 1257.92 616.35C1262.25 616.35 1265.46 619.941 1265.46 625.326ZM1258.17 622.862C1255.74 622.862 1254.19 623.601 1253.17 625.256C1254.54 626.101 1256.59 626.558 1258.35 626.558C1260.46 626.558 1261.34 626.101 1261.34 624.904C1261.34 623.707 1260.14 622.862 1258.17 622.862Z" fill="#FC4C2C"/>
<path d="M92.9248 518.321C92.9248 519.869 91.728 521.066 90.1792 521.066C88.56 521.066 87.3632 519.869 87.3632 518.321C87.3632 516.701 88.56 515.505 90.1792 515.505C91.728 515.505 92.9248 516.701 92.9248 518.321ZM103.59 533.492C101.936 533.492 100.774 533.069 99.8944 532.084C99.1904 537.681 95.952 540.356 89.8272 540.356C82.048 540.356 78.7392 535.921 78.7392 528.951C78.7392 527.297 78.9504 525.537 79.3024 523.636H84.9344C84.6528 524.973 84.512 526.241 84.512 527.332C84.4768 531.169 86.0608 533.421 90.5312 533.421C94.896 533.421 96.9024 531.943 96.9024 528.775C96.9024 527.473 96.7264 526.17 96.304 523.882L96.0224 522.369H101.795L102.112 524.058C102.534 526.241 103.098 526.839 104.858 526.839V532.225L103.59 533.492ZM105.204 533.492H103.373V527.965L104.641 526.839C106.753 526.839 107.386 525.889 107.386 523.389C107.386 521.946 107.21 519.94 106.893 517.441H112.701C112.983 520.081 113.159 522.474 113.159 524.481C113.159 530.253 110.378 533.492 105.204 533.492ZM114.321 538.666C114.321 539.933 113.37 540.954 112.033 540.954C110.695 540.954 109.709 539.933 109.709 538.666C109.709 537.329 110.695 536.343 112.033 536.343C113.37 536.343 114.321 537.329 114.321 538.666ZM108.935 538.666C108.935 539.933 107.985 540.954 106.647 540.954C105.309 540.954 104.324 539.933 104.324 538.666C104.324 537.329 105.309 536.343 106.647 536.343C107.985 536.343 108.935 537.329 108.935 538.666ZM128.804 515.258C128.804 516.807 127.642 518.004 126.058 518.004C124.474 518.004 123.242 516.807 123.242 515.258C123.242 513.639 124.474 512.442 126.058 512.442C127.642 512.442 128.804 513.639 128.804 515.258ZM132.5 533.492C130.81 533.492 129.578 532.929 128.839 531.837C128.628 538.807 126.058 542.186 120.989 542.186C119.898 542.186 118.772 542.116 117.857 542.01V535.322C118.842 535.428 119.617 535.498 120.356 535.498C122.996 535.498 124.826 533.949 124.826 529.444C124.826 526.522 124.333 523.425 123.559 519.905H129.613L130.106 523.037C130.564 525.994 131.479 526.839 133.732 526.839V532.225L132.5 533.492ZM142.562 514.871L134.184 516.068V512.865L135.311 512.724C134.818 512.125 134.607 511.386 134.607 510.577C134.642 508.394 136.296 506.74 138.549 506.74C140.556 506.74 141.858 508.077 141.999 510.365L139.992 510.612C139.746 510.225 139.183 509.943 138.514 509.943C137.564 509.943 137.106 510.26 137.106 510.858C137.106 511.703 138.268 512.301 139.781 512.055L142.562 511.633V514.871ZM134.079 533.492H132.248V527.965L133.516 526.839C135.628 526.839 136.261 525.889 136.261 523.389C136.261 521.946 136.085 519.94 135.768 517.441H141.576C141.858 520.081 142.034 522.474 142.034 524.481C142.034 530.253 139.253 533.492 134.079 533.492ZM151.951 533.492H151.353C146.214 533.492 144.348 530.957 144.348 525.537V507.092H150.543V523.953C150.543 526.205 151.107 526.839 153.183 526.839V532.225L151.951 533.492ZM164.834 510.506C164.834 512.055 163.637 513.252 162.089 513.252C160.469 513.252 159.273 512.055 159.273 510.506C159.273 508.887 160.469 507.69 162.089 507.69C163.637 507.69 164.834 508.887 164.834 510.506ZM153.957 533.492H151.705V527.965L152.972 526.839H154.767C154.239 525.818 153.957 524.692 153.957 523.495C153.957 518.954 157.583 515.153 162.229 515.153C166.841 515.153 170.255 519.025 170.255 523.495C170.255 524.657 169.903 525.783 169.234 526.839H171.311V532.225L170.079 533.492H169.023C166.242 533.492 163.708 533.034 161.525 532.26C159.237 533.034 156.668 533.492 153.957 533.492ZM158.357 523.812C158.357 525.009 159.871 525.924 162.581 526.417C164.799 525.924 165.89 525.079 165.89 524.023C165.89 522.756 164.236 521.77 161.948 521.805C159.695 521.805 158.357 522.685 158.357 523.812ZM172.072 533.492H169.855V527.965L171.122 526.839C173.234 526.839 173.762 526.241 173.762 523.741V507.092H179.992V523.882C179.992 530.465 177.493 533.492 172.072 533.492ZM189.389 533.492H183.194V507.092H189.389V533.492ZM212.208 518.18C212.208 519.729 211.046 520.925 209.462 520.925C207.878 520.925 206.646 519.729 206.646 518.18C206.646 516.561 207.878 515.364 209.462 515.364C211.046 515.364 212.208 516.561 212.208 518.18ZM221.853 528.423C221.853 536.026 217.347 540.356 209.673 540.356C201.472 540.356 197.952 536.097 197.952 528.951C197.952 527.297 198.128 525.537 198.48 523.636H204.112C203.83 525.009 203.654 526.276 203.689 527.402C203.654 531.169 205.238 533.421 209.744 533.421C214.073 533.421 216.08 531.943 216.08 528.634C216.08 527.015 215.833 524.305 215.305 521.137H221.078C221.571 523.882 221.853 526.593 221.853 528.423ZM229.767 533.421L223.079 534.055V527.543L227.373 527.121L225.191 511.809H231.949L233.604 526.381C236.631 525.748 237.018 524.762 237.018 522.65V507.092H243.213V523.953C243.213 526.205 243.812 526.839 245.889 526.839V532.225L244.621 533.492H244.058C240.045 533.492 238.285 531.837 237.757 528.282C237.124 531.521 235.012 532.929 229.767 533.421ZM247.652 533.492H244.449V527.965L245.681 526.839H248.779C247.582 525.783 246.878 524.305 246.878 522.404C246.878 517.933 250.152 514.484 255.115 514.484C260.078 514.484 263.387 517.229 263.457 523.213H258.388C258.001 521.911 256.558 521.137 254.833 521.137C252.651 521.137 251.348 521.981 251.348 523.46C251.348 525.29 253.39 526.17 257.051 526.17C258.635 526.17 259.726 526.1 261.556 525.853L264.372 525.537V531.943L261.592 532.401C257.262 533.175 253.531 533.492 247.652 533.492ZM272.92 533.492H266.725V507.092H272.92V533.492ZM273.976 543.172L265.563 544.369V541.165L266.69 541.025C266.232 540.426 266.021 539.722 266.021 538.913C266.056 536.73 267.71 535.041 269.963 535.041C271.97 535.041 273.272 536.413 273.413 538.666L271.406 538.948C271.125 538.525 270.597 538.279 269.928 538.279C268.978 538.279 268.485 538.561 268.485 539.194C268.485 540.004 269.682 540.602 271.195 540.356L273.976 539.969V543.172Z" fill="white"/>
<path d="M1113.88 425.664C1111.98 425.664 1110.61 425.101 1109.66 424.01C1109.31 429.114 1106 432.528 1099.35 432.528C1091.5 432.528 1087.91 428.41 1087.91 421.194C1087.91 419.645 1088.05 417.744 1088.43 415.808H1094.07C1093.78 417.181 1093.64 418.448 1093.64 419.574C1093.61 423.341 1095.19 425.594 1099.63 425.594C1104.38 425.594 1106.28 424.01 1106.28 420.877V399.264H1112.48V416.054C1112.48 418.342 1113.18 419.011 1115.12 419.011V424.397L1113.88 425.664ZM1126.55 424.397L1125.32 425.664C1121.8 425.664 1119.65 424.045 1119.13 421.123C1118.7 424.045 1116.87 425.664 1113.92 425.664V420.138L1115.18 419.011C1117.37 419.011 1118.03 418.131 1118.03 416.054V412.077H1123.81V416.054C1123.81 418.342 1124.48 419.011 1126.55 419.011V424.397ZM1125.5 430.838C1125.5 432.106 1124.55 433.126 1123.21 433.126C1121.91 433.126 1120.89 432.106 1120.89 430.838C1120.89 429.501 1121.91 428.515 1123.21 428.515C1124.55 428.515 1125.5 429.501 1125.5 430.838ZM1120.11 430.838C1120.11 432.106 1119.16 433.126 1117.82 433.126C1116.52 433.126 1115.5 432.106 1115.5 430.838C1115.5 429.501 1116.52 428.515 1117.82 428.515C1119.16 428.515 1120.11 429.501 1120.11 430.838ZM1129.62 425.664H1125.36V420.138L1126.63 419.011H1129.62C1133.07 419.011 1136.1 418.554 1138.21 417.603L1140.6 416.582C1141.03 416.406 1141.41 416.23 1141.8 416.09C1141.03 415.949 1140.29 415.773 1139.44 415.562L1136.63 414.858C1135.43 414.541 1134.87 414.435 1134.06 414.435C1133.11 414.435 1132.47 414.963 1132.33 415.878H1127.4C1127.44 410.774 1129.94 407.782 1134.09 407.782C1135.08 407.782 1136.24 407.958 1138.6 408.662L1144.62 410.422C1146.98 411.162 1148.07 411.338 1150.21 411.338H1150.99L1150.95 417.146H1149.83C1149.16 417.146 1148.59 417.216 1148.03 417.322C1148.07 418.624 1148.98 419.011 1151.9 419.011V424.326L1150.64 425.664C1146.59 425.664 1144.26 423.376 1143.84 419.469C1143.53 419.68 1143.17 419.926 1142.79 420.208L1140.08 422.144C1136.2 424.96 1134.13 425.664 1129.62 425.664ZM1141.84 430.346C1141.84 431.93 1140.64 433.126 1139.09 433.126C1137.47 433.126 1136.27 431.93 1136.27 430.346C1136.27 428.762 1137.47 427.53 1139.09 427.53C1140.64 427.53 1141.84 428.762 1141.84 430.346ZM1180.34 425.664C1177.1 425.664 1175.06 424.115 1174.53 421.44C1174.18 424.467 1172.56 426.122 1169.99 426.122C1167.7 426.122 1165.9 424.714 1165.45 422.25C1165.09 424.749 1163.51 426.122 1161.12 426.122C1158.37 426.122 1156.47 424.538 1156.01 421.827C1155.59 424.326 1153.72 425.664 1150.7 425.664V420.138L1151.96 419.011C1154.04 419.011 1154.89 418.237 1154.89 416.23V414.541H1160.66V416.23C1160.66 418.272 1161.19 419.222 1162.38 419.222C1163.4 419.222 1164.04 418.272 1164.04 416.23V414.541H1169.81V416.23C1169.81 418.272 1170.37 419.222 1171.46 419.222C1172.52 419.222 1173.12 418.237 1173.12 416.23V413.309H1178.86V416.23C1178.86 418.237 1179.63 419.011 1181.57 419.011V424.397L1180.34 425.664ZM1192.37 407.888C1192.37 409.19 1191.42 410.176 1190.08 410.176C1188.74 410.176 1187.75 409.19 1187.75 407.888C1187.75 406.586 1188.74 405.565 1190.08 405.565C1191.42 405.565 1192.37 406.586 1192.37 407.888ZM1186.98 407.888C1186.98 409.19 1185.99 410.176 1184.69 410.176C1183.35 410.176 1182.37 409.19 1182.37 407.888C1182.37 406.586 1183.35 405.565 1184.69 405.565C1185.99 405.565 1186.98 406.586 1186.98 407.888ZM1193 424.397L1191.77 425.664C1188.25 425.664 1186.1 424.045 1185.57 421.123C1185.15 424.045 1183.32 425.664 1180.36 425.664V420.138L1181.63 419.011C1183.81 419.011 1184.48 418.131 1184.48 416.054V412.077H1190.25V416.054C1190.25 418.342 1190.92 419.011 1193 419.011V424.397ZM1194.03 425.664H1191.81V420.138L1193.08 419.011C1195.19 419.011 1195.72 418.413 1195.72 415.914V399.264H1201.95V416.054C1201.95 422.637 1199.45 425.664 1194.03 425.664ZM1211.62 425.664H1205.42V399.264H1211.62V425.664ZM1251.14 416.406C1251.14 423.094 1246.36 426.122 1236.04 426.122C1225.31 426.122 1220.87 422.989 1220.87 415.702C1220.87 414.189 1221.08 412.323 1221.44 410.845H1227.1C1226.79 412.218 1226.61 413.45 1226.61 414.4C1226.61 417.885 1229.21 419.187 1236.04 419.187C1243.08 419.187 1245.37 418.307 1245.37 415.562C1245.37 414.118 1245.2 412.112 1244.77 409.613H1250.58C1250.97 412.147 1251.14 414.47 1251.14 416.406ZM1238.79 430.733C1238.79 432.317 1237.63 433.514 1236.04 433.514C1234.46 433.514 1233.23 432.317 1233.23 430.733C1233.23 429.149 1234.46 427.917 1236.04 427.917C1237.63 427.917 1238.79 429.149 1238.79 430.733ZM1261.36 425.664H1260.76C1255.62 425.664 1253.75 423.13 1253.75 417.709V399.264H1259.95V416.125C1259.95 418.378 1260.51 419.011 1262.59 419.011V424.397L1261.36 425.664ZM1263.21 425.664H1261.38V420.138L1262.65 419.011C1264.76 419.011 1265.4 418.061 1265.4 415.562C1265.4 414.118 1265.22 412.112 1264.9 409.613H1270.71C1270.99 412.253 1271.17 414.646 1271.17 416.653C1271.17 422.426 1268.39 425.664 1263.21 425.664ZM1270.15 430.346C1270.15 431.93 1268.95 433.126 1267.37 433.126C1265.78 433.126 1264.59 431.93 1264.59 430.346C1264.59 428.762 1265.78 427.53 1267.37 427.53C1268.95 427.53 1270.15 428.762 1270.15 430.346ZM1302.22 404.614C1302.22 406.163 1301.06 407.36 1299.47 407.36C1297.89 407.36 1296.66 406.163 1296.66 404.614C1296.66 402.995 1297.89 401.798 1299.47 401.798C1301.06 401.798 1302.22 402.995 1302.22 404.614ZM1295.88 404.614C1295.88 406.163 1294.69 407.36 1293.14 407.36C1291.52 407.36 1290.32 406.163 1290.32 404.614C1290.32 402.995 1291.52 401.798 1293.14 401.798C1294.69 401.798 1295.88 402.995 1295.88 404.614ZM1304.68 421.968C1304.68 430.838 1300.71 434.886 1292.05 434.886C1283.56 434.886 1279.41 430.874 1279.41 423.024C1279.41 421.334 1279.66 419.152 1280.04 417.357H1285.71C1285.36 419.152 1285.18 420.701 1285.18 422.074C1285.18 426.298 1287.4 428.234 1293.1 428.234C1296.97 428.234 1299.58 427.459 1300.35 424.854C1299.23 425.277 1297.85 425.488 1295.95 425.488C1291.2 425.488 1288.32 423.27 1288.32 418.624C1288.32 413.802 1292.01 409.261 1296.59 409.261C1301.3 409.261 1304.68 413.978 1304.68 421.968ZM1292.47 417.85C1292.47 418.941 1293.6 419.398 1295.67 419.398C1297.36 419.398 1298.77 419.293 1299.97 419.117C1299.16 416.864 1297.5 415.773 1295.32 415.773C1293.56 415.773 1292.47 416.688 1292.47 417.85ZM1313.39 425.594L1306.7 426.227V419.715L1311 419.293L1308.81 403.981H1315.57L1317.23 418.554C1320.25 417.92 1320.64 416.934 1320.64 414.822V399.264H1326.84V416.125C1326.84 418.378 1327.44 419.011 1329.51 419.011V424.397L1328.24 425.664H1327.68C1323.67 425.664 1321.91 424.01 1321.38 420.454C1320.75 423.693 1318.64 425.101 1313.39 425.594ZM1341.79 402.538C1341.79 404.122 1340.63 405.318 1339.05 405.318C1337.46 405.318 1336.23 404.122 1336.23 402.538C1336.23 400.954 1337.46 399.722 1339.05 399.722C1340.63 399.722 1341.79 400.954 1341.79 402.538ZM1331.55 425.664H1328.35V420.138L1329.58 419.011H1332.68C1331.48 417.955 1330.78 416.477 1330.78 414.576C1330.78 410.106 1334.05 406.656 1339.01 406.656C1343.98 406.656 1347.29 409.402 1347.36 415.386H1342.29C1341.9 414.083 1340.46 413.309 1338.73 413.309C1336.55 413.309 1335.25 414.154 1335.25 415.632C1335.25 417.462 1337.29 418.342 1340.95 418.342C1342.53 418.342 1343.62 418.272 1345.45 418.026L1348.27 417.709V424.01L1345.21 424.538C1340.39 425.418 1337.36 425.664 1331.55 425.664ZM1357.09 425.664H1350.9V399.264H1357.09V425.664ZM1358.15 435.344L1349.74 436.541V433.338L1350.86 433.197C1350.41 432.598 1350.19 431.894 1350.19 431.085C1350.23 428.902 1351.88 427.213 1354.14 427.213C1356.14 427.213 1357.45 428.586 1357.59 430.838L1355.58 431.12C1355.3 430.698 1354.77 430.451 1354.1 430.451C1353.15 430.451 1352.66 430.733 1352.66 431.366C1352.66 432.176 1353.86 432.774 1355.37 432.528L1358.15 432.141V435.344Z" fill="white"/>
<path d="M462.717 425.664C460.816 425.664 459.443 425.101 458.493 424.01C458.141 429.114 454.832 432.528 448.179 432.528C440.33 432.528 436.739 428.41 436.739 421.194C436.739 419.645 436.88 417.744 437.267 415.808H442.899C442.618 417.181 442.477 418.448 442.477 419.574C442.442 423.341 444.026 425.594 448.461 425.594C453.213 425.594 455.114 424.01 455.114 420.877V399.264H461.309V416.054C461.309 418.342 462.013 419.011 463.949 419.011V424.397L462.717 425.664ZM485.528 425.664C482.958 425.664 481.163 424.467 479.825 421.686C479.051 424.854 477.185 426.122 473.947 426.122C471.201 426.122 469.16 425.171 468.315 422.742C467.013 424.784 465.182 425.664 462.542 425.664V420.138L463.809 419.011C465.464 419.011 466.097 418.483 466.977 416.688L468.209 414.224C469.793 411.021 472.187 409.261 475.038 409.261C478.805 409.261 481.093 410.88 482.958 414.963L483.24 415.597C484.472 418.272 485.246 419.011 486.76 419.011V424.397L485.528 425.664ZM470.814 417.814C470.814 418.87 471.87 419.469 474.123 419.469C476.341 419.469 477.749 419.187 478.417 418.554C477.432 416.582 476.129 415.773 473.947 415.773C472.117 415.773 470.814 416.758 470.814 417.814ZM489.556 425.664H485.367V420.138L486.634 419.011H491.703C491.351 418.659 491.034 418.272 490.682 417.885L488.958 415.878V409.754C491.246 409.19 494.836 408.592 498.11 408.592C504.481 408.592 507.086 410 507.156 414.083C507.156 415.808 506.522 417.498 505.396 419.011H509.444V424.397L508.212 425.664H507.332C503.953 425.664 501.102 425.136 498.497 423.974C495.892 425.03 492.83 425.664 489.556 425.664ZM498.11 414.682C496.561 414.682 495.047 414.752 493.534 414.963C495.329 416.899 496.842 417.99 498.884 418.518C501.594 418.026 503.108 417.181 503.073 416.23C503.073 415.069 501.524 414.682 498.11 414.682ZM510.272 425.664H508.055V420.138L509.322 419.011C511.434 419.011 511.962 418.413 511.962 415.914V399.264H518.192V416.054C518.192 422.637 515.693 425.664 510.272 425.664ZM527.658 425.664H521.462V399.264H527.658V425.664ZM568.566 405.424C568.566 406.726 567.616 407.712 566.278 407.712C564.976 407.712 563.955 406.726 563.955 405.424C563.955 404.086 564.976 403.101 566.278 403.101C567.616 403.101 568.566 404.086 568.566 405.424ZM565.891 410.211C565.891 411.514 564.905 412.499 563.603 412.499C562.265 412.499 561.28 411.514 561.28 410.211C561.28 408.874 562.265 407.888 563.603 407.888C564.905 407.888 565.891 408.874 565.891 410.211ZM571.276 410.211C571.276 411.514 570.291 412.499 568.988 412.499C567.651 412.499 566.665 411.514 566.665 410.211C566.665 408.874 567.651 407.888 568.988 407.888C570.291 407.888 571.276 408.874 571.276 410.211ZM561.033 426.122C559.59 426.122 558.428 425.594 557.513 424.538C556.739 429.958 553.465 432.528 547.34 432.528C539.737 432.528 536.393 427.987 536.358 421.229C536.358 419.574 536.569 417.744 536.956 415.808H542.588C542.307 417.286 542.131 418.624 542.166 419.821C542.236 423.446 543.856 425.594 548.15 425.594C552.55 425.594 554.556 424.115 554.556 420.947C554.556 419.645 554.38 418.342 553.958 416.054L553.676 414.541H559.449L559.766 416.23C560.224 418.554 560.822 419.222 562.019 419.222C563.251 419.222 563.849 418.237 563.849 416.23V414.541H569.622V416.23C569.622 418.272 570.326 419.222 571.312 419.222C572.262 419.222 572.755 418.554 572.755 417.005C572.755 415.738 572.544 414.013 572.086 412.077H578.035C578.352 413.942 578.528 415.597 578.528 417.216C578.528 423.059 575.676 426.122 571.136 426.122C568.355 426.122 565.891 424.678 565.292 422.214C564.94 424.749 563.427 426.122 561.033 426.122ZM589.8 421.405C589.8 430.275 586.843 434.358 580.225 434.358C579.205 434.358 578.149 434.288 577.022 434.182V427.424C578.008 427.565 579.134 427.67 580.049 427.67C583.077 427.67 584.168 425.981 584.168 421.651C584.168 418.448 583.499 414.928 582.408 410.317H588.392C589.272 413.978 589.8 417.99 589.8 421.405ZM607.8 422.32C607.8 429.149 605.019 434.358 597.486 434.358C595.972 434.358 594.036 434.182 591.854 433.69V427.6C594.036 428.093 595.867 428.234 597.31 428.234C601.217 428.234 603.048 427.53 603.681 425.277C602.555 425.84 601.147 426.122 598.929 426.122C594.072 426.122 591.15 423.341 591.15 418.554C591.15 413.802 594.846 409.261 599.492 409.261C604.244 409.261 607.8 413.942 607.8 422.32ZM595.268 417.814C595.268 418.906 596.395 419.469 598.648 419.469C600.548 419.469 602.062 419.363 603.329 419.082C602.449 416.899 600.654 415.773 598.19 415.773C596.36 415.773 595.268 416.688 595.268 417.814Z" fill="white"/>
<path d="M1535.47 337.863V295.52L1523.79 302.442V287.339L1537.99 277.63H1553.63V337.863H1535.47ZM1586.01 338.852C1571.26 338.852 1562.72 332.379 1561.46 320.602H1578.1C1578.64 323.389 1580.43 325.457 1585.02 325.457C1592.3 325.457 1595.18 320.242 1595.45 310.443C1592.75 314.489 1589.15 317.456 1581.6 317.456C1569.83 317.456 1560.66 310.983 1560.66 298.037C1560.66 285.361 1570.36 276.731 1586.19 276.731C1604.71 276.731 1613.34 288.957 1613.34 306.398V308.196C1613.34 327.704 1603.72 338.852 1586.01 338.852ZM1585.92 305.858C1590.86 305.858 1594.1 302.352 1594.1 297.857C1594.1 292.913 1590.95 289.407 1585.92 289.407C1581.06 289.407 1578.01 292.913 1578.01 297.767C1578.01 302.442 1580.97 305.858 1585.92 305.858Z" fill="#EB593D"/>
<path d="M351.606 424.272C351.334 420.342 350.986 416.403 350.515 412.503C350.02 408.424 349.106 404.418 348.21 400.437C347.825 398.735 347.431 397.032 347.038 395.335C346.928 394.288 346.81 393.247 346.679 392.209C346.127 387.838 345.539 383.486 344.812 379.152C344.441 376.938 344.031 374.731 343.609 372.528C343.193 370.363 342.699 368.221 342.224 366.072C341.777 364.055 341.216 362.07 340.697 360.068C340.459 359.141 340.152 358.228 339.879 357.314C339.582 356.318 339.316 355.295 338.983 354.321C337.599 350.225 336.257 346.114 334.669 342.119C333.106 338.197 331.549 334.251 329.821 330.421C326.439 322.918 322.977 315.434 319.092 308.253C317.057 304.491 314.986 300.768 312.806 297.115C310.76 293.68 308.599 290.342 306.424 287.018C304.149 283.542 301.759 280.153 299.338 276.813C296.963 273.529 294.563 270.248 292.042 267.1C289.391 263.789 286.687 260.541 283.879 257.39C282.513 255.855 281.102 254.368 279.692 252.873C278.522 251.635 277.31 250.415 276.081 249.254C273.026 246.367 269.948 243.534 266.775 240.812C263.961 238.395 261.082 236.025 258.078 233.907C256.313 232.658 254.55 231.423 252.742 230.247C250.983 229.101 249.202 228.03 247.405 226.958C245.944 226.085 244.439 225.251 242.926 224.492C241.119 223.588 239.326 222.653 237.498 221.804C230.379 218.498 223.133 215.508 215.705 213.162C213.77 212.556 211.839 211.956 209.888 211.411C207.926 210.855 205.959 210.36 203.984 209.866C200.497 209.002 196.966 208.31 193.439 207.712C192.444 207.543 191.448 207.375 190.453 207.208C185.714 206.405 180.954 205.846 176.181 205.353C171.683 204.885 167.158 204.782 162.642 204.689L162.683 204.692C161.055 204.655 159.419 204.674 157.789 204.736C155.725 204.814 153.664 204.902 151.601 205.037C149.651 205.165 147.71 205.368 145.762 205.546C144.595 205.66 143.432 205.858 142.271 206.014C141.567 206.113 140.864 206.207 140.163 206.338C139.023 206.547 137.889 206.757 136.75 206.966C135.871 207.125 134.998 207.382 134.132 207.589C132.021 208.097 129.953 208.73 127.872 209.372C127.058 209.625 126.261 209.953 125.457 210.257C124.502 210.618 123.544 210.956 122.607 211.375C120.875 212.154 119.129 212.881 117.441 213.758C116.349 214.324 115.247 214.887 114.153 215.465C113.338 215.887 112.543 216.39 111.746 216.855C104.826 220.865 98.212 225.528 91.853 230.568C88.839 232.951 85.8719 235.467 83.067 238.154C81.502 239.645 79.95 241.131 78.425 242.672C76.899 244.212 75.404 245.793 73.914 247.381C68.386 253.262 63.1909 259.563 58.138 265.953C52.9799 272.476 48.072 279.227 43.381 286.174C41.185 289.424 39.017 292.704 36.985 296.085C35.7899 298.074 34.623 300.068 33.481 302.088C32.403 303.99 31.392 305.932 30.368 307.865C28.405 311.561 26.689 315.428 25.007 319.283C23.34 323.11 21.762 326.989 20.25 330.891C17.2159 338.714 14.2729 346.618 12.0229 354.77C9.72296 363.093 7.81397 371.51 6.12994 380.007C4.43497 388.559 2.89795 397.13 1.73496 405.791C1.20395 409.728 0.804962 413.711 0.557953 417.68L0.502961 418.581C0.261963 422.592 0.061951 426.616 0.0179446 430.639C-0.0810544 439.283 0.227967 447.904 0.984955 456.495C1.19495 458.865 1.44095 461.223 1.72495 463.576H143.444C143.444 445.59 158.024 431.01 176.009 431.01C193.995 431.01 208.574 445.59 208.574 463.576H349.268C349.447 462.681 349.638 461.79 349.808 460.892C350.56 456.907 350.996 452.874 351.395 448.83C351.812 444.607 352.032 440.392 352.018 436.149C352.004 432.188 351.881 428.215 351.606 424.272Z" fill="white"/>
<path d="M800.389 532.964L783.845 533.949L783.88 527.825L786.485 527.719C785.746 526.804 785.288 525.642 785.288 524.129C785.288 520.503 788.104 517.476 792.258 517.476C796.939 517.476 799.262 520.609 799.474 524.797L794.405 525.044C794.229 524.269 793.56 523.601 792.152 523.601C790.779 523.601 789.758 524.023 789.758 525.29C789.758 526.733 791.096 527.332 796.094 527.05L800.389 526.839V532.964ZM809.345 533.492H803.15V507.092H809.345V533.492ZM829.529 525.748C829.494 531.38 826.326 533.985 819.392 533.985C813.478 533.985 811.683 531.239 811.683 525.396H816.892C816.998 526.733 817.491 527.297 819.884 527.297C823.088 527.297 824.284 526.874 824.32 525.889C824.355 524.621 822.595 523.178 816.294 519.377L819.603 513.463C827.347 518.497 829.529 521.207 829.529 525.748ZM840.653 507.655L832.24 508.852V505.649L833.367 505.508C832.909 504.909 832.698 504.205 832.698 503.396C832.733 501.213 834.387 499.524 836.64 499.524C838.647 499.524 839.949 500.897 840.09 503.149L838.083 503.431C837.802 503.009 837.274 502.762 836.605 502.762C835.655 502.762 835.162 503.079 835.162 503.677C835.162 504.487 836.359 505.085 837.872 504.874L840.653 504.452V507.655ZM842.871 533.492H830.973V526.909L837.872 521.137C838.048 520.996 838.189 520.855 838.33 520.749L829.107 515.293L832.311 509.767L842.307 515.786C842.659 514.73 842.8 513.533 842.8 512.055V507.092H849.031V512.055C849.031 514.836 848.538 516.666 846.848 518.637C849.453 520.644 850.403 522.721 850.403 525.889C850.403 530.711 847.658 533.492 842.871 533.492ZM836.746 526.839H843.328C844.842 526.839 845.44 526.557 845.44 525.959C845.44 525.361 844.912 524.692 843.082 523.53L841.991 522.897L836.746 526.839ZM859.361 533.492H853.165V507.092H859.361V533.492ZM898.749 524.234C898.749 530.922 893.962 533.949 883.648 533.949C872.912 533.949 868.477 530.817 868.477 523.53C868.477 522.017 868.688 520.151 869.04 518.673H874.707C874.39 520.045 874.214 521.277 874.214 522.228C874.214 525.713 876.819 527.015 883.648 527.015C890.688 527.015 892.976 526.135 892.976 523.389C892.976 521.946 892.8 519.94 892.378 517.441H898.186C898.573 519.975 898.749 522.298 898.749 524.234ZM886.394 538.561C886.394 540.145 885.232 541.341 883.648 541.341C882.064 541.341 880.832 540.145 880.832 538.561C880.832 536.977 882.064 535.745 883.648 535.745C885.232 535.745 886.394 536.977 886.394 538.561ZM910.159 529.233C910.159 538.103 907.202 542.186 900.585 542.186C899.564 542.186 898.508 542.116 897.382 542.01V535.252C898.367 535.393 899.494 535.498 900.409 535.498C903.436 535.498 904.527 533.809 904.527 529.479C904.527 526.276 903.858 522.756 902.767 518.145H908.751C909.631 521.805 910.159 525.818 910.159 529.233ZM920.236 533.492H919.637C914.498 533.492 912.633 530.957 912.633 525.537V507.092H918.828V523.953C918.828 526.205 919.391 526.839 921.468 526.839V532.225L920.236 533.492ZM924.455 533.492H920.195V527.965L921.463 526.839H924.455C927.904 526.839 930.931 526.381 933.043 525.431L935.437 524.41C935.859 524.234 936.247 524.058 936.634 523.917C935.859 523.777 935.12 523.601 934.275 523.389L931.459 522.685C930.263 522.369 929.699 522.263 928.89 522.263C927.939 522.263 927.306 522.791 927.165 523.706H922.237C922.272 518.602 924.771 515.61 928.925 515.61C929.911 515.61 931.072 515.786 933.431 516.49L939.45 518.25C941.808 518.989 942.899 519.165 945.047 519.165H945.821L945.786 524.973H944.659C943.991 524.973 943.427 525.044 942.864 525.149C942.899 526.452 943.815 526.839 946.736 526.839V532.154L945.469 533.492C941.421 533.492 939.098 531.204 938.675 527.297C938.359 527.508 938.007 527.754 937.619 528.036L934.909 529.972C931.037 532.788 928.96 533.492 924.455 533.492ZM936.669 538.173C936.669 539.757 935.472 540.954 933.923 540.954C932.304 540.954 931.107 539.757 931.107 538.173C931.107 536.589 932.304 535.357 933.923 535.357C935.472 535.357 936.669 536.589 936.669 538.173ZM956.619 513.252C956.619 514.554 955.669 515.54 954.331 515.54C953.029 515.54 952.008 514.554 952.008 513.252C952.008 511.949 953.029 510.929 954.331 510.929C955.669 510.929 956.619 511.949 956.619 513.252ZM951.234 513.252C951.234 514.554 950.283 515.54 948.946 515.54C947.643 515.54 946.623 514.554 946.623 513.252C946.623 511.949 947.643 510.929 948.946 510.929C950.283 510.929 951.234 511.949 951.234 513.252ZM947.291 533.492H945.461V527.965L946.728 526.839C948.84 526.839 949.474 525.889 949.474 523.389C949.474 521.946 949.298 519.94 948.981 517.441H954.789C955.071 520.081 955.247 522.474 955.247 524.481C955.247 530.253 952.466 533.492 947.291 533.492Z" fill="white"/>
<path d="M164.717 379.523C162.816 379.523 161.443 378.96 160.493 377.869C160.141 382.973 156.832 386.387 150.179 386.387C142.33 386.387 138.739 382.269 138.739 375.053C138.739 373.504 138.88 371.603 139.267 369.667H144.899C144.618 371.04 144.477 372.307 144.477 373.433C144.442 377.2 146.026 379.453 150.461 379.453C155.213 379.453 157.114 377.869 157.114 374.736V353.123H163.309V369.913C163.309 372.201 164.013 372.87 165.949 372.87V378.256L164.717 379.523ZM166.098 379.523H164.267V373.997L165.534 372.87C167.646 372.87 168.28 371.92 168.28 369.421C168.28 367.977 168.104 365.971 167.787 363.472H173.595C173.877 366.112 174.053 368.505 174.053 370.512C174.053 376.285 171.272 379.523 166.098 379.523ZM175.214 384.697C175.214 385.965 174.264 386.985 172.926 386.985C171.589 386.985 170.603 385.965 170.603 384.697C170.603 383.36 171.589 382.374 172.926 382.374C174.264 382.374 175.214 383.36 175.214 384.697ZM169.829 384.697C169.829 385.965 168.878 386.985 167.541 386.985C166.203 386.985 165.218 385.965 165.218 384.697C165.218 383.36 166.203 382.374 167.541 382.374C168.878 382.374 169.829 383.36 169.829 384.697ZM192.981 379.523C191.291 379.523 190.059 378.96 189.32 377.869C189.109 384.838 186.539 388.217 181.471 388.217C180.379 388.217 179.253 388.147 178.338 388.041V381.353C179.323 381.459 180.098 381.529 180.837 381.529C183.477 381.529 185.307 379.981 185.307 375.475C185.307 372.553 184.815 369.456 184.04 365.936H190.095L190.587 369.069C191.045 372.025 191.96 372.87 194.213 372.87V378.256L192.981 379.523ZM194.354 379.523H192.523V373.997L193.791 372.87C195.903 372.87 196.536 371.92 196.536 369.421C196.536 367.977 196.36 365.971 196.043 363.472H201.851C202.133 366.112 202.309 368.505 202.309 370.512C202.309 376.285 199.528 379.523 194.354 379.523ZM201.288 384.205C201.288 385.789 200.091 386.985 198.507 386.985C196.923 386.985 195.727 385.789 195.727 384.205C195.727 382.621 196.923 381.389 198.507 381.389C200.091 381.389 201.288 382.621 201.288 384.205ZM212.337 356.009L203.959 357.206V354.003L205.086 353.862C204.593 353.264 204.382 352.525 204.382 351.715C204.417 349.533 206.071 347.878 208.324 347.878C210.331 347.878 211.633 349.216 211.774 351.504L209.767 351.75C209.521 351.328 208.958 351.081 208.289 351.081C207.339 351.081 206.846 351.398 206.846 351.997C206.846 352.841 208.043 353.44 209.556 353.193L212.337 352.771V356.009ZM211.281 379.523H205.086V358.509H211.281V379.523Z" fill="#FC4C2C"/>
<path d="M174.959 338.852C160.215 338.852 151.675 332.379 150.416 320.602H167.048C167.587 323.389 169.385 325.457 173.97 325.457C181.252 325.457 184.129 320.242 184.398 310.443C181.701 314.489 178.105 317.456 170.554 317.456C158.777 317.456 149.607 310.983 149.607 298.037C149.607 285.361 159.316 276.731 175.139 276.731C193.658 276.731 202.289 288.957 202.289 306.398V308.196C202.289 327.704 192.669 338.852 174.959 338.852ZM174.869 305.858C179.814 305.858 183.05 302.352 183.05 297.857C183.05 292.913 179.903 289.407 174.869 289.407C170.014 289.407 166.958 292.913 166.958 297.767C166.958 302.442 169.925 305.858 174.869 305.858Z" fill="#EB593D"/>
<path d="M1189.47 586.914V544.571L1177.79 551.493V536.39L1191.99 526.681H1207.63V586.914H1189.47ZM1240.01 587.903C1225.26 587.903 1216.72 581.43 1215.46 569.653H1232.1C1232.64 572.44 1234.43 574.507 1239.02 574.507C1246.3 574.507 1249.18 569.293 1249.45 559.494C1246.75 563.54 1243.15 566.506 1235.6 566.506C1223.83 566.506 1214.66 560.034 1214.66 547.088C1214.66 534.412 1224.36 525.782 1240.19 525.782C1258.71 525.782 1267.34 538.008 1267.34 555.449V557.247C1267.34 576.755 1257.72 587.903 1240.01 587.903ZM1239.92 554.909C1244.86 554.909 1248.1 551.403 1248.1 546.908C1248.1 541.964 1244.95 538.458 1239.92 538.458C1235.06 538.458 1232.01 541.964 1232.01 546.818C1232.01 551.493 1234.97 554.909 1239.92 554.909Z" fill="#EB593D"/>
<path d="M503.414 633.204C501.971 633.204 500.81 632.676 499.894 631.62C499.12 637.041 495.846 639.611 489.722 639.611C482.118 639.611 478.774 635.07 478.739 628.311C478.739 626.657 478.95 624.827 479.338 622.891H484.97C484.688 624.369 484.512 625.707 484.547 626.903C484.618 630.529 486.237 632.676 490.531 632.676C494.931 632.676 496.938 631.198 496.938 628.03C496.938 626.727 496.762 625.425 496.339 623.137L496.058 621.623H501.83L502.147 623.313C502.605 625.636 503.203 626.305 504.4 626.305C505.632 626.305 506.23 625.319 506.23 623.313V621.623H512.003V623.313C512.003 625.355 512.707 626.305 513.693 626.305C514.643 626.305 515.136 625.636 515.136 624.087C515.136 622.82 514.925 621.095 514.467 619.159H520.416C520.733 621.025 520.909 622.679 520.909 624.299C520.909 630.142 518.058 633.204 513.517 633.204C510.736 633.204 508.272 631.761 507.674 629.297C507.322 631.831 505.808 633.204 503.414 633.204ZM533.144 628.487C533.144 637.358 530.187 641.441 523.569 641.441C522.548 641.441 521.492 641.371 520.366 641.265V634.507C521.352 634.647 522.478 634.753 523.393 634.753C526.42 634.753 527.512 633.063 527.512 628.734C527.512 625.531 526.843 622.011 525.752 617.399H531.736C532.616 621.06 533.144 625.073 533.144 628.487ZM544.045 632.747H543.447C538.308 632.747 536.442 630.212 536.442 624.791V606.347H542.637V623.207C542.637 625.46 543.2 626.094 545.277 626.094V631.479L544.045 632.747ZM565.457 625.319C565.457 630.247 562.535 633.204 557.607 633.204C554.721 633.204 551.905 632.359 550.145 630.67C548.842 632.113 547.188 632.747 544.83 632.747V627.22L546.097 626.094C547.786 626.094 548.561 625.495 549.476 623.595L550.497 621.623C552.292 618.068 554.545 616.343 557.924 616.343C562.254 616.343 565.457 619.934 565.457 625.319ZM558.17 622.855C555.742 622.855 554.193 623.595 553.172 625.249C554.545 626.094 556.586 626.551 558.346 626.551C560.458 626.551 561.338 626.094 561.338 624.897C561.338 623.7 560.142 622.855 558.17 622.855Z" fill="#FC4C2C"/>
<path d="M491.229 587.992C473.968 587.992 465.967 580.261 465.337 566.956H481.43C481.969 571.721 484.306 574.867 490.33 574.867C495.454 574.867 498.061 572.53 498.061 568.484C498.061 564.079 495.544 561.832 490.15 561.832H485.295V550.684H489.88C495.274 550.684 497.881 548.436 497.881 544.391C497.881 540.885 495.544 538.727 491.049 538.727C486.374 538.727 483.767 541.424 483.048 546.099H467.135C467.855 533.962 476.036 525.872 491.498 525.872C506.062 525.872 514.872 532.254 514.872 542.413C514.872 549.156 510.917 553.471 504.444 555.359C511.456 556.707 516.401 561.652 516.401 568.844C516.401 580.441 507.68 587.992 491.229 587.992ZM548.98 587.992C531.63 587.992 520.752 577.115 520.752 558.056V555.628C520.752 536.48 532.978 525.872 549.43 525.872C565.612 525.872 577.928 535.491 577.928 555.269V557.516C577.928 576.755 566.691 587.992 548.98 587.992ZM549.61 573.968C556.981 573.968 559.948 568.664 559.948 557.876V555.539C559.948 544.751 556.802 539.536 549.43 539.536C542.058 539.536 538.822 544.751 538.822 555.539V557.966C538.822 568.844 542.058 573.968 549.61 573.968Z" fill="#EB593D"/>
<path d="M1448.25 166.298C1448.46 166.334 1448.68 166.371 1448.89 166.407C1448.91 166.41 1448.93 166.413 1448.95 166.416C1448.72 166.377 1448.48 166.337 1448.25 166.298Z" fill="#FC4C2C"/>
<path d="M1236.73 329.555C1236.93 329.588 1237.13 329.623 1237.33 329.657C1237.35 329.659 1237.37 329.661 1237.38 329.664C1237.17 329.628 1236.95 329.591 1236.73 329.555Z" fill="#FC4C2C"/>
<path d="M855.946 597.61C855.746 597.577 855.546 597.542 855.345 597.508C855.328 597.506 855.31 597.504 855.293 597.501C855.509 597.537 855.73 597.573 855.946 597.61Z" fill="#FC4C2C"/>
<path d="M851.414 379.966C849.971 379.966 848.81 379.438 847.894 378.382C847.12 383.803 843.846 386.372 837.722 386.372C830.118 386.372 826.774 381.832 826.739 375.073C826.739 373.419 826.95 371.588 827.338 369.652H832.97C832.688 371.131 832.512 372.468 832.547 373.665C832.618 377.291 834.237 379.438 838.531 379.438C842.931 379.438 844.938 377.96 844.938 374.792C844.938 373.489 844.762 372.187 844.339 369.899L844.058 368.385H849.83L850.147 370.075C850.605 372.398 851.203 373.067 852.4 373.067C853.632 373.067 854.23 372.081 854.23 370.075V368.385H860.003V370.075C860.003 372.116 860.707 373.067 861.693 373.067C862.643 373.067 863.136 372.398 863.136 370.849C863.136 369.582 862.925 367.857 862.467 365.921H868.416C868.733 367.787 868.909 369.441 868.909 371.06C868.909 376.904 866.058 379.966 861.517 379.966C858.736 379.966 856.272 378.523 855.674 376.059C855.322 378.593 853.808 379.966 851.414 379.966ZM881.144 375.249C881.144 384.12 878.187 388.203 871.569 388.203C870.548 388.203 869.492 388.132 868.366 388.027V381.268C869.352 381.409 870.478 381.515 871.393 381.515C874.42 381.515 875.512 379.825 875.512 375.496C875.512 372.292 874.843 368.772 873.752 364.161H879.736C880.616 367.822 881.144 371.835 881.144 375.249ZM892.045 379.508H891.447C886.308 379.508 884.442 376.974 884.442 371.553V353.108H890.637V369.969C890.637 372.222 891.2 372.856 893.277 372.856V378.241L892.045 379.508ZM913.457 372.081C913.457 377.009 910.535 379.966 905.607 379.966C902.721 379.966 899.905 379.121 898.145 377.432C896.842 378.875 895.188 379.508 892.83 379.508V373.982L894.097 372.856C895.786 372.856 896.561 372.257 897.476 370.356L898.497 368.385C900.292 364.83 902.545 363.105 905.924 363.105C910.254 363.105 913.457 366.696 913.457 372.081ZM906.17 369.617C903.742 369.617 902.193 370.356 901.172 372.011C902.545 372.856 904.586 373.313 906.346 373.313C908.458 373.313 909.338 372.856 909.338 371.659C909.338 370.462 908.142 369.617 906.17 369.617Z" fill="white"/>
<path d="M815.719 337.863V335.346L837.026 313.23C843.229 306.847 847.274 301.723 847.274 296.779C847.274 293.003 845.206 290.306 840.981 290.306C836.666 290.306 833.969 292.913 833.25 299.745H816.798C817.427 284.462 826.777 276.821 841.88 276.821C857.073 276.821 865.074 284.732 865.074 295.969C865.074 304.33 860.4 310.533 853.567 316.916L845.296 324.378H865.614V337.863H815.719ZM894.757 338.852C880.013 338.852 871.473 332.379 870.214 320.602H886.846C887.385 323.389 889.183 325.457 893.768 325.457C901.05 325.457 903.927 320.242 904.196 310.443C901.499 314.489 897.903 317.456 890.352 317.456C878.575 317.456 869.405 310.983 869.405 298.037C869.405 285.361 879.114 276.731 894.937 276.731C913.456 276.731 922.086 288.957 922.086 306.398V308.196C922.086 327.704 912.467 338.852 894.757 338.852ZM894.667 305.858C899.611 305.858 902.848 302.352 902.848 297.857C902.848 292.913 899.701 289.407 894.667 289.407C889.812 289.407 886.756 292.913 886.756 297.767C886.756 302.442 889.722 305.858 894.667 305.858Z" fill="white"/>
</svg>
