<svg width="146" height="147" viewBox="0 0 146 147" fill="none" xmlns="http://www.w3.org/2000/svg">
<path d="M0.100098 32.3301C0.870098 29.8701 1.32009 27.2501 2.47009 24.9901C6.51009 17.0001 13.1501 12.7301 22.1101 12.2401C24.6401 12.1001 27.1901 12.2201 29.8801 12.2201C29.8801 10.3901 29.8701 8.71013 29.8801 7.02013C29.9101 3.42013 32.2401 0.880131 35.5201 0.870131C38.8101 0.860131 41.1801 3.39013 41.2101 6.97013C41.2301 8.66013 41.2101 10.3501 41.2101 12.1201H66.7401C66.7401 10.2401 66.6801 8.32013 66.7501 6.41013C66.9001 2.50013 70.5801 -0.0398711 74.2201 1.18013C76.4601 1.93013 77.9701 3.97013 78.0501 6.45013C78.1001 8.29013 78.0601 10.1301 78.0601 12.0901H103.88C103.88 10.2101 103.81 8.29013 103.89 6.37013C104.09 1.94013 108.83 -0.589871 112.54 1.75013C114.27 2.84013 115.14 4.46013 115.19 6.49013C115.24 8.33013 115.19 10.1601 115.19 12.2001C116.85 12.2001 118.44 12.2301 120.03 12.2001C123.6 12.1201 127.1 12.3901 130.49 13.6401C138.95 16.7701 145.06 24.9501 145.2 33.9901C145.37 45.0401 145.28 56.1001 145.24 67.1601C145.23 70.4301 142.73 72.8601 139.59 72.8701C136.41 72.8701 133.94 70.4001 133.93 67.0301C133.9 56.5401 133.93 46.0501 133.91 35.5601C133.91 30.7001 131.91 26.9601 127.5 24.7701C126.22 24.1401 124.73 23.7501 123.3 23.6501C120.67 23.4701 118.02 23.6001 115.2 23.6001C115.2 25.3101 115.2 26.9901 115.2 28.6701C115.18 32.3501 112.81 34.9101 109.47 34.8701C106.19 34.8301 103.89 32.3001 103.87 28.6801C103.86 27.0301 103.87 25.3801 103.87 23.6401H78.0701C78.0701 25.2001 78.0701 26.7401 78.0701 28.2901C78.0701 32.2701 75.8501 34.8501 72.4301 34.8801C69.0001 34.9001 66.7301 32.3101 66.7301 28.3601C66.7301 26.8101 66.7301 25.2601 66.7301 23.6301H41.2001C41.2001 25.5001 41.2601 27.4201 41.1901 29.3301C41.0401 33.2401 37.3701 35.7901 33.7201 34.5801C31.4301 33.8201 29.9301 31.7501 29.8801 29.1801C29.8401 27.3501 29.8801 25.5201 29.8801 23.4101C26.5401 23.5701 23.2801 23.3801 20.1701 23.9701C15.1001 24.9301 11.7501 29.3401 11.4601 34.6601C11.4401 35.0401 11.4401 35.4201 11.4401 35.7901C11.4401 64.7101 11.4401 93.6201 11.4401 122.54C11.4401 127.45 13.3501 131.33 17.8701 133.45C19.6001 134.26 21.6801 134.63 23.6101 134.65C37.5501 134.75 51.4901 134.71 65.4301 134.69C67.2601 134.69 68.9001 135.08 70.2101 136.42C72.9401 139.19 72.1001 143.8 68.5801 145.48C68.1601 145.68 67.7301 145.86 67.3001 146.04H20.2301C20.0201 145.95 19.8201 145.82 19.6001 145.79C11.6301 144.51 5.81009 140.23 2.33009 132.98C1.27009 130.78 0.820098 128.28 0.100098 125.92C0.100098 94.7301 0.100098 63.5501 0.100098 32.3601V32.3301Z" fill="#0E2938"/>
<path d="M108.14 146.02C104.9 145.22 101.56 144.7 98.4401 143.56C83.7201 138.17 74.3901 121.87 77.1401 106.44C79.5601 92.8401 87.3401 83.4401 100.42 79.2001C113.87 74.8401 126.03 78.0101 135.81 88.2401C144.82 97.6501 147.54 109.13 143.73 121.55C139.67 134.8 130.39 142.77 116.71 145.49C115.74 145.68 114.77 145.85 113.8 146.03H108.13L108.14 146.02ZM133.94 111.69C133.92 99.0501 123.55 88.7201 110.92 88.7601C98.3301 88.8001 88.0501 99.0901 88.0201 111.67C87.9901 124.3 98.3301 134.67 110.97 134.68C123.61 134.68 133.96 124.33 133.94 111.7V111.69Z" fill="#0E2938"/>
<path d="M41.2101 60.4101C41.2101 63.5301 38.6201 66.0801 35.5001 66.0601C32.3801 66.0301 29.8401 63.4301 29.8901 60.3101C29.9401 57.2501 32.4701 54.7501 35.5301 54.7401C38.6501 54.7301 41.2201 57.3001 41.2101 60.4101Z" fill="#0E2938"/>
<path d="M60.2601 66.0601C57.1401 66.0801 54.5601 63.5201 54.5601 60.4001C54.5601 57.2801 57.1401 54.7201 60.2501 54.7401C63.3101 54.7601 65.8401 57.2701 65.8801 60.3301C65.9201 63.4501 63.3701 66.0401 60.2601 66.0601Z" fill="#0E2938"/>
<path d="M90.5501 60.4301C90.5301 63.5501 87.9401 66.1001 84.8301 66.0601C81.7101 66.0201 79.1801 63.4201 79.2301 60.3001C79.2801 57.2401 81.8201 54.7401 84.8801 54.7401C88.0001 54.7401 90.5601 57.3101 90.5501 60.4301Z" fill="#0E2938"/>
<path d="M109.57 66.0601C106.45 66.0601 103.89 63.4901 103.9 60.3701C103.92 57.2501 106.51 54.7001 109.62 54.7401C112.68 54.7701 115.19 57.3001 115.22 60.3601C115.24 63.4801 112.68 66.0601 109.57 66.0601Z" fill="#0E2938"/>
<path d="M35.4901 79.4001C38.6101 79.3701 41.2001 81.9201 41.2101 85.0401C41.2201 88.1601 38.6501 90.7301 35.5301 90.7201C32.4701 90.7201 29.9301 88.2101 29.8801 85.1501C29.8301 82.0301 32.3701 79.4301 35.4801 79.4001H35.4901Z" fill="#0E2938"/>
<path d="M60.2501 90.7201C57.1301 90.7401 54.5501 88.1701 54.5601 85.0601C54.5601 81.9401 57.1401 79.3801 60.2601 79.4001C63.3201 79.4201 65.8501 81.9301 65.8801 84.9901C65.9201 88.1101 63.3701 90.7001 60.2501 90.7201Z" fill="#0E2938"/>
<path d="M41.2101 109.85C41.1401 112.97 38.5101 115.47 35.3901 115.39C32.2701 115.3 29.7801 112.66 29.8901 109.54C29.9901 106.48 32.5701 104.03 35.6301 104.07C38.7501 104.12 41.2701 106.73 41.2101 109.85Z" fill="#0E2938"/>
<path d="M60.2301 115.39C57.1101 115.39 54.5501 112.82 54.5601 109.7C54.5801 106.58 57.1701 104.03 60.2801 104.07C63.3401 104.1 65.8501 106.63 65.8801 109.69C65.9001 112.81 63.3401 115.39 60.2301 115.39Z" fill="#0E2938"/>
<path d="M116.63 106.06C117.75 106.06 118.65 106.01 119.54 106.06C122.6 106.27 124.91 108.77 124.86 111.78C124.82 114.73 122.52 117.21 119.51 117.32C116.54 117.43 113.56 117.43 110.59 117.32C107.7 117.2 105.42 114.9 105.34 112C105.24 107.95 105.24 103.89 105.34 99.8301C105.41 96.7501 107.95 94.4201 110.96 94.4201C113.97 94.4201 116.47 96.7501 116.61 99.8201C116.7 101.83 116.63 103.86 116.63 106.06Z" fill="#0E2938"/>
</svg>
